<svg width="179" height="134" viewBox="0 0 179 134" fill="none" xmlns="http://www.w3.org/2000/svg">
<path d="M100.323 22.6411C92.1229 41.9436 96.0695 60.095 99.0678 66.7579C101.393 67.4988 107.237 65.7659 112.018 52.9073C117.995 36.834 122.201 24.4455 116.685 14.1582C115.191 11.3724 110.574 -1.48696 100.323 22.6411Z" fill="#686868"/>
<path d="M60.5655 15.8294C51.8822 38.3076 67.6217 58.2164 73.6925 64.5654C74.9881 67.217 78.1612 70.7948 80.4886 63.8936C83.3978 55.2671 81.1382 40.1437 80.7785 36.8039C80.2748 32.1262 67.5104 -2.14891 60.5655 15.8294Z" fill="#686868"/>
<path fill-rule="evenodd" clip-rule="evenodd" d="M97.0443 32.9571C93.2666 48.5303 96.3537 62.0974 98.8072 67.6549C101.095 68.3905 106.854 66.6453 111.589 53.7802C114.226 46.6178 116.515 40.1869 117.766 34.3492L97.0443 32.9571ZM79.17 31.7563C80.1466 34.5396 80.7639 36.7809 80.8646 37.7506C80.8982 38.074 80.9492 38.508 81.0111 39.036L81.0112 39.0364C81.5886 43.9573 83.1237 57.0387 80.5196 64.8324C78.2128 71.7365 75.0963 68.1668 73.8264 65.5189C69.0978 60.4968 58.4024 46.9656 58.4622 30.3651L79.17 31.7563Z" fill="url(#paint0_linear_462_10541)"/>
<path d="M102.365 35.1369C99.9924 44.6838 100.306 58.235 100.76 63.8172C111.749 39.8446 114.189 26.0735 112.639 20.4281C111.09 14.7827 105.331 23.2034 102.365 35.1369Z" fill="#E9B68F"/>
<path d="M64.7208 23.2018C61.0505 44.2909 71.6486 57.3184 76.7871 63.2388C76.3501 32.0649 72.2023 25.1885 69.0703 21.6548C66.5974 18.8647 65.1787 21.9028 64.7208 23.2018Z" fill="#E9B68F"/>
<path d="M28.9587 60.0799C27.2521 64.4319 25.6734 68.5706 24.2227 72.4959C22.7721 76.4213 21.3641 80.2613 19.9987 84.0159C18.5481 87.7706 17.0974 91.5253 15.6467 95.2799C14.2814 99.0346 12.8307 102.875 11.2947 106.8C14.4521 106.8 17.8227 106.8 21.4067 106.8C25.0761 106.715 28.6601 106.587 32.1587 106.416L32.2867 94.1279C32.2867 92.8479 32.2014 91.2693 32.0307 89.3919C31.8601 87.4293 31.6041 85.7653 31.2627 84.3999C30.7507 82.7786 30.4521 80.9013 30.3667 78.7679C30.3667 76.6346 30.8361 75.2266 31.7747 74.5439C32.9694 73.7759 34.2921 73.7333 35.7427 74.4159C37.1934 75.0986 38.3027 75.9946 39.0707 77.1039C40.3507 79.1519 41.2894 81.6693 41.8867 84.6559C42.5694 87.6426 42.9107 90.4159 42.9107 92.9759L42.5267 106.032C43.3801 106.032 44.2334 105.989 45.0867 105.904C46.0254 105.819 46.8787 105.733 47.6467 105.648C48.0734 105.648 48.5427 105.648 49.0547 105.648C49.5667 105.563 50.0787 105.477 50.5907 105.392C51.1027 105.307 51.6147 105.264 52.1267 105.264C52.6387 105.179 53.1081 105.136 53.5347 105.136C55.2414 105.136 56.3934 105.605 56.9907 106.544C57.6734 107.397 58.0574 108.336 58.1427 109.36C58.1427 111.067 57.6734 112.347 56.7347 113.2C55.8814 114.053 54.9001 114.608 53.7907 114.864C53.5347 114.864 53.1081 114.864 52.5107 114.864C51.9987 114.779 51.4014 114.693 50.7187 114.608C49.9507 114.608 49.0974 114.608 48.1587 114.608C47.3054 114.523 46.3667 114.523 45.3427 114.608C44.8307 114.693 44.3187 114.736 43.8067 114.736C43.3801 114.736 42.9107 114.736 42.3987 114.736L42.2707 119.6C42.2707 120.88 42.1854 122.288 42.0147 123.824C41.8441 125.36 41.5454 126.811 41.1187 128.176C40.7774 129.541 40.2227 130.736 39.4547 131.76C38.6867 132.699 37.7481 133.211 36.6387 133.296C35.7854 133.381 35.0601 133.04 34.4627 132.272C33.8654 131.419 33.3961 130.395 33.0547 129.2C32.7134 128.005 32.4574 126.768 32.2867 125.488C32.2014 124.123 32.1587 122.971 32.1587 122.032V115.248C27.8067 115.504 23.4121 115.717 18.9747 115.888C14.5374 115.973 10.6121 116.016 7.19872 116.016C4.63872 116.016 2.67605 114.949 1.31072 112.816C-0.0546132 110.683 -0.35328 108.549 0.41472 106.416C2.20672 101.552 3.91339 96.9866 5.53472 92.7199C7.15605 88.4533 8.69205 84.3146 10.1427 80.3039C11.6787 76.2933 13.1721 72.3253 14.6227 68.3999C16.0734 64.4746 17.6094 60.4639 19.2307 56.3679C19.6574 55.1733 20.4254 54.2773 21.5347 53.6799C22.7294 52.9973 24.2654 52.9546 26.1427 53.5519C27.9347 54.2346 28.9161 55.2159 29.0867 56.4959C29.3427 57.6906 29.3001 58.8853 28.9587 60.0799Z" fill="#5D5D5D"/>
<path d="M115.964 93.8719C115.964 99.2479 115.494 104.325 114.556 109.104C113.617 113.883 112.081 118.064 109.948 121.648C107.814 125.232 105.041 128.048 101.628 130.096C98.2144 132.144 94.0757 133.168 89.2117 133.168C83.8357 133.168 79.3557 132.144 75.7717 130.096C72.2731 128.048 69.4571 125.232 67.3237 121.648C65.1904 118.064 63.6544 113.883 62.7157 109.104C61.8624 104.325 61.4357 99.2479 61.4357 93.8719C61.4357 88.4959 61.8624 83.4186 62.7157 78.6399C63.6544 73.8613 65.1904 69.6799 67.3237 66.0959C69.4571 62.5119 72.3157 59.6533 75.8997 57.5199C79.4837 55.3866 83.9211 54.3199 89.2117 54.3199C94.0757 54.3199 98.2144 55.3866 101.628 57.5199C105.041 59.6533 107.814 62.5119 109.948 66.0959C112.081 69.6799 113.617 73.8613 114.556 78.6399C115.494 83.4186 115.964 88.4959 115.964 93.8719ZM105.212 93.8719C105.212 90.0319 104.956 86.3199 104.444 82.7359C103.932 79.1519 103.078 75.9946 101.884 73.2639C100.689 70.5333 99.0251 68.3573 96.8917 66.7359C94.8437 65.1146 92.2837 64.3039 89.2117 64.3039C85.7131 64.3039 82.8544 65.1146 80.6357 66.7359C78.4171 68.3573 76.7104 70.5333 75.5157 73.2639C74.2357 75.9946 73.3397 79.1519 72.8277 82.7359C72.4011 86.3199 72.1877 90.0319 72.1877 93.8719C72.1877 97.7973 72.3584 101.552 72.6997 105.136C73.1264 108.635 73.9371 111.707 75.1317 114.352C76.4117 117.083 78.1611 119.259 80.3797 120.88C82.5984 122.416 85.5424 123.184 89.2117 123.184C92.2837 123.184 94.8437 122.416 96.8917 120.88C99.0251 119.259 100.689 117.083 101.884 114.352C103.078 111.707 103.932 108.635 104.444 105.136C104.956 101.552 105.212 97.7973 105.212 93.8719Z" fill="#5D5D5D"/>
<path d="M149.209 60.0799C147.502 64.4319 145.923 68.5706 144.473 72.4959C143.022 76.4213 141.614 80.2613 140.249 84.0159C138.798 87.7706 137.347 91.5253 135.897 95.2799C134.531 99.0346 133.081 102.875 131.545 106.8C134.702 106.8 138.073 106.8 141.657 106.8C145.326 106.715 148.91 106.587 152.409 106.416L152.537 94.1279C152.537 92.8479 152.451 91.2693 152.281 89.3919C152.11 87.4293 151.854 85.7653 151.513 84.3999C151.001 82.7786 150.702 80.9013 150.617 78.7679C150.617 76.6346 151.086 75.2266 152.025 74.5439C153.219 73.7759 154.542 73.7333 155.993 74.4159C157.443 75.0986 158.553 75.9946 159.321 77.1039C160.601 79.1519 161.539 81.6693 162.137 84.6559C162.819 87.6426 163.161 90.4159 163.161 92.9759L162.777 106.032C163.63 106.032 164.483 105.989 165.337 105.904C166.275 105.819 167.129 105.733 167.897 105.648C168.323 105.648 168.793 105.648 169.305 105.648C169.817 105.563 170.329 105.477 170.841 105.392C171.353 105.307 171.865 105.264 172.377 105.264C172.889 105.179 173.358 105.136 173.785 105.136C175.491 105.136 176.643 105.605 177.241 106.544C177.923 107.397 178.307 108.336 178.393 109.36C178.393 111.067 177.923 112.347 176.985 113.2C176.131 114.053 175.15 114.608 174.041 114.864C173.785 114.864 173.358 114.864 172.761 114.864C172.249 114.779 171.651 114.693 170.969 114.608C170.201 114.608 169.347 114.608 168.409 114.608C167.555 114.523 166.617 114.523 165.593 114.608C165.081 114.693 164.569 114.736 164.057 114.736C163.63 114.736 163.161 114.736 162.649 114.736L162.521 119.6C162.521 120.88 162.435 122.288 162.265 123.824C162.094 125.36 161.795 126.811 161.369 128.176C161.027 129.541 160.473 130.736 159.705 131.76C158.937 132.699 157.998 133.211 156.889 133.296C156.035 133.381 155.31 133.04 154.713 132.272C154.115 131.419 153.646 130.395 153.305 129.2C152.963 128.005 152.707 126.768 152.537 125.488C152.451 124.123 152.409 122.971 152.409 122.032V115.248C148.057 115.504 143.662 115.717 139.225 115.888C134.787 115.973 130.862 116.016 127.449 116.016C124.889 116.016 122.926 114.949 121.561 112.816C120.195 110.683 119.897 108.549 120.665 106.416C122.457 101.552 124.163 96.9866 125.785 92.7199C127.406 88.4533 128.942 84.3146 130.393 80.3039C131.929 76.2933 133.422 72.3253 134.873 68.3999C136.323 64.4746 137.859 60.4639 139.481 56.3679C139.907 55.1733 140.675 54.2773 141.785 53.6799C142.979 52.9973 144.515 52.9546 146.393 53.5519C148.185 54.2346 149.166 55.2159 149.337 56.4959C149.593 57.6906 149.55 58.8853 149.209 60.0799Z" fill="#5D5D5D"/>
<defs>
<linearGradient id="paint0_linear_462_10541" x1="84.5847" y1="78.6422" x2="87.696" y2="32.3291" gradientUnits="userSpaceOnUse">
<stop stop-color="#545454"/>
<stop offset="1" stop-color="#686868"/>
</linearGradient>
</defs>
</svg>
