<svg width="263" height="361" viewBox="0 0 263 361" fill="none" xmlns="http://www.w3.org/2000/svg">
<path d="M60.0078 308.924C64.5134 302.328 71.1273 306.176 73.8711 308.924C77.6257 310.515 82.8822 314.913 73.8711 319.773C62.6072 325.849 54.3759 317.169 60.0078 308.924Z" fill="#686868"/>
<path fill-rule="evenodd" clip-rule="evenodd" d="M73.9579 309.094C71.2141 306.346 64.6002 302.498 60.0946 309.094C54.4627 317.34 62.694 326.019 73.9579 319.943C82.969 315.083 77.7125 310.686 73.9579 309.094Z" fill="url(#paint0_linear_75_1878)"/>
<path d="M81.7098 345.746C57.1282 306.697 78.2957 249.478 91.9522 225.75C109.706 197.276 141.739 159.704 167.746 223.716C202.539 309.358 180.719 335.577 175.939 349.814C177.988 351.17 181.675 354.695 180.036 357.949C177.988 362.017 139.067 362.017 134.97 357.949C131.693 354.695 133.604 334.899 134.97 325.408C130.054 327.035 123.362 326.086 120.631 325.408V357.949C120.631 362.017 85.8068 362.017 77.613 357.949C71.0579 354.695 77.6129 348.458 81.7098 345.746Z" fill="#686868"/>
<rect width="60.6519" height="13.019" transform="matrix(0.998772 -0.0495519 0.0493831 0.99878 103.913 227.981)" fill="url(#paint1_linear_75_1878)"/>
<path d="M127.895 35.5213C116.65 77.9674 130.199 114.43 138.378 127.355C143.408 128.203 154.989 122.879 161.068 94.8053C168.668 59.7125 173.698 32.7832 159.234 13.0892C155.318 7.75608 141.95 -17.5363 127.895 35.5213Z" fill="#686868"/>
<path d="M43.594 33.1915C32.2801 82.363 70.7464 118.965 85.1891 130.326C88.6554 135.438 96.2811 141.914 99.0541 126.917C102.52 108.172 93.3665 77.4922 91.6334 70.6758C89.2059 61.1285 52.643 -6.13653 43.594 33.1915Z" fill="#686868"/>
<path fill-rule="evenodd" clip-rule="evenodd" d="M124.155 57.8789C120.948 91.2812 131.354 118.489 138.076 129.282C143.028 130.128 154.428 124.802 160.42 96.7291C163.755 81.1004 166.589 67.0909 167.448 54.6189L124.155 57.8789ZM86.8105 60.6909C89.6553 66.1705 91.5961 70.6333 92.0917 72.6134C92.257 73.2739 92.4909 74.1586 92.7755 75.2347L92.7756 75.2353C95.4276 85.2649 102.477 111.927 99.3961 128.855C96.6666 143.851 89.1603 137.376 85.7484 132.263C74.4761 123.255 48.3368 98.3782 43.5453 63.9488L86.8105 60.6909Z" fill="url(#paint2_linear_75_1878)"/>
<path d="M135.812 60.8169C133.728 81.3108 138.389 109.309 140.981 120.746C156.623 67.7927 157.597 38.522 152.718 27.279C147.84 16.0359 138.416 35.1995 135.812 60.8169Z" fill="#E9B68F"/>
<path d="M54.3759 47.2415C53.0247 92.0467 78.8136 115.909 91.2002 126.658C81.0659 62.1652 70.4465 49.1408 62.9188 42.7445C56.9753 37.6942 54.9389 44.4129 54.3759 47.2415Z" fill="#E9B68F"/>
<path d="M39.2115 270.317C45.7185 250.67 79.1321 231.308 93.3663 225.168C99.4666 234.037 104.689 257.219 90.0479 270.317C74.8668 283.899 59.6852 283.398 56.111 282.832C58.4922 284.384 62.8831 293.198 55.4789 296.924C48.9718 300.198 48.7007 291.466 49.3785 286.691C48.7007 291.466 46.8506 291.57 43.8602 292.069C35.0545 293.54 38.0916 284.024 39.9117 280.603C36.81 282.314 27.3389 283.323 29.0442 276.457C30.6709 269.908 36.5002 269.635 39.2115 270.317Z" fill="#686868"/>
<path d="M230.126 213.315C211.081 205.278 174.529 217.71 160.542 224.394C163.186 234.834 177.159 254.039 196.641 251.631C216.843 249.135 226.466 237.362 228.395 234.296C227.992 237.112 231.72 246.227 239.396 243.101C246.142 240.353 239.761 234.397 235.728 231.762C240.234 233.656 246.323 236.357 247.03 227.145C247.365 222.782 242.391 220.472 239.56 219.836C242.563 218.347 247.385 212.762 241.435 209.696C235.444 206.608 231.399 210.822 230.126 213.315Z" fill="#686868"/>
<path d="M55.6755 162.271C66.3222 124.56 89.5643 111.843 107.229 108.431C167.739 98.8357 182.649 122.843 198.356 154.081C213.37 183.941 194.279 227.791 129.054 229.839C63.8287 231.886 44.4117 202.168 55.6755 162.271Z" fill="#686868"/>
<path d="M151.816 139.94C140.117 137.825 134.243 148.92 134.533 155.806C134.533 170.486 157.025 165.412 161.017 162.149C165.611 158.396 166.441 142.585 151.816 139.94Z" fill="#FFFEF3"/>
<path d="M194.308 170.922C203.681 168.2 225.642 163.571 238.497 166.838" stroke="#545454" stroke-width="2" stroke-linecap="round"/>
<path d="M191.709 162.243C198.549 156.842 215.924 145.636 230.699 144.016" stroke="#545454" stroke-width="2" stroke-linecap="round"/>
<path d="M194.308 178.734C201.721 180.795 219.377 186.979 230.699 195.224" stroke="#545454" stroke-width="2" stroke-linecap="round"/>
<path d="M67.8059 196.96C61.0668 200.41 44.3539 210.62 31.4149 223.866" stroke="#545454" stroke-width="2" stroke-linecap="round"/>
<path d="M67.8059 189.149C57.5818 189.149 33.0438 190.711 16.6852 196.96" stroke="#545454" stroke-width="2" stroke-linecap="round"/>
<path d="M67.8059 178.734C59.6746 176.167 37.72 171.419 14.9523 172.959" stroke="#545454" stroke-width="2" stroke-linecap="round"/>
<path d="M42.3649 266.108C61.7735 236.945 82.1024 227.483 91.6334 226.47L136.689 240.791C140.444 240.212 153.151 235.236 173.946 219.961C194.741 204.685 218.741 209.215 228.272 212.686C229.312 216.505 226.8 228.64 225.933 235.149C205.139 258.15 184.921 253.521 176.546 245.999C191.795 280.022 191.564 305.597 189.542 314.132C128.544 324.547 83.5465 318.471 68.6724 314.132C67.3413 304.131 70.9628 282.528 72.4039 280.823C66.5536 284.517 59.9832 283.602 57.4085 282.886C48.0508 277.331 44.6755 269.579 42.3649 266.108Z" fill="#F3D666"/>
<path d="M131.581 176.739C132.333 179.438 133.386 185.613 131.581 188.722" stroke="#E9B68F" stroke-width="2" stroke-linecap="round"/>
<path d="M100.062 147.665C111.12 141.548 120.761 150.451 122.786 157.333C128.568 174.263 102.115 172.542 97.8154 171.709C91.6568 170.517 86.2388 155.311 100.062 147.665Z" fill="#FFFEF3"/>
<path d="M104.295 168.886C106.824 170.264 107.95 170.067 110.891 169.788C113.272 169.18 115.604 168.995 116.983 166.789C119.835 162.226 117.358 155.78 112.451 153.939C107.973 152.258 100.855 156.178 100.665 161.296C100.547 164.492 101.278 167.242 104.295 168.886Z" fill="#545454"/>
<path d="M102.574 161.034C103.517 161.98 104.026 162.022 105.33 162.243C106.428 162.243 107.42 162.031 108.26 161.165C109.997 159.373 109.674 156.469 107.752 155.023C105.998 153.703 102.485 154.685 101.839 157.054C101.436 158.533 101.449 159.906 102.574 161.034Z" fill="#FFFEF3"/>
<path d="M143.15 162.978C145.708 164.365 146.846 164.164 149.818 163.876C152.223 163.257 154.58 163.065 155.968 160.833C158.842 156.215 156.326 149.706 151.363 147.855C146.833 146.165 139.648 150.14 139.466 155.313C139.353 158.544 140.098 161.322 143.15 162.978Z" fill="#545454"/>
<path d="M72.3987 281.15C76.2111 260.667 86.4063 236.162 91.0274 226.47C82.3629 227.164 74.998 231.388 72.3987 233.414C64.0807 246.953 68.9329 270.879 72.3987 281.15Z" fill="#B3D6B0"/>
<path d="M72.5714 280.716C65.6397 249.818 69.6832 236.307 72.5714 233.414C66.6795 236.191 60.2966 241.514 57.8417 243.829C53.6827 260.84 63.0404 276.955 68.2391 282.886C70.3186 282.192 71.9937 281.15 72.5714 280.716Z" fill="#B1AFC3"/>
<path d="M47.8775 253.376C51.3433 248.863 55.9644 245.131 57.8417 243.829C54.3759 259.452 63.3292 276.376 68.2391 282.886C65.1199 283.927 62.896 283.898 62.1739 283.754C50.0436 271.256 47.5887 258.294 47.8775 253.376Z" fill="#E9B68F"/>
<path d="M38.3777 269.103C41.1503 264.243 46.0002 255.546 47.8775 253.376C47.8775 266.222 57.4085 278.98 62.174 283.754C59.7479 283.754 57.9861 283.465 57.4085 283.32C47.3491 279.089 40.5438 272.575 38.3777 269.103Z" fill="#FFFEF3"/>
<path d="M136.256 239.055C131.404 239.055 116.616 232.835 111.995 229.508C103.33 228.64 95.0992 226.904 89.9005 226.036C100.298 238.187 122.826 243.395 134.523 250.338C143.88 255.893 175.679 222.998 168.748 220.829L162.249 223.866L154.884 226.47C151.419 230.81 141.108 239.055 136.256 239.055Z" fill="#EEECDD"/>
<path d="M158.35 243.829C150.379 240.357 140.588 245.275 136.689 248.169V254.678C144.487 259.018 160.17 265.874 160.516 258.584C160.863 251.293 159.217 245.709 158.35 243.829Z" fill="#9A97B6"/>
<path d="M112.861 275.942C113.901 260.32 123.403 251.496 128.024 249.036H132.594C133.782 248.831 134.895 248.862 135.822 249.036H132.594C127.864 249.853 121.959 254.412 121.959 268.565C121.959 290.697 121.959 295.037 117.194 294.603C112.428 294.169 111.562 295.471 112.861 275.942Z" fill="#B1AFC3"/>
<path d="M119.36 275.075C119.36 254.591 126.58 250.338 130.19 250.772C120.66 259.018 127.158 303.716 126.725 305.018C126.291 306.32 119.36 306.32 117.627 305.018C115.894 303.716 119.36 300.679 119.36 275.075Z" fill="#9A97B6"/>
<path d="M126.291 248.169C126.638 245.391 131.057 244.986 133.223 245.131C136.689 245.131 137.844 247.156 137.989 248.169C139.722 255.546 139.722 259.452 133.223 260.754C126.725 262.055 125.858 251.64 126.291 248.169Z" fill="#B1AFC3"/>
<path d="M136.642 168.862C131.828 167.283 126.614 169.519 124.608 170.835C120.597 172.809 126.614 176.756 128.619 178.73C130.224 180.309 133.299 179.388 134.636 178.73C137.31 176.098 141.455 170.44 136.642 168.862Z" fill="#E9B68F"/>
<path d="M140.698 155.827C141.641 156.772 142.15 156.815 143.454 157.035C144.552 157.035 145.544 156.823 146.383 155.957C148.121 154.165 147.797 151.261 145.876 149.815C144.122 148.495 140.609 149.477 139.963 151.846C139.559 153.326 139.573 154.698 140.698 155.827Z" fill="#FFFEF3"/>
<path d="M119.498 195.833C120.851 193.82 125.384 189.598 132.689 188.818C139.993 188.038 142.646 190.354 143.059 191.609" stroke="#E9B68F" stroke-width="2" stroke-linecap="round"/>
<path d="M168.314 221.696C169.354 222.738 174.235 238.621 176.546 246.433C177.932 248.168 181.167 249.47 182.611 249.904C185.73 240.878 186.221 221.552 186.077 213.017C181.744 213.017 167.015 220.395 168.314 221.696Z" fill="#B3D6B0"/>
<path d="M194.308 253.376C188.763 252.682 184.199 250.772 182.611 249.904C185.383 239.142 186.077 220.829 186.077 213.017C190.582 210.587 198.351 209.401 201.673 209.111C205.139 218.832 198.207 242.672 194.308 253.376Z" fill="#B1AFC3"/>
<path d="M209.038 250.772C201.759 253.55 196.185 253.665 194.308 253.376C202.626 229.421 202.684 213.885 201.673 209.111C207.218 208.07 214.381 208.388 217.269 208.677C221.428 219.093 214.67 241.225 209.038 250.772Z" fill="#E9B68F"/>
<path d="M228.272 235.153C226.193 240.361 214.092 248.024 209.038 250.772C220.128 226.817 219.146 212.728 217.269 208.677C223.854 209.025 229.255 211.963 230.266 212.686C231.999 223.536 228.272 234.719 228.272 235.153Z" fill="#FFFEF3"/>
<path d="M88.5708 143.846C93.0915 142.849 97.1888 140.385 100.145 138.05C100.995 137.378 102.259 138.243 101.701 139.172C98.1214 145.14 92.7263 146.242 88.3865 145.659C87.3088 145.514 87.5089 144.08 88.5708 143.846Z" fill="#545454"/>
<path d="M165.619 138.853C161.098 137.856 157.001 135.393 154.045 133.057C153.194 132.385 151.931 133.25 152.488 134.18C156.068 140.147 161.463 141.25 165.803 140.666C166.881 140.521 166.681 139.088 165.619 138.853Z" fill="#545454"/>
<path d="M245.008 200.845L230.343 245.404C230.292 245.558 230.279 245.725 230.311 245.884C231.167 250.128 235.117 249.39 237.347 248.334C237.602 248.213 237.781 247.978 237.848 247.704L249.018 202.463C249.128 202.016 249.527 201.706 249.986 201.677C253.386 201.466 259.455 199.88 261.666 194.713C264.656 187.723 262.164 182.231 258.675 180.234C255.186 178.237 244.72 176.24 240.732 185.227C237.767 191.911 242.326 197.53 244.717 199.758C245.015 200.036 245.135 200.458 245.008 200.845Z" fill="#B3BAC6"/>
<path d="M239.237 222.672C240.234 221.174 243.723 220.175 245.218 223.171L245.218 226.666L243.225 229.162L243.723 233.156L241.231 233.656C235.25 232.657 237.132 225.835 239.237 222.672Z" fill="#686868"/>
<path d="M239.237 233.156C241.63 233.156 243.225 234.654 243.225 236.651C243.225 238.149 242.726 242.143 239.237 243.142C234.951 244.368 233.755 241.644 233.256 240.146C232.758 238.648 236.247 233.156 239.237 233.156Z" fill="#686868"/>
<path d="M55.7709 302.408L23.8071 268.465C23.7058 268.357 23.5376 268.343 23.4132 268.422C16.4449 272.878 8.90551 262.456 5.90082 256.484C5.85241 256.388 5.86146 256.276 5.92128 256.187L7.61318 253.656C7.69967 253.527 7.87061 253.485 8.00683 253.56L16.2213 258.092C16.5194 258.257 16.817 257.875 16.5858 257.625L10.7582 251.32C10.6386 251.191 10.6554 250.987 10.7945 250.879L12.8573 249.279C12.9593 249.2 13.1005 249.195 13.2078 249.267L20.9653 254.471C21.2343 254.652 21.5583 254.336 21.3856 254.062L17.0573 247.184C16.9714 247.047 17.0086 246.867 17.1415 246.776L18.951 245.535C19.0521 245.466 19.1836 245.464 19.2847 245.533C21.7069 247.197 26.8195 251.506 29.1861 256.381C31.4661 261.079 28.7029 264.415 26.7546 265.711C26.5841 265.825 26.5586 266.072 26.7111 266.208L60.7837 296.785C60.8528 296.847 60.8898 296.938 60.8806 297.031C60.5791 300.035 57.6804 301.866 56.0865 302.483C55.976 302.525 55.8522 302.494 55.7709 302.408Z" fill="#B3BAC6"/>
<path d="M28.9078 277.591C28.9078 273.625 31.8564 271.135 33.8498 270.612C33.8782 270.604 33.9058 270.602 33.9351 270.603C37.4357 270.781 44.0729 272.458 42.3649 277.591C39.8729 285.08 28.9078 282.112 28.9078 277.591Z" fill="#686868"/>
<path d="M41.3681 282.583C38.9757 281.785 37.547 283.249 37.3808 284.081C37.2447 284.763 36.4837 285.279 36.8824 288.075C37.3808 291.57 41.8665 293.068 44.857 293.068C47.8475 293.068 47.8475 289.573 47.3491 287.077C46.8506 284.58 44.3586 283.582 41.3681 282.583Z" fill="#686868"/>
<path d="M44.482 297.318C42.8454 294.747 44.8229 292.574 46.0163 291.809C50.6192 290.891 52.38 292.675 52.806 296.25C53.2987 300.384 46.5277 300.532 44.482 297.318Z" fill="#686868"/>
<path d="M244.72 215.682C245.284 212.858 244.221 210.689 240.234 209.192C237.41 212.354 233.555 219.476 236.745 220.675C240.732 222.172 244.221 218.178 244.72 215.682Z" fill="#686868"/>
<defs>
<linearGradient id="paint0_linear_75_1878" x1="79.1566" y1="312.132" x2="56.6288" y2="312.132" gradientUnits="userSpaceOnUse">
<stop stop-color="#545454"/>
<stop offset="1" stop-color="#686868" stop-opacity="0"/>
</linearGradient>
<linearGradient id="paint1_linear_75_1878" x1="30.326" y1="0" x2="30.326" y2="13.019" gradientUnits="userSpaceOnUse">
<stop stop-color="#545454"/>
<stop offset="1" stop-color="#686868" stop-opacity="0"/>
</linearGradient>
<linearGradient id="paint2_linear_75_1878" x1="111.897" y1="156.276" x2="104.599" y2="59.3515" gradientUnits="userSpaceOnUse">
<stop stop-color="#545454"/>
<stop offset="1" stop-color="#686868"/>
</linearGradient>
</defs>
</svg>
