<svg width="30" height="28" viewBox="0 0 30 28" fill="none" xmlns="http://www.w3.org/2000/svg">
<path d="M26.4601 12.5C26.4286 12.7848 25.2443 16.0973 25.1497 16.382C25.0552 16.6668 22.6282 19.1664 22.3445 19.5778C22.0608 19.9891 19.161 21.4762 19.161 21.5711C19.161 21.6661 18.8143 22.3305 18.6252 22.4887C18.4361 22.6469 16.1352 22.8051 15.946 22.7419C15.7569 22.6786 12.2583 22.4887 12.1007 22.2672C11.9431 22.0458 12.0692 21.7926 11.8485 21.7293C11.6279 21.6661 7.68795 19.293 7.34123 19.0399C6.99452 18.7867 4.91424 16.7617 4.50448 16.0024C4.17668 15.3949 3.38029 13.1969 3.02307 12.1738L3.46008 10.2439L3.17634 11.169C3.06783 11.5227 3.16354 11.9075 3.42514 12.1692L4.31537 13.0598L6.01742 14.0406L8.63353 14.9266L13.2354 15.4645L17.3959 15.591L20.3903 15.0848C21.6406 14.7578 24.368 13.9963 25.2758 13.566C26.1836 13.1357 26.2815 12.8586 26.4601 12.5ZM26.4601 12.5C26.4853 12.2722 26.5126 12.4684 26.4601 12.5Z" stroke="#E9B68F" stroke-linejoin="round"/>
<path d="M3.80749 12.5285C3.20657 12.0199 3.09807 11.4266 3.11894 11.1935C3.11894 10.7867 3.47365 10.1976 3.651 9.95389C5.46629 8.33282 5.09071 7.0614 10.6305 6.42569C16.1702 5.78997 16.3893 5.88533 18.8931 6.58461C21.397 7.2839 25.6535 8.77782 26.4046 10.0175C27.0056 11.0092 26.7176 11.9564 26.4985 12.306C25.4657 13.8635 23.4939 13.9907 21.5534 14.6899C19.613 15.3892 16.2641 15.5164 15.9198 15.5481C15.5755 15.5799 11.5068 15.4528 8.65868 14.8171C5.81056 14.1814 4.55864 13.1642 3.80749 12.5285Z" stroke="#E9B68F"/>
</svg>
