<svg width="134" height="95" viewBox="0 0 134 95" fill="none" xmlns="http://www.w3.org/2000/svg">
<path d="M9.45348 57.4629C7.65927 54.0865 3.30027 41.8703 1.34504 36.1843L1 34.4257L1.34504 34.074L2.20764 35.305L8.41836 41.1082L17.7344 46.5598L32.0536 51.4838L57.2415 54.4734L80.0142 55.1768L96.4036 52.3631C103.247 50.5459 118.176 46.3136 123.144 43.922C128.113 41.5303 131.31 36.9463 132.288 34.9533C132.575 34.7774 133.116 34.7422 132.978 36.0084C132.805 37.5911 122.972 57.9905 122.454 59.5732C121.937 61.1559 108.653 75.0486 107.1 77.3347C105.547 79.6209 89.6753 87.8862 89.6753 88.4137C89.6753 88.9413 87.7776 92.6343 86.7425 93.5136C85.7073 94.3929 73.1134 95.2721 72.0783 94.9204C71.0431 94.5687 51.8934 93.5136 51.0308 92.2826C50.1682 91.0516 50.8583 89.6447 49.6507 89.293C48.443 88.9413 26.878 75.752 24.9803 74.3452C23.0826 72.9383 11.6962 61.6835 9.45348 57.4629Z" fill="#EEECDD"/>
<path d="M26.8094 51.2563C13.1333 47.4607 4.35785 39.2487 1.67961 35.6171C0.448767 32.665 1.16676 28.9983 1.67961 27.5339C1.67961 25.601 13.9881 10.1375 22.0228 7.32597C30.0575 4.51443 58.0934 1 71.4276 1C84.7618 1 119.465 14.1791 125.448 18.3964C131.431 22.6137 134.679 29.4668 132.115 36.6714C129.551 43.876 118.439 46.8633 104.079 51.432C92.5913 55.087 77.5249 56.4693 71.4276 56.7036C62.2533 56.4693 40.4855 55.0519 26.8094 51.2563Z" fill="#B1AFC3" stroke="#B1AFC3"/>
<path d="M5.63875 38.1555C2.34964 35.3289 1.75577 32.0312 1.86997 30.7357C1.86997 28.4745 3.81147 25.2003 4.78221 23.8459C14.7181 14.8362 12.6624 7.76976 42.9839 4.23653C73.3053 0.703303 74.5045 1.23329 88.2091 5.11984C101.914 9.00638 125.212 17.3095 129.323 24.1993C132.612 29.7111 131.036 34.9756 129.837 36.9189C124.184 45.5753 113.391 46.2819 102.77 50.1685C92.1492 54.055 73.8193 54.7617 71.9349 54.9383C70.0505 55.115 47.7805 54.4083 32.1915 50.8751C16.6025 47.3419 9.75013 41.6887 5.63875 38.1555Z" fill="#EEECDD" stroke="#B1AFC3"/>
<path d="M51.5714 89.7776C54.4049 90.2326 62.4862 91.0062 72.1428 90.4601" stroke="#B1AFC3" stroke-linecap="round"/>
<path d="M87.5715 88.9072C85.897 89.1973 82.01 89.7776 79.8572 89.7776" stroke="#B1AFC3" stroke-linecap="round"/>
</svg>
