<svg width="21" height="71" viewBox="0 0 21 71" fill="none" xmlns="http://www.w3.org/2000/svg">
<path d="M16.586 69.264L14.3191 22.5872C14.3119 22.4396 14.4182 22.3084 14.5618 22.2738C22.6249 20.3301 20.3465 7.64251 18.1257 1.32344C18.09 1.22187 18.0033 1.15106 17.8973 1.13222L14.8935 0.598374C14.7403 0.571144 14.5917 0.665584 14.5513 0.81586L12.1078 9.90535C12.0193 10.2342 11.5382 10.1848 11.5185 9.84481L11.0207 1.24947C11.0105 1.07367 10.8518 0.944405 10.6776 0.969999L8.08699 1.35058C7.95923 1.36934 7.85782 1.46776 7.83522 1.59489L6.19562 10.8204C6.13892 11.1395 5.68677 11.1545 5.60901 10.8399L3.65413 2.93167C3.61543 2.7751 3.45986 2.67715 3.30194 2.70992L1.14727 3.15706C1.02715 3.18199 0.934498 3.27528 0.914348 3.39628C0.430425 6.30222 -0.0158535 12.9906 1.85715 18.0871C3.66166 22.9972 7.99234 23.3158 10.2826 22.8069C10.4827 22.7624 10.6781 22.9149 10.6708 23.1197L9.04137 68.9839C9.03808 69.0766 9.07808 69.1665 9.15101 69.2238C11.5295 71.0925 14.8671 70.2672 16.4209 69.5432C16.5283 69.4932 16.5917 69.3824 16.586 69.264Z" fill="#B3BAC6"/>
</svg>
