<svg width="140" height="140" viewBox="0 0 140 140" fill="none" xmlns="http://www.w3.org/2000/svg">
<g clip-path="url(#clip0_5_2406)">
<path d="M9.98826 85.2651C8.10822 81.7809 3.54068 69.1748 1.49192 63.3073L1.13037 61.4926L1.49192 61.1296L2.39578 62.3999L8.90362 68.3884L18.6654 74.014L33.6696 79.0951L60.0625 82.1801L83.9246 82.906L101.098 80.0025C108.269 78.1273 123.912 73.7599 129.118 71.2919C134.324 68.8239 137.674 64.0936 138.699 62.037C139 61.8555 139.567 61.8192 139.422 63.1258C139.241 64.759 128.937 85.8095 128.395 87.4427C127.852 89.0759 113.933 103.412 112.306 105.771C110.679 108.13 94.0479 116.659 94.0479 117.204C94.0479 117.748 92.0594 121.559 90.9747 122.466C89.8901 123.374 76.6936 124.281 75.609 123.918C74.5243 123.555 54.4585 122.466 53.5546 121.196C52.6508 119.926 53.3739 118.474 52.1085 118.111C50.843 117.748 28.2464 104.138 26.2579 102.686C24.2694 101.234 12.3383 89.6203 9.98826 85.2651Z" fill="#EEECDD"/>
<path d="M28.1745 78.8603C13.8442 74.9435 4.64886 66.4694 1.8425 62.7219C0.552768 59.6756 1.30511 55.8918 1.8425 54.3808C1.8425 52.3861 14.7398 36.4291 23.1589 33.5279C31.5779 30.6266 60.9551 27 74.9272 27C88.8993 27 125.263 40.5997 131.532 44.9516C137.802 49.3035 141.205 56.3754 138.518 63.8099C135.831 71.2444 124.188 74.327 109.141 79.0416C97.1034 82.8132 81.3162 84.2397 74.9272 84.4815C65.3139 84.2397 42.5048 82.777 28.1745 78.8603Z" fill="#E9B68F" stroke="#E9B68F"/>
<path d="M5.99117 65.3411C2.54471 62.4243 1.92243 59.0214 2.0421 57.6845C2.0421 55.3511 4.07647 51.9725 5.09366 50.5748C15.5048 41.2775 13.3508 33.9856 45.1228 30.3396C76.8949 26.6936 78.1514 27.2405 92.5117 31.2511C106.872 35.2617 131.284 43.8297 135.592 50.9394C139.039 56.6272 137.387 62.0597 136.131 64.065C130.207 72.9977 118.899 73.7269 107.769 77.7375C96.6402 81.7481 77.4334 82.4773 75.4589 82.6596C73.4843 82.8419 50.1489 82.1127 33.8142 78.4667C17.4794 74.8207 10.2992 68.9871 5.99117 65.3411Z" fill="#EEECDD" stroke="#E9B68F"/>
<path d="M54.1211 118.611C57.0902 119.081 65.558 119.879 75.6766 119.315" stroke="#E9B68F" stroke-linecap="round"/>
<path d="M91.8433 117.713C90.0888 118.012 86.0158 118.611 83.76 118.611" stroke="#E9B68F" stroke-linecap="round"/>
<path d="M92.5636 18.1434C92.4827 26.3004 92.2894 42.895 92.1643 44.0172L83.1981 54.379L87.9644 21.1811L92.5636 18.1434Z" fill="#81B152"/>
<path d="M120.123 15.9771L110.654 36.2272L96.5814 48.7311L91.0727 47.1423L114.057 13.4695L120.123 15.9771Z" fill="#4D8A18"/>
<path d="M50.7616 98.2521C51.3931 105.827 59.0958 106.564 62.8682 105.985L94.5496 52.5349L137.531 21.0077L139.403 15.1995L115.627 31.0111L139.833 11.3419L136.003 7.96343L101.326 31.902C101.944 25.0682 108.099 7.68289 107.659 6.41051C107.219 5.13814 103.881 5.53477 102.266 5.89214L90.7809 41.6288C77.178 57.3469 50.1301 90.6768 50.7616 98.2521Z" fill="#8CC638"/>
<path fill-rule="evenodd" clip-rule="evenodd" d="M90.9611 58.5948L62.9603 106.203C59.1879 106.782 51.9617 105.982 50.8537 98.47C49.9655 92.4482 68.038 68.8595 82.1146 51.8354L90.9611 58.5948Z" fill="url(#paint0_linear_5_2406)"/>
<path d="M69.3118 7.88607L62.2212 24.4682L62.2652 39.6552L66.1824 42.1148L74.0814 10.1871L69.3118 7.88607Z" fill="#4D8A18"/>
<path d="M54.7815 98.2312C50.4901 101.417 46.3402 97.5855 44.8017 95.2714L57.4285 53.2045L53.0088 15.2246L60.6138 9.97714L64.2973 35.6122C67.5887 32.0943 74.3923 24.9698 75.2761 24.6155C76.1599 24.2611 77.5823 26.2555 78.1831 27.2969L65.0038 50.1672C63.3845 64.861 59.073 95.045 54.7815 98.2312Z" fill="#8CC638"/>
<path fill-rule="evenodd" clip-rule="evenodd" d="M55.9954 57.9718L44.6423 95.3227C46.1808 97.6369 50.1312 101.181 54.6221 98.2825C58.2221 95.959 61.7963 75.1768 63.871 59.618L55.9954 57.9718Z" fill="url(#paint1_linear_5_2406)"/>
<path d="M9.98826 85.1354C8.10822 81.6512 3.54068 69.0451 1.49192 63.1776L1.13037 61.3629L1.49192 61L2.39578 62.2703L8.90362 68.2588L18.6654 73.8843L33.6696 78.9655L60.0625 82.0505L83.9246 82.7763L101.098 79.8728C108.269 77.9976 123.912 73.6303 129.118 71.1623C134.324 68.6943 137.674 63.964 138.699 61.9073C139 61.7259 139.567 61.6896 139.422 62.9962C139.241 64.6294 128.937 85.6798 128.395 87.3131C127.852 88.9463 113.933 103.282 112.306 105.641C110.679 108.001 94.0479 116.53 94.0479 117.074C94.0479 117.618 92.0594 121.429 90.9747 122.337C89.8901 123.244 76.6936 124.151 75.609 123.788C74.5243 123.425 54.4585 122.337 53.5546 121.066C52.6508 119.796 53.3739 118.344 52.1085 117.981C50.843 117.618 28.2464 104.008 26.2579 102.556C24.2694 101.105 12.3383 89.4907 9.98826 85.1354Z" fill="#EEECDD"/>
<path d="M54.1211 118.481C57.0902 118.951 65.558 119.749 75.6766 119.186" stroke="#E9B68F" stroke-linecap="round"/>
<path d="M91.8433 117.583C90.0888 117.883 86.0158 118.481 83.76 118.481" stroke="#E9B68F" stroke-linecap="round"/>
<path fill-rule="evenodd" clip-rule="evenodd" d="M3.47857 61.3284L2.72815 62.0475C3.36563 63.2119 4.30765 64.4418 5.66809 65.5932C10.018 69.2745 17.2694 75.1565 33.7052 78.8251C41.9073 80.6558 51.8527 81.7518 59.9838 82.3677C64.0517 82.6758 67.6707 82.8642 70.3976 82.9641C73.1058 83.0634 74.9717 83.0771 75.5048 83.0278C75.7224 83.0078 76.1822 82.9795 76.8411 82.9391L76.8412 82.939C79.0038 82.8063 83.3106 82.5418 88.2356 82.0015C94.6809 81.2945 102.315 80.1049 107.939 78.0783C110.703 77.0823 113.48 76.2891 116.2 75.5167L116.372 75.4676C119.026 74.714 121.627 73.9755 124.073 73.0874C128.186 71.5943 131.907 69.6635 134.794 66.4717L134.062 65.7897C131.327 68.8185 127.773 70.6801 123.732 72.1474C121.319 73.0231 118.749 73.7531 116.083 74.5103L116.083 74.5103L115.926 74.5548C113.21 75.3262 110.401 76.1281 107.6 77.1375C102.095 79.1214 94.5606 80.3017 88.1266 81.0075C83.2433 81.5432 79.0679 81.7997 76.8732 81.9345C76.1675 81.9779 75.6666 82.0087 75.4128 82.0321C74.9586 82.074 73.1672 82.0649 70.4342 81.9648C67.7199 81.8653 64.1139 81.6777 60.0593 81.3706C51.9453 80.7559 42.0556 79.6643 33.923 77.8491C17.6892 74.2256 10.5804 68.4404 6.3141 64.8298C4.95283 63.6778 4.05593 62.4533 3.47857 61.3284Z" fill="#E9B68F"/>
<path fill-rule="evenodd" clip-rule="evenodd" d="M2.33941 62.4201L1.61328 63.116C4.66741 67.0474 13.8745 75.3405 28.0428 79.2129C42.4355 83.1467 65.2965 84.6098 74.9147 84.8517L74.9305 84.8521L74.9462 84.8515C81.3535 84.609 97.1915 83.18 109.29 79.3891C110.41 79.0383 111.512 78.6963 112.593 78.3604C118.762 76.4454 124.277 74.7334 128.668 72.7726C131.821 71.3653 134.449 69.8073 136.339 67.9118L135.607 67.2294C133.854 68.9786 131.371 70.4707 128.261 71.8595C123.928 73.7938 118.482 75.4849 112.308 77.4018C111.224 77.7383 110.118 78.0818 108.991 78.4348C97.0253 82.1841 81.3048 83.6088 74.9241 83.8516C65.3066 83.6087 42.5665 82.1458 28.3064 78.2483C14.2516 74.4069 5.19499 66.1475 2.33941 62.4201Z" fill="#E9B68F"/>
<path d="M2.13037 63.3704L3.63037 62.3704L8.63037 67.3704L16.1304 72.3704L28.6304 77.3704L48.1304 80.8704L66.6304 82.3704L83.6304 81.8704L101.63 79.3704L117.13 74.8704L129.13 70.3704L134.13 66.3704L135.63 67.8704L130.63 71.8704L119.63 75.8704L101.13 81.3704L84.6304 83.8704L73.6304 84.3704L49.6304 82.8704L30.1304 79.3704L18.1304 75.3704L10.1304 69.8704L2.13037 63.3704Z" fill="#E9B68F"/>
<path d="M1.13042 60.5C0.130432 64 5.13042 67 7.63042 69L9.63042 69.5L6.63042 67L2.63042 61.5C2.46375 60.3333 1.72217 58.4288 1.13042 60.5Z" fill="#E9B68F"/>
<path d="M139.63 61.5C140.158 63.0832 137.63 67.5 135.13 69L132.63 68.5L135.13 65.5L137.63 62C138.13 61.5 139.23 60.3 139.63 61.5Z" fill="#E9B68F"/>
</g>
<defs>
<linearGradient id="paint0_linear_5_2406" x1="87.8918" y1="56.2496" x2="74.9444" y2="73.2117" gradientUnits="userSpaceOnUse">
<stop stop-color="#8CC638"/>
<stop offset="1" stop-color="white"/>
</linearGradient>
<linearGradient id="paint1_linear_5_2406" x1="58.7279" y1="58.5429" x2="55.6245" y2="73.3541" gradientUnits="userSpaceOnUse">
<stop stop-color="#8CC638"/>
<stop offset="1" stop-color="white"/>
</linearGradient>
<clipPath id="clip0_5_2406">
<rect width="140" height="140" fill="white"/>
</clipPath>
</defs>
</svg>
