<svg width="281" height="416" viewBox="0 0 281 416" fill="none" xmlns="http://www.w3.org/2000/svg">
<path d="M53 355.93C58.2 348.33 65.8334 352.763 69 355.93C73.3334 357.763 79.4 362.83 69 368.43C56 375.43 46.5 365.43 53 355.93Z" fill="#686868"/>
<path fill-rule="evenodd" clip-rule="evenodd" d="M69.1001 356.126C65.9335 352.959 58.3001 348.526 53.1001 356.126C46.6001 365.626 56.1001 375.626 69.1001 368.626C79.5001 363.026 73.4335 357.959 69.1001 356.126Z" fill="url(#paint0_linear_75_5986)"/>
<path d="M78.0469 398.355C49.6765 353.364 74.1066 287.439 89.8679 260.1C110.358 227.294 147.329 184.004 177.343 257.757C217.5 356.43 192.317 386.638 186.8 403.042C189.164 404.604 193.42 408.665 191.529 412.415C189.164 417.101 144.245 417.101 139.516 412.415C135.734 408.665 137.94 385.857 139.516 374.922C133.842 376.797 126.119 375.703 122.967 374.922V412.415C122.967 417.101 82.7754 417.101 73.3186 412.415C65.7531 408.665 73.3185 401.479 78.0469 398.355Z" fill="#686868"/>
<rect x="103.672" y="262.67" width="70" height="15" transform="rotate(-2.83543 103.672 262.67)" fill="url(#paint1_linear_75_5986)"/>
<path d="M131.34 40.9244C118.35 89.8282 133.979 131.832 143.417 146.721C149.222 147.696 162.59 141.56 169.615 109.215C178.396 68.7837 184.209 37.7579 167.519 15.0729C163 8.92975 147.578 -20.2053 131.34 40.9244Z" fill="#686868"/>
<path d="M34.0562 38.2419C20.9985 94.8954 65.3936 137.067 82.0624 150.156C86.0629 156.046 94.864 163.507 98.0644 146.229C102.065 124.632 91.5002 89.2834 89.4999 81.4298C86.6983 70.4297 44.4999 -7.07026 34.0562 38.2419Z" fill="#686868"/>
<path fill-rule="evenodd" clip-rule="evenodd" d="M127.034 66.6858C123.333 105.171 135.342 136.518 143.101 148.953C148.816 149.928 161.974 143.792 168.889 111.447C172.738 93.4406 176.008 77.2994 177 62.9297L127.034 66.6858ZM83.9337 69.9257C87.217 76.2391 89.457 81.3809 90.0289 83.6623C90.2197 84.4234 90.4897 85.4428 90.8182 86.6828L90.8183 86.6832C93.879 98.2388 102.015 128.958 98.4592 148.462C95.309 165.74 86.6458 158.279 82.7079 152.388C69.6982 142.01 39.5301 113.347 34 73.6793L83.9337 69.9257Z" fill="url(#paint2_linear_75_5986)"/>
<path d="M140.487 70.0707C138.083 93.6829 143.462 125.941 146.453 139.119C164.507 78.108 165.63 44.3835 160 31.4297C154.37 18.4759 143.494 40.5555 140.487 70.0707Z" fill="#E9B68F"/>
<path d="M46.4999 54.4297C44.9404 106.053 74.7041 133.545 88.9999 145.93C77.3036 71.6242 65.0475 56.6181 56.3595 49.2484C49.4999 43.4297 47.1496 51.1707 46.4999 54.4297Z" fill="#E9B68F"/>
<path d="M28.9982 311.449C36.5082 288.812 75.0719 266.504 91.5 259.43C98.5405 269.648 104.567 296.357 87.6701 311.449C70.1492 327.097 52.6276 326.52 48.5025 325.868C51.2507 327.655 56.3184 337.81 47.773 342.104C40.263 345.876 39.95 335.815 40.7323 330.313C39.95 335.815 36.508 344.933 28.9982 337.387C23.7866 332.151 24.3618 327.641 25.9047 325.069C21.906 325.935 15.6368 325.062 17.2639 318.523C19.1414 310.977 25.8691 310.663 28.9982 311.449Z" fill="#686868"/>
<path d="M248.972 245.221C226.993 235.961 184.807 250.284 168.664 257.986C171.715 270.014 187.842 292.141 210.327 289.368C233.642 286.492 244.748 272.927 246.975 269.394C246.51 272.639 250.813 283.141 259.672 279.539C267.457 276.373 260.093 269.511 255.438 266.476C260.093 269.511 269.221 272.927 268.489 262.306C267.982 254.935 264.21 252.398 261.258 251.864C264.543 249.426 268.016 244.134 262.024 241.051C255.11 237.494 250.442 242.349 248.972 245.221Z" fill="#686868"/>
<path d="M48 186.962C60.2877 143.513 87.1121 128.861 107.5 124.93C177.336 113.874 194.544 141.535 212.671 177.526C230 211.93 207.967 262.452 132.688 264.811C57.4098 267.17 35 232.93 48 186.962Z" fill="#686868"/>
<path d="M158.959 161.234C145.456 158.796 138.677 171.58 139.012 179.513C139.012 196.427 164.97 190.581 169.578 186.822C174.88 182.497 175.838 164.28 158.959 161.234Z" fill="#EEECDD"/>
<path d="M208 196.93C218.818 193.793 244.164 188.46 259 192.224" stroke="#545454" stroke-width="2" stroke-linecap="round"/>
<path d="M205 186.93C212.895 180.708 232.947 167.796 250 165.93" stroke="#545454" stroke-width="2" stroke-linecap="round"/>
<path d="M208 205.93C216.556 208.305 236.933 215.43 250 224.93" stroke="#545454" stroke-width="2" stroke-linecap="round"/>
<path d="M62 226.93C54.2222 230.904 34.9333 242.668 20 257.93" stroke="#545454" stroke-width="2" stroke-linecap="round"/>
<path d="M62 217.93C50.2 217.93 21.88 219.73 3 226.93" stroke="#545454" stroke-width="2" stroke-linecap="round"/>
<path d="M62 205.93C52.6154 202.973 27.2769 197.502 1 199.276" stroke="#545454" stroke-width="2" stroke-linecap="round"/>
<path d="M28.5 306.43C50.9 272.83 78.5 262.096 89.5 260.93L141.5 277.43C145.833 276.763 160.5 271.03 184.5 253.43C208.5 235.83 236.5 239.43 247.5 243.43C248.7 247.83 245.5 263.43 244.5 270.93C220.5 297.43 197.167 292.096 187.5 283.43C205.1 322.63 204.833 352.096 202.5 361.93C132.1 373.93 80.1667 366.93 63 361.93C61.4637 350.408 65.6434 325.518 67.3066 323.553C60.5546 327.81 52.9716 326.755 50 325.93C39.2 319.53 31.1667 310.43 28.5 306.43Z" fill="#F3D666"/>
<path d="M99.2271 170.133C111.99 163.085 123.117 173.344 125.454 181.273C132.127 200.779 101.597 198.796 96.6348 197.837C89.5269 196.463 83.2738 178.943 99.2271 170.133Z" fill="#EEECDD"/>
<path d="M104.114 194.584C107.031 196.171 108.332 195.945 111.726 195.623C114.474 194.922 117.166 194.709 118.757 192.168C122.049 186.91 119.19 179.484 113.527 177.362C108.358 175.425 100.143 179.941 99.9239 185.838C99.7872 189.521 100.632 192.69 104.114 194.584Z" fill="#545454"/>
<path d="M102.127 185.537C103.215 186.627 103.803 186.676 105.308 186.93C106.575 186.93 107.719 186.686 108.689 185.688C110.694 183.623 110.321 180.277 108.103 178.611C106.079 177.09 102.024 178.222 101.279 180.951C100.813 182.656 100.829 184.237 102.127 185.537Z" fill="#EEECDD"/>
<path d="M148.957 187.776C151.909 189.375 153.223 189.143 156.652 188.811C159.429 188.098 162.148 187.877 163.751 185.305C167.068 179.985 164.164 172.485 158.436 170.352C153.208 168.405 144.915 172.986 144.705 178.946C144.575 182.668 145.434 185.869 148.957 187.776Z" fill="#545454"/>
<path d="M67.3007 323.93C71.7007 300.33 83.4673 272.096 88.8007 260.93C78.8007 261.73 70.3007 266.596 67.3007 268.93C57.7007 284.53 63.3007 312.096 67.3007 323.93Z" fill="#B3D6B0"/>
<path d="M67.5001 323.43C59.5001 287.83 64.1668 272.263 67.5001 268.93C60.7001 272.13 53.3334 278.263 50.5001 280.93C45.7001 300.53 56.5001 319.096 62.5001 325.93C64.9001 325.13 66.8334 323.93 67.5001 323.43Z" fill="#B1AFC3"/>
<path d="M39.0001 291.93C43.0001 286.73 48.3334 282.43 50.5001 280.93C46.5001 298.93 56.8334 318.43 62.5001 325.93C58.9001 327.13 56.3334 327.096 55.5001 326.93C41.5001 312.53 38.6668 297.596 39.0001 291.93Z" fill="#E9B68F"/>
<path d="M28.5 306.43C31.7 300.83 36.8333 294.43 39 291.93C39 306.73 50 321.43 55.5 326.93C52.7 326.93 50.6667 326.596 50 326.43C38.8 320.03 31 310.43 28.5 306.43Z" fill="#FFFEF3"/>
<path d="M141 275.43C135.4 275.43 118.333 268.263 113 264.43C103 263.43 93.5 261.43 87.5 260.43C99.5 274.43 125.5 280.43 139 288.43C149.8 294.83 186.5 256.93 178.5 254.43L171 257.93L162.5 260.93C158.5 265.93 146.6 275.43 141 275.43Z" fill="#EEECDD"/>
<path d="M166.5 280.93C157.3 276.93 146 282.596 141.5 285.93V293.43C150.5 298.43 168.6 306.33 169 297.93C169.4 289.53 167.5 283.096 166.5 280.93Z" fill="#9A97B6"/>
<path d="M114 317.93C115.2 299.93 126.167 289.763 131.5 286.93H136.774C138.145 286.694 139.43 286.729 140.5 286.93H136.774C131.315 287.871 124.5 293.124 124.5 309.43C124.5 334.93 124.5 339.93 119 339.43C113.5 338.93 112.5 340.43 114 317.93Z" fill="#B1AFC3"/>
<path d="M121.5 316.93C121.5 293.33 129.833 288.43 134 288.93C123 298.43 130.5 349.93 130 351.43C129.5 352.93 121.5 352.93 119.5 351.43C117.5 349.93 121.5 346.43 121.5 316.93Z" fill="#9A97B6"/>
<path d="M129.5 285.93C129.9 282.73 135 282.263 137.5 282.43C141.5 282.43 142.833 284.763 143 285.93C145 294.43 145 298.93 137.5 300.43C130 301.93 129 289.93 129.5 285.93Z" fill="#B1AFC3"/>
<path d="M146.127 179.537C147.215 180.627 147.803 180.676 149.308 180.93C150.575 180.93 151.719 180.686 152.689 179.688C154.694 177.623 154.321 174.277 152.103 172.611C150.079 171.09 146.024 172.222 145.279 174.951C144.813 176.656 144.829 178.237 146.127 179.537Z" fill="#EEECDD"/>
<path d="M178 255.43C179.2 256.63 184.833 274.93 187.5 283.93C189.1 285.93 192.833 287.43 194.5 287.93C198.1 277.53 198.667 255.263 198.5 245.43C193.5 245.43 176.5 253.93 178 255.43Z" fill="#B3D6B0"/>
<path d="M208 291.93C201.6 291.13 196.333 288.93 194.5 287.93C197.7 275.53 198.5 254.43 198.5 245.43C203.7 242.63 212.667 241.263 216.5 240.93C220.5 252.13 212.5 279.596 208 291.93Z" fill="#B1AFC3"/>
<path d="M225 288.93C216.6 292.13 210.167 292.263 208 291.93C217.6 264.33 217.667 246.43 216.5 240.93C222.9 239.73 231.167 240.096 234.5 240.43C239.3 252.43 231.5 277.93 225 288.93Z" fill="#E9B68F"/>
<path d="M245.5 271.93C243.1 277.93 230.833 285.763 225 288.93C237.8 261.33 236.667 245.096 234.5 240.43C242.1 240.83 246.333 242.596 247.5 243.43C249.5 255.93 245.5 271.43 245.5 271.93Z" fill="#FFFEF3"/>
<path d="M135 206C135.755 208.703 136.811 214.886 135 218" stroke="#E9B68F" stroke-width="2" stroke-linecap="round"/>
<path d="M100.155 152.952C95.6102 153.951 91.4917 156.425 88.5238 158.768C87.673 159.44 86.4102 158.575 86.9679 157.645C90.5612 151.656 95.9815 150.552 100.339 151.139C101.417 151.285 101.217 152.718 100.155 152.952Z" fill="#545454"/>
<path d="M158.084 149.21C162.727 149.514 167.171 151.34 170.458 153.21C171.4 153.746 172.518 152.701 171.827 151.866C167.373 146.485 161.849 146.21 157.629 147.446C156.585 147.752 156.999 149.139 158.084 149.21Z" fill="#545454"/>
<path d="M143.854 214.062C128.851 213.667 123.006 216.813 121.895 218.497C121.866 218.541 121.844 218.587 121.824 218.637C118.887 226.132 123.892 236.559 135.354 235.562C146.854 234.562 148.854 226.562 149.354 220.062C149.754 214.862 145.854 213.896 143.854 214.062Z" fill="#E48282" stroke="#E48282"/>
<path d="M135.354 222.062C129.946 222.062 128.194 218.541 127.901 216.26C127.847 215.843 128.115 215.464 128.516 215.338C132.503 214.083 138.025 213.925 141.025 214.025C141.506 214.041 141.903 214.409 141.914 214.891C141.981 217.698 140.782 222.062 135.354 222.062Z" fill="white" stroke="white"/>
<path d="M136 218C136.167 219 136.4 221.3 136 222.5" stroke="#686868" stroke-linecap="round"/>
<path d="M138.854 228.562C133.872 227.139 128.257 229.567 125.318 231.411C124.799 231.737 124.783 232.411 125.292 232.752C126.517 233.575 128.523 234.787 129.186 235.022C129.295 235.061 129.409 235.083 129.519 235.121C133.921 236.621 140.531 234.981 143 233.5C146.5 231 144.454 230.162 138.854 228.562Z" fill="#F8ACAC" stroke="#F8ACAC"/>
<path d="M141.445 194.555C135.89 192.736 129.872 195.313 127.557 196.829C122.928 199.103 129.872 203.651 132.187 205.925C134.038 207.744 137.587 206.683 139.131 205.925C142.217 202.893 147.001 196.375 141.445 194.555Z" fill="#E9B68F"/>
<path d="M129.582 194.36C126.481 196.12 122.237 201.696 111.653 204.133C101.069 206.571 91.9369 206.148 91.2551 203.188C90.5732 200.228 98.6002 195.852 109.184 193.414C119.767 190.976 128.9 191.4 129.582 194.36Z" fill="#686868"/>
<ellipse cx="159.249" cy="190.893" rx="19.8321" ry="5.5" transform="rotate(-0.643155 159.249 190.893)" fill="#686868"/>
<defs>
<linearGradient id="paint0_linear_75_5986" x1="75.1002" y1="359.626" x2="49.1002" y2="359.626" gradientUnits="userSpaceOnUse">
<stop stop-color="#545454"/>
<stop offset="1" stop-color="#686868" stop-opacity="0"/>
</linearGradient>
<linearGradient id="paint1_linear_75_5986" x1="138.672" y1="262.67" x2="138.672" y2="277.67" gradientUnits="userSpaceOnUse">
<stop stop-color="#545454"/>
<stop offset="1" stop-color="#686868" stop-opacity="0"/>
</linearGradient>
<linearGradient id="paint2_linear_75_5986" x1="112.887" y1="180.055" x2="104.492" y2="68.3802" gradientUnits="userSpaceOnUse">
<stop stop-color="#545454"/>
<stop offset="1" stop-color="#686868"/>
</linearGradient>
</defs>
</svg>
