<svg width="263" height="361" viewBox="0 0 263 361" fill="none" xmlns="http://www.w3.org/2000/svg">
<path d="M60.0078 308.924C64.5134 302.328 71.1273 306.175 73.8711 308.924C77.6257 310.515 82.8822 314.913 73.8711 319.773C62.6072 325.849 54.3759 317.169 60.0078 308.924Z" fill="#686868"/>
<path fill-rule="evenodd" clip-rule="evenodd" d="M73.9579 309.095C71.2141 306.346 64.6002 302.498 60.0946 309.095C54.4627 317.34 62.694 326.019 73.9579 319.944C82.969 315.083 77.7125 310.686 73.9579 309.095Z" fill="url(#paint0_linear_381_9711)"/>
<path d="M81.7098 345.746C57.1282 306.697 78.2957 249.478 91.9522 225.75C109.706 197.276 141.739 159.704 167.746 223.716C202.539 309.358 180.719 335.577 175.939 349.814C177.988 351.17 181.675 354.695 180.036 357.949C177.988 362.017 139.067 362.017 134.97 357.949C131.693 354.695 133.604 334.899 134.97 325.408C130.054 327.035 123.362 326.086 120.631 325.408V357.949C120.631 362.017 85.8068 362.017 77.613 357.949C71.0579 354.695 77.6129 348.458 81.7098 345.746Z" fill="#686868"/>
<rect width="60.6519" height="13.019" transform="matrix(0.998772 -0.0495519 0.0493831 0.99878 103.913 227.981)" fill="url(#paint1_linear_381_9711)"/>
<path d="M127.895 35.5213C116.65 77.9674 130.199 114.43 138.378 127.355C143.408 128.203 154.989 122.879 161.068 94.8053C168.668 59.7125 173.698 32.7832 159.234 13.0892C155.318 7.75608 141.95 -17.5363 127.895 35.5213Z" fill="#686868"/>
<path d="M43.594 33.1915C32.2801 82.363 70.7464 118.965 85.1891 130.326C88.6554 135.438 96.2811 141.914 99.0541 126.917C102.52 108.172 93.3665 77.4922 91.6334 70.6758C89.2059 61.1285 52.643 -6.13653 43.594 33.1915Z" fill="#686868"/>
<path fill-rule="evenodd" clip-rule="evenodd" d="M124.155 57.879C120.948 91.2813 131.354 118.489 138.076 129.282C143.028 130.128 154.428 124.802 160.42 96.729C163.755 81.1004 166.588 67.0909 167.448 54.619L124.155 57.879ZM86.8106 60.691C89.6553 66.1705 91.5961 70.6331 92.0917 72.6132C92.257 73.2737 92.4909 74.1584 92.7755 75.2345L92.7756 75.2351C95.4276 85.2647 102.477 111.926 99.3961 128.855C96.6666 143.851 89.1603 137.375 85.7484 132.263C74.4761 123.255 48.337 98.3782 43.5453 63.9489L86.8106 60.691Z" fill="url(#paint2_linear_381_9711)"/>
<path d="M135.812 60.817C133.728 81.3109 138.389 109.309 140.981 120.746C156.623 67.7928 157.597 38.5221 152.718 27.2791C147.84 16.036 138.416 35.1996 135.812 60.817Z" fill="#E9B68F"/>
<path d="M54.3759 47.2415C53.0247 92.0467 78.8136 115.909 91.2002 126.658C81.0659 62.1652 70.4465 49.1408 62.9188 42.7445C56.9753 37.6942 54.9389 44.4129 54.3759 47.2415Z" fill="#E9B68F"/>
<path d="M39.2115 270.317C45.7185 250.67 79.1321 231.308 93.3663 225.168C99.4666 234.037 104.689 257.219 90.0479 270.317C74.8668 283.899 59.6852 283.398 56.111 282.832C58.4922 284.384 62.8831 293.198 55.4789 296.924C48.9718 300.198 48.7007 291.466 49.3785 286.691C48.7007 291.466 46.8506 291.57 43.8602 292.069C35.0545 293.54 38.0916 284.024 39.9117 280.603C36.81 282.314 27.3389 283.323 29.0442 276.457C30.6709 269.908 36.5002 269.635 39.2115 270.317Z" fill="#686868"/>
<path d="M230.126 213.315C211.081 205.278 174.529 217.71 160.542 224.394C163.186 234.834 177.159 254.039 196.641 251.631C216.843 249.135 226.466 237.362 228.395 234.296C227.992 237.112 231.72 246.227 239.396 243.101C246.142 240.353 239.761 234.397 235.728 231.763C240.234 233.656 246.323 236.358 247.03 227.145C247.365 222.782 242.391 220.472 239.56 219.836C242.563 218.347 247.385 212.762 241.435 209.696C235.444 206.608 231.399 210.822 230.126 213.315Z" fill="#686868"/>
<path d="M55.6755 162.271C66.3222 124.56 89.5643 111.844 107.229 108.431C167.739 98.8357 182.649 122.843 198.356 154.081C213.37 183.941 194.279 227.791 129.054 229.839C63.8287 231.886 44.4117 202.168 55.6755 162.271Z" fill="#686868"/>
<path d="M194.308 170.922C203.681 168.2 225.642 163.571 238.497 166.838" stroke="#545454" stroke-width="2" stroke-linecap="round"/>
<path d="M191.709 162.243C198.549 156.842 215.924 145.636 230.699 144.016" stroke="#545454" stroke-width="2" stroke-linecap="round"/>
<path d="M194.308 178.734C201.721 180.795 219.377 186.979 230.699 195.224" stroke="#545454" stroke-width="2" stroke-linecap="round"/>
<path d="M67.8059 196.96C61.0668 200.41 44.3539 210.62 31.4149 223.866" stroke="#545454" stroke-width="2" stroke-linecap="round"/>
<path d="M67.8059 189.149C57.5818 189.149 33.0438 190.711 16.6852 196.96" stroke="#545454" stroke-width="2" stroke-linecap="round"/>
<path d="M67.8059 178.734C59.6746 176.167 37.72 171.419 14.9523 172.959" stroke="#545454" stroke-width="2" stroke-linecap="round"/>
<path d="M42.3649 266.108C61.7735 236.945 82.1024 227.483 91.6334 226.47L136.689 240.791C140.444 240.212 153.151 235.236 173.946 219.96C194.741 204.685 218.741 209.215 228.272 212.686C229.312 216.505 226.8 228.64 225.933 235.149C205.139 258.15 184.921 253.521 176.546 245.999C191.795 280.022 191.564 305.597 189.542 314.131C128.544 324.547 83.5465 318.471 68.6724 314.131C67.3413 304.131 70.9628 282.528 72.4039 280.823C66.5536 284.517 59.9832 283.602 57.4085 282.886C48.0508 277.331 44.6755 269.579 42.3649 266.108Z" fill="#F3D666"/>
<path d="M72.3987 281.15C76.2111 260.667 86.4063 236.162 91.0274 226.47C82.3629 227.164 74.998 231.388 72.3987 233.413C64.0807 246.953 68.9329 270.879 72.3987 281.15Z" fill="#B3D6B0"/>
<path d="M72.5714 280.716C65.6397 249.817 69.6832 236.306 72.5714 233.413C66.6795 236.191 60.2966 241.514 57.8417 243.829C53.6827 260.84 63.0404 276.955 68.2391 282.886C70.3186 282.191 71.9937 281.15 72.5714 280.716Z" fill="#B1AFC3"/>
<path d="M47.8775 253.376C51.3433 248.863 55.9644 245.131 57.8417 243.829C54.3759 259.452 63.3292 276.376 68.2391 282.886C65.1199 283.927 62.896 283.899 62.1739 283.754C50.0436 271.256 47.5887 258.294 47.8775 253.376Z" fill="#E9B68F"/>
<path d="M38.3777 269.103C41.1503 264.243 46.0002 255.546 47.8775 253.376C47.8775 266.221 57.4085 278.98 62.174 283.754C59.7479 283.754 57.9861 283.464 57.4085 283.32C47.3491 279.088 40.5438 272.575 38.3777 269.103Z" fill="#FFFEF3"/>
<path d="M136.256 239.055C131.404 239.055 116.616 232.835 111.995 229.508C103.33 228.64 95.0992 226.904 89.9005 226.036C100.298 238.187 122.826 243.395 134.523 250.338C143.88 255.893 175.679 222.998 168.748 220.828L162.249 223.866L154.884 226.47C151.419 230.81 141.108 239.055 136.256 239.055Z" fill="#EEECDD"/>
<path d="M158.35 243.829C150.379 240.357 140.588 245.275 136.689 248.169V254.678C144.487 259.018 160.17 265.874 160.516 258.584C160.863 251.293 159.217 245.709 158.35 243.829Z" fill="#9A97B6"/>
<path d="M112.861 275.942C113.901 260.32 123.403 251.496 128.024 249.036H132.594C133.782 248.831 134.895 248.862 135.822 249.036H132.594C127.864 249.853 121.959 254.412 121.959 268.565C121.959 290.697 121.959 295.037 117.194 294.603C112.428 294.169 111.562 295.471 112.861 275.942Z" fill="#B1AFC3"/>
<path d="M119.36 275.075C119.36 254.591 126.58 250.339 130.19 250.772C120.66 259.018 127.158 303.716 126.725 305.018C126.291 306.32 119.36 306.32 117.627 305.018C115.894 303.716 119.36 300.679 119.36 275.075Z" fill="#9A97B6"/>
<path d="M126.291 248.169C126.638 245.391 131.057 244.986 133.223 245.131C136.689 245.131 137.844 247.156 137.989 248.169C139.722 255.546 139.722 259.452 133.223 260.754C126.725 262.056 125.858 251.64 126.291 248.169Z" fill="#B1AFC3"/>
<path d="M168.314 221.696C169.354 222.738 174.235 238.621 176.546 246.433C177.932 248.168 181.167 249.47 182.611 249.904C185.73 240.878 186.221 221.552 186.077 213.017C181.744 213.017 167.015 220.395 168.314 221.696Z" fill="#B3D6B0"/>
<path d="M194.308 253.376C188.763 252.682 184.199 250.772 182.611 249.904C185.383 239.142 186.077 220.828 186.077 213.017C190.582 210.587 198.351 209.401 201.673 209.111C205.139 218.832 198.207 242.671 194.308 253.376Z" fill="#B1AFC3"/>
<path d="M209.038 250.772C201.759 253.55 196.185 253.666 194.308 253.376C202.626 229.421 202.684 213.885 201.673 209.112C207.218 208.07 214.381 208.388 217.269 208.678C221.428 219.093 214.67 241.225 209.038 250.772Z" fill="#E9B68F"/>
<path d="M228.272 235.153C226.193 240.361 214.092 248.024 209.038 250.772C220.128 226.817 219.146 212.728 217.269 208.677C223.854 209.025 229.255 211.963 230.266 212.686C231.999 223.536 228.272 234.719 228.272 235.153Z" fill="#FFFEF3"/>
<path d="M245.008 200.845L230.343 245.404C230.292 245.558 230.279 245.725 230.311 245.884C231.167 250.128 235.117 249.39 237.347 248.334C237.602 248.213 237.781 247.978 237.848 247.704L249.018 202.463C249.128 202.016 249.527 201.706 249.986 201.677C253.386 201.466 259.455 199.88 261.666 194.713C264.656 187.723 262.164 182.231 258.675 180.234C255.186 178.237 244.72 176.24 240.732 185.227C237.767 191.911 242.326 197.53 244.717 199.758C245.015 200.036 245.135 200.458 245.008 200.845Z" fill="#B3BAC6"/>
<path d="M239.237 222.672C240.234 221.174 243.723 220.175 245.218 223.171L245.218 226.666L243.225 229.162L243.723 233.156L241.231 233.656C235.25 232.657 237.132 225.835 239.237 222.672Z" fill="#686868"/>
<path d="M239.237 233.156C241.63 233.156 243.225 234.654 243.225 236.651C243.225 238.149 242.726 242.143 239.237 243.142C234.951 244.368 233.755 241.644 233.256 240.146C232.758 238.648 236.247 233.156 239.237 233.156Z" fill="#686868"/>
<path d="M55.7709 302.408L23.8071 268.465C23.7058 268.357 23.5376 268.343 23.4132 268.423C16.4449 272.878 8.90551 262.456 5.90082 256.484C5.85241 256.388 5.86146 256.276 5.92128 256.187L7.61318 253.656C7.69967 253.527 7.87061 253.485 8.00683 253.56L16.2213 258.092C16.5194 258.257 16.817 257.876 16.5858 257.625L10.7582 251.32C10.6386 251.191 10.6554 250.987 10.7945 250.879L12.8573 249.279C12.9593 249.2 13.1005 249.195 13.2078 249.267L20.9653 254.472C21.2343 254.652 21.5583 254.337 21.3856 254.062L17.0573 247.184C16.9714 247.047 17.0086 246.867 17.1415 246.776L18.951 245.536C19.0521 245.466 19.1836 245.464 19.2847 245.534C21.7069 247.197 26.8195 251.506 29.1861 256.382C31.4661 261.079 28.7029 264.416 26.7546 265.712C26.5841 265.825 26.5586 266.072 26.7111 266.209L60.7837 296.785C60.8528 296.847 60.8898 296.938 60.8806 297.031C60.5791 300.036 57.6804 301.866 56.0865 302.483C55.976 302.526 55.8522 302.494 55.7709 302.408Z" fill="#B3BAC6"/>
<path d="M28.9078 277.591C28.9078 273.625 31.8564 271.135 33.8498 270.612C33.8782 270.604 33.9058 270.602 33.9351 270.603C37.4357 270.781 44.0729 272.458 42.3649 277.591C39.8729 285.08 28.9078 282.112 28.9078 277.591Z" fill="#686868"/>
<path d="M41.3681 282.583C38.9757 281.785 37.547 283.249 37.3808 284.081C37.2447 284.763 36.4837 285.279 36.8824 288.075C37.3808 291.57 41.8665 293.068 44.857 293.068C47.8475 293.068 47.8475 289.573 47.3491 287.077C46.8506 284.58 44.3586 283.582 41.3681 282.583Z" fill="#686868"/>
<path d="M44.482 297.318C42.8454 294.747 44.8229 292.574 46.0163 291.809C50.6192 290.89 52.38 292.675 52.806 296.25C53.2987 300.384 46.5277 300.532 44.482 297.318Z" fill="#686868"/>
<path d="M244.72 215.682C245.284 212.858 244.221 210.689 240.234 209.192C237.41 212.354 233.555 219.476 236.745 220.675C240.732 222.173 244.221 218.178 244.72 215.682Z" fill="#686868"/>
<path d="M127.741 166.564C125.614 167.918 122.791 172.365 115.429 174.064C108.068 175.762 101.645 175.158 101.083 172.715C100.521 170.271 106.033 166.913 113.394 165.214C120.756 163.516 127.179 164.12 127.741 166.564Z" fill="#686868"/>
<ellipse rx="13.6783" ry="4.54053" transform="matrix(0.999937 -0.0112441 0.0112058 0.999937 149.525 163.731)" fill="#686868"/>
<path d="M152.765 143.053C141.285 140.943 135.521 152.006 135.806 158.871C135.806 173.509 157.876 168.449 161.794 165.197C166.302 161.454 167.116 145.689 152.765 143.053Z" fill="#EEECDD"/>
<path d="M102.018 150.825C112.789 144.867 122.181 153.54 124.154 160.244C129.786 176.735 104.018 175.059 99.8296 174.248C93.8303 173.086 88.5526 158.274 102.018 150.825Z" fill="#EEECDD"/>
<path d="M106.142 171.498C108.605 172.84 109.703 172.648 112.567 172.376C114.887 171.784 117.158 171.604 118.501 169.455C121.28 165.01 118.867 158.731 114.087 156.937C109.724 155.3 102.791 159.118 102.606 164.103C102.491 167.217 103.203 169.896 106.142 171.498Z" fill="#545454"/>
<path d="M104.771 163.676C105.615 164.522 106.071 164.56 107.237 164.757C108.22 164.757 109.107 164.567 109.858 163.792C111.413 162.189 111.124 159.59 109.404 158.296C107.835 157.115 104.691 157.994 104.113 160.114C103.752 161.438 103.764 162.666 104.771 163.676Z" fill="#EEECDD"/>
<path d="M143.992 165.742C146.483 167.093 147.592 166.897 150.486 166.617C152.83 166.013 155.125 165.827 156.478 163.653C159.277 159.154 156.826 152.814 151.992 151.01C147.58 149.364 140.58 153.237 140.403 158.276C140.293 161.422 141.018 164.129 143.992 165.742Z" fill="#545454"/>
<path d="M141.653 158.683C142.497 159.529 142.953 159.567 144.119 159.764C145.102 159.764 145.989 159.575 146.741 158.8C148.296 157.196 148.006 154.598 146.287 153.304C144.718 152.123 141.574 153.002 140.996 155.121C140.635 156.445 140.647 157.673 141.653 158.683Z" fill="#EEECDD"/>
<path fill-rule="evenodd" clip-rule="evenodd" d="M132.294 180.763C132.648 180.646 133.014 180.89 133.113 181.307C133.374 182.413 133.685 184.211 133.776 186.059C133.865 187.87 133.753 189.894 133.047 191.327C132.863 191.702 132.456 191.829 132.139 191.611C131.822 191.393 131.714 190.913 131.899 190.538C132.396 189.528 132.535 187.906 132.449 186.15C132.364 184.432 132.073 182.744 131.833 181.729C131.734 181.312 131.941 180.879 132.294 180.763Z" fill="#E9B68F"/>
<path d="M103.139 136.505C99.3181 137.377 95.855 139.537 93.3594 141.583C92.644 142.169 91.5821 141.414 92.0511 140.602C95.0726 135.374 99.6303 134.41 103.294 134.923C104.201 135.05 104.033 136.301 103.139 136.505Z" fill="#545454"/>
<path d="M151.694 133.135C155.613 133.392 159.364 134.936 162.138 136.517C162.933 136.97 163.877 136.086 163.294 135.38C159.535 130.831 154.872 130.598 151.31 131.644C150.429 131.902 150.778 133.075 151.694 133.135Z" fill="#545454"/>
<path d="M140.107 187.753C127.461 187.406 122.534 190.169 121.598 191.648C121.573 191.687 121.13 192.173 121.114 192.217C118.638 198.799 123.281 207.512 132.942 206.637C142.636 205.758 144.321 198.732 144.743 193.023C145.08 188.456 141.793 187.607 140.107 187.753Z" fill="#E48282"/>
<path fill-rule="evenodd" clip-rule="evenodd" d="M122.755 191.035C121.988 191.461 121.567 191.851 121.384 192.125C121.38 192.131 121.374 192.142 121.365 192.165C120.171 195.179 120.59 198.795 122.479 201.553C124.355 204.294 127.697 206.207 132.408 205.802C137.177 205.391 139.915 203.556 141.53 201.209C143.161 198.837 143.685 195.886 143.896 193.176C144.056 191.115 143.359 189.97 142.497 189.338C141.606 188.684 140.466 188.526 139.689 188.59L139.666 188.592L139.643 188.591C133.309 188.426 128.932 189.001 126.035 189.783C124.586 190.174 123.514 190.615 122.755 191.035ZM139.642 187.751C133.263 187.587 128.806 188.165 125.812 188.973C124.312 189.378 123.173 189.842 122.34 190.303C121.516 190.76 120.964 191.23 120.676 191.663C120.63 191.732 120.599 191.798 120.575 191.858C119.277 195.136 119.735 199.042 121.776 202.024C123.83 205.023 127.471 207.069 132.481 206.638C137.467 206.209 140.453 204.266 142.231 201.681C143.992 199.122 144.528 195.987 144.742 193.24C144.921 190.936 144.133 189.493 143.002 188.663C141.91 187.862 140.561 187.68 139.642 187.751Z" fill="#E48282"/>
<path d="M132.191 194.713C127.578 194.713 126.083 191.66 125.833 189.683C125.787 189.321 126.016 188.993 126.358 188.883C129.759 187.795 134.47 187.658 137.028 187.745C137.439 187.759 138.05 188.304 138.06 188.722C138.117 191.155 136.821 194.713 132.191 194.713Z" fill="white"/>
<path fill-rule="evenodd" clip-rule="evenodd" d="M126.666 188.773C130.177 187.785 135 187.665 137.6 187.742C138.224 187.761 138.768 188.194 138.784 188.787C138.814 189.917 138.562 191.388 137.658 192.589C136.737 193.813 135.171 194.713 132.694 194.713C130.259 194.713 128.6 194.001 127.518 193.02C126.445 192.049 125.972 190.845 125.837 189.901C125.761 189.376 126.141 188.921 126.666 188.773ZM137.571 188.513C134.996 188.436 130.292 188.561 126.925 189.509C126.758 189.556 126.675 189.685 126.692 189.803C126.81 190.618 127.219 191.652 128.131 192.478C129.034 193.296 130.463 193.942 132.694 193.942C134.899 193.942 136.19 193.158 136.943 192.158C137.713 191.135 137.949 189.84 137.921 188.806C137.917 188.655 137.778 188.52 137.571 188.513Z" fill="white"/>
<path fill-rule="evenodd" clip-rule="evenodd" d="M132.919 189.726C133.141 189.685 133.351 189.852 133.388 190.1C133.459 190.57 133.543 191.339 133.567 192.133C133.591 192.912 133.561 193.776 133.373 194.402C133.302 194.64 133.07 194.769 132.857 194.689C132.643 194.61 132.527 194.353 132.598 194.115C132.737 193.653 132.775 192.928 132.751 192.164C132.728 191.415 132.648 190.686 132.583 190.249C132.546 190.002 132.696 189.768 132.919 189.726Z" fill="#686868"/>
<path d="M135.756 200.1C131.494 198.788 126.689 201.027 124.175 202.727C123.731 203.028 122.672 203.385 123.108 203.7C124.156 204.458 126.917 205.84 127.484 206.057C127.578 206.093 127.675 206.113 127.77 206.147C131.536 207.531 137.191 206.019 139.304 204.653C142.298 202.348 140.548 201.576 135.756 200.1Z" fill="#F8ACAC"/>
<path fill-rule="evenodd" clip-rule="evenodd" d="M128.903 201.017C126.886 201.542 125.08 202.393 123.841 203.128C123.734 203.191 123.701 203.272 123.699 203.332C123.698 203.393 123.727 203.471 123.83 203.537C124.35 203.867 125.04 204.277 125.67 204.628C126.314 204.987 126.853 205.26 127.092 205.34C127.121 205.35 127.154 205.358 127.203 205.371C127.206 205.372 127.209 205.372 127.212 205.373C127.256 205.384 127.315 205.399 127.375 205.418C129.177 205.999 131.471 205.98 133.604 205.653C135.727 205.327 137.619 204.708 138.624 204.143C139.364 203.642 139.732 203.273 139.864 203.007C139.923 202.888 139.924 202.81 139.91 202.754C139.894 202.693 139.848 202.607 139.722 202.496C139.456 202.262 138.95 202.013 138.156 201.736C137.376 201.463 136.375 201.179 135.167 200.853C133.12 200.301 130.921 200.491 128.903 201.017ZM128.673 200.231C130.784 199.682 133.154 199.463 135.404 200.07C136.61 200.396 137.641 200.687 138.456 200.972C139.256 201.252 139.908 201.546 140.31 201.9C140.518 202.083 140.682 202.302 140.749 202.566C140.816 202.834 140.77 203.101 140.645 203.352C140.41 203.826 139.871 204.303 139.111 204.815L139.097 204.825L139.083 204.833C137.955 205.472 135.94 206.12 133.742 206.457C131.544 206.794 129.09 206.831 127.096 206.189C127.065 206.179 127.031 206.171 126.979 206.158L126.979 206.157C126.932 206.145 126.868 206.129 126.803 206.108C126.471 205.996 125.859 205.679 125.231 205.33C124.589 204.971 123.885 204.553 123.349 204.213L123.589 203.875L123.349 204.213C123.013 204 122.829 203.665 122.837 203.315C122.845 202.966 123.043 202.639 123.383 202.438C124.679 201.67 126.561 200.781 128.673 200.231Z" fill="#F8ACAC"/>
<path d="M137.661 171.277C133.046 169.74 128.047 171.917 126.124 173.198C122.279 175.12 128.047 178.962 129.97 180.883C131.508 182.42 134.456 181.524 135.738 180.883C138.302 178.322 142.275 172.814 137.661 171.277Z" fill="#E9B68F"/>
<path d="M127.638 171.308C125.143 172.768 121.754 177.437 113.212 179.409C104.669 181.38 97.2769 180.949 96.7014 178.446C96.1259 175.944 102.585 172.317 111.127 170.346C119.67 168.375 127.062 168.805 127.638 171.308Z" fill="#686868"/>
<path d="M167.877 168.206C167.906 170.774 160.78 172.936 151.961 173.035C143.142 173.134 135.969 171.133 135.94 168.565C135.911 165.997 143.037 163.835 151.856 163.735C160.676 163.636 167.848 165.638 167.877 168.206Z" fill="#686868"/>
<defs>
<linearGradient id="paint0_linear_381_9711" x1="79.1566" y1="312.132" x2="56.6288" y2="312.132" gradientUnits="userSpaceOnUse">
<stop stop-color="#545454"/>
<stop offset="1" stop-color="#686868" stop-opacity="0"/>
</linearGradient>
<linearGradient id="paint1_linear_381_9711" x1="30.326" y1="0" x2="30.326" y2="13.019" gradientUnits="userSpaceOnUse">
<stop stop-color="#545454"/>
<stop offset="1" stop-color="#686868" stop-opacity="0"/>
</linearGradient>
<linearGradient id="paint2_linear_381_9711" x1="111.897" y1="156.276" x2="104.599" y2="59.3514" gradientUnits="userSpaceOnUse">
<stop stop-color="#545454"/>
<stop offset="1" stop-color="#686868"/>
</linearGradient>
</defs>
</svg>
