<svg width="343" height="500" viewBox="0 0 343 500" fill="none" xmlns="http://www.w3.org/2000/svg">
<path d="M41 468V48.3393L300 42V468H41Z" fill="#EEECDD"/>
<path d="M305.47 0C155.787 7.17042 64.0281 2.98768 36.5789 0V50.9772C182.676 42.9105 276.527 47.6161 305.47 50.9772V0Z" fill="#D0CDB5"/>
<path fill-rule="evenodd" clip-rule="evenodd" d="M36.5787 0L29.8564 0.560189L28.7713 19.4412L5.71289 14.4103C3.36252 13.8975 1.09445 15.5604 0.876654 17.9562L0.0167825 27.4148C-0.201158 29.8122 1.7324 31.8575 4.1382 31.7746L28.11 30.948L27.0555 49.2966L36.5787 50.9772V0Z" fill="#947E5E"/>
<path fill-rule="evenodd" clip-rule="evenodd" d="M305.47 0L312.192 0.560189L313.277 19.4412L336.336 14.4103C338.686 13.8975 340.954 15.5604 341.172 17.9562L342.032 27.4148C342.25 29.8122 340.316 31.8575 337.91 31.7746L313.938 30.948L314.993 49.2966L305.47 50.9772V0Z" fill="#947E5E"/>
<path d="M305.47 449C155.787 456.17 64.0281 451.988 36.5789 449V499.977C182.676 491.91 276.527 496.616 305.47 499.977V449Z" fill="#D0CDB5"/>
<path fill-rule="evenodd" clip-rule="evenodd" d="M36.5787 449L29.8564 449.56L28.7713 468.441L5.71289 463.41C3.36252 462.898 1.09445 464.56 0.876654 466.956L0.0167825 476.415C-0.201158 478.812 1.7324 480.858 4.1382 480.775L28.11 479.948L27.0555 498.297L36.5787 499.977V449Z" fill="#947E5E"/>
<path fill-rule="evenodd" clip-rule="evenodd" d="M305.47 449L312.192 449.56L313.277 468.441L336.335 463.41C338.686 462.898 340.954 464.56 341.172 466.956L342.032 476.415C342.249 478.812 340.316 480.858 337.91 480.775L313.938 479.948L314.993 498.297L305.47 499.977V449Z" fill="#947E5E"/>
</svg>
