<svg width="160" height="160" viewBox="0 0 160 160" fill="none" xmlns="http://www.w3.org/2000/svg">
<path d="M13.8502 90.6712C11.7899 86.8637 6.78436 73.088 4.53916 66.6761L4.14294 64.693L4.53916 64.2964L5.52969 65.6845L12.6615 72.2287L23.3593 78.3762L39.8021 83.9288L68.7256 87.3L94.8757 88.0932L113.696 84.9203C121.554 82.8711 138.697 78.0985 144.402 75.4016C150.108 72.7046 153.779 67.5354 154.902 65.2879C155.232 65.0896 155.853 65.0499 155.694 66.4778C155.496 68.2625 144.204 91.2661 143.61 93.0509C143.016 94.8356 127.761 110.502 125.978 113.08C124.195 115.658 105.97 124.978 105.97 125.573C105.97 126.168 103.79 130.333 102.602 131.324C101.413 132.316 86.9514 133.307 85.7628 132.911C84.5742 132.514 62.5843 131.324 61.5938 129.936C60.6033 128.548 61.3957 126.961 60.009 126.565C58.6222 126.168 33.8589 111.295 31.6797 109.709C29.5006 108.122 16.4255 95.4306 13.8502 90.6712Z" fill="#EEECDD"/>
<path d="M33.7801 83.672C18.0758 79.3919 7.99879 70.1315 4.92335 66.0363C3.50996 62.7073 4.33444 58.5725 4.92335 56.9213C4.92335 54.7416 19.0573 37.304 28.2836 34.1335C37.5099 30.9631 69.7039 27 85.0156 27C100.327 27 140.177 41.8615 147.048 46.6172C153.919 51.3729 157.648 59.1009 154.704 67.2253C151.759 75.3496 138.999 78.7182 122.51 83.8702C109.318 87.9918 92.0172 89.5506 85.0156 89.8148C74.4806 89.5506 49.4845 87.9522 33.7801 83.672Z" fill="#B1AFC3" stroke="#B1AFC3"/>
<path d="M9.46975 68.8985C5.69283 65.7111 5.01089 61.9924 5.14203 60.5315C5.14203 57.9816 7.37147 54.2895 8.48618 52.7622C19.8956 42.6023 17.535 34.6337 52.3535 30.6494C87.172 26.6651 88.549 27.2628 104.286 31.6455C120.023 36.0282 146.776 45.3912 151.498 53.1606C155.274 59.3761 153.465 65.3126 152.088 67.504C145.596 77.2655 133.203 78.0623 121.007 82.445C108.811 86.8278 87.7621 87.6246 85.5982 87.8238C83.4344 88.023 57.8615 87.2262 39.9605 83.2419C22.0595 79.2576 14.1909 72.8828 9.46975 68.8985Z" fill="#EEECDD" stroke="#B1AFC3"/>
<path d="M62.2146 127.111C65.4684 127.624 74.7481 128.497 85.837 127.881" stroke="#B1AFC3" stroke-linecap="round"/>
<path d="M103.554 126.13C101.631 126.457 97.1675 127.111 94.6954 127.111" stroke="#B1AFC3" stroke-linecap="round"/>
<path d="M45.3686 53.7147C14.6839 63.3312 15.0492 76.2989 19.0674 81.5807L23.9988 89.7765C59.4324 91.4157 132.601 91.3065 141.806 77.756C153.313 60.8178 83.7245 41.6941 45.3686 53.7147Z" fill="#E4DBBB"/>
<path d="M62.2784 71.1122C52.7941 65.5911 38.2993 65.8858 35.0641 68.1856C28.3012 72.4228 31.1617 79.6807 33.3939 83.5613C35.626 87.442 51.8231 97.127 61.8292 93.5696C71.8354 90.0121 74.1339 78.0136 62.2784 71.1122Z" fill="#D0CDB5"/>
<path d="M61.5606 68.9733C52.0762 63.4522 37.5815 63.7469 34.3463 66.0467C27.5834 70.2839 30.4439 77.5418 32.676 81.4224C34.9082 85.3031 51.1053 94.9881 61.1114 91.4306C71.1175 87.8732 73.416 75.8747 61.5606 68.9733Z" fill="#FCFAF0"/>
<path d="M90.6141 69.7014C81.8024 63.1688 67.3659 61.8664 63.8956 63.7966C56.7047 67.2646 58.7413 74.7948 60.5285 78.8983C62.3157 83.0019 77.3357 94.4127 87.6741 91.9774C98.0124 89.5422 101.629 77.867 90.6141 69.7014Z" fill="#D0CDB5"/>
<path d="M90.1379 67.496C81.3261 60.9635 66.8897 59.6611 63.4194 61.5913C56.2284 65.0593 58.265 72.5894 60.0522 76.693C61.8395 80.7966 76.8594 92.2074 87.1978 89.7721C97.5362 87.3368 101.153 75.6617 90.1379 67.496Z" fill="#FCFAF0"/>
<path d="M97.2407 73.0961C106.725 67.575 121.22 67.8697 124.455 70.1695C131.218 74.4067 128.357 81.6646 126.125 85.5452C123.893 89.4259 107.696 99.1109 97.6899 95.5534C87.6838 91.996 85.3853 79.9975 97.2407 73.0961Z" fill="#D0CDB5"/>
<path d="M97.9586 70.9572C107.443 65.4361 121.938 65.7307 125.173 68.0306C131.936 72.2678 129.075 79.5257 126.843 83.4063C124.611 87.287 108.414 96.972 98.4078 93.4145C88.4016 89.8571 86.1031 77.8585 97.9586 70.9572Z" fill="#FCFAF0"/>
<path d="M86.8343 64.4147C98.454 61.8662 113.838 66.1429 116.664 69.188C122.727 75.0198 117.702 81.022 114.266 84.0372C110.829 87.0525 90.9156 91.6446 81.2076 85.5537C71.4996 79.4627 72.3097 67.6004 86.8343 64.4147Z" fill="#D0CDB5"/>
<path d="M88.1805 62.612C99.8002 60.0635 115.184 64.3402 118.01 67.3853C124.073 73.2171 119.048 79.2192 115.612 82.2345C112.175 85.2498 92.2618 89.8419 82.5538 83.7509C72.8458 77.66 73.6558 65.7977 88.1805 62.612Z" fill="white"/>
<path d="M51.8798 61.9813C58.0132 52.8981 71.1928 46.8837 75.1082 47.554C83.0442 48.4415 83.632 56.2197 83.3135 60.683C82.995 65.1463 72.6323 80.8892 62.0722 82.0193C51.5121 83.1494 44.213 73.3353 51.8798 61.9813Z" fill="#D0CDB5"/>
<path d="M51.5941 59.744C57.7276 50.6608 70.9071 44.6464 74.8225 45.3167C82.7586 46.2042 83.3463 53.9824 83.0279 58.4457C82.7094 62.909 72.3466 78.6519 61.7865 79.782C51.2264 80.9121 43.9273 71.098 51.5941 59.744Z" fill="white"/>
<path d="M109.676 52.5616C103.382 42.905 89.6265 36.3546 85.4978 36.9923C77.1374 37.7895 76.3858 45.9585 76.644 50.6573C76.9022 55.3562 87.5288 72.0883 98.6138 73.4577C109.699 74.8271 117.543 64.6323 109.676 52.5616Z" fill="#D0CDB5"/>
<path d="M110.015 50.2134C103.721 40.5568 89.9654 34.0064 85.8367 34.6442C77.4763 35.4413 76.7247 43.6104 76.9829 48.3092C77.2411 53.008 87.8677 69.7401 98.9527 71.1096C110.038 72.479 117.882 62.2842 110.015 50.2134Z" fill="white"/>
<path d="M13.8502 90.5298C11.7899 86.7223 6.78436 72.9466 4.53916 66.5347L4.14294 64.5516L4.53916 64.155L5.52969 65.5432L12.6615 72.0873L23.3593 78.2348L39.8021 83.7874L68.7256 87.1586L94.8757 87.9519L113.696 84.7789C121.554 82.7298 138.697 77.9572 144.402 75.2602C150.108 72.5632 153.779 67.394 154.902 65.1466C155.232 64.9483 155.853 64.9086 155.694 66.3364C155.496 68.1212 144.204 91.1248 143.61 92.9095C143.016 94.6943 127.761 110.361 125.978 112.939C124.195 115.516 105.97 124.837 105.97 125.432C105.97 126.027 103.79 130.191 102.602 131.183C101.413 132.174 86.9514 133.166 85.7628 132.769C84.5742 132.373 62.5843 131.183 61.5938 129.795C60.6033 128.406 61.3957 126.82 60.009 126.423C58.6222 126.027 33.8589 111.154 31.6797 109.567C29.5006 107.981 16.4255 95.2892 13.8502 90.5298Z" fill="#EEECDD"/>
<path d="M62.2146 126.97C65.4684 127.483 74.7481 128.355 85.837 127.739" stroke="#B1AFC3" stroke-linecap="round"/>
<path d="M103.554 125.988C101.631 126.315 97.1675 126.97 94.6954 126.97" stroke="#B1AFC3" stroke-linecap="round"/>
<path fill-rule="evenodd" clip-rule="evenodd" d="M6.68037 64.5481L5.9295 65.2656C6.62551 66.5368 7.65605 67.8809 9.14722 69.1393C13.9102 73.1589 21.8501 79.582 39.8518 83.5887C48.837 85.5885 59.7332 86.786 68.6431 87.459C73.1004 87.7956 77.0657 88.0014 80.0535 88.1106C83.0226 88.2191 85.0637 88.2339 85.644 88.1804C85.8842 88.1583 86.3902 88.1273 87.1145 88.083L87.1149 88.083C89.4867 87.9377 94.1997 87.6491 99.5947 87.059C106.657 86.2864 115.019 84.9869 121.176 82.7743C124.206 81.6853 127.252 80.8181 130.232 79.9741L130.421 79.9206L130.421 79.9206C133.329 79.0969 136.178 78.2903 138.857 77.3204C143.361 75.6899 147.431 73.5831 150.588 70.1022L149.855 69.4213C146.851 72.7381 142.949 74.7755 138.516 76.3801C135.871 77.3377 133.053 78.1358 130.132 78.9631L130.132 78.9631L129.959 79.0119C126.983 79.8549 123.905 80.7309 120.838 81.8332C114.799 84.0033 106.537 85.2936 99.4859 86.0649C94.1327 86.6505 89.5508 86.9312 87.147 87.0785L87.1468 87.0785C86.3756 87.1257 85.8286 87.1592 85.5523 87.1847C85.0507 87.2308 83.0838 87.2207 80.09 87.1113C77.1148 87.0026 73.1624 86.7975 68.7184 86.4618C59.8256 85.7901 48.9849 84.597 40.0691 82.6126C22.2688 78.6507 14.4714 72.324 9.79217 68.3751C8.30105 67.1167 7.31607 65.779 6.68037 64.5481Z" fill="#B1AFC3"/>
<path fill-rule="evenodd" clip-rule="evenodd" d="M5.43338 65.7397L4.70648 66.4344C8.0435 70.7208 18.1266 79.7827 33.6487 84.0131C49.4153 88.3102 74.4631 89.909 85.0031 90.1733L85.0188 90.1737L85.0345 90.1731C92.0543 89.9082 109.406 88.3469 122.659 84.2061C123.886 83.8227 125.094 83.4488 126.279 83.0818C133.04 80.989 139.079 79.1192 143.89 76.9778C147.342 75.4405 150.216 73.7409 152.281 71.6759L151.548 70.9945C149.621 72.9124 146.893 74.5458 143.483 76.0642C138.732 78.1793 132.76 80.0283 125.995 82.1229L125.994 82.1232C124.807 82.4909 123.595 82.8661 122.361 83.2516C109.24 87.351 92.0058 88.908 85.0125 89.1732C74.4733 88.908 49.5459 87.3093 33.9116 83.0483C18.505 78.8493 8.57322 69.8233 5.43338 65.7397Z" fill="#B1AFC3"/>
<path d="M5.23883 66.7454L6.88266 65.6526L12.3621 71.1165L20.5812 76.5804L34.2797 82.0443L55.6495 85.8691L75.9233 87.5083L94.5533 86.9619L114.279 84.2299L131.265 79.3124L144.416 74.3949L149.895 70.0237L151.539 71.6629L146.06 76.034L134.005 80.4052L113.731 86.4155L95.6492 89.1474L83.5945 89.6938L57.2933 88.0546L35.9236 84.2299L22.773 79.8588L14.0059 73.8485L5.23883 66.7454Z" fill="#B1AFC3"/>
<path d="M4.14292 63.6085C3.04706 67.4333 8.52645 70.7116 11.2662 72.8972L13.4579 73.4436L10.1703 70.7117L5.78675 64.7013C5.6041 63.4264 4.79141 61.3452 4.14292 63.6085Z" fill="#B1AFC3"/>
<path d="M155.923 64.7014C156.501 66.4315 153.731 71.2581 150.991 72.8972L148.252 72.3509L150.991 69.0725L153.731 65.2478C154.279 64.7014 155.484 63.39 155.923 64.7014Z" fill="#B1AFC3"/>
<path d="M86.319 52.6763C91.0526 49.2414 98.223 52.0941 101.339 53.4912C99.6112 56.2005 95.5709 61.6414 93.2347 61.7308C90.3143 61.8425 88.5081 60.1791 86.5502 57.6387C84.9839 55.6063 85.8252 53.1778 86.319 52.6763Z" fill="#5F4431"/>
<path d="M101.197 53.3202C99.9657 52.3865 93.0981 51.68 87.6914 53.1211C83.8536 55.4186 89.8356 61.0896 91.1228 61.6053C92.4101 62.1209 93.8083 63.1177 94.9505 64.3251C96.0927 65.5325 105.026 67.488 105.685 63.0819C106.212 59.557 103.624 56.4283 102.265 55.3045C102.422 55.0321 102.428 54.2539 101.197 53.3202Z" fill="#78543B"/>
<path d="M116.382 52.8183C116.251 51.628 115.411 50.9151 115.008 50.7074C109.408 55.439 98.1321 65.2283 97.8277 66.5329C97.4472 68.1637 97.6854 67.7478 99.9034 68.2235C102.121 68.6993 104.708 65.3104 108.634 65.2186C112.561 65.1269 115.836 62.1453 116.472 61.0362C117.107 59.9271 116.113 59.2468 116.552 57.8362C116.991 56.4255 116.41 55.9897 116.089 54.7792C115.767 53.5687 116.544 54.3061 116.382 52.8183Z" fill="#5E3E2A"/>
<path d="M101.268 58.9173C102.598 57.6253 103.449 55.753 103.708 54.9784C104.185 51.0854 111.855 49.7728 113.797 50.0857C115.739 50.3985 115.756 51.336 114.903 52.5023C114.051 53.6685 114.497 55.7879 115.282 56.994C116.067 58.2002 115.398 60.4954 113.823 62.4406C112.248 64.3858 109.767 62.9197 103.877 66.1186C97.9865 69.3175 97.2516 67.8627 97.0808 65.9062C96.91 63.9497 99.605 60.5324 101.268 58.9173Z" fill="#84604A"/>
<path d="M50.1548 65.895C54.8884 69.3299 62.0588 66.4772 65.175 65.0801C63.447 62.3708 59.4068 56.9298 57.0705 56.8405C54.1502 56.7288 52.3439 58.3921 50.386 60.9326C48.8197 62.965 49.661 65.3935 50.1548 65.895Z" fill="#5F4431"/>
<path d="M65.0328 65.2511C63.8015 66.1848 56.9339 66.8913 51.5272 65.4501C47.6895 63.1527 53.6714 57.4817 54.9586 56.966C56.2459 56.4504 57.6442 55.4536 58.7863 54.2462C59.9285 53.0388 68.8621 51.0833 69.5211 55.4894C70.0483 59.0143 67.4603 62.143 66.1004 63.2668C66.2576 63.5392 66.2642 64.3174 65.0328 65.2511Z" fill="#78543B"/>
<path d="M81.4564 73.4581C81.3263 74.6483 80.4863 75.3612 80.0826 75.5689C74.4827 70.8373 63.2069 61.048 62.9025 59.7434C62.522 58.1127 62.7602 58.5286 64.9782 58.0529C67.1962 57.5771 69.7826 60.9659 73.7091 61.0577C77.6356 61.1495 80.9112 64.1311 81.5464 65.2402C82.1816 66.3493 81.1876 67.0295 81.6265 68.4402C82.0654 69.8508 81.4849 70.2867 81.1635 71.4972C80.8421 72.7077 81.6189 71.9703 81.4564 73.4581Z" fill="#5E3E2A"/>
<path d="M66.3426 67.359C67.6729 68.6511 68.5238 70.5233 68.7829 71.2979C69.26 75.191 76.9294 76.5035 78.8716 76.1907C80.8139 75.8779 80.8304 74.9404 79.978 73.7741C79.1256 72.6079 79.5721 70.4885 80.3571 69.2823C81.1421 68.0762 80.4732 65.7809 78.8981 63.8357C77.3229 61.8906 74.842 63.3567 68.9517 60.1578C63.0613 56.9589 62.3265 58.4137 62.1557 60.3702C61.9848 62.3267 64.6798 65.744 66.3426 67.359Z" fill="#84604A"/>
<path d="M99.0802 73.7982C84.3586 58.5115 63.3643 49.722 54.7073 47.238L52.2189 49.8027C57.2277 48.496 83.5862 67.2758 96.1393 76.8291L99.0802 73.7982Z" fill="#FFCA43"/>
<path d="M107.614 67.8408C96.5818 56.0359 78.8233 51.1873 71.3232 50.2386L68.6571 52.9864C73.4236 51.0075 94.514 64.2297 104.463 71.0882L107.614 67.8408Z" fill="#FFCA43"/>
<path d="M104.327 60.1914C93.2942 48.3865 75.5357 43.5379 68.0356 42.5892L65.3695 45.337C70.136 43.3581 91.2264 56.5803 101.176 63.4388L104.327 60.1914Z" fill="#FFCA43"/>
<path d="M77.5819 39.0205H80.3216L97.3078 49.402L102.239 57.5978L99.4996 59.237L93.4722 50.4947L77.5819 39.0205Z" fill="#333332"/>
<path d="M90.1846 57.0513L87.9928 53.2266L86.8969 50.4946L84.1572 52.1338L87.9928 57.0513L86.8969 63.0616L90.1846 64.1544V57.0513Z" fill="#333332"/>
<path d="M64.0665 53.9301L69.5552 52.954L73.1608 51.8316L73.2752 55.5802L65.5361 55.9141L59.955 61.5577L56.6024 59.4275L64.0665 53.9301Z" fill="#333332"/>
<path d="M78.5061 38.9861C70.6249 41.2362 59.5162 49.7865 57.1143 55.4867C54.112 62.612 111.532 32.2356 78.5061 38.9861Z" fill="#8CC638"/>
<path d="M92.2992 41.1716C86.5921 43.4217 78.5479 51.972 76.8086 57.6722C74.6345 64.7975 116.215 34.4212 92.2992 41.1716Z" fill="#4D8A18"/>
<path d="M76.2333 55.9861C84.1145 58.2362 95.2232 66.7865 97.6251 72.4867C100.627 79.612 43.2074 49.2356 76.2333 55.9861Z" fill="#8CC638"/>
<path d="M67.1195 80.3419C74.9372 82.8034 88.9183 81.7832 94.062 78.3476C100.492 74.0531 35.8344 67.7912 67.1195 80.3419Z" fill="#8CC638"/>
<path d="M65.4402 59.9861C71.1472 62.2362 79.1915 70.7865 80.9308 76.4867C83.1049 83.612 41.5249 53.2356 65.4402 59.9861Z" fill="#4D8A18"/>
<path d="M105.543 60.524C99.9032 54.5769 87.1846 48.682 81.0198 49.1886C73.3138 49.8219 126.802 86.6838 105.543 60.524Z" fill="#8CC638"/>
<path d="M83.9606 72.1141C88.4782 67.9639 92.9133 57.0943 92.4885 51.1498C91.9576 43.7192 64.0673 87.0061 83.9606 72.1141Z" fill="#4D8A18"/>
<path d="M62.2734 63.7822C56.1495 64.1451 45.8444 69.7684 42.418 74.6446C38.135 80.7399 87.102 64.8072 62.2734 63.7822Z" fill="#4D8A18"/>
</svg>
