<svg width="160" height="160" viewBox="0 0 160 160" fill="none" xmlns="http://www.w3.org/2000/svg">
<path d="M13.8502 90.6712C11.7899 86.8637 6.78436 73.088 4.53916 66.6761L4.14294 64.693L4.53916 64.2964L5.52969 65.6845L12.6615 72.2287L23.3593 78.3762L39.8021 83.9288L68.7256 87.3L94.8757 88.0932L113.696 84.9203C121.554 82.8711 138.697 78.0985 144.402 75.4016C150.108 72.7046 153.779 67.5354 154.902 65.2879C155.232 65.0896 155.853 65.0499 155.694 66.4778C155.496 68.2625 144.204 91.2661 143.61 93.0509C143.016 94.8356 127.761 110.502 125.978 113.08C124.195 115.658 105.97 124.978 105.97 125.573C105.97 126.168 103.79 130.333 102.602 131.324C101.413 132.316 86.9514 133.307 85.7628 132.911C84.5742 132.514 62.5843 131.324 61.5938 129.936C60.6033 128.548 61.3957 126.961 60.009 126.565C58.6222 126.168 33.8589 111.295 31.6797 109.709C29.5006 108.122 16.4255 95.4306 13.8502 90.6712Z" fill="#EEECDD"/>
<path d="M33.7801 83.672C18.0758 79.3919 7.99879 70.1315 4.92335 66.0363C3.50996 62.7073 4.33444 58.5725 4.92335 56.9213C4.92335 54.7416 19.0573 37.304 28.2836 34.1335C37.5099 30.9631 69.7039 27 85.0156 27C100.327 27 140.177 41.8615 147.048 46.6172C153.919 51.3729 157.648 59.1009 154.704 67.2253C151.759 75.3496 138.999 78.7182 122.51 83.8702C109.318 87.9918 92.0172 89.5506 85.0156 89.8148C74.4806 89.5506 49.4845 87.9522 33.7801 83.672Z" fill="#B1AFC3" stroke="#B1AFC3"/>
<path d="M9.46975 68.8985C5.69283 65.7111 5.01089 61.9924 5.14203 60.5315C5.14203 57.9816 7.37147 54.2895 8.48618 52.7622C19.8956 42.6023 17.535 34.6337 52.3535 30.6494C87.172 26.6651 88.549 27.2628 104.286 31.6455C120.023 36.0282 146.776 45.3912 151.498 53.1606C155.274 59.3761 153.465 65.3126 152.088 67.504C145.596 77.2655 133.203 78.0623 121.007 82.445C108.811 86.8278 87.7621 87.6246 85.5982 87.8238C83.4344 88.023 57.8615 87.2262 39.9605 83.2419C22.0595 79.2576 14.1909 72.8828 9.46975 68.8985Z" fill="#EEECDD" stroke="#B1AFC3"/>
<path d="M62.2146 127.111C65.4684 127.624 74.7481 128.497 85.837 127.881" stroke="#B1AFC3" stroke-linecap="round"/>
<path d="M103.554 126.13C101.631 126.457 97.1675 127.111 94.6954 127.111" stroke="#B1AFC3" stroke-linecap="round"/>
<path d="M45.3686 53.7147C14.6839 63.3312 15.0492 76.2989 19.0674 81.5807L23.9988 89.7765C59.4324 91.4157 132.601 91.3065 141.806 77.756C153.313 60.8178 83.7245 41.6941 45.3686 53.7147Z" fill="#E4DBBB"/>
<path d="M62.2784 71.1122C52.7941 65.5911 38.2993 65.8858 35.0641 68.1856C28.3012 72.4228 31.1617 79.6807 33.3939 83.5613C35.626 87.442 51.8231 97.127 61.8292 93.5696C71.8354 90.0121 74.1339 78.0136 62.2784 71.1122Z" fill="#D0CDB5"/>
<path d="M61.5606 68.9733C52.0762 63.4522 37.5815 63.7469 34.3463 66.0467C27.5834 70.2839 30.4439 77.5418 32.676 81.4224C34.9082 85.3031 51.1053 94.9881 61.1114 91.4306C71.1175 87.8732 73.416 75.8747 61.5606 68.9733Z" fill="#FCFAF0"/>
<path d="M90.6141 69.7014C81.8024 63.1688 67.3659 61.8664 63.8956 63.7966C56.7047 67.2646 58.7413 74.7948 60.5285 78.8983C62.3157 83.0019 77.3357 94.4127 87.6741 91.9774C98.0124 89.5422 101.629 77.867 90.6141 69.7014Z" fill="#D0CDB5"/>
<path d="M90.1379 67.496C81.3261 60.9635 66.8897 59.6611 63.4194 61.5913C56.2284 65.0593 58.265 72.5894 60.0522 76.693C61.8395 80.7966 76.8594 92.2074 87.1978 89.7721C97.5362 87.3368 101.153 75.6617 90.1379 67.496Z" fill="#FCFAF0"/>
<path d="M97.2407 73.0961C106.725 67.575 121.22 67.8697 124.455 70.1695C131.218 74.4067 128.357 81.6646 126.125 85.5452C123.893 89.4259 107.696 99.1109 97.6899 95.5534C87.6838 91.996 85.3853 79.9975 97.2407 73.0961Z" fill="#D0CDB5"/>
<path d="M97.9586 70.9572C107.443 65.4361 121.938 65.7307 125.173 68.0306C131.936 72.2678 129.075 79.5257 126.843 83.4063C124.611 87.287 108.414 96.972 98.4078 93.4145C88.4016 89.8571 86.1031 77.8585 97.9586 70.9572Z" fill="#FCFAF0"/>
<path d="M86.8343 64.4147C98.454 61.8662 113.838 66.1429 116.664 69.188C122.727 75.0198 117.702 81.022 114.266 84.0372C110.829 87.0525 90.9156 91.6446 81.2076 85.5537C71.4996 79.4627 72.3097 67.6004 86.8343 64.4147Z" fill="#D0CDB5"/>
<path d="M88.1805 62.612C99.8002 60.0635 115.184 64.3402 118.01 67.3853C124.073 73.2171 119.048 79.2192 115.612 82.2345C112.175 85.2498 92.2618 89.8419 82.5538 83.7509C72.8458 77.66 73.6558 65.7977 88.1805 62.612Z" fill="white"/>
<path d="M51.8798 61.9813C58.0132 52.8981 71.1928 46.8837 75.1082 47.554C83.0442 48.4415 83.632 56.2197 83.3135 60.683C82.995 65.1463 72.6323 80.8892 62.0722 82.0193C51.5121 83.1494 44.213 73.3353 51.8798 61.9813Z" fill="#D0CDB5"/>
<path d="M51.5941 59.744C57.7276 50.6608 70.9071 44.6464 74.8225 45.3167C82.7586 46.2042 83.3463 53.9824 83.0279 58.4457C82.7094 62.909 72.3466 78.6519 61.7865 79.782C51.2264 80.9121 43.9273 71.098 51.5941 59.744Z" fill="white"/>
<path d="M109.676 52.5616C103.382 42.905 89.6265 36.3546 85.4978 36.9923C77.1374 37.7895 76.3858 45.9585 76.644 50.6573C76.9022 55.3562 87.5288 72.0883 98.6138 73.4577C109.699 74.8271 117.543 64.6323 109.676 52.5616Z" fill="#D0CDB5"/>
<path d="M110.015 50.2134C103.721 40.5568 89.9654 34.0064 85.8367 34.6442C77.4763 35.4413 76.7247 43.6104 76.9829 48.3092C77.2411 53.008 87.8677 69.7401 98.9527 71.1096C110.038 72.479 117.882 62.2842 110.015 50.2134Z" fill="white"/>
<path d="M13.8502 90.5298C11.7899 86.7223 6.78436 72.9466 4.53916 66.5347L4.14294 64.5516L4.53916 64.155L5.52969 65.5432L12.6615 72.0873L23.3593 78.2348L39.8021 83.7874L68.7256 87.1586L94.8757 87.9519L113.696 84.7789C121.554 82.7298 138.697 77.9572 144.402 75.2602C150.108 72.5632 153.779 67.394 154.902 65.1466C155.232 64.9483 155.853 64.9086 155.694 66.3364C155.496 68.1212 144.204 91.1248 143.61 92.9095C143.016 94.6943 127.761 110.361 125.978 112.939C124.195 115.516 105.97 124.837 105.97 125.432C105.97 126.027 103.79 130.191 102.602 131.183C101.413 132.174 86.9514 133.166 85.7628 132.769C84.5742 132.373 62.5843 131.183 61.5938 129.795C60.6033 128.406 61.3957 126.82 60.009 126.423C58.6222 126.027 33.8589 111.154 31.6797 109.567C29.5006 107.981 16.4255 95.2892 13.8502 90.5298Z" fill="#EEECDD"/>
<path d="M62.2146 126.97C65.4684 127.483 74.7481 128.355 85.837 127.739" stroke="#B1AFC3" stroke-linecap="round"/>
<path d="M103.554 125.988C101.631 126.315 97.1675 126.97 94.6954 126.97" stroke="#B1AFC3" stroke-linecap="round"/>
<path fill-rule="evenodd" clip-rule="evenodd" d="M6.68037 64.5481L5.9295 65.2656C6.62551 66.5368 7.65605 67.8809 9.14722 69.1393C13.9102 73.1589 21.8501 79.582 39.8518 83.5887C48.837 85.5885 59.7332 86.786 68.6431 87.459C73.1004 87.7956 77.0657 88.0014 80.0535 88.1106C83.0226 88.2191 85.0637 88.2339 85.644 88.1804C85.8842 88.1583 86.3902 88.1273 87.1145 88.083L87.1149 88.083C89.4867 87.9377 94.1997 87.6491 99.5947 87.059C106.657 86.2864 115.019 84.9869 121.176 82.7743C124.206 81.6853 127.252 80.8181 130.232 79.9741L130.421 79.9206L130.421 79.9206C133.329 79.0969 136.178 78.2903 138.857 77.3204C143.361 75.6899 147.431 73.5831 150.588 70.1022L149.855 69.4213C146.851 72.7381 142.949 74.7755 138.516 76.3801C135.871 77.3377 133.053 78.1358 130.132 78.9631L130.132 78.9631L129.959 79.0119C126.983 79.8549 123.905 80.7309 120.838 81.8332C114.799 84.0033 106.537 85.2936 99.4859 86.0649C94.1327 86.6505 89.5508 86.9312 87.147 87.0785L87.1468 87.0785C86.3756 87.1257 85.8286 87.1592 85.5523 87.1847C85.0507 87.2308 83.0838 87.2207 80.09 87.1113C77.1148 87.0026 73.1624 86.7975 68.7184 86.4618C59.8256 85.7901 48.9849 84.597 40.0691 82.6126C22.2688 78.6507 14.4714 72.324 9.79217 68.3751C8.30105 67.1167 7.31607 65.779 6.68037 64.5481Z" fill="#B1AFC3"/>
<path fill-rule="evenodd" clip-rule="evenodd" d="M5.43338 65.7397L4.70648 66.4344C8.0435 70.7208 18.1266 79.7827 33.6487 84.0131C49.4153 88.3102 74.4631 89.909 85.0031 90.1733L85.0188 90.1737L85.0345 90.1731C92.0543 89.9082 109.406 88.3469 122.659 84.2061C123.886 83.8227 125.094 83.4488 126.279 83.0818C133.04 80.989 139.079 79.1192 143.89 76.9778C147.342 75.4405 150.216 73.7409 152.281 71.6759L151.548 70.9945C149.621 72.9124 146.893 74.5458 143.483 76.0642C138.732 78.1793 132.76 80.0283 125.995 82.1229L125.994 82.1232C124.807 82.4909 123.595 82.8661 122.361 83.2516C109.24 87.351 92.0058 88.908 85.0125 89.1732C74.4733 88.908 49.5459 87.3093 33.9116 83.0483C18.505 78.8493 8.57322 69.8233 5.43338 65.7397Z" fill="#B1AFC3"/>
<path d="M5.23883 66.7454L6.88266 65.6526L12.3621 71.1165L20.5812 76.5804L34.2797 82.0443L55.6495 85.8691L75.9233 87.5083L94.5533 86.9619L114.279 84.2299L131.265 79.3124L144.416 74.3949L149.895 70.0237L151.539 71.6629L146.06 76.034L134.005 80.4052L113.731 86.4155L95.6492 89.1474L83.5945 89.6938L57.2933 88.0546L35.9236 84.2299L22.773 79.8588L14.0059 73.8485L5.23883 66.7454Z" fill="#B1AFC3"/>
<path d="M4.14292 63.6085C3.04706 67.4333 8.52645 70.7116 11.2662 72.8972L13.4579 73.4436L10.1703 70.7117L5.78675 64.7013C5.6041 63.4264 4.79141 61.3452 4.14292 63.6085Z" fill="#B1AFC3"/>
<path d="M155.923 64.7014C156.501 66.4315 153.731 71.2581 150.991 72.8972L148.252 72.3509L150.991 69.0725L153.731 65.2478C154.279 64.7014 155.484 63.39 155.923 64.7014Z" fill="#B1AFC3"/>
<path d="M86.319 52.6763C91.0526 49.2414 98.223 52.0941 101.339 53.4912C99.6112 56.2005 95.5709 61.6414 93.2347 61.7308C90.3143 61.8425 88.5081 60.1791 86.5502 57.6387C84.9839 55.6063 85.8252 53.1778 86.319 52.6763Z" fill="#5F4431"/>
<path d="M101.197 53.3202C99.9657 52.3865 93.0981 51.68 87.6914 53.1211C83.8536 55.4186 89.8356 61.0896 91.1228 61.6053C92.4101 62.1209 93.8083 63.1177 94.9505 64.3251C96.0927 65.5325 105.026 67.488 105.685 63.0819C106.212 59.557 103.624 56.4283 102.265 55.3045C102.422 55.0321 102.428 54.2539 101.197 53.3202Z" fill="#78543B"/>
<path d="M116.525 53.7582C116.395 52.568 115.555 51.8551 115.151 51.6474C109.551 56.379 98.2753 66.1683 97.9709 67.4729C97.5904 69.1036 97.8286 68.6877 100.047 69.1635C102.265 69.6392 104.851 66.2504 108.777 66.1586C112.704 66.0668 115.98 63.0852 116.615 61.9761C117.25 60.867 116.256 60.1868 116.695 58.7761C117.134 57.3655 116.553 56.9296 116.232 55.7191C115.911 54.5086 116.687 55.246 116.525 53.7582Z" fill="#5E3E2A"/>
<path d="M101.411 59.8573C102.741 58.5652 103.592 56.693 103.851 55.9184C104.328 52.0253 111.998 50.7128 113.94 51.0256C115.882 51.3384 115.899 52.276 115.046 53.4422C114.194 54.6085 114.64 56.7278 115.425 57.934C116.21 59.1401 115.542 61.4354 113.966 63.3806C112.391 65.3258 109.91 63.8597 104.02 67.0585C98.1297 70.2574 97.3948 68.8026 97.224 66.8461C97.0532 64.8896 99.7482 61.4723 101.411 59.8573Z" fill="#84604A"/>
<path d="M42.3195 66.895C47.053 70.3299 54.2235 67.4772 57.3397 66.0801C55.6116 63.3708 51.5714 57.9298 49.2352 57.8405C46.3148 57.7288 44.5086 59.3921 42.5507 61.9326C40.9844 63.965 41.8257 66.3935 42.3195 66.895Z" fill="#5F4431"/>
<path d="M57.1975 66.2511C55.9661 67.1848 49.0986 67.8913 43.6918 66.4501C39.8541 64.1527 45.8361 58.4817 47.1233 57.966C48.4105 57.4504 49.8088 56.4536 50.951 55.2462C52.0932 54.0388 61.0268 52.0833 61.6858 56.4894C62.213 60.0143 59.625 63.143 58.2651 64.2668C58.4223 64.5392 58.4289 65.3174 57.1975 66.2511Z" fill="#78543B"/>
<path d="M73.2177 72.9395C70.4934 80.1966 60.4799 82.2816 56.0132 83.0139C55.9444 78.7552 56.4362 69.7865 58.9544 67.9806C62.102 65.7232 65.3147 66.2427 69.336 67.6212C72.5531 68.724 73.3973 72.0242 73.2177 72.9395Z" fill="#5F4431"/>
<path d="M56.2954 83.0992C58.3392 83.2319 66.4494 78.9949 71.3751 73.4506C73.94 68.1059 63.1814 66.206 61.3812 66.5764C59.5811 66.9468 57.3065 66.8663 55.1613 66.3658C53.016 65.8653 41.7085 70.2307 44.1994 75.5844C46.1921 79.8674 51.34 81.4361 53.6649 81.685C53.6901 82.1011 54.2515 82.9665 56.2954 83.0992Z" fill="#78543B"/>
<path d="M92.0531 52.9395C89.3287 60.1966 79.3152 62.2816 74.8486 63.0139C74.7797 58.7552 75.2716 49.7865 77.7897 47.9806C80.9373 45.7232 84.15 46.2427 88.1714 47.6212C91.3884 48.724 92.2326 52.0242 92.0531 52.9395Z" fill="#5F4431"/>
<path d="M75.1307 63.0992C77.1746 63.2319 85.2848 58.9949 90.2104 53.4506C92.7753 48.1059 82.0168 46.206 80.2166 46.5764C78.4164 46.9468 76.1418 46.8663 73.9966 46.3658C71.8513 45.8653 60.5438 50.2307 63.0347 55.5844C65.0274 59.8674 70.1753 61.4361 72.5002 61.685C72.5254 62.1011 73.0868 62.9665 75.1307 63.0992Z" fill="#78543B"/>
<path d="M108.053 63.9395C105.329 71.1966 95.3152 73.2816 90.8486 74.0139C90.7797 69.7552 91.2716 60.7865 93.7897 58.9806C96.9373 56.7232 100.15 57.2427 104.171 58.6212C107.388 59.724 108.233 63.0242 108.053 63.9395Z" fill="#5F4431"/>
<path d="M91.1307 74.0992C93.1746 74.2319 101.285 69.9949 106.21 64.4506C108.775 59.1059 98.0168 57.206 96.2166 57.5764C94.4164 57.9468 92.1418 57.8663 89.9966 57.3658C87.8513 56.8653 76.5438 61.2307 79.0347 66.5844C81.0274 70.8674 86.1753 72.4361 88.5002 72.685C88.5254 73.1011 89.0868 73.9665 91.1307 74.0992Z" fill="#78543B"/>
<path d="M81.4564 73.4581C81.3263 74.6483 80.4863 75.3612 80.0826 75.5689C74.4827 70.8373 63.2069 61.048 62.9025 59.7434C62.522 58.1127 62.7602 58.5286 64.9782 58.0529C67.1962 57.5771 69.7826 60.9659 73.7091 61.0577C77.6356 61.1495 80.9112 64.1311 81.5464 65.2402C82.1816 66.3493 81.1876 67.0295 81.6265 68.4402C82.0654 69.8508 81.4849 70.2867 81.1635 71.4972C80.8421 72.7077 81.6189 71.9703 81.4564 73.4581Z" fill="#5E3E2A"/>
<path d="M66.3426 67.359C67.6729 68.6511 68.5238 70.5233 68.7829 71.2979C69.26 75.191 76.9294 76.5035 78.8716 76.1907C80.8139 75.8779 80.8304 74.9404 79.978 73.7741C79.1256 72.6079 79.5721 70.4885 80.3571 69.2823C81.1421 68.0762 80.4732 65.7809 78.8981 63.8357C77.3229 61.8906 74.842 63.3567 68.9517 60.1578C63.0613 56.9589 62.3265 58.4137 62.1557 60.3702C61.9848 62.3267 64.6798 65.744 66.3426 67.359Z" fill="#84604A"/>
<path d="M82.4921 42.1921C74.6109 44.4422 63.5022 52.9925 61.1003 58.6928C58.0979 65.818 115.518 35.4417 82.4921 42.1921Z" fill="#8CC638"/>
<path d="M96.2852 44.3777C90.5781 46.6278 82.5339 55.1781 80.7946 60.8783C78.6205 68.0036 120.2 37.6272 96.2852 44.3777Z" fill="#4D8A18"/>
<path d="M107.614 67.8408C96.5818 56.0359 78.8233 51.1873 71.3232 50.2386L68.6571 52.9864C73.4236 51.0075 94.514 64.2297 104.463 71.0882L107.614 67.8408Z" fill="#FFCA43"/>
<path d="M104.327 60.1914C93.2942 48.3865 75.5357 43.5379 68.0356 42.5892L65.3695 45.337C70.136 43.3581 91.2264 56.5803 101.176 63.4388L104.327 60.1914Z" fill="#FFCA43"/>
<path d="M77.5819 39.0205H80.3216L97.3078 49.402L102.239 57.5978L99.4996 59.237L93.4722 50.4947L77.5819 39.0205Z" fill="#333332"/>
<path d="M90.1846 57.0513L87.9928 53.2266L86.8969 50.4946L84.1572 52.1338L87.9928 57.0513L86.8969 63.0616L90.1846 64.1544V57.0513Z" fill="#333332"/>
<path d="M64.0665 53.9301L69.5552 52.954L73.1608 51.8316L73.2752 55.5802L65.5361 55.9141L59.955 61.5577L56.6024 59.4275L64.0665 53.9301Z" fill="#333332"/>
<path d="M91.5462 59.8183C91.4161 58.628 90.5761 57.9151 90.1724 57.7074C84.5726 62.439 73.2968 72.2283 72.9924 73.5329C72.6119 75.1637 72.8501 74.7478 75.068 75.2235C77.286 75.6993 79.8724 72.3104 83.799 72.2186C87.7255 72.1269 91.001 69.1453 91.6362 68.0362C92.2714 66.9271 91.2774 66.2469 91.7163 64.8362C92.1552 63.4255 91.5747 62.9897 91.2533 61.7792C90.932 60.5687 91.7088 61.3061 91.5462 59.8183Z" fill="#5E3E2A"/>
<path d="M76.4325 65.9173C77.7628 64.6253 78.6136 62.753 78.8728 61.9784C79.3498 58.0854 87.0192 56.7728 88.9615 57.0857C90.9037 57.3985 90.9202 58.336 90.0678 59.5023C89.2154 60.6685 89.6619 62.7879 90.4469 63.994C91.2319 65.2002 90.5631 67.4954 88.9879 69.4406C87.4127 71.3858 84.9319 69.9197 79.0415 73.1186C73.1511 76.3175 72.4163 74.8627 72.2455 72.9062C72.0747 70.9497 74.7697 67.5324 76.4325 65.9173Z" fill="#84604A"/>
<path d="M112.239 71.8418C112.734 70.7515 112.375 69.71 112.133 69.3255C104.903 70.5407 90.2122 73.213 89.2852 74.1801C88.1265 75.3889 88.5434 75.1526 90.2089 76.6927C91.8743 78.2328 95.8271 76.6362 99.2518 78.5593C102.676 80.4823 107.014 79.5875 108.126 78.9572C109.238 78.3269 108.73 77.2349 109.827 76.2452C110.924 75.2555 110.646 74.5845 110.987 73.3793C111.328 72.1741 111.62 73.2045 112.239 71.8418Z" fill="#5E3E2A"/>
<path d="M96.1275 69.3825C97.9306 68.9493 99.6172 67.7725 100.235 67.2383C102.63 64.1325 109.897 66.9136 111.409 68.173C112.92 69.4324 112.456 70.2473 111.128 70.816C109.8 71.3847 109.104 73.4356 109.164 74.8734C109.224 76.3112 107.479 77.9447 105.132 78.815C102.785 79.6852 101.398 77.1591 94.7003 76.9077C88.0021 76.6563 88.1117 75.0302 88.9623 73.26C89.8129 71.4898 93.8736 69.9241 96.1275 69.3825Z" fill="#84604A"/>
<path d="M110.239 60.8418C110.734 59.7515 110.375 58.71 110.133 58.3255C102.903 59.5407 88.2122 62.213 87.2852 63.1801C86.1265 64.3889 86.5434 64.1526 88.2089 65.6927C89.8743 67.2328 93.8271 65.6362 97.2518 67.5593C100.676 69.4823 105.014 68.5875 106.126 67.9572C107.238 67.3269 106.73 66.2349 107.827 65.2452C108.924 64.2555 108.646 63.5845 108.987 62.3793C109.328 61.1741 109.62 62.2045 110.239 60.8418Z" fill="#5E3E2A"/>
<path d="M94.1275 58.3825C95.9306 57.9493 97.6172 56.7725 98.2351 56.2383C100.63 53.1325 107.897 55.9136 109.409 57.173C110.92 58.4324 110.456 59.2473 109.128 59.816C107.8 60.3847 107.104 62.4356 107.164 63.8734C107.224 65.3112 105.479 66.9447 103.132 67.815C100.785 68.6852 99.3985 66.1591 92.7003 65.9077C86.0021 65.6563 86.1117 64.0302 86.9623 62.26C87.8129 60.4898 91.8736 58.9241 94.1275 58.3825Z" fill="#84604A"/>
<path d="M97.052 59.1328C92.3184 62.5677 85.148 59.715 82.0317 58.3179C83.7598 55.6086 87.8 50.1676 90.1363 50.0783C93.0566 49.9666 94.8629 51.6299 96.8208 54.1704C98.3871 56.2028 97.5458 58.6313 97.052 59.1328Z" fill="#5F4431"/>
<path d="M82.1739 58.4889C83.4053 59.4226 90.2729 60.1291 95.6796 58.6879C99.5173 56.3905 93.5354 50.7195 92.2482 50.2038C90.9609 49.6882 89.5626 48.6914 88.4204 47.484C87.2783 46.2766 78.3447 44.3211 77.6857 48.7272C77.1585 52.252 79.7465 55.3808 81.1064 56.5046C80.9492 56.777 80.9426 57.5552 82.1739 58.4889Z" fill="#78543B"/>
<path d="M114.064 47.3965C114.358 53.2377 108.053 57.6875 105.181 59.5356C103.855 56.6085 101.502 50.253 102.703 48.2469C104.204 45.7393 106.583 45.1342 109.781 44.8809C112.339 44.6782 113.914 46.709 114.064 47.3965Z" fill="#5F4431"/>
<path d="M105.402 59.5099C106.856 58.9881 111.198 53.6202 112.942 48.3036C113.113 43.834 105.096 45.7493 103.961 46.5462C102.826 47.3432 101.228 47.9704 99.5924 48.2681C97.9572 48.5658 91.4413 54.9827 94.7729 57.9404C97.4382 60.3066 101.473 59.8467 103.156 59.3209C103.299 59.6013 103.947 60.0318 105.402 59.5099Z" fill="#78543B"/>
<path d="M55.1536 53.4253C54.2428 54.2025 54.1261 55.298 54.1816 55.7487C61.244 57.7156 75.6812 61.5289 76.9309 61.0465C78.4931 60.4434 78.0153 60.4806 77.1606 58.3793C76.3059 56.2781 72.0491 56.0468 69.7639 52.8524C67.4786 49.6581 63.1708 48.6279 61.8965 48.7269C60.6222 48.8258 60.6192 50.0303 59.2061 50.4612C57.7929 50.8921 57.7593 51.6172 56.9394 52.564C56.1195 53.5108 56.292 52.4537 55.1536 53.4253Z" fill="#5E3E2A"/>
<path d="M68.6996 62.4877C66.8829 62.115 64.8564 62.4651 64.0702 62.6867C60.5835 64.4828 55.1831 58.8812 54.3489 57.0996C53.5146 55.318 54.2804 54.7768 55.7241 54.8252C57.1678 54.8737 58.6687 53.3121 59.2241 51.9844C59.7794 50.6568 62.0532 49.9183 64.5476 50.126C67.042 50.3336 67.2259 53.2094 73.1847 56.2789C79.1435 59.3485 78.3543 60.7745 76.833 62.0166C75.3117 63.2586 70.9703 62.9536 68.6996 62.4877Z" fill="#84604A"/>
<path d="M71.0366 36.1707C69.8406 36.2258 69.0764 37.0195 68.8438 37.4094C73.2149 43.2949 82.2779 55.1624 83.5608 55.548C85.1645 56.03 84.7643 55.7662 85.3782 53.5824C85.9921 51.3986 82.7721 48.6048 82.9268 44.6802C83.0814 40.7557 80.3111 37.2996 79.244 36.5961C78.1769 35.8927 77.4357 36.842 76.0553 36.3155C74.675 35.789 74.2035 36.3411 72.9753 36.5859C71.747 36.8307 72.5317 36.1017 71.0366 36.1707Z" fill="#5E3E2A"/>
<path d="M76.1758 51.6371C74.9697 50.2284 73.1545 49.2618 72.3977 48.9546C68.5422 48.2344 67.7132 40.4978 68.1472 38.579C68.5812 36.6601 69.5179 36.7025 70.6284 37.6263C71.7389 38.5501 73.8821 38.2375 75.1351 37.5296C76.3881 36.8218 78.6369 37.6332 80.4795 39.3273C82.3221 41.0214 80.7033 43.4054 83.5265 49.4848C86.3497 55.5641 84.8517 56.2063 82.8884 56.2541C80.925 56.3019 77.6834 53.3979 76.1758 51.6371Z" fill="#84604A"/>
<path d="M53.4841 52.1328C58.2177 55.5677 65.3882 52.715 68.5044 51.3179C66.7763 48.6086 62.7361 43.1676 60.3998 43.0783C57.4795 42.9666 55.6733 44.6299 53.7154 47.1704C52.149 49.2028 52.9904 51.6313 53.4841 52.1328Z" fill="#5F4431"/>
<path d="M68.3622 51.4889C67.1308 52.4226 60.2633 53.1291 54.8565 51.6879C51.0188 49.3905 57.0007 43.7195 58.288 43.2038C59.5752 42.6882 60.9735 41.6914 62.1157 40.484C63.2579 39.2766 72.1914 37.3211 72.8504 41.7272C73.3776 45.252 70.7897 48.3808 69.4298 49.5046C69.587 49.777 69.5936 50.5552 68.3622 51.4889Z" fill="#78543B"/>
<path d="M107.257 63.9841C106.952 69.8247 113.248 74.2873 116.116 76.1411C117.449 73.2168 119.814 66.866 118.617 64.8575C117.122 62.3469 114.743 61.7369 111.546 61.4771C108.989 61.2693 107.409 63.2969 107.257 63.9841Z" fill="#5F4431"/>
<path d="M115.895 76.115C114.442 75.5902 110.111 70.2135 108.378 64.8934C108.216 60.4235 116.229 62.3551 117.363 63.1543C118.496 63.9535 120.093 64.584 121.728 64.885C123.362 65.186 129.865 71.6161 126.528 74.5671C123.857 76.9279 119.824 76.4597 118.141 75.9305C117.998 76.2107 117.349 76.6398 115.895 76.115Z" fill="#78543B"/>
<path d="M103.958 49.4112C99.6741 52.52 93.1845 49.9381 90.3641 48.6737C91.9281 46.2216 95.5848 41.2972 97.6992 41.2164C100.342 41.1153 101.977 42.6207 103.749 44.9199C105.167 46.7594 104.405 48.9573 103.958 49.4112Z" fill="#5F4431"/>
<path d="M90.4928 48.8286C91.6073 49.6736 97.8228 50.313 102.716 49.0087C106.19 46.9294 100.776 41.7968 99.6105 41.3301C98.4455 40.8634 97.18 39.9613 96.1462 38.8685C95.1125 37.7758 87.0271 36.0059 86.4307 39.9937C85.9535 43.1839 88.2958 46.0156 89.5266 47.0327C89.3843 47.2792 89.3784 47.9836 90.4928 48.8286Z" fill="#78543B"/>
<path d="M93.4162 34.1001C96.5227 38.3859 93.9374 44.8742 92.6716 47.6939C90.2203 46.1286 85.2979 42.4694 85.2181 40.3549C85.1184 37.7118 86.6246 36.0779 88.9248 34.307C90.765 32.8904 92.9625 33.653 93.4162 34.1001Z" fill="#5F4431"/>
<path d="M92.8266 47.5654C93.6722 46.4514 94.3149 40.2362 93.0131 35.3421C90.9356 31.8677 85.8002 37.279 85.3329 38.4438C84.8656 39.6086 83.9628 40.8736 82.8695 41.9068C81.7762 42.9399 80.0021 51.0244 83.9896 51.6229C87.1795 52.1017 90.0125 49.7609 91.0302 48.5307C91.2766 48.6731 91.981 48.6794 92.8266 47.5654Z" fill="#78543B"/>
</svg>
