<svg width="160" height="160" viewBox="0 0 160 160" fill="none" xmlns="http://www.w3.org/2000/svg">
<g clip-path="url(#clip0_75_7982)">
<path d="M13.8502 90.6712C11.7899 86.8637 6.78436 73.088 4.53916 66.6761L4.14294 64.693L4.53916 64.2964L5.52969 65.6845L12.6615 72.2287L23.3593 78.3762L39.8021 83.9288L68.7256 87.3L94.8757 88.0932L113.696 84.9203C121.554 82.8711 138.697 78.0985 144.402 75.4016C150.108 72.7046 153.779 67.5354 154.902 65.2879C155.232 65.0896 155.853 65.0499 155.694 66.4778C155.496 68.2625 144.204 91.2661 143.61 93.0509C143.016 94.8356 127.761 110.502 125.978 113.08C124.195 115.658 105.97 124.978 105.97 125.573C105.97 126.168 103.79 130.333 102.602 131.324C101.413 132.316 86.9514 133.307 85.7628 132.911C84.5742 132.514 62.5843 131.324 61.5938 129.936C60.6033 128.548 61.3957 126.961 60.009 126.565C58.6222 126.168 33.8589 111.295 31.6797 109.709C29.5006 108.122 16.4255 95.4306 13.8502 90.6712Z" fill="#EEECDD"/>
<path d="M33.7801 83.672C18.0758 79.3919 7.99879 70.1315 4.92335 66.0363C3.50996 62.7073 4.33444 58.5725 4.92335 56.9213C4.92335 54.7416 19.0573 37.304 28.2836 34.1335C37.5099 30.9631 69.7039 27 85.0156 27C100.327 27 140.177 41.8615 147.048 46.6172C153.919 51.3729 157.648 59.1009 154.704 67.2253C151.759 75.3496 138.999 78.7182 122.51 83.8702C109.318 87.9918 92.0172 89.5506 85.0156 89.8148C74.4806 89.5506 49.4845 87.9522 33.7801 83.672Z" fill="#B1AFC3" stroke="#B1AFC3"/>
<path d="M9.46975 68.8985C5.69283 65.7111 5.01089 61.9924 5.14203 60.5315C5.14203 57.9816 7.37147 54.2895 8.48618 52.7622C19.8956 42.6023 17.535 34.6337 52.3535 30.6494C87.172 26.6651 88.549 27.2628 104.286 31.6455C120.023 36.0282 146.776 45.3912 151.498 53.1606C155.274 59.3761 153.465 65.3126 152.088 67.504C145.596 77.2655 133.203 78.0623 121.007 82.445C108.811 86.8278 87.7621 87.6246 85.5982 87.8238C83.4344 88.023 57.8615 87.2262 39.9605 83.2419C22.0595 79.2576 14.1909 72.8828 9.46975 68.8985Z" fill="#EEECDD" stroke="#B1AFC3"/>
<path d="M62.2146 127.111C65.4684 127.624 74.7481 128.497 85.837 127.881" stroke="#B1AFC3" stroke-linecap="round"/>
<path d="M103.554 126.13C101.631 126.457 97.1675 127.111 94.6954 127.111" stroke="#B1AFC3" stroke-linecap="round"/>
<path d="M45.3686 53.7147C14.6839 63.3312 15.0492 76.2989 19.0674 81.5807L23.9988 89.7765C59.4324 91.4157 132.601 91.3065 141.806 77.756C153.313 60.8178 83.7245 41.6941 45.3686 53.7147Z" fill="#E4DBBB"/>
<path d="M62.2784 71.1125C52.7941 65.5914 38.2993 65.886 35.0641 68.1858C28.3012 72.423 31.1617 79.6809 33.3939 83.5616C35.626 87.4423 51.8231 97.1273 61.8292 93.5698C71.8354 90.0123 74.1339 78.0138 62.2784 71.1125Z" fill="#D0CDB5"/>
<path d="M61.5606 68.9736C52.0762 63.4525 37.5815 63.7471 34.3463 66.0469C27.5834 70.2841 30.4439 77.542 32.676 81.4227C34.9082 85.3033 51.1053 94.9883 61.1114 91.4309C71.1175 87.8734 73.416 75.8749 61.5606 68.9736Z" fill="#FCFAF0"/>
<path d="M90.6144 69.7014C81.8026 63.1688 67.3662 61.8664 63.8959 63.7966C56.7049 67.2646 58.7415 74.7948 60.5287 78.8983C62.316 83.0019 77.3359 94.4127 87.6743 91.9774C98.0127 89.5422 101.629 77.867 90.6144 69.7014Z" fill="#D0CDB5"/>
<path d="M90.1381 67.4963C81.3264 60.9637 66.8899 59.6613 63.4196 61.5916C56.2287 65.0596 58.2653 72.5897 60.0525 76.6932C61.8397 80.7968 76.8597 92.2076 87.198 89.7724C97.5364 87.3371 101.153 75.6619 90.1381 67.4963Z" fill="#FCFAF0"/>
<path d="M90.1381 67.4963C81.3264 60.9637 66.8899 59.6613 63.4196 61.5916C56.2287 65.0596 58.2653 72.5897 60.0525 76.6932C61.8397 80.7968 76.8597 92.2076 87.198 89.7724C97.5364 87.3371 101.153 75.6619 90.1381 67.4963Z" fill="#FCFAF0"/>
<path d="M120.804 27.9056C110.493 24.164 96.286 27.0418 93.5121 29.8833C87.6122 35.2618 91.716 41.8958 94.6014 45.3174C97.4869 48.739 115.142 55.3812 124.353 50.0929C133.564 44.8045 133.693 32.5827 120.804 27.9056Z" fill="#D0CDB5"/>
<path d="M119.717 25.9291C109.406 22.1874 95.1992 25.0652 92.4253 27.9068C86.5254 33.2853 90.6292 39.9192 93.5146 43.3409C96.4001 46.7625 114.055 53.4047 123.266 48.1163C132.477 42.8279 132.606 30.6062 119.717 25.9291Z" fill="#FCFAF0"/>
<path d="M133.866 64.972C123.578 61.1684 109.354 63.9608 106.563 66.7856C100.631 72.1285 104.695 78.7871 107.56 82.226C110.425 85.6648 128.039 92.413 137.282 87.1801C146.525 81.9472 146.727 69.7265 133.866 64.972Z" fill="#D0CDB5"/>
<path d="M132.792 62.9888C122.503 59.1852 108.279 61.9776 105.488 64.8024C99.5564 70.1454 103.62 76.8039 106.485 80.2428C109.35 83.6817 126.964 90.4299 136.207 85.197C145.45 79.964 145.652 67.7433 132.792 62.9888Z" fill="#FCFAF0"/>
<path d="M97.2407 73.0961C106.725 67.575 121.22 67.8697 124.455 70.1695C131.218 74.4067 128.357 81.6646 126.125 85.5452C123.893 89.4259 107.696 99.1109 97.6899 95.5534C87.6838 91.996 85.3853 79.9975 97.2407 73.0961Z" fill="#D0CDB5"/>
<path d="M97.9586 70.9572C107.443 65.4361 121.938 65.7307 125.173 68.0306C131.936 72.2678 129.075 79.5257 126.843 83.4063C124.611 87.287 108.414 96.972 98.4078 93.4145C88.4016 89.8571 86.1031 77.8585 97.9586 70.9572Z" fill="#FCFAF0"/>
<path d="M97.2408 73.0961C106.725 67.575 121.22 67.8697 124.455 70.1695C131.218 74.4067 128.358 81.6646 126.125 85.5452C123.893 89.4259 107.696 99.1109 97.69 95.5534C87.6839 91.996 85.3853 79.9975 97.2408 73.0961Z" fill="#D0CDB5"/>
<path d="M97.9586 70.9572C107.443 65.4361 121.938 65.7307 125.173 68.0306C131.936 72.2678 129.075 79.5257 126.843 83.4063C124.611 87.287 108.414 96.972 98.4078 93.4145C88.4017 89.8571 86.1032 77.8585 97.9586 70.9572Z" fill="#FCFAF0"/>
<path d="M86.8343 64.415C98.454 61.8665 113.838 66.1431 116.664 69.1883C122.727 75.02 117.702 81.0222 114.266 84.0375C110.829 87.0527 90.9156 91.6448 81.2076 85.5539C71.4996 79.463 72.3097 67.6006 86.8343 64.415Z" fill="#D0CDB5"/>
<path d="M88.1805 62.6123C99.8002 60.0637 115.184 64.3404 118.01 67.3855C124.073 73.2173 119.048 79.2195 115.612 82.2347C112.175 85.25 92.2618 89.8421 82.5538 83.7512C72.8458 77.6602 73.6558 65.7979 88.1805 62.6123Z" fill="white"/>
<path d="M101.793 56.7627C110.751 48.9359 126.294 45.2798 130.237 46.5885C138.359 48.7819 136.843 56.4618 135.282 60.7589C133.721 65.0561 118.477 78.6662 107.035 78.0001C95.5942 77.334 90.5945 66.5463 101.793 56.7627Z" fill="#D0CDB5"/>
<path d="M102.105 54.5347C111.063 46.7079 126.606 43.0517 130.549 44.3605C138.671 46.5539 137.155 54.2338 135.594 58.5309C134.033 62.828 118.789 76.4382 107.348 75.7721C95.9065 75.1059 90.9068 64.3182 102.105 54.5347Z" fill="white"/>
<path d="M85.7825 15.7926C97.3851 18.4178 109.499 28.8206 110.765 32.7775C113.779 40.6316 106.681 43.9329 102.29 45.2041C97.898 46.4754 77.9185 42.1797 71.7143 32.5437C65.5101 22.9077 71.2792 12.5111 85.7825 15.7926Z" fill="#D0CDB5"/>
<path d="M87.7666 14.7318C99.3693 17.357 111.483 27.7598 112.749 31.7168C115.763 39.5708 108.665 42.8721 104.274 44.1434C99.8821 45.4146 79.9026 41.1189 73.6984 31.4829C67.4942 21.8469 73.2634 11.4503 87.7666 14.7318Z" fill="white"/>
<path d="M31.3843 58.3423C43.2336 57.2909 57.9494 63.4876 60.3659 66.8671C65.6388 73.422 59.8918 78.737 56.1 81.2912C52.3082 83.8454 31.9727 85.87 23.1173 78.595C14.2618 71.3199 16.5726 59.6566 31.3843 58.3423Z" fill="#D0CDB5"/>
<path d="M32.9486 56.7254C44.798 55.6739 59.5138 61.8706 61.9302 65.2502C67.2031 71.8051 61.4561 77.1201 57.6643 79.6743C53.8725 82.2285 33.537 84.2531 24.6816 76.978C15.8262 69.7029 18.1369 58.0397 32.9486 56.7254Z" fill="white"/>
<path d="M49.9441 37.2288C61.1492 41.2238 71.9305 53.0016 72.7141 57.0816C74.7664 65.2399 67.3245 67.668 62.8124 68.4045C58.3003 69.141 38.9785 62.485 33.9722 52.1757C28.9659 41.8664 35.9378 32.2351 49.9441 37.2288Z" fill="#D0CDB5"/>
<path d="M52.0409 36.4134C63.246 40.4083 74.0273 52.1861 74.8109 56.2662C76.8632 64.4245 69.4213 66.8526 64.9092 67.5891C60.3971 68.3256 41.0753 61.6696 36.069 51.3603C31.0627 41.051 38.0346 31.4196 52.0409 36.4134Z" fill="white"/>
<path d="M70.7666 25.5536C60.4569 31.4886 51.9564 45.0051 51.9153 49.1595C51.3555 57.5533 59.1117 58.611 63.6828 58.5285C68.2539 58.4459 86.0733 48.4409 89.1547 37.4023C92.236 26.3637 83.6536 18.1349 70.7666 25.5536Z" fill="#D0CDB5"/>
<path d="M68.5577 25.1264C58.248 31.0614 49.7475 44.5778 49.7064 48.7322C49.1466 57.1261 56.9028 58.1837 61.4739 58.1012C66.045 58.0187 83.8644 48.0136 86.9458 36.9751C90.0272 25.9365 81.4447 17.7077 68.5577 25.1264Z" fill="white"/>
<path d="M53.3987 56.7979C59.5321 47.7147 72.7117 41.7004 76.6271 42.3707C84.5632 43.2582 85.1509 51.0363 84.8324 55.4996C84.514 59.9629 74.1512 75.7059 63.5911 76.836C53.031 77.966 45.7319 68.152 53.3987 56.7979Z" fill="#D0CDB5"/>
<path d="M53.1131 54.5606C59.2465 45.4774 72.426 39.4631 76.3414 40.1334C84.2775 41.0208 84.8653 48.799 84.5468 53.2623C84.2283 57.7256 73.8655 73.4686 63.3055 74.5986C52.7454 75.7287 45.4463 65.9147 53.1131 54.5606Z" fill="white"/>
<path d="M109.676 52.5618C103.382 42.9052 89.6265 36.3548 85.4978 36.9926C77.1374 37.7897 76.3858 45.9587 76.644 50.6576C76.9022 55.3564 87.5288 72.0885 98.6138 73.458C109.699 74.8274 117.543 64.6326 109.676 52.5618Z" fill="#D0CDB5"/>
<path d="M110.015 50.2137C103.721 40.5571 89.9654 34.0067 85.8367 34.6444C77.4763 35.4415 76.7247 43.6106 76.9829 48.3094C77.2411 53.0083 87.8677 69.7404 98.9527 71.1098C110.038 72.4792 117.882 62.2844 110.015 50.2137Z" fill="white"/>
<path d="M13.8502 90.5298C11.7899 86.7223 6.78436 72.9466 4.53916 66.5347L4.14294 64.5516L4.53916 64.155L5.52969 65.5432L12.6615 72.0873L23.3593 78.2348L39.8021 83.7874L68.7256 87.1586L94.8757 87.9519L113.696 84.7789C121.554 82.7298 138.697 77.9572 144.402 75.2602C150.108 72.5632 153.779 67.394 154.902 65.1466C155.232 64.9483 155.853 64.9086 155.694 66.3364C155.496 68.1212 144.204 91.1248 143.61 92.9095C143.016 94.6943 127.761 110.361 125.978 112.939C124.195 115.516 105.97 124.837 105.97 125.432C105.97 126.027 103.79 130.191 102.602 131.183C101.413 132.174 86.9514 133.166 85.7628 132.769C84.5742 132.373 62.5843 131.183 61.5938 129.795C60.6033 128.406 61.3957 126.82 60.009 126.423C58.6222 126.027 33.8589 111.154 31.6797 109.567C29.5006 107.981 16.4255 95.2892 13.8502 90.5298Z" fill="#EEECDD"/>
<path d="M62.2146 126.97C65.4684 127.483 74.7481 128.355 85.837 127.739" stroke="#B1AFC3" stroke-linecap="round"/>
<path d="M103.554 125.988C101.631 126.315 97.1675 126.97 94.6954 126.97" stroke="#B1AFC3" stroke-linecap="round"/>
<path fill-rule="evenodd" clip-rule="evenodd" d="M6.68037 64.5481L5.9295 65.2656C6.62551 66.5368 7.65605 67.8809 9.14722 69.1393C13.9102 73.1589 21.8501 79.582 39.8518 83.5887C48.837 85.5885 59.7332 86.786 68.6431 87.459C73.1004 87.7956 77.0657 88.0014 80.0535 88.1106C83.0226 88.2191 85.0637 88.2339 85.644 88.1804C85.8842 88.1583 86.3902 88.1273 87.1145 88.083L87.1149 88.083C89.4867 87.9377 94.1997 87.6491 99.5947 87.059C106.657 86.2864 115.019 84.9869 121.176 82.7743C124.206 81.6853 127.252 80.8181 130.232 79.9741L130.421 79.9206L130.421 79.9206C133.329 79.0969 136.178 78.2903 138.857 77.3204C143.361 75.6899 147.431 73.5831 150.588 70.1022L149.855 69.4213C146.851 72.7381 142.949 74.7755 138.516 76.3801C135.871 77.3377 133.053 78.1358 130.132 78.9631L130.132 78.9631L129.959 79.0119C126.983 79.8549 123.905 80.7309 120.838 81.8332C114.799 84.0033 106.537 85.2936 99.4859 86.0649C94.1327 86.6505 89.5508 86.9312 87.147 87.0785L87.1468 87.0785C86.3756 87.1257 85.8286 87.1592 85.5523 87.1847C85.0507 87.2308 83.0838 87.2207 80.09 87.1113C77.1148 87.0026 73.1624 86.7975 68.7184 86.4618C59.8256 85.7901 48.9849 84.597 40.0691 82.6126C22.2688 78.6507 14.4714 72.324 9.79217 68.3751C8.30105 67.1167 7.31607 65.779 6.68037 64.5481Z" fill="#B1AFC3"/>
<path fill-rule="evenodd" clip-rule="evenodd" d="M5.43338 65.7397L4.70648 66.4344C8.0435 70.7208 18.1266 79.7827 33.6487 84.0131C49.4153 88.3102 74.4631 89.909 85.0031 90.1733L85.0188 90.1737L85.0345 90.1731C92.0543 89.9082 109.406 88.3469 122.659 84.2061C123.886 83.8227 125.094 83.4488 126.279 83.0818C133.04 80.989 139.079 79.1192 143.89 76.9778C147.342 75.4405 150.216 73.7409 152.281 71.6759L151.548 70.9945C149.621 72.9124 146.893 74.5458 143.483 76.0642C138.732 78.1793 132.76 80.0283 125.995 82.1229L125.994 82.1232C124.807 82.4909 123.595 82.8661 122.361 83.2516C109.24 87.351 92.0058 88.908 85.0125 89.1732C74.4733 88.908 49.5459 87.3093 33.9116 83.0483C18.505 78.8493 8.57322 69.8233 5.43338 65.7397Z" fill="#B1AFC3"/>
<path d="M5.23883 66.7454L6.88266 65.6526L12.3621 71.1165L20.5812 76.5804L34.2797 82.0443L55.6495 85.8691L75.9233 87.5083L94.5533 86.9619L114.279 84.2299L131.265 79.3124L144.416 74.3949L149.895 70.0237L151.539 71.6629L146.06 76.034L134.005 80.4052L113.731 86.4155L95.6492 89.1474L83.5945 89.6938L57.2933 88.0546L35.9236 84.2299L22.773 79.8588L14.0059 73.8485L5.23883 66.7454Z" fill="#B1AFC3"/>
<path d="M4.14292 63.6085C3.04706 67.4333 8.52645 70.7116 11.2662 72.8972L13.4579 73.4436L10.1703 70.7117L5.78675 64.7013C5.6041 63.4264 4.79141 61.3452 4.14292 63.6085Z" fill="#B1AFC3"/>
<path d="M155.923 64.7014C156.501 66.4315 153.731 71.2581 150.991 72.8972L148.252 72.3509L150.991 69.0725L153.731 65.2478C154.279 64.7014 155.484 63.39 155.923 64.7014Z" fill="#B1AFC3"/>
<path d="M88.319 43.6558C93.0526 40.2209 100.223 43.0736 103.339 44.4706C101.611 47.18 97.5709 52.6209 95.2347 52.7103C92.3143 52.822 90.5081 51.1586 88.5502 48.6182C86.9839 46.5858 87.8252 44.1573 88.319 43.6558Z" fill="#5F4431"/>
<path d="M103.197 44.2997C101.966 43.366 95.0981 42.6595 89.6914 44.1006C85.8536 46.3981 91.8356 52.0691 93.1228 52.5848C94.4101 53.1004 95.8083 54.0972 96.9505 55.3046C98.0927 56.512 107.026 58.4675 107.685 54.0614C108.212 50.5365 105.624 47.4078 104.265 46.284C104.422 46.0116 104.428 45.2334 103.197 44.2997Z" fill="#78543B"/>
<path d="M54.3195 55.1123C59.053 58.5472 66.2235 55.6944 69.3397 54.2974C67.6116 51.5881 63.5714 46.1471 61.2352 46.0578C58.3148 45.9461 56.5086 47.6094 54.5507 50.1499C52.9844 52.1823 53.8257 54.6108 54.3195 55.1123Z" fill="#5F4431"/>
<path d="M69.1975 54.4684C67.9661 55.4021 61.0986 56.1086 55.6918 54.6674C51.8541 52.37 57.8361 46.699 59.1233 46.1833C60.4105 45.6676 61.8088 44.6709 62.951 43.4635C64.0932 42.2561 73.0268 40.3005 73.6858 44.7067C74.213 48.2315 71.625 51.3603 70.2651 52.4841C70.4223 52.7565 70.4289 53.5347 69.1975 54.4684Z" fill="#78543B"/>
<path d="M84.4921 33.1716C76.6109 35.4217 65.5022 43.972 63.1003 49.6722C60.0979 56.7975 117.518 26.4212 84.4921 33.1716Z" fill="#8CC638"/>
<path d="M98.2852 35.3572C92.5781 37.6073 84.5339 46.1576 82.7946 51.8578C80.6205 58.9831 122.2 28.6067 98.2852 35.3572Z" fill="#4D8A18"/>
<path d="M109.614 58.8203C98.5818 47.0154 80.8233 42.1668 73.3232 41.2181L70.6571 43.9659C75.4236 41.987 96.514 55.2092 106.463 62.0677L109.614 58.8203Z" fill="#FFCA43"/>
<path d="M79.5819 30H82.3216L99.3078 40.3814L104.239 48.5773L101.5 50.2165L95.4722 41.4742L79.5819 30Z" fill="#333332"/>
<path d="M66.0665 44.9096L71.5552 43.9335L75.1608 42.8111L75.2752 46.5596L67.5361 46.8936L61.955 52.5372L58.6024 50.407L66.0665 44.9096Z" fill="#333332"/>
</g>
<defs>
<clipPath id="clip0_75_7982">
<rect width="160" height="160" fill="white"/>
</clipPath>
</defs>
</svg>
