<svg width="160" height="160" viewBox="0 0 160 160" fill="none" xmlns="http://www.w3.org/2000/svg">
<path d="M13.8502 90.6712C11.7899 86.8637 6.78436 73.088 4.53916 66.6761L4.14294 64.693L4.53916 64.2964L5.52969 65.6845L12.6615 72.2287L23.3593 78.3762L39.8021 83.9288L68.7256 87.3L94.8757 88.0932L113.696 84.9203C121.554 82.8711 138.697 78.0985 144.402 75.4016C150.108 72.7046 153.779 67.5354 154.902 65.2879C155.232 65.0896 155.853 65.0499 155.694 66.4778C155.496 68.2625 144.204 91.2661 143.61 93.0509C143.016 94.8356 127.761 110.502 125.978 113.08C124.195 115.658 105.97 124.978 105.97 125.573C105.97 126.168 103.79 130.333 102.602 131.324C101.413 132.316 86.9514 133.307 85.7628 132.911C84.5742 132.514 62.5843 131.324 61.5938 129.936C60.6033 128.548 61.3957 126.961 60.009 126.565C58.6222 126.168 33.8589 111.295 31.6797 109.709C29.5006 108.122 16.4255 95.4306 13.8502 90.6712Z" fill="#EEECDD"/>
<path d="M33.7801 83.672C18.0758 79.3919 7.99879 70.1315 4.92335 66.0363C3.50996 62.7073 4.33444 58.5725 4.92335 56.9213C4.92335 54.7416 19.0573 37.304 28.2836 34.1335C37.5099 30.9631 69.7039 27 85.0156 27C100.327 27 140.177 41.8615 147.048 46.6172C153.919 51.3729 157.648 59.1009 154.704 67.2253C151.759 75.3496 138.999 78.7182 122.51 83.8702C109.318 87.9918 92.0172 89.5506 85.0156 89.8148C74.4806 89.5506 49.4845 87.9522 33.7801 83.672Z" fill="#B1AFC3" stroke="#B1AFC3"/>
<path d="M9.46975 68.8985C5.69283 65.7111 5.01089 61.9924 5.14203 60.5315C5.14203 57.9816 7.37147 54.2895 8.48618 52.7622C19.8956 42.6023 17.535 34.6337 52.3535 30.6494C87.172 26.6651 88.549 27.2628 104.286 31.6455C120.023 36.0282 146.776 45.3912 151.498 53.1606C155.274 59.3761 153.465 65.3126 152.088 67.504C145.596 77.2655 133.203 78.0623 121.007 82.445C108.811 86.8278 87.7621 87.6246 85.5982 87.8238C83.4344 88.023 57.8615 87.2262 39.9605 83.2419C22.0595 79.2576 14.1909 72.8828 9.46975 68.8985Z" fill="#EEECDD" stroke="#B1AFC3"/>
<path d="M62.2146 127.111C65.4684 127.624 74.7481 128.497 85.837 127.881" stroke="#B1AFC3" stroke-linecap="round"/>
<path d="M103.554 126.129C101.631 126.457 97.1675 127.111 94.6954 127.111" stroke="#B1AFC3" stroke-linecap="round"/>
<path d="M61.169 69.8395C51.6847 64.3184 37.19 64.6131 33.9547 66.9129C27.1919 71.1501 30.0523 78.408 32.2845 82.2886C34.5166 86.1693 50.7137 95.8543 60.7199 92.2969C70.726 88.7394 73.0245 76.7409 61.169 69.8395Z" fill="#D0CDB5"/>
<path d="M60.4512 67.7004C50.9668 62.1793 36.4721 62.4739 33.2369 64.7737C26.474 69.0109 29.3345 76.2688 31.5666 80.1495C33.7988 84.0301 49.9959 93.7151 60.002 90.1577C70.0082 86.6002 72.3067 74.6017 60.4512 67.7004Z" fill="#FCFAF0"/>
<path d="M89.5048 68.4284C80.693 61.8959 66.2566 60.5935 62.7862 62.5237C55.5953 65.9917 57.6319 73.5218 59.4191 77.6254C61.2064 81.7289 76.2263 93.1398 86.5647 90.7045C96.903 88.2692 100.519 76.5941 89.5048 68.4284Z" fill="#D0CDB5"/>
<path d="M89.0285 66.2233C80.2167 59.6908 65.7803 58.3884 62.31 60.3186C55.1191 63.7866 57.1556 71.3167 58.9429 75.4203C60.7301 79.5239 75.7501 90.9347 86.0884 88.4994C96.4268 86.0641 100.043 74.389 89.0285 66.2233Z" fill="#FCFAF0"/>
<path d="M96.1314 71.8234C105.616 66.3023 120.11 66.597 123.346 68.8968C130.109 73.134 127.248 80.3919 125.016 84.2725C122.784 88.1532 106.587 97.8382 96.5806 94.2807C86.5744 90.7233 84.2759 78.7248 96.1314 71.8234Z" fill="#D0CDB5"/>
<path d="M96.8492 69.6842C106.334 64.1632 120.828 64.4578 124.064 66.7576C130.826 70.9948 127.966 78.2527 125.734 82.1334C123.502 86.014 107.305 95.699 97.2984 92.1416C87.2922 88.5841 84.9937 76.5856 96.8492 69.6842Z" fill="#FCFAF0"/>
<path d="M85.7249 63.1418C97.3446 60.5933 112.729 64.8699 115.555 67.9151C121.618 73.7468 116.593 79.749 113.156 82.7643C109.72 85.7796 89.8062 90.3716 80.0982 84.2807C70.3902 78.1898 71.2003 66.3274 85.7249 63.1418Z" fill="#D0CDB5"/>
<path d="M87.0711 61.3396C98.6908 58.791 114.075 63.0677 116.901 66.1128C122.964 71.9446 117.939 77.9468 114.502 80.962C111.066 83.9773 91.1524 88.5694 81.4444 82.4785C71.7364 76.3875 72.5465 64.5252 87.0711 61.3396Z" fill="white"/>
<path d="M50.7704 60.7088C56.9038 51.6256 70.0834 45.6113 73.9988 46.2816C81.9349 47.169 82.5226 54.9472 82.2041 59.4105C81.8857 63.8738 71.5229 79.6167 60.9628 80.7468C50.4027 81.8769 43.1036 72.0628 50.7704 60.7088Z" fill="#D0CDB5"/>
<path d="M50.4848 58.471C56.6182 49.3878 69.7977 43.3735 73.7131 44.0438C81.6492 44.9312 82.237 52.7094 81.9185 57.1727C81.6 61.636 71.2373 77.379 60.6772 78.509C50.1171 79.6391 42.818 69.8251 50.4848 58.471Z" fill="white"/>
<path d="M108.566 51.2891C102.273 41.6325 88.5171 35.0821 84.3884 35.7199C76.028 36.517 75.2764 44.686 75.5346 49.3849C75.7928 54.0837 86.4194 70.8158 97.5044 72.1852C108.589 73.5547 116.433 63.3599 108.566 51.2891Z" fill="#D0CDB5"/>
<path d="M108.905 48.941C102.612 39.2844 88.856 32.734 84.7273 33.3717C76.3669 34.1688 75.6153 42.3379 75.8735 47.0367C76.1318 51.7356 86.7583 68.4677 97.8433 69.8371C108.928 71.2065 116.772 61.0117 108.905 48.941Z" fill="white"/>
<path d="M86.319 52.6763C91.0526 49.2414 98.223 52.0941 101.339 53.4912C99.6112 56.2005 95.5709 61.6414 93.2347 61.7308C90.3143 61.8425 88.5081 60.1791 86.5502 57.6387C84.9839 55.6063 85.8252 53.1778 86.319 52.6763Z" fill="#5F4431"/>
<path d="M101.197 53.3202C99.9657 52.3865 93.0981 51.68 87.6914 53.1211C83.8536 55.4186 89.8356 61.0896 91.1228 61.6053C92.4101 62.1209 93.8083 63.1177 94.9505 64.3251C96.0927 65.5325 105.026 67.488 105.685 63.0819C106.212 59.557 103.624 56.4283 102.265 55.3045C102.422 55.0321 102.428 54.2539 101.197 53.3202Z" fill="#78543B"/>
<path d="M116.525 53.7585C116.395 52.5682 115.555 51.8553 115.151 51.6476C109.551 56.3792 98.2753 66.1685 97.9709 67.4731C97.5904 69.1039 97.8286 68.688 100.047 69.1637C102.265 69.6395 104.851 66.2506 108.777 66.1588C112.704 66.0671 115.98 63.0855 116.615 61.9764C117.25 60.8673 116.256 60.187 116.695 58.7764C117.134 57.3657 116.553 56.9299 116.232 55.7193C115.911 54.5088 116.687 55.2462 116.525 53.7585Z" fill="#5E3E2A"/>
<path d="M101.411 59.8573C102.741 58.5652 103.592 56.693 103.851 55.9184C104.328 52.0253 111.998 50.7128 113.94 51.0256C115.882 51.3384 115.899 52.276 115.046 53.4422C114.194 54.6085 114.64 56.7278 115.425 57.934C116.21 59.1401 115.542 61.4354 113.966 63.3806C112.391 65.3258 109.91 63.8597 104.02 67.0585C98.1297 70.2574 97.3948 68.8026 97.224 66.8461C97.0532 64.8896 99.7482 61.4723 101.411 59.8573Z" fill="#84604A"/>
<path d="M50.1548 65.895C54.8884 69.3299 62.0588 66.4772 65.175 65.0801C63.447 62.3708 59.4068 56.9298 57.0705 56.8405C54.1502 56.7288 52.3439 58.3921 50.386 60.9326C48.8197 62.965 49.661 65.3935 50.1548 65.895Z" fill="#5F4431"/>
<path d="M65.0328 65.2511C63.8015 66.1848 56.9339 66.8913 51.5272 65.4501C47.6895 63.1527 53.6714 57.4817 54.9586 56.966C56.2459 56.4504 57.6442 55.4536 58.7863 54.2462C59.9285 53.0388 68.8621 51.0833 69.5211 55.4894C70.0483 59.0143 67.4603 62.143 66.1004 63.2668C66.2576 63.5392 66.2642 64.3174 65.0328 65.2511Z" fill="#78543B"/>
<path d="M82.4921 42.1921C74.6109 44.4422 63.5022 52.9925 61.1003 58.6928C58.0979 65.818 115.518 35.4417 82.4921 42.1921Z" fill="#8CC638"/>
<path d="M99.0802 73.7982C84.3586 58.5115 63.3643 49.722 54.7073 47.238L52.2189 49.8027C57.2277 48.496 83.5862 67.2758 96.1393 76.8291L99.0802 73.7982Z" fill="#FFCA43"/>
<path d="M107.614 67.8408C96.5818 56.0359 78.8233 51.1873 71.3232 50.2386L68.6571 52.9864C73.4236 51.0075 94.514 64.2297 104.463 71.0882L107.614 67.8408Z" fill="#FFCA43"/>
<path d="M77.5819 39.0205H80.3216L97.3078 49.402L102.239 57.5978L99.4996 59.237L93.4722 50.4947L77.5819 39.0205Z" fill="#333332"/>
<path d="M90.1846 57.0513L87.9928 53.2266L86.8969 50.4946L84.1572 52.1338L87.9928 57.0513L86.8969 63.0616L90.1846 64.1544V57.0513Z" fill="#333332"/>
<path d="M48 44.4998C58 40.8998 71.1667 40.3332 76.5 40.4998C76.1 42.0997 76 44.1666 76.0001 45C74.4001 45.8 72.6667 47 72.0001 47.5C69.6001 49.9001 80.3334 49.1667 86.0001 48.5C86.8001 47.7 88.6667 47.5 89.5001 47.5C91.5001 48.3 92.3334 47.1667 92.5001 46.5C94.0001 46.8333 97.6001 47 100 45C102.4 43 101 40.8333 100 40C109 40.5 130.5 48 141.5 56C152.5 64 148.5 75.5 141.5 88C134.5 100.5 31.5 97.5 20.5 78.5C9.50002 59.5 35.5 48.9998 48 44.4998Z" fill="#DDD1A8" fill-opacity="0.83"/>
<path d="M13.8502 90.5296C11.7899 86.7221 6.78436 72.9464 4.53916 66.5345L4.14294 64.5514L4.53916 64.1548L5.52969 65.5429L12.6615 72.0871L23.3593 78.2346L39.8021 83.7872L68.7256 87.1584L94.8757 87.9516L113.696 84.7787C121.554 82.7295 138.697 77.9569 144.402 75.26C150.108 72.563 153.779 67.3938 154.902 65.1463C155.232 64.948 155.853 64.9083 155.694 66.3362C155.496 68.1209 144.204 91.1245 143.61 92.9093C143.016 94.694 127.761 110.36 125.978 112.938C124.195 115.516 105.97 124.837 105.97 125.432C105.97 126.027 103.79 130.191 102.602 131.182C101.413 132.174 86.9514 133.166 85.7628 132.769C84.5742 132.372 62.5843 131.182 61.5938 129.794C60.6033 128.406 61.3957 126.82 60.009 126.423C58.6222 126.027 33.8589 111.153 31.6797 109.567C29.5006 107.981 16.4255 95.289 13.8502 90.5296Z" fill="#EEECDD"/>
<path d="M62.2146 126.97C65.4684 127.483 74.7481 128.355 85.837 127.739" stroke="#B1AFC3" stroke-linecap="round"/>
<path d="M103.554 125.988C101.631 126.315 97.1675 126.97 94.6954 126.97" stroke="#B1AFC3" stroke-linecap="round"/>
<path fill-rule="evenodd" clip-rule="evenodd" d="M6.68037 64.5479L5.9295 65.2654C6.62551 66.5365 7.65605 67.8806 9.14722 69.1391C13.9102 73.1587 21.8501 79.5817 39.8518 83.5884C48.837 85.5883 59.7332 86.7857 68.6431 87.4587C73.1004 87.7954 77.0657 88.0012 80.0535 88.1104C83.0226 88.2189 85.0637 88.2336 85.644 88.1802C85.8842 88.1581 86.3902 88.1271 87.1145 88.0827L87.1149 88.0827C89.4867 87.9375 94.1997 87.6489 99.5947 87.0588C106.657 86.2862 115.019 84.9867 121.176 82.7741C124.206 81.6851 127.252 80.8179 130.232 79.9738L130.421 79.9204L130.421 79.9204C133.329 79.0967 136.178 78.2901 138.857 77.3202C143.361 75.6897 147.431 73.5828 150.588 70.102L149.855 69.421C146.851 72.7378 142.949 74.7753 138.516 76.3799C135.871 77.3375 133.053 78.1356 130.132 78.9628L130.132 78.9629L129.959 79.0117C126.983 79.8547 123.905 80.7306 120.838 81.833C114.799 84.0031 106.537 85.2933 99.4859 86.0647C94.1327 86.6503 89.5508 86.931 87.147 87.0782L87.1468 87.0782C86.3756 87.1255 85.8286 87.159 85.5523 87.1844C85.0507 87.2306 83.0838 87.2204 80.09 87.111C77.1148 87.0023 73.1624 86.7972 68.7184 86.4616C59.8256 85.7899 48.9849 84.5967 40.0691 82.6123C22.2688 78.6505 14.4714 72.3238 9.79217 68.3749C8.30105 67.1165 7.31607 65.7787 6.68037 64.5479Z" fill="#B1AFC3"/>
<path fill-rule="evenodd" clip-rule="evenodd" d="M5.43338 65.7397L4.70648 66.4344C8.0435 70.7208 18.1266 79.7827 33.6487 84.0131C49.4153 88.3102 74.4631 89.909 85.0031 90.1733L85.0188 90.1737L85.0345 90.1731C92.0543 89.9082 109.406 88.3469 122.659 84.2061C123.886 83.8227 125.094 83.4488 126.279 83.0818C133.04 80.989 139.079 79.1192 143.89 76.9778C147.342 75.4405 150.216 73.7409 152.281 71.6759L151.548 70.9945C149.621 72.9124 146.893 74.5458 143.483 76.0642C138.732 78.1793 132.76 80.0283 125.995 82.1229L125.994 82.1232C124.807 82.4909 123.595 82.8661 122.361 83.2516C109.24 87.351 92.0058 88.908 85.0125 89.1732C74.4733 88.908 49.5459 87.3093 33.9116 83.0483C18.505 78.8493 8.57322 69.8233 5.43338 65.7397Z" fill="#B1AFC3"/>
<path d="M5.23883 66.7451L6.88266 65.6523L12.3621 71.1163L20.5812 76.5802L34.2797 82.0441L55.6495 85.8688L75.9233 87.508L94.5533 86.9616L114.279 84.2297L131.265 79.3121L144.416 74.3946L149.895 70.0235L151.539 71.6627L146.06 76.0338L134.005 80.4049L113.731 86.4152L95.6492 89.1472L83.5945 89.6936L57.2933 88.0544L35.9236 84.2297L22.773 79.8585L14.0059 73.8482L5.23883 66.7451Z" fill="#B1AFC3"/>
<path d="M4.14292 63.6085C3.04706 67.4333 8.52645 70.7116 11.2662 72.8972L13.4579 73.4436L10.1703 70.7117L5.78675 64.7013C5.6041 63.4264 4.79141 61.3452 4.14292 63.6085Z" fill="#B1AFC3"/>
<path d="M155.923 64.7011C156.501 66.4313 153.731 71.2578 150.991 72.897L148.252 72.3506L150.991 69.0723L153.731 65.2475C154.279 64.7011 155.484 63.3898 155.923 64.7011Z" fill="#B1AFC3"/>
</svg>
