<svg width="264" height="362" viewBox="0 0 264 362" fill="none" xmlns="http://www.w3.org/2000/svg">
<path d="M60.1992 309.379C64.7191 302.773 71.3541 306.627 74.1066 309.379C77.8732 310.973 83.1464 315.377 74.1066 320.245C62.8068 326.329 54.5493 317.637 60.1992 309.379Z" fill="#686868"/>
<path fill-rule="evenodd" clip-rule="evenodd" d="M74.1937 309.55C71.4412 306.797 64.8061 302.944 60.2862 309.55C54.6363 317.808 62.8939 326.5 74.1937 320.415C83.2335 315.548 77.9603 311.144 74.1937 309.55Z" fill="url(#paint0_linear_5_174)"/>
<path d="M81.9703 346.256C57.3103 307.149 78.5453 249.846 92.2453 226.083C110.055 197.567 142.191 159.939 168.28 224.046C203.185 309.814 181.295 336.072 176.5 350.33C178.555 351.688 182.254 355.218 180.61 358.477C178.555 362.551 139.51 362.551 135.4 358.477C132.112 355.218 134.03 335.393 135.4 325.888C130.468 327.517 123.755 326.567 121.015 325.888V358.477C121.015 362.551 86.0804 362.551 77.8604 358.477C71.2844 355.218 77.8603 348.972 81.9703 346.256Z" fill="#686868"/>
<rect x="104.244" y="228.317" width="60.845" height="13.0382" transform="rotate(-2.83543 104.244 228.317)" fill="url(#paint1_linear_5_174)"/>
<path d="M128.294 35.5721C117.003 78.08 130.587 114.59 138.791 127.532C143.837 128.379 155.456 123.046 161.562 94.9313C169.195 59.7878 174.248 32.8197 159.741 13.1016C155.813 7.76187 142.408 -17.5627 128.294 35.5721Z" fill="#686868"/>
<path d="M43.733 33.2404C32.383 82.4845 70.9719 119.14 85.4607 130.518C88.938 135.638 96.5881 142.123 99.3699 127.105C102.847 108.332 93.6642 77.6064 91.9255 70.7799C89.4903 61.2186 52.8109 -6.1456 43.733 33.2404Z" fill="#686868"/>
<path fill-rule="evenodd" clip-rule="evenodd" d="M124.55 57.9643C121.334 91.4159 131.772 118.664 138.517 129.472C143.484 130.32 154.921 124.987 160.931 96.8718C164.277 81.22 167.12 67.1898 167.982 54.6995L124.55 57.9643ZM87.0872 60.7804C89.9411 66.2681 91.8881 70.7375 92.3853 72.7205C92.5511 73.3821 92.7858 74.2683 93.0714 75.3463C95.7318 85.3906 102.804 112.092 99.713 129.045C96.9747 144.063 89.4446 137.578 86.0218 132.458C74.7135 123.437 48.4909 98.5233 43.6841 64.0431L87.0872 60.7804Z" fill="url(#paint2_linear_5_174)"/>
<path d="M136.245 60.9065C134.154 81.4306 138.831 109.47 141.43 120.924C157.123 67.8926 158.099 38.5788 153.205 27.3192C148.311 16.0596 138.858 35.2514 136.245 60.9065Z" fill="#E9B68F"/>
<path d="M54.5493 47.3111C53.1937 92.1824 79.0648 116.08 91.4909 126.844C81.3243 62.2568 70.6711 49.2133 63.1194 42.8075C57.1569 37.7498 55.114 44.4783 54.5493 47.3111Z" fill="#E9B68F"/>
<path d="M39.3365 270.716C45.8643 251.039 79.3844 231.649 93.6639 225.5C99.7837 234.382 105.022 257.598 90.335 270.716C75.1055 284.318 59.8755 283.816 56.2899 283.249C58.6787 284.803 63.0836 293.63 55.6557 297.362C49.1279 300.641 48.8559 291.896 49.5359 287.113C48.8559 291.896 47 292 44 292.5C35.1662 293.972 38.213 284.443 40.039 281.017C36.9274 282.73 27.4261 283.74 29.1368 276.865C30.7687 270.306 36.6166 270.033 39.3365 270.716Z" fill="#686868"/>
<path d="M230.859 213.629C211.754 205.581 175.086 218.031 161.054 224.725C163.706 235.18 177.724 254.413 197.268 252.002C217.534 249.502 227.188 237.712 229.123 234.641C228.719 237.462 232.459 246.59 240.159 243.459C246.927 240.707 240.526 234.743 236.479 232.104C241 234 247.108 236.706 247.818 227.48C248.154 223.111 243.164 220.797 240.324 220.16C243.337 218.669 248.173 213.076 242.204 210.005C236.194 206.913 232.137 211.133 230.859 213.629Z" fill="#686868"/>
<path d="M55.8531 162.51C66.5337 124.743 89.8499 112.008 107.571 108.591C168.274 98.9814 183.231 123.024 198.988 154.308C214.05 184.213 194.898 228.127 129.465 230.178C64.0322 232.228 44.5533 202.466 55.8531 162.51Z" fill="#686868"/>
<path d="M152.3 140.147C140.564 138.028 134.671 149.14 134.962 156.035C134.962 170.738 157.525 165.656 161.53 162.389C166.139 158.629 166.971 142.795 152.3 140.147Z" fill="#FFFEF3"/>
<path d="M194.927 171.174C204.331 168.448 226.361 163.812 239.257 167.084" stroke="#545454" stroke-width="2" stroke-linecap="round"/>
<path d="M192.32 162.482C199.182 157.074 216.612 145.851 231.434 144.229" stroke="#545454" stroke-width="2" stroke-linecap="round"/>
<path d="M194.927 178.997C202.364 181.062 220.077 187.255 231.435 195.512" stroke="#545454" stroke-width="2" stroke-linecap="round"/>
<path d="M68.0221 197.251C61.2615 200.705 44.4954 210.931 31.5151 224.196" stroke="#545454" stroke-width="2" stroke-linecap="round"/>
<path d="M68.0221 189.428C57.7653 189.428 33.1492 190.992 16.7384 197.251" stroke="#545454" stroke-width="2" stroke-linecap="round"/>
<path d="M68.0221 178.997C59.8649 176.427 37.8403 171.672 15 173.214" stroke="#545454" stroke-width="2" stroke-linecap="round"/>
<path d="M42.5 266.5C61.9704 237.294 82.3642 227.818 91.9255 226.804L137.125 241.146C140.891 240.567 153.64 235.583 174.501 220.285C195.362 204.987 219.439 209.523 229 213C230.043 216.825 227.523 228.977 226.654 235.496C205.793 258.53 185.511 253.895 177.109 246.361C192.407 280.435 192.175 306.047 190.147 314.595C128.954 325.025 83.8128 318.941 68.8913 314.595C67.556 304.58 71.189 282.945 72.6347 281.237C66.7658 284.937 60.1745 284.02 57.5915 283.303C48.204 277.74 44.8179 269.977 42.5 266.5Z" fill="#F3D666"/>
<path d="M132 177C132.755 179.703 133.811 185.886 132 189" stroke="#E9B68F" stroke-width="2" stroke-linecap="round"/>
<path d="M100.381 147.882C111.474 141.756 121.146 150.673 123.177 157.565C128.978 174.52 102.441 172.796 98.1273 171.963C91.949 170.768 86.5138 155.54 100.381 147.882Z" fill="#FFFEF3"/>
<path d="M104.628 169.135C107.164 170.515 108.295 170.318 111.244 170.039C113.634 169.429 115.973 169.244 117.356 167.035C120.217 162.465 117.732 156.01 112.81 154.166C108.317 152.482 101.176 156.408 100.986 161.533C100.867 164.734 101.601 167.489 104.628 169.135Z" fill="#545454"/>
<path d="M102.901 161.272C103.847 162.219 104.358 162.261 105.666 162.482C106.767 162.482 107.762 162.27 108.605 161.402C110.348 159.608 110.023 156.7 108.096 155.251C106.336 153.929 102.812 154.913 102.164 157.285C101.759 158.767 101.773 160.142 102.901 161.272Z" fill="#FFFEF3"/>
<path d="M143.607 163.218C146.172 164.607 147.315 164.406 150.295 164.118C152.708 163.497 155.072 163.305 156.466 161.07C159.348 156.446 156.824 149.927 151.846 148.073C147.302 146.38 140.093 150.362 139.911 155.542C139.797 158.777 140.544 161.56 143.607 163.218Z" fill="#545454"/>
<path d="M72.6295 281.564C76.4541 261.051 86.6818 236.51 91.3176 226.804C82.6255 227.499 75.2371 231.73 72.6295 233.758C64.285 247.317 69.1526 271.279 72.6295 281.564Z" fill="#B3D6B0"/>
<path d="M72.8028 281.13C65.849 250.186 69.9054 236.655 72.8028 233.758C66.8921 236.539 60.4889 241.87 58.0261 244.188C53.8539 261.225 63.2414 277.363 68.4567 283.303C70.5428 282.608 72.2233 281.565 72.8028 281.13Z" fill="#B1AFC3"/>
<path d="M48.0301 253.75C51.507 249.23 56.1428 245.492 58.0261 244.188C54.5492 259.834 63.5311 276.784 68.4567 283.303C65.3275 284.346 63.0965 284.317 62.3722 284.172C50.2032 271.655 47.7404 258.675 48.0301 253.75Z" fill="#E9B68F"/>
<path d="M38.5 269.5C41.2815 264.632 46.1468 255.923 48.0301 253.75C48.0301 266.614 57.5915 279.391 62.3722 284.172C59.9384 284.172 58.171 283.882 57.5915 283.738C47.5 279.5 40.673 272.977 38.5 269.5Z" fill="#FFFEF3"/>
<path d="M136.69 239.408C131.822 239.408 116.988 233.178 112.352 229.846C103.66 228.977 95.4024 227.239 90.1871 226.369C100.618 238.538 123.217 243.754 134.952 250.707C144.339 256.27 176.239 223.327 169.286 221.154L162.767 224.196L155.378 226.804C151.901 231.15 141.558 239.408 136.69 239.408Z" fill="#EEECDD"/>
<path d="M158.855 244.188C150.858 240.711 141.036 245.637 137.125 248.534V255.053C144.948 259.4 160.68 266.266 161.028 258.965C161.376 251.664 159.724 246.072 158.855 244.188Z" fill="#9A97B6"/>
<path d="M113.221 276.349C114.264 260.703 123.797 251.866 128.433 249.404H133.017C134.208 249.198 135.325 249.229 136.255 249.404H133.017C128.272 250.222 122.348 254.787 122.348 268.961C122.348 291.126 122.348 295.472 117.567 295.037C112.787 294.603 111.917 295.907 113.221 276.349Z" fill="#B1AFC3"/>
<path d="M119.74 275.48C119.74 254.967 126.984 250.707 130.606 251.142C121.044 259.4 127.563 304.164 127.129 305.468C126.694 306.772 119.74 306.772 118.002 305.468C116.264 304.164 119.74 301.122 119.74 275.48Z" fill="#9A97B6"/>
<path d="M126.694 248.534C127.042 245.753 131.475 245.347 133.648 245.492C137.125 245.492 138.284 247.52 138.429 248.534C140.167 255.923 140.167 259.834 133.648 261.138C127.129 262.442 126.26 252.011 126.694 248.534Z" fill="#B1AFC3"/>
<path d="M137.077 169.111C132.248 167.529 127.017 169.769 125.005 171.087C120.982 173.064 127.017 177.017 129.029 178.993C130.639 180.575 133.724 179.652 135.065 178.993C137.748 176.358 141.906 170.692 137.077 169.111Z" fill="#E9B68F"/>
<path d="M141.147 156.056C142.092 157.003 142.603 157.046 143.911 157.267C145.013 157.267 146.008 157.055 146.85 156.187C148.593 154.392 148.269 151.484 146.341 150.036C144.582 148.714 141.057 149.698 140.409 152.07C140.004 153.552 140.018 154.926 141.147 156.056Z" fill="#FFFEF3"/>
<path d="M119.879 196.122C121.237 194.106 125.784 189.878 133.112 189.097C140.439 188.315 143.101 190.635 143.515 191.892" stroke="#E9B68F" stroke-width="2" stroke-linecap="round"/>
<path d="M168.851 222.023C169.894 223.066 174.791 238.973 177.109 246.796C178.499 248.534 181.744 249.838 183.193 250.273C186.322 241.233 186.815 221.878 186.67 213.331C182.324 213.331 167.547 220.72 168.851 222.023Z" fill="#B3D6B0"/>
<path d="M194.927 253.75C189.364 253.054 184.787 251.142 183.193 250.273C185.975 239.495 186.67 221.154 186.67 213.331C191.19 210.897 198.984 209.709 202.316 209.42C205.793 219.155 198.839 243.029 194.927 253.75Z" fill="#B1AFC3"/>
<path d="M209.704 251.142C202.403 253.923 196.811 254.039 194.927 253.75C203.272 229.759 203.33 214.2 202.316 209.42C207.879 208.377 215.064 208.695 217.962 208.985C222.134 219.416 215.354 241.581 209.704 251.142Z" fill="#E9B68F"/>
<path d="M229 235.5C226.914 240.715 214.775 248.39 209.704 251.142C220.83 227.152 219.845 213.041 217.962 208.985C224.568 209.333 229.986 212.276 231 213C232.738 223.865 229 235.065 229 235.5Z" fill="#FFFEF3"/>
<path d="M88.8453 144.06C93.3898 143.061 97.5083 140.587 100.476 138.244C101.327 137.572 102.59 138.437 102.032 139.367C98.4388 145.356 93.0185 146.46 88.6609 145.872C87.5829 145.727 87.7829 144.293 88.8453 144.06Z" fill="#545454"/>
<path d="M166.155 139.06C161.61 138.061 157.492 135.587 154.524 133.244C153.673 132.572 152.41 133.437 152.968 134.367C156.561 140.356 161.981 141.46 166.339 140.872C167.417 140.727 167.217 139.293 166.155 139.06Z" fill="#545454"/>
<path d="M245.789 201.141L231.077 245.766C231.026 245.92 231.013 246.087 231.045 246.246C231.904 250.497 235.868 249.757 238.105 248.699C238.36 248.579 238.539 248.344 238.606 248.07L249.812 202.76C249.922 202.314 250.321 202.003 250.78 201.975C254.19 201.764 260.282 200.176 262.5 195C265.5 188 263 182.5 259.5 180.5C256 178.5 245.5 176.5 241.5 185.5C238.525 192.194 243.099 197.822 245.498 200.053C245.796 200.331 245.916 200.754 245.789 201.141Z" fill="#B3BAC6"/>
<path d="M240 223C241 221.5 244.5 220.5 246 223.5L246 227L244 229.5L244.5 233.5L242 234C236 233 237.888 226.168 240 223Z" fill="#686868"/>
<path d="M240 233.5C242.4 233.5 244 235 244 237C244 238.5 243.5 242.5 240 243.5C235.7 244.729 234.5 242 234 240.5C233.5 239 237 233.5 240 233.5Z" fill="#686868"/>
<path d="M55.9492 302.854L23.8825 268.86C23.7812 268.753 23.6129 268.738 23.4884 268.818C16.4976 273.281 8.9337 262.843 5.91946 256.862C5.87101 256.765 5.88008 256.654 5.93999 256.564L7.63776 254.03C7.72435 253.9 7.89543 253.859 8.03174 253.934L16.2763 258.474C16.5746 258.639 16.8725 258.258 16.6412 258.008L10.792 251.69C10.6723 251.561 10.6892 251.357 10.8284 251.249L12.8987 249.646C13.0008 249.567 13.1421 249.562 13.2493 249.634L21.0346 254.848C21.3038 255.029 21.6281 254.713 21.4553 254.439L17.1114 247.547C17.0254 247.411 17.0627 247.231 17.1958 247.14L19.0118 245.897C19.113 245.828 19.2445 245.826 19.3457 245.895C21.7754 247.561 26.9048 251.876 29.2791 256.759C31.5666 261.464 28.7939 264.806 26.8393 266.104C26.6685 266.217 26.6429 266.463 26.7956 266.6L60.9778 297.223C61.0469 297.285 61.084 297.376 61.0747 297.468C60.7724 300.478 57.8638 302.311 56.2648 302.929C56.1543 302.972 56.0304 302.94 55.9492 302.854Z" fill="#B3BAC6"/>
<path d="M29 278C29 274.028 31.9582 271.535 33.9579 271.011C33.9862 271.003 34.0138 271.001 34.0431 271.002C37.5548 271.18 44.2134 272.86 42.5 278C40 285.5 29 282.528 29 278Z" fill="#686868"/>
<path d="M41.5 283C39.1 282.2 37.6667 283.667 37.5 284.5C37.3634 285.183 36.6 285.7 37 288.5C37.5 292 42 293.5 45 293.5C48 293.5 48 290 47.5 287.5C47 285 44.5 284 41.5 283Z" fill="#686868"/>
<path d="M44.6238 297.757C42.982 295.182 44.9658 293.005 46.163 292.239C50.7806 291.319 52.547 293.107 52.9744 296.687C53.4686 300.827 46.6761 300.975 44.6238 297.757Z" fill="#686868"/>
<path d="M245.5 216C246.066 213.172 245 211 241 209.5C238.167 212.667 234.3 219.8 237.5 221C241.5 222.5 245 218.5 245.5 216Z" fill="#686868"/>
<defs>
<linearGradient id="paint0_linear_5_174" x1="79.409" y1="312.592" x2="56.8094" y2="312.592" gradientUnits="userSpaceOnUse">
<stop stop-color="#545454"/>
<stop offset="1" stop-color="#686868" stop-opacity="0"/>
</linearGradient>
<linearGradient id="paint1_linear_5_174" x1="134.666" y1="228.317" x2="134.666" y2="241.355" gradientUnits="userSpaceOnUse">
<stop stop-color="#545454"/>
<stop offset="1" stop-color="#686868" stop-opacity="0"/>
</linearGradient>
<linearGradient id="paint2_linear_5_174" x1="112.254" y1="156.507" x2="104.957" y2="59.4371" gradientUnits="userSpaceOnUse">
<stop stop-color="#545454"/>
<stop offset="1" stop-color="#686868"/>
</linearGradient>
</defs>
</svg>
