<svg width="140" height="140" viewBox="0 0 140 140" fill="none" xmlns="http://www.w3.org/2000/svg">
<path d="M9.98826 85.2651C8.10822 81.7809 3.54068 69.1748 1.49192 63.3073L1.13037 61.4926L1.49192 61.1296L2.39578 62.3999L8.90362 68.3884L18.6654 74.014L33.6696 79.0951L60.0625 82.1801L83.9246 82.906L101.098 80.0025C108.269 78.1273 123.912 73.7599 129.118 71.2919C134.324 68.8239 137.674 64.0936 138.699 62.037C139 61.8555 139.567 61.8192 139.422 63.1258C139.241 64.759 128.937 85.8095 128.395 87.4427C127.852 89.0759 113.933 103.412 112.306 105.771C110.679 108.13 94.0479 116.659 94.0479 117.204C94.0479 117.748 92.0594 121.559 90.9747 122.466C89.8901 123.374 76.6936 124.281 75.609 123.918C74.5243 123.555 54.4585 122.466 53.5546 121.196C52.6508 119.926 53.3739 118.474 52.1085 118.111C50.843 117.748 28.2464 104.138 26.2579 102.686C24.2694 101.234 12.3383 89.6203 9.98826 85.2651Z" fill="#EEECDD"/>
<path d="M28.1745 78.8603C13.8442 74.9435 4.64886 66.4694 1.8425 62.7219C0.552768 59.6756 1.30511 55.8918 1.8425 54.3808C1.8425 52.3861 14.7398 36.4291 23.1589 33.5279C31.5779 30.6266 60.9551 27 74.9272 27C88.8993 27 125.263 40.5997 131.532 44.9516C137.802 49.3035 141.205 56.3754 138.518 63.8099C135.831 71.2444 124.188 74.327 109.141 79.0416C97.1034 82.8132 81.3162 84.2397 74.9272 84.4815C65.3139 84.2397 42.5048 82.777 28.1745 78.8603Z" fill="#E9B68F" stroke="#E9B68F"/>
<path d="M5.99117 65.3411C2.54471 62.4243 1.92243 59.0214 2.0421 57.6845C2.0421 55.3511 4.07647 51.9725 5.09366 50.5748C15.5048 41.2775 13.3508 33.9856 45.1228 30.3396C76.8949 26.6936 78.1514 27.2405 92.5117 31.2511C106.872 35.2617 131.284 43.8297 135.592 50.9394C139.039 56.6272 137.387 62.0597 136.131 64.065C130.207 72.9977 118.899 73.7269 107.769 77.7375C96.6402 81.7481 77.4334 82.4773 75.4589 82.6596C73.4843 82.8419 50.1489 82.1127 33.8142 78.4667C17.4794 74.8207 10.2992 68.9871 5.99117 65.3411Z" fill="#EEECDD" stroke="#E9B68F"/>
<path d="M54.1211 118.611C57.0902 119.081 65.558 119.879 75.6766 119.315" stroke="#E9B68F" stroke-linecap="round"/>
<path d="M91.8433 117.713C90.0888 118.012 86.0158 118.611 83.76 118.611" stroke="#E9B68F" stroke-linecap="round"/>
<path d="M94.2983 50.9231C92.6348 48.6358 88.0601 48.064 85.9807 48.064L113.533 81.0745C116.565 79.7749 123.098 75.824 124.97 70.4176C127.309 63.6595 109.634 53.5224 107.035 51.9629C104.435 50.4033 96.3777 53.7823 94.2983 50.9231Z" fill="#563626"/>
<path d="M81.302 75.876C74.8558 68.5981 77.0565 57.5946 78.9627 53.0025C83.3814 46.2445 89.6196 47.5441 91.1791 50.9231C92.7387 54.3022 96.3777 53.7823 103.136 53.5224C109.894 53.2625 117.951 63.6595 120.811 71.4573C123.67 79.255 108.854 83.9337 102.616 85.2333C96.3777 86.533 89.3597 84.9734 81.302 75.876Z" fill="#74533E"/>
<path d="M69.5325 61.1426C67.5036 59.1721 62.8984 59.3879 60.8494 59.7422L93.6223 87.5765C96.3891 85.7793 102.153 80.7733 103.076 75.127C104.23 68.0692 85.0867 61.0913 82.2598 59.9974C79.4328 58.9034 72.0686 63.6058 69.5325 61.1426Z" fill="#492F21"/>
<path d="M60.9771 87.9447C53.3853 81.8713 53.6793 70.6537 54.7753 65.8041C57.9781 58.3921 64.3466 58.61 66.459 61.674C68.5714 64.7379 72.0686 63.6057 78.6836 62.1983C85.2986 60.7909 95.0097 69.6633 99.1555 76.86C103.301 84.0567 89.4991 91.1909 83.5735 93.5343C77.6479 95.8776 70.4668 95.5364 60.9771 87.9447Z" fill="#63412C"/>
<path d="M15.4476 56.7846C26.5643 48.6939 43.3991 55.4064 50.7152 58.6939C46.6559 65.0743 37.1659 77.888 31.6802 78.0998C24.8231 78.3646 20.5831 74.4493 15.9874 68.4688C12.3108 63.6844 14.2879 57.9657 15.4476 56.7846Z" fill="#5F4431"/>
<path d="M50.3845 58.2929C47.4936 56.0951 31.3676 54.4358 18.6705 57.8327C9.65733 63.245 23.7006 76.5951 26.723 77.8085C29.7454 79.0219 33.0282 81.3682 35.7095 84.2106C38.3909 87.053 59.3675 91.6522 60.9178 81.2766C62.1579 72.976 56.0827 65.6102 52.8901 62.9649C53.2595 62.3233 53.2754 60.4908 50.3845 58.2929Z" fill="#78543B"/>
<path d="M88.9572 38.9666C88.6535 36.1658 86.6818 34.4893 85.7339 34.0011C72.5762 45.144 46.0814 68.1975 45.3647 71.2681C44.4688 75.1063 45.0288 74.1272 50.2369 75.2436C55.445 76.36 61.5239 68.3813 70.7454 68.1597C79.9668 67.9381 87.6636 60.9169 89.1569 58.3059C90.6501 55.6949 88.3167 54.0955 89.3495 50.7751C90.3824 47.4548 89.0196 46.4299 88.2667 43.5816C87.5137 40.7334 89.3369 42.4676 88.9572 38.9666Z" fill="#5E3E2A"/>
<path d="M53.4533 53.3392C56.5793 50.2965 58.5803 45.8891 59.19 44.0658C60.3159 34.9032 78.3295 31.8032 82.8904 32.5367C87.4514 33.2701 87.4888 35.4765 85.4853 38.2224C83.4818 40.9682 84.5273 45.9554 86.3691 48.7928C88.211 51.6302 86.6369 57.0329 82.9348 61.613C79.2327 66.1931 73.4085 62.7463 59.5703 70.283C45.7321 77.8197 44.0084 74.397 43.6101 69.7928C43.2117 65.1886 49.5458 57.1424 53.4533 53.3392Z" fill="#84604A"/>
<path d="M9.98826 85.1354C8.10822 81.6512 3.54068 69.0451 1.49192 63.1776L1.13037 61.3629L1.49192 61L2.39578 62.2703L8.90362 68.2588L18.6654 73.8843L33.6696 78.9655L60.0625 82.0505L83.9246 82.7763L101.098 79.8728C108.269 77.9976 123.912 73.6303 129.118 71.1623C134.324 68.6943 137.674 63.964 138.699 61.9073C139 61.7259 139.567 61.6896 139.422 62.9962C139.241 64.6294 128.937 85.6798 128.395 87.3131C127.852 88.9463 113.933 103.282 112.306 105.641C110.679 108.001 94.0479 116.53 94.0479 117.074C94.0479 117.618 92.0594 121.429 90.9747 122.337C89.8901 123.244 76.6936 124.151 75.609 123.788C74.5243 123.425 54.4585 122.337 53.5546 121.066C52.6508 119.796 53.3739 118.344 52.1085 117.981C50.843 117.618 28.2464 104.008 26.2579 102.556C24.2694 101.105 12.3383 89.4907 9.98826 85.1354Z" fill="#EEECDD"/>
<path d="M54.1211 118.481C57.0902 118.951 65.558 119.749 75.6766 119.186" stroke="#E9B68F" stroke-linecap="round"/>
<path d="M91.8433 117.583C90.0888 117.883 86.0158 118.481 83.76 118.481" stroke="#E9B68F" stroke-linecap="round"/>
<path fill-rule="evenodd" clip-rule="evenodd" d="M3.47845 61.3284L2.72803 62.0475C3.36551 63.2119 4.30753 64.4418 5.66796 65.5932C10.0179 69.2745 17.2693 75.1565 33.705 78.8251C41.9072 80.6558 51.8526 81.7518 59.9836 82.3677C64.0515 82.6758 67.6705 82.8642 70.3974 82.9641C73.1057 83.0634 74.9716 83.0771 75.5046 83.0278C75.7222 83.0078 76.1821 82.9795 76.841 82.9391L76.8411 82.939C79.0037 82.8063 83.3105 82.5418 88.2355 82.0015C94.6808 81.2945 102.315 80.1049 107.939 78.0783C110.702 77.0823 113.48 76.2891 116.199 75.5167L116.372 75.4676C119.026 74.714 121.626 73.9755 124.073 73.0874C128.186 71.5943 131.907 69.6635 134.793 66.4717L134.062 65.7897C131.327 68.8185 127.773 70.6801 123.731 72.1474C121.319 73.0231 118.749 73.7531 116.083 74.5103L116.083 74.5103L115.926 74.5548C113.21 75.3262 110.401 76.1281 107.6 77.1375C102.094 79.1214 94.5605 80.3017 88.1264 81.0075C83.2431 81.5432 79.0677 81.7997 76.8731 81.9345C76.1674 81.9779 75.6664 82.0087 75.4127 82.0321C74.9585 82.074 73.167 82.0649 70.4341 81.9648C67.7198 81.8653 64.1138 81.6777 60.0592 81.3706C51.9452 80.7559 42.0555 79.6643 33.9229 77.8491C17.689 74.2256 10.5802 68.4404 6.31398 64.8298C4.95271 63.6778 4.0558 62.4533 3.47845 61.3284Z" fill="#E9B68F"/>
<path fill-rule="evenodd" clip-rule="evenodd" d="M2.33941 62.4201L1.61328 63.116C4.66741 67.0474 13.8745 75.3405 28.0428 79.2129C42.4355 83.1467 65.2965 84.6098 74.9147 84.8517L74.9305 84.8521L74.9462 84.8515C81.3535 84.609 97.1915 83.18 109.29 79.3891C110.41 79.0383 111.512 78.6963 112.593 78.3604C118.762 76.4454 124.277 74.7334 128.668 72.7726C131.821 71.3653 134.449 69.8073 136.339 67.9118L135.607 67.2294C133.854 68.9786 131.371 70.4707 128.261 71.8595C123.928 73.7938 118.482 75.4849 112.308 77.4018C111.224 77.7383 110.118 78.0818 108.991 78.4348C97.0253 82.1841 81.3048 83.6088 74.9241 83.8516C65.3066 83.6087 42.5665 82.1458 28.3064 78.2483C14.2516 74.4069 5.19499 66.1475 2.33941 62.4201Z" fill="#E9B68F"/>
<path d="M2.13037 63.3704L3.63037 62.3704L8.63037 67.3704L16.1304 72.3704L28.6304 77.3704L48.1304 80.8704L66.6304 82.3704L83.6304 81.8704L101.63 79.3704L117.13 74.8704L129.13 70.3704L134.13 66.3704L135.63 67.8704L130.63 71.8704L119.63 75.8704L101.13 81.3704L84.6304 83.8704L73.6304 84.3704L49.6304 82.8704L30.1304 79.3704L18.1304 75.3704L10.1304 69.8704L2.13037 63.3704Z" fill="#E9B68F"/>
<path d="M1.13042 60.5C0.130432 64 5.13042 67 7.63042 69L9.63042 69.5L6.63042 67L2.63042 61.5C2.46375 60.3333 1.72217 58.4288 1.13042 60.5Z" fill="#E9B68F"/>
<path d="M139.63 61.5C140.158 63.0832 137.63 67.5 135.13 69L132.63 68.5L135.13 65.5L137.63 62C138.13 61.5 139.23 60.3 139.63 61.5Z" fill="#E9B68F"/>
</svg>
