<svg width="30" height="28" viewBox="0 0 30 28" fill="none" xmlns="http://www.w3.org/2000/svg">
<path d="M26.4601 12.5C26.4286 12.7848 25.2443 16.0973 25.1497 16.382C25.0552 16.6668 22.6282 19.1664 22.3445 19.5778C22.0608 19.9891 19.161 21.4762 19.161 21.5711C19.161 21.6661 18.8143 22.3305 18.6252 22.4887C18.4361 22.6469 16.1352 22.8051 15.946 22.7419C15.7569 22.6786 12.2583 22.4887 12.1007 22.2672C11.9431 22.0458 12.0692 21.7926 11.8485 21.7293C11.6279 21.6661 7.68795 19.293 7.34123 19.0399C6.99452 18.7867 4.91424 16.7617 4.50448 16.0024C4.17668 15.3949 3.38029 13.1969 3.02307 12.1738L3.46008 10.2439L3.17634 11.169C3.06783 11.5227 3.16354 11.9075 3.42514 12.1692L4.31537 13.0598L6.01742 14.0406L8.63353 14.9266L13.2354 15.4645L17.3959 15.591L20.3903 15.0848C21.6406 14.7578 24.368 13.9963 25.2758 13.566C26.1836 13.1357 26.2815 12.8586 26.4601 12.5ZM26.4601 12.5C26.4853 12.2722 26.5126 12.4684 26.4601 12.5Z" stroke="#E9B68F" stroke-linejoin="round"/>
<path d="M3.80749 12.5285C3.20657 12.0199 3.09807 11.4266 3.11894 11.1935C3.11894 10.7867 3.47365 10.1976 3.651 9.95389C5.46629 8.33282 5.09071 7.0614 10.6305 6.42569C16.1702 5.78997 16.3893 5.88533 18.8931 6.58461C21.397 7.2839 25.6535 8.77782 26.4046 10.0175C27.0056 11.0092 26.7176 11.9564 26.4985 12.306C25.4657 13.8635 23.4939 13.9907 21.5534 14.6899C19.613 15.3892 16.2641 15.5164 15.9198 15.5481C15.5755 15.5799 11.5068 15.4528 8.65868 14.8171C5.81056 14.1814 4.55864 13.1642 3.80749 12.5285Z" stroke="#E9B68F"/>
<path d="M13.1915 10.4919C13.2573 10.4919 13.3325 10.4919 13.4172 10.4919C13.5112 10.4919 13.6099 10.4919 13.7133 10.4919C13.8261 10.4919 13.9436 10.4919 14.0658 10.4919C14.188 10.4826 14.3149 10.4733 14.4465 10.464V8.54292C14.4465 8.37587 14.4982 8.24594 14.6016 8.15313C14.7145 8.05104 14.8602 8 15.0388 8C15.255 8 15.4148 8.05568 15.5182 8.16705C15.6216 8.27842 15.6733 8.39443 15.6733 8.51508L15.6169 10.4223C15.7297 10.4223 15.8378 10.4223 15.9412 10.4223C16.0541 10.413 16.1622 10.4037 16.2656 10.3944C16.369 10.3852 16.4677 10.3805 16.5617 10.3805C16.6651 10.3712 16.7591 10.3619 16.8437 10.3527C16.8907 10.3527 16.9424 10.3527 16.9988 10.3527C17.0552 10.3434 17.1116 10.3341 17.168 10.3248C17.2244 10.3155 17.2808 10.3109 17.3373 10.3109C17.3937 10.3016 17.4454 10.297 17.4924 10.297C17.6804 10.297 17.8073 10.348 17.8731 10.4501C17.9483 10.5429 17.9906 10.645 18 10.7564C18 10.942 17.9483 11.0812 17.8449 11.174C17.7509 11.2668 17.6428 11.3271 17.5206 11.355C17.4924 11.355 17.4595 11.355 17.4219 11.355C17.3937 11.3457 17.3608 11.3364 17.3231 11.3271C17.2761 11.3271 17.215 11.3271 17.1398 11.3271C17.074 11.3179 16.9847 11.3179 16.8719 11.3271C16.7685 11.3364 16.6651 11.3457 16.5617 11.355C16.4583 11.355 16.3549 11.3596 16.2515 11.3689C16.1387 11.3782 16.0259 11.3875 15.913 11.3968C15.8096 11.3968 15.7015 11.3968 15.5887 11.3968L15.5605 12.3434C15.5511 12.5012 15.537 12.6729 15.5182 12.8585C15.4994 13.0441 15.4712 13.2204 15.4336 13.3875C15.3866 13.5545 15.3255 13.6984 15.2503 13.819C15.1751 13.9397 15.0811 14 14.9683 14C14.8179 14 14.6957 13.8561 14.6016 13.5684C14.5076 13.2807 14.4606 12.8724 14.4606 12.3434L14.4465 11.4524C14.1551 11.471 13.8684 11.4849 13.5864 11.4942C13.3043 11.4942 13.0458 11.4942 12.8108 11.4942C12.6604 11.4942 12.5288 11.4617 12.416 11.3968C12.3032 11.3318 12.2092 11.2483 12.134 11.1462C12.0682 11.0534 12.0259 10.9513 12.0071 10.8399C11.9882 10.7285 12.0071 10.6264 12.0635 10.5336C12.1105 10.4594 12.1763 10.4176 12.2609 10.4084C12.3455 10.3898 12.4395 10.3898 12.5429 10.4084C12.6463 10.4176 12.7544 10.4362 12.8672 10.464C12.98 10.4826 13.0881 10.4919 13.1915 10.4919Z" fill="#E9B68F"/>
</svg>
