<svg width="18" height="18" viewBox="0 0 18 18" fill="none" xmlns="http://www.w3.org/2000/svg">
<circle cx="9" cy="9" r="8.5" stroke="#686868"/>
<path d="M8.631 10.348C8.631 10.012 8.71033 9.68533 8.869 9.368C9.02767 9.04133 9.275 8.75667 9.611 8.514C9.919 8.29 10.1663 8.08467 10.353 7.898C10.5397 7.702 10.633 7.45 10.633 7.142C10.633 6.862 10.521 6.60533 10.297 6.372C10.0823 6.13867 9.75567 6.02667 9.317 6.036C9.065 6.04533 8.841 6.092 8.645 6.176C8.45833 6.25067 8.267 6.40933 8.071 6.652C7.96833 6.77333 7.83767 6.848 7.679 6.876C7.52967 6.904 7.37567 6.862 7.217 6.75C7.105 6.67533 7.035 6.56333 7.007 6.414C6.98833 6.26467 7.007 6.14333 7.063 6.05C7.287 5.658 7.609 5.38733 8.029 5.238C8.449 5.07933 8.883 5 9.331 5C10.0963 5 10.6937 5.196 11.123 5.588C11.5617 5.98 11.781 6.484 11.781 7.1C11.781 7.61333 11.6317 8.052 11.333 8.416C11.0343 8.77067 10.647 9.10667 10.171 9.424C10.0683 9.49867 9.989 9.578 9.933 9.662C9.877 9.73667 9.835 9.816 9.807 9.9C9.779 9.984 9.76033 10.068 9.751 10.152C9.751 10.236 9.751 10.306 9.751 10.362C9.74167 10.474 9.72767 10.6187 9.709 10.796C9.69033 10.964 9.66233 11.1273 9.625 11.286C9.57833 11.4447 9.51767 11.5847 9.443 11.706C9.36833 11.8273 9.275 11.888 9.163 11.888C9.079 11.8973 9.00433 11.8553 8.939 11.762C8.87367 11.6593 8.81767 11.5287 8.771 11.37C8.72433 11.2207 8.687 11.0573 8.659 10.88C8.64033 10.6933 8.631 10.516 8.631 10.348ZM10.045 13.162C10.045 13.358 9.97033 13.526 9.821 13.666C9.67167 13.7967 9.499 13.862 9.303 13.862C9.08833 13.862 8.90633 13.7967 8.757 13.666C8.617 13.526 8.547 13.358 8.547 13.162C8.547 12.966 8.617 12.8027 8.757 12.672C8.90633 12.532 9.08833 12.462 9.303 12.462C9.499 12.462 9.67167 12.532 9.821 12.672C9.97033 12.8027 10.045 12.966 10.045 13.162Z" fill="#686868"/>
</svg>
