<svg width="112" height="112" viewBox="0 0 112 112" fill="none" xmlns="http://www.w3.org/2000/svg">
<path d="M12.717 71.4872C11.3675 69.0124 8.08899 60.0585 6.6184 55.891L6.35889 54.602L6.6184 54.3442L7.26719 55.2465L11.9385 59.5L18.9454 63.4957L29.7153 67.1048L48.6599 69.296L65.7879 69.8115L78.1149 67.7492C83.262 66.4173 94.4903 63.3153 98.2274 61.5623C101.964 59.8094 104.369 56.4495 105.105 54.9887C105.321 54.8598 105.727 54.834 105.624 55.7621C105.494 56.9221 98.0976 71.8738 97.7083 73.0339C97.3191 74.1939 87.3277 84.3766 86.1599 86.0522C84.9921 87.7278 73.0544 93.7859 73.0544 94.1725C73.0544 94.5592 71.627 97.266 70.8485 97.9105C70.0699 98.5549 60.5976 99.1994 59.8191 98.9416C59.0405 98.6838 44.6374 97.9105 43.9886 97.0082C43.3398 96.1059 43.8589 95.0748 42.9506 94.817C42.0423 94.5592 25.8225 84.8922 24.3952 83.861C22.9679 82.8298 14.4039 74.5806 12.717 71.4872Z" fill="#EEECDD"/>
<path d="M25.7709 66.9381C15.4847 64.1561 8.88443 58.1371 6.87005 55.4754C5.94429 53.3116 6.48431 50.6241 6.87005 49.5508C6.87005 48.1341 16.1276 36.8001 22.1708 34.7394C28.2139 32.6787 49.3006 30.1028 59.3297 30.1028C69.3587 30.1028 95.46 39.7624 99.9602 42.8535C104.46 45.9445 106.903 50.9675 104.975 56.2481C103.046 61.5287 94.6885 63.7182 83.888 67.0669C75.2476 69.7458 63.9156 70.759 59.3297 70.9307C52.4294 70.759 36.0572 69.7201 25.7709 66.9381Z" fill="#B1AFC3"/>
<path fill-rule="evenodd" clip-rule="evenodd" d="M39.211 31.2961C46.4972 30.3938 54.2932 29.7478 59.3297 29.7478C61.8821 29.7478 65.4285 30.3603 69.3619 31.3157C73.3024 32.2726 77.6562 33.5799 81.8336 34.9828C86.0113 36.3858 90.0171 37.8859 93.2621 39.2297C96.495 40.5685 99.0042 41.7647 100.165 42.5619C104.761 45.7189 107.31 50.8983 105.312 56.369C104.295 59.1537 101.602 61.0728 97.9046 62.7064C94.7522 64.0992 90.794 65.3151 86.3662 66.6753C85.5897 66.9139 84.7988 67.1568 83.9953 67.406C75.3108 70.0986 63.9424 71.1136 59.3433 71.2858L59.332 71.2862L59.3207 71.2859C52.4168 71.1141 36.0074 70.0749 25.6763 67.2808C15.309 64.4769 8.64242 58.41 6.58278 55.6884L6.55659 55.6538L6.53956 55.614C6.04753 54.464 5.95052 53.191 6.02004 52.0823C6.08767 51.0037 6.31462 50.0544 6.51467 49.4807C6.52868 49.3355 6.58289 49.18 6.64518 49.0349C6.72254 48.8547 6.83298 48.6452 6.96962 48.4134C7.24336 47.9489 7.63666 47.3708 8.12192 46.7183C9.09334 45.4121 10.4483 43.7877 11.9914 42.145C13.5342 40.5024 15.2704 38.8357 17.0049 37.4478C18.7341 36.0642 20.4843 34.939 22.0539 34.4038C25.1162 33.3595 31.9353 32.197 39.211 31.2961ZM39.3001 32.0009C32.0143 32.9031 25.2685 34.0589 22.2877 35.0753C20.8357 35.5704 19.1625 36.6348 17.4563 38.0001C15.7553 39.3612 14.044 41.0029 12.5171 42.6285C10.9903 44.254 9.65326 45.8575 8.70004 47.1393C8.22296 47.7808 7.8458 48.3366 7.58967 48.7712C7.46137 48.9889 7.36701 49.1702 7.30581 49.3127C7.27527 49.3838 7.25492 49.4408 7.2426 49.4847C7.23651 49.5064 7.23292 49.523 7.23092 49.535C7.22908 49.5461 7.22896 49.5511 7.22895 49.5511L7.22895 49.551V49.6122L7.2082 49.67C7.02653 50.1755 6.80187 51.083 6.73645 52.1263C6.67181 53.1571 6.76435 54.2934 7.18382 55.2975C9.18454 57.9176 15.7058 63.8479 25.8656 66.5957C36.1014 69.364 52.4241 70.4031 59.3274 70.5756C63.9075 70.4031 75.1915 69.3912 83.7807 66.7282C84.5894 66.4774 85.3835 66.2334 86.1615 65.9944C90.5929 64.6329 94.5022 63.4318 97.612 62.0579C101.275 60.4394 103.726 58.6235 104.637 56.1276C106.496 51.0372 104.16 46.1705 99.7556 43.1454C98.6661 42.397 96.2251 41.2266 92.985 39.8849C89.7569 38.5481 85.7667 37.0537 81.6029 35.6554C77.4389 34.257 73.1057 32.9562 69.1908 32.0055C65.269 31.053 61.7919 30.4581 59.3297 30.4581C54.3371 30.4581 46.5752 31.1 39.3001 32.0009Z" fill="#B1AFC3"/>
<path d="M9.84774 57.3357C7.3739 55.264 6.92724 52.8469 7.01313 51.8974C7.01313 50.24 8.47339 47.8402 9.20352 46.8475C16.6766 40.2439 15.1304 35.0645 37.9362 32.4748C60.7419 29.8851 61.6438 30.2736 71.9515 33.1222C82.2592 35.9709 99.7822 42.0566 102.875 47.1065C105.348 51.1464 104.163 55.005 103.261 56.4293C99.0091 62.774 90.8918 63.292 82.9034 66.1406C74.9149 68.9893 61.1284 69.5072 59.7111 69.6367C58.2938 69.7662 41.5439 69.2482 29.8189 66.6586C18.0939 64.0689 12.94 59.9254 9.84774 57.3357Z" fill="#EEECDD"/>
<path fill-rule="evenodd" clip-rule="evenodd" d="M71.5645 32.6466C71.7235 32.6905 71.8847 32.7351 72.0482 32.7803C77.2122 34.2074 84.1846 36.4456 90.2576 38.9615C93.2936 40.2192 96.1131 41.5498 98.3722 42.887C100.617 44.2159 102.36 45.5804 103.182 46.9226C105.74 51.1011 104.523 55.1058 103.565 56.618L103.56 56.6258L103.56 56.6257C101.373 59.8893 98.1978 61.6397 94.6061 62.93C92.8502 63.5607 90.9837 64.0853 89.079 64.6205L88.9548 64.6555C87.0027 65.2041 85.009 65.7675 83.0253 66.4749C78.9885 67.9144 73.5088 68.7593 68.8824 69.2615C65.3473 69.6452 62.2559 69.8331 60.7036 69.9274C60.2306 69.9561 59.9005 69.9762 59.7443 69.9905C59.3617 70.0254 58.0224 70.0157 56.0784 69.9452C54.1211 69.8742 51.5234 69.7404 48.6035 69.5216C42.7671 69.0841 35.6284 68.3057 29.7409 67.0053C17.9435 64.3996 12.7384 60.2218 9.6161 57.6069C7.06677 55.472 6.5644 52.9569 6.65448 51.8818C6.65898 50.9725 7.05306 49.9045 7.5118 48.9684C7.97849 48.016 8.53752 47.15 8.91355 46.6387L8.93609 46.608L8.96467 46.5828C10.6387 45.1035 11.8539 43.6979 13.0098 42.361C13.1292 42.2229 13.248 42.0855 13.3666 41.9488C14.631 40.4916 15.8739 39.1168 17.6093 37.8688C21.084 35.3699 26.4746 33.419 37.8955 32.1221C49.2907 30.8282 55.2457 30.2739 59.6416 30.4043C63.9162 30.5311 66.7174 31.3059 71.5645 32.6466ZM59.6201 31.1143C55.2866 30.9857 49.3878 31.5321 37.9773 32.8278C26.5924 34.1206 21.3532 36.0543 18.0313 38.4434C16.3684 39.6393 15.1712 40.9594 13.9111 42.4115C13.7928 42.548 13.6738 42.6855 13.5539 42.8242C12.406 44.1522 11.1686 45.5837 9.47171 47.087C9.11767 47.5725 8.59441 48.3871 8.15767 49.2783C7.7064 50.1992 7.37224 51.1529 7.37224 51.8975V51.9134L7.37081 51.9292C7.29544 52.7624 7.69415 55.0669 10.0798 57.0648C13.1421 59.6293 18.2447 63.7384 29.8973 66.3121C35.7348 67.6014 42.8336 68.3768 48.6577 68.8133C51.5681 69.0315 54.1564 69.1647 56.1047 69.2354C58.0664 69.3065 59.3523 69.313 59.6783 69.2832C59.8605 69.2665 60.22 69.2447 60.7266 69.2139C62.3019 69.1181 65.299 68.9359 68.8042 68.5555C73.4225 68.0541 78.8302 67.2158 82.7819 65.8067C84.7924 65.0897 86.8091 64.5201 88.7586 63.9722L88.871 63.9406C90.7847 63.4028 92.6297 62.8843 94.3612 62.2623C97.8868 60.9958 100.895 59.3157 102.96 56.237C103.806 54.8974 104.954 51.1882 102.568 47.2907C101.844 46.108 100.236 44.818 98.0037 43.4965C95.7854 42.1834 93.0002 40.8677 89.9804 39.6166C83.9419 37.115 76.9989 34.886 71.8552 33.4644C71.7017 33.422 71.5504 33.3802 71.4011 33.3389C66.5305 31.9919 63.8062 31.2385 59.6201 31.1143Z" fill="#B1AFC3"/>
<path fill-rule="evenodd" clip-rule="evenodd" d="M44.0408 95.1169C44.0718 94.9231 44.2556 94.7909 44.4514 94.8216C46.5572 95.1511 52.6098 95.7169 59.8478 95.318C60.0457 95.3071 60.2151 95.457 60.2261 95.6529C60.2371 95.8487 60.0856 96.0163 59.8877 96.0272C52.5995 96.4288 46.4959 95.8606 44.3393 95.5231C44.1435 95.4925 44.0099 95.3106 44.0408 95.1169Z" fill="#B1AFC3"/>
<path fill-rule="evenodd" clip-rule="evenodd" d="M71.8259 94.4747C71.8592 94.668 71.7278 94.8515 71.5325 94.8845C70.2752 95.0968 67.3235 95.5275 65.6699 95.5275C65.4717 95.5275 65.311 95.3685 65.311 95.1723C65.311 94.9762 65.4717 94.8172 65.6699 94.8172C67.2547 94.8172 70.1502 94.3973 71.4117 94.1843C71.6071 94.1513 71.7925 94.2813 71.8259 94.4747Z" fill="#B1AFC3"/>
<path d="M41.7252 57.2866C33.6989 52.6509 21.4346 52.8945 18.6978 54.8238C12.9766 58.3781 15.3987 64.4697 17.2884 67.727C19.178 70.9843 32.8852 79.1161 41.3508 76.1331C49.8164 73.1501 51.7582 63.0813 41.7252 57.2866Z" fill="#D0CDB5"/>
<path d="M41.1178 55.4907C33.0915 50.855 20.8272 51.0987 18.0903 53.0279C12.3692 56.5822 14.7913 62.6738 16.681 65.9311C18.5706 69.1884 32.2778 77.3202 40.7434 74.3372C49.2089 71.3542 51.1508 61.2854 41.1178 55.4907Z" fill="#FCFAF0"/>
<path d="M65.6964 56.1057C58.2372 50.6204 46.0208 49.521 43.0852 51.139C37.0021 54.0457 38.7288 60.365 40.243 63.809C41.7572 67.253 54.472 76.8344 63.2189 74.7957C71.9658 72.757 75.0206 62.9623 65.6964 56.1057Z" fill="#D0CDB5"/>
<path d="M65.2936 54.2544C57.8343 48.769 45.618 47.6697 42.6824 49.2877C36.5992 52.1944 38.326 58.5136 39.8402 61.9577C41.3544 65.4017 54.0692 74.9831 62.8161 72.9444C71.563 70.9057 74.6177 61.111 65.2936 54.2544Z" fill="#FCFAF0"/>
<path d="M71.3048 58.9519C79.3311 54.3162 91.5954 54.5598 94.3323 56.4891C100.053 60.0433 97.6313 66.135 95.7416 69.3923C93.852 72.6496 80.1448 80.7814 71.6792 77.7984C63.2137 74.8154 61.2719 64.7466 71.3048 58.9519Z" fill="#D0CDB5"/>
<path d="M71.912 57.1562C79.9383 52.5205 92.2026 52.7642 94.9395 54.6934C100.661 58.2477 98.2385 64.3393 96.3488 67.5966C94.4592 70.8539 80.752 78.9857 72.2864 76.0027C63.8208 73.0197 61.879 62.9509 71.912 57.1562Z" fill="#FCFAF0"/>
<path d="M62.4944 51.6599C72.3253 49.5256 85.3437 53.1195 87.7362 55.6756C92.8684 60.5711 88.6186 65.6057 85.712 68.1346C82.8053 70.6634 65.9575 74.5096 57.741 69.3953C49.5245 64.2811 50.2057 54.3278 62.4944 51.6599Z" fill="#D0CDB5"/>
<path d="M63.6333 50.1463C73.4642 48.0119 86.4826 51.6058 88.8751 54.162C94.0073 59.0575 89.7576 64.092 86.8509 66.6209C83.9442 69.1498 67.0964 72.9959 58.8799 67.8817C50.6634 62.7674 51.3446 52.8142 63.6333 50.1463Z" fill="white"/>
<path d="M32.9308 49.6226C38.1241 41.9962 49.2769 36.9421 52.5891 37.5029C59.3027 38.244 59.7962 44.772 59.5247 48.5182C59.2531 52.2644 50.4786 65.4823 41.5441 66.4358C32.6097 67.3892 26.4392 59.1557 32.9308 49.6226Z" fill="#D0CDB5"/>
<path d="M32.6891 47.7442C37.8824 40.1178 49.0352 35.0637 52.3474 35.6245C59.061 36.3656 59.5545 42.8936 59.283 46.6398C59.0114 50.386 50.2369 63.6039 41.3024 64.5574C32.368 65.5108 26.1975 57.2772 32.6891 47.7442Z" fill="white"/>
<path d="M81.8224 41.7148C76.4937 33.607 64.8535 28.1031 61.3608 28.6365C54.2883 29.3018 53.6561 36.158 53.8767 40.1019C54.0973 44.0459 63.0949 58.0942 72.4734 59.2485C81.852 60.4028 88.4833 51.8496 81.8224 41.7148Z" fill="#D0CDB5"/>
<path d="M82.109 39.7434C76.7803 31.6356 65.1401 26.1316 61.6475 26.6651C54.5749 27.3304 53.9427 34.1865 54.1633 38.1305C54.3839 42.0744 63.3815 56.1228 72.76 57.2771C82.1386 58.4314 88.7699 49.8782 82.109 39.7434Z" fill="white"/>
<path d="M12.717 71.3951C11.3675 68.9204 8.08899 59.9665 6.6184 55.7989L6.35889 54.51L6.6184 54.2522L7.26719 55.1545L11.9385 59.408L18.9454 63.4037L29.7153 67.0127L48.6599 69.2039L65.7879 69.7195L78.1149 67.6572C83.262 66.3253 94.4903 63.2232 98.2274 61.4703C101.964 59.7173 104.369 56.3575 105.105 54.8967C105.321 54.7678 105.727 54.742 105.624 55.67C105.494 56.8301 98.0976 71.7818 97.7083 72.9418C97.3191 74.1019 87.3277 84.2845 86.1599 85.9602C84.9921 87.6358 73.0544 93.6938 73.0544 94.0805C73.0544 94.4672 71.627 97.174 70.8485 97.8184C70.0699 98.4629 60.5976 99.1074 59.8191 98.8496C59.0405 98.5918 44.6374 97.8184 43.9886 96.9162C43.3398 96.0139 43.8589 94.9828 42.9506 94.725C42.0423 94.4672 25.8225 84.8001 24.3952 83.769C22.9679 82.7378 14.4039 74.4886 12.717 71.3951Z" fill="#EEECDD"/>
<path fill-rule="evenodd" clip-rule="evenodd" d="M44.0408 95.0248C44.0718 94.8311 44.2556 94.6989 44.4514 94.7295C46.5572 95.0591 52.6098 95.6248 59.8478 95.226C60.0457 95.2151 60.2151 95.365 60.2261 95.5608C60.2371 95.7567 60.0856 95.9243 59.8877 95.9352C52.5995 96.3368 46.4959 95.7686 44.3393 95.4311C44.1435 95.4004 44.0099 95.2185 44.0408 95.0248Z" fill="#B1AFC3"/>
<path fill-rule="evenodd" clip-rule="evenodd" d="M71.8259 94.3826C71.8592 94.576 71.7278 94.7594 71.5325 94.7924C70.2752 95.0047 67.3235 95.4354 65.6699 95.4354C65.4717 95.4354 65.311 95.2764 65.311 95.0803C65.311 94.8842 65.4717 94.7252 65.6699 94.7252C67.2547 94.7252 70.1502 94.3053 71.4117 94.0923C71.6071 94.0593 71.7925 94.1893 71.8259 94.3826Z" fill="#B1AFC3"/>
<path fill-rule="evenodd" clip-rule="evenodd" d="M8.04426 54.4854L7.50562 54.9962C7.96319 55.8232 8.63937 56.6968 9.61588 57.5145C12.7382 60.1294 17.9432 64.3072 29.7407 66.9129C35.6281 68.2133 42.7668 68.9917 48.6033 69.4292C51.5232 69.648 54.1208 69.7818 56.0782 69.8528C58.0221 69.9233 59.3615 69.933 59.7441 69.8981C59.9003 69.8838 60.2304 69.8637 60.7033 69.835L60.7034 69.835C62.2557 69.7407 65.3471 69.5528 68.8822 69.1691C73.5086 68.6669 78.9883 67.822 83.0251 66.3825C85.0088 65.6751 87.0024 65.1117 88.9545 64.5631L89.0786 64.5282C90.9834 63.9929 92.8499 63.4684 94.6059 62.8376C97.5581 61.777 100.229 60.4056 102.301 58.1386L101.776 57.6542C99.813 59.8054 97.2622 61.1277 94.3609 62.1699C92.6295 62.7919 90.7846 63.3104 88.8709 63.8482L88.8708 63.8482L88.7584 63.8798C86.8089 64.4277 84.7922 64.9973 82.7817 65.7143C78.83 67.1234 73.4222 67.9617 68.8039 68.4631C65.2987 68.8435 62.3017 69.0257 60.7264 69.1215C60.2198 69.1523 59.8602 69.1742 59.6781 69.1908C59.3521 69.2206 58.0662 69.2141 56.1045 69.143C54.1562 69.0723 51.5678 68.9391 48.6575 68.7209C42.8333 68.2844 35.7346 67.509 29.897 66.2197C18.2445 63.646 13.1419 59.5369 10.0796 56.9724C9.10248 56.1541 8.45868 55.2844 8.04426 54.4854Z" fill="#B1AFC3"/>
<path fill-rule="evenodd" clip-rule="evenodd" d="M7.22678 55.2612L6.70557 55.7555C8.8978 58.5479 15.5066 64.4383 25.6764 67.1888C36.0075 69.9829 52.4169 71.0221 59.3208 71.1939L59.3321 71.1942L59.3434 71.1938C63.9425 71.0216 75.3109 70.0066 83.9954 67.314C84.799 67.0648 85.5899 66.8219 86.3663 66.5833C90.7941 65.2231 94.7523 64.0072 97.9047 62.6144C100.167 61.6148 102.054 60.5082 103.41 59.1619L102.885 58.6772C101.627 59.9196 99.845 60.9794 97.6121 61.9659C94.5023 63.3398 90.593 64.5409 86.1616 65.9024C85.3836 66.1414 84.5895 66.3854 83.7808 66.6362C75.1916 69.2992 63.9075 70.3111 59.3275 70.4836C52.4242 70.3111 36.1015 69.272 25.8657 66.5037C15.7773 63.7752 9.27649 57.9088 7.22678 55.2612Z" fill="#B1AFC3"/>
<path d="M7.07666 55.9359L8.15335 55.2256L11.7423 58.777L17.1258 62.3284L26.0982 65.8798L40.0951 68.3658L53.3743 69.4312L65.5767 69.0761L78.497 67.3004L89.6228 64.1041L98.2363 60.9078L101.825 58.0667L102.902 59.1321L99.313 61.9732L91.4173 64.8144L78.1381 68.7209L66.2945 70.4966L58.3988 70.8518L41.1718 69.7863L27.1748 67.3004L18.5613 64.4592L12.819 60.5527L7.07666 55.9359Z" fill="#B1AFC3"/>
<path d="M6.35874 53.8974C5.64096 56.3834 9.22991 58.5143 11.0244 59.9348L12.46 60.29L10.3066 58.5143L7.43543 54.6077C7.3158 53.7791 6.7835 52.4263 6.35874 53.8974Z" fill="#B1AFC3"/>
<path d="M105.773 54.6076C106.152 55.7321 104.337 58.8693 102.543 59.9347L100.749 59.5795L102.543 57.4487L104.337 54.9627C104.696 54.6076 105.486 53.7552 105.773 54.6076Z" fill="#B1AFC3"/>
</svg>
