<svg width="112" height="112" viewBox="0 0 112 112" fill="none" xmlns="http://www.w3.org/2000/svg">
<g clip-path="url(#clip0_424_10311)">
<path d="M13.1374 71.9142C11.798 69.4407 8.54403 60.4913 7.08447 56.3257L6.8269 55.0374L7.08447 54.7798L7.7284 55.6816L12.3647 59.933L19.319 63.9267L30.0082 67.534L48.8107 69.7241L65.8103 70.2394L78.0449 68.1782C83.1534 66.8469 94.2975 63.7464 98.0065 61.9943C101.716 60.2422 104.102 56.884 104.832 55.4239C105.047 55.2951 105.45 55.2693 105.347 56.1969C105.218 57.3564 97.8778 72.3007 97.4914 73.4602C97.105 74.6197 87.1886 84.7973 86.0295 86.4721C84.8705 88.1469 73.0223 94.2019 73.0223 94.5884C73.0223 94.9749 71.6057 97.6803 70.8329 98.3245C70.0602 98.9686 60.6589 99.6128 59.8862 99.3551C59.1135 99.0975 44.8184 98.3245 44.1745 97.4227C43.5306 96.5208 44.0457 95.4902 43.1442 95.2325C42.2427 94.9749 26.1446 85.3126 24.728 84.282C23.3114 83.2513 14.8116 75.0062 13.1374 71.9142Z" fill="#EEECDD"/>
<path d="M26.0934 67.3672C15.8843 64.5866 9.33351 58.5705 7.33423 55.9101C6.41541 53.7474 6.95139 51.0612 7.33423 49.9885C7.33423 48.5724 16.5224 37.2441 22.5202 35.1844C28.5181 33.1247 49.4467 30.55 59.4005 30.55C69.3544 30.55 95.2599 40.2049 99.7264 43.2944C104.193 46.384 106.618 51.4045 104.703 56.6825C102.789 61.9604 94.4943 64.1489 83.7747 67.4959C75.1991 70.1735 63.9521 71.1862 59.4005 71.3578C52.552 71.1862 36.3025 70.1477 26.0934 67.3672Z" fill="#B1AFC3"/>
<path fill-rule="evenodd" clip-rule="evenodd" d="M39.4324 31.7428C46.6641 30.841 54.4016 30.1953 59.4003 30.1953C61.9335 30.1953 65.4533 30.8076 69.3573 31.7624C73.2682 32.7189 77.5894 34.0256 81.7355 35.4278C85.8819 36.83 89.8576 38.3294 93.0782 39.6725C96.287 41.0106 98.7774 42.2062 99.9293 43.0031C104.491 46.1585 107.021 51.3353 105.038 56.8034C104.029 59.5866 101.356 61.5048 97.686 63.1376C94.5572 64.5297 90.6286 65.7451 86.234 67.1046C85.4634 67.343 84.6785 67.5858 83.881 67.8348C75.2615 70.5261 63.9784 71.5406 59.4138 71.7128L59.4026 71.7132L59.3913 71.7129C52.5392 71.5412 36.2528 70.5025 25.9993 67.7098C15.7097 64.9073 9.09307 58.8433 7.04887 56.1231L7.02288 56.0885L7.00597 56.0487C6.51763 54.8993 6.42135 53.6269 6.49035 52.5188C6.55747 51.4407 6.78272 50.4919 6.98127 49.9184C6.99517 49.7734 7.04898 49.6179 7.1108 49.4729C7.18758 49.2928 7.29719 49.0834 7.43281 48.8517C7.7045 48.3874 8.09485 47.8096 8.57646 47.1574C9.5406 45.8518 10.8855 44.2283 12.4169 42.5863C13.9482 40.9446 15.6714 39.2787 17.3929 37.8915C19.1091 36.5086 20.8461 35.384 22.4039 34.849C25.4433 33.8053 32.2113 32.6433 39.4324 31.7428ZM39.5209 32.4473C32.2898 33.349 25.5945 34.5042 22.636 35.5202C21.1949 36.0151 19.5343 37.0789 17.8408 38.4436C16.1526 39.804 14.4542 41.4449 12.9387 43.0697C11.4234 44.6943 10.0963 46.2971 9.15025 47.5782C8.67676 48.2194 8.30242 48.7749 8.04821 49.2093C7.92087 49.4269 7.82722 49.6081 7.76648 49.7505C7.73617 49.8216 7.71597 49.8786 7.70374 49.9225C7.6977 49.9442 7.69413 49.9607 7.69215 49.9727C7.69033 49.9838 7.6902 49.9889 7.69019 49.9889L7.69019 49.9887V50.0499L7.6696 50.1076C7.48929 50.6129 7.26632 51.52 7.20139 52.5628C7.13724 53.5931 7.22908 54.7288 7.6454 55.7324C9.63112 58.3511 16.1034 64.2786 26.1871 67.025C36.3461 69.792 52.5465 70.8305 59.398 71.0029C63.9437 70.8305 75.1432 69.8191 83.668 67.1574C84.4706 66.9068 85.2587 66.6629 86.0309 66.424C90.4291 65.0631 94.309 63.8626 97.3956 62.4894C101.031 60.8717 103.463 59.0567 104.368 56.562C106.213 51.4741 103.894 46.6099 99.523 43.5863C98.4417 42.8383 96.019 41.6685 92.8032 40.3274C89.5993 38.9913 85.6391 37.4976 81.5065 36.1C77.3737 34.7023 73.073 33.4022 69.1875 32.4519C65.2951 31.4999 61.844 30.9052 59.4003 30.9052C54.4452 30.9052 46.7414 31.5468 39.5209 32.4473Z" fill="#B1AFC3"/>
<path d="M10.2896 57.7698C7.83426 55.6991 7.39094 53.2833 7.4762 52.3342C7.4762 50.6776 8.9255 48.279 9.65016 47.2868C17.0672 40.6864 15.5326 35.5096 38.1674 32.9212C60.8021 30.3328 61.6973 30.7211 71.9277 33.5683C82.158 36.4156 99.5497 42.4983 102.619 47.5457C105.074 51.5836 103.898 55.4403 103.002 56.8639C98.7824 63.2055 90.726 63.7231 82.7974 66.5704C74.8689 69.4176 61.1857 69.9353 59.7791 70.0647C58.3724 70.1941 41.748 69.6765 30.1109 67.0881C18.4739 64.4997 13.3587 60.3582 10.2896 57.7698Z" fill="#EEECDD"/>
<path fill-rule="evenodd" clip-rule="evenodd" d="M71.5435 33.0925C71.7013 33.1364 71.8614 33.181 72.0237 33.2262C77.1489 34.6526 84.069 36.8896 90.0965 39.4042C93.1097 40.6614 95.9081 41.9913 98.1503 43.3278C100.378 44.6561 102.108 46.0199 102.924 47.3614C105.463 51.5379 104.255 55.5406 103.305 57.0521L103.3 57.0599L103.3 57.0598C101.129 60.3217 97.9772 62.0713 94.4124 63.3609C92.6697 63.9914 90.8171 64.5156 88.9267 65.0506L88.8034 65.0855C86.866 65.6339 84.8873 66.197 82.9184 66.904C78.9119 68.3428 73.4733 69.1874 68.8816 69.6893C65.373 70.0728 62.3048 70.2606 60.7641 70.3549C60.2947 70.3836 59.9671 70.4036 59.812 70.4179C59.4323 70.4528 58.103 70.4431 56.1736 70.3727C54.2309 70.3017 51.6527 70.168 48.7547 69.9492C42.962 69.512 35.8769 68.7339 30.0335 67.4342C18.3246 64.8298 13.1586 60.654 10.0596 58.0405C7.52943 55.9066 7.03083 53.3927 7.12023 52.3182C7.1247 51.4093 7.51581 50.3419 7.97112 49.4062C8.43431 48.4544 8.98915 47.5887 9.36236 47.0777L9.38473 47.047L9.4131 47.0218C11.0746 45.5432 12.2807 44.1384 13.4279 42.8021C13.5464 42.664 13.6643 42.5267 13.782 42.3901C15.037 40.9337 16.2705 39.5596 17.9929 38.3121C21.4415 35.8144 26.7918 33.8645 38.127 32.5683C49.4368 31.275 55.3471 30.721 59.71 30.8513C63.9526 30.9781 66.7328 31.7525 71.5435 33.0925ZM59.6887 31.5609C55.3877 31.4325 49.5331 31.9785 38.2082 33.2736C26.9086 34.5658 21.7088 36.4985 18.4117 38.8864C16.7613 40.0817 15.5731 41.4012 14.3225 42.8526C14.205 42.989 14.087 43.1265 13.9679 43.2651C12.8286 44.5924 11.6005 46.0232 9.91634 47.5257C9.56495 48.011 9.04562 48.8252 8.61214 49.716C8.16426 50.6364 7.8326 51.5897 7.8326 52.3339V52.3498L7.83119 52.3656C7.75638 53.1983 8.1521 55.5017 10.5199 57.4986C13.5592 60.0619 18.6236 64.1689 30.1887 66.7413C35.9825 68.03 43.028 68.805 48.8085 69.2413C51.6971 69.4594 54.266 69.5926 56.1997 69.6632C58.1467 69.7343 59.4229 69.7407 59.7465 69.711C59.9273 69.6943 60.2841 69.6725 60.7869 69.6417C62.3504 69.546 65.325 69.3639 68.8039 68.9836C73.3876 68.4825 78.7548 67.6446 82.6769 66.2362C84.6723 65.5196 86.6739 64.9503 88.6088 64.4026L88.7203 64.371C90.6196 63.8335 92.4508 63.3153 94.1693 62.6936C97.6685 61.4277 100.654 59.7485 102.703 56.6713C103.543 55.3323 104.683 51.6249 102.314 47.7293C101.596 46.5472 100 45.2579 97.7845 43.9371C95.5828 42.6246 92.8185 41.3095 89.8214 40.0591C83.8281 37.5587 76.9372 35.3308 71.832 33.9099C71.6798 33.8676 71.5296 33.8257 71.3814 33.7845C66.5473 32.4381 63.8434 31.6851 59.6887 31.5609Z" fill="#B1AFC3"/>
<path fill-rule="evenodd" clip-rule="evenodd" d="M44.2261 95.532C44.2568 95.3384 44.4393 95.2062 44.6336 95.2368C46.7236 95.5662 52.7308 96.1317 59.9145 95.7331C60.111 95.7222 60.2791 95.872 60.29 96.0677C60.3009 96.2635 60.1506 96.431 59.9541 96.4419C52.7206 96.8433 46.6627 96.2754 44.5223 95.938C44.328 95.9074 44.1954 95.7256 44.2261 95.532Z" fill="#B1AFC3"/>
<path fill-rule="evenodd" clip-rule="evenodd" d="M71.8029 94.8903C71.836 95.0835 71.7056 95.2669 71.5117 95.2999C70.2638 95.5121 67.3343 95.9426 65.6931 95.9426C65.4964 95.9426 65.3369 95.7837 65.3369 95.5876C65.3369 95.3916 65.4964 95.2326 65.6931 95.2326C67.2661 95.2326 70.1398 94.813 71.3919 94.6001C71.5858 94.5671 71.7698 94.697 71.8029 94.8903Z" fill="#B1AFC3"/>
<path d="M71.9651 24.2625C71.9074 30.0534 71.7697 41.8344 71.6806 42.6311L65.293 49.9872L68.6886 26.4191L71.9651 24.2625Z" fill="#81B152"/>
<path d="M91.5958 22.7252L84.8501 37.1014L74.8246 45.9782L70.9001 44.8503L87.2741 20.945L91.5958 22.7252Z" fill="#4D8A18"/>
<path d="M42.1819 81.1345C42.6318 86.5124 48.1193 87.035 50.8067 86.6241L73.377 48.6785L103.997 26.2964L105.331 22.173L88.3928 33.3981L105.637 19.4344L102.908 17.0359L78.2046 34.0306C78.6447 29.1791 83.0295 16.8368 82.7163 15.9335C82.4031 15.0302 80.0245 15.3117 78.8743 15.5654L70.6921 40.9359C61.0013 52.0946 41.732 75.7566 42.1819 81.1345Z" fill="#8CC638"/>
<path fill-rule="evenodd" clip-rule="evenodd" d="M70.8207 52.9808L50.8726 86.779C48.1851 87.19 43.0371 86.6222 42.2478 81.2894C41.615 77.0143 54.49 60.268 64.5183 48.1821L70.8207 52.9808Z" fill="url(#paint0_linear_424_10311)"/>
<path d="M55.3997 16.9804L50.3482 28.7526L50.3796 39.5343L53.1702 41.2804L58.7975 18.614L55.3997 16.9804Z" fill="#4D8A18"/>
<path d="M45.0483 81.1189C41.991 83.3808 39.0346 80.6605 37.9386 79.0176L46.9341 49.1532L43.7854 22.1901L49.2033 18.4648L51.8274 36.6639C54.1722 34.1664 59.0192 29.1085 59.6488 28.857C60.2785 28.6054 61.2918 30.0212 61.7198 30.7606L52.3308 46.9969C51.1772 57.4284 48.1056 78.8569 45.0483 81.1189Z" fill="#8CC638"/>
<path fill-rule="evenodd" clip-rule="evenodd" d="M45.9131 52.5376L37.825 79.0541C38.921 80.697 41.7354 83.213 44.9347 81.1553C47.4994 79.5058 50.0457 64.7519 51.5237 53.7063L45.9131 52.5376Z" fill="url(#paint1_linear_424_10311)"/>
<path d="M13.1374 71.8224C11.798 69.3489 8.54403 60.3995 7.08447 56.2339L6.8269 54.9456L7.08447 54.688L7.7284 55.5898L12.3647 59.8412L19.319 63.8349L30.0082 67.4422L48.8107 69.6323L65.8103 70.1476L78.0449 68.0864C83.1534 66.7551 94.2975 63.6546 98.0065 61.9025C101.716 60.1504 104.102 56.7922 104.832 55.3321C105.047 55.2033 105.45 55.1775 105.347 56.1051C105.218 57.2646 97.8778 72.2089 97.4914 73.3684C97.105 74.5279 87.1886 84.7055 86.0295 86.3803C84.8705 88.0551 73.0223 94.1101 73.0223 94.4966C73.0223 94.8831 71.6057 97.5885 70.8329 98.2327C70.0602 98.8768 60.6589 99.521 59.8862 99.2633C59.1135 99.0057 44.8184 98.2327 44.1745 97.3309C43.5306 96.429 44.0457 95.3984 43.1442 95.1407C42.2427 94.8831 26.1446 85.2208 24.728 84.1902C23.3114 83.1595 14.8116 74.9144 13.1374 71.8224Z" fill="#EEECDD"/>
<path fill-rule="evenodd" clip-rule="evenodd" d="M44.2261 95.4402C44.2568 95.2466 44.4393 95.1144 44.6336 95.145C46.7236 95.4744 52.7308 96.0399 59.9145 95.6413C60.111 95.6304 60.2791 95.7802 60.29 95.9759C60.3009 96.1717 60.1506 96.3392 59.9541 96.3501C52.7206 96.7515 46.6627 96.1836 44.5223 95.8462C44.328 95.8156 44.1954 95.6338 44.2261 95.4402Z" fill="#B1AFC3"/>
<path fill-rule="evenodd" clip-rule="evenodd" d="M71.8029 94.7985C71.836 94.9917 71.7056 95.1751 71.5117 95.2081C70.2638 95.4203 67.3343 95.8508 65.6931 95.8508C65.4964 95.8508 65.3369 95.6919 65.3369 95.4958C65.3369 95.2998 65.4964 95.1409 65.6931 95.1409C67.2661 95.1409 70.1398 94.7212 71.3919 94.5083C71.5858 94.4753 71.7698 94.6052 71.8029 94.7985Z" fill="#B1AFC3"/>
<path fill-rule="evenodd" clip-rule="evenodd" d="M8.49945 54.9211L7.96484 55.4317C8.41899 56.2583 9.09009 57.1315 10.0593 57.9488C13.1582 60.5624 18.3242 64.7382 30.0332 67.3426C35.8765 68.6423 42.9617 69.4203 48.7543 69.8576C51.6524 70.0763 54.2306 70.21 56.1732 70.281C58.1026 70.3514 59.4319 70.3612 59.8117 70.3262C59.9667 70.312 60.2943 70.2919 60.7637 70.2632L60.7638 70.2632C62.3044 70.1689 65.3726 69.9812 68.8812 69.5976C73.473 69.0957 78.9116 68.2512 82.9181 66.8124C84.8869 66.1053 86.8656 65.5422 88.8031 64.9939L88.9262 64.959C90.8167 64.424 92.6693 63.8997 94.412 63.2692C97.3421 62.2092 99.9931 60.8385 102.05 58.5726L101.528 58.0884C99.5801 60.2386 97.0484 61.5602 94.1689 62.6019C92.4505 63.2236 90.6194 63.7418 88.7201 64.2793L88.72 64.2794L88.6084 64.3109C86.6735 64.8586 84.6719 65.4279 82.6765 66.1445C78.7545 67.5529 73.3872 68.3909 68.8036 68.8919C65.3246 69.2722 62.35 69.4543 60.7866 69.55C60.2838 69.5808 59.9269 69.6027 59.7462 69.6193C59.4226 69.6491 58.1463 69.6426 56.1993 69.5715C54.2657 69.5009 51.6967 69.3677 48.8081 69.1497C43.0277 68.7133 35.9821 67.9384 30.1884 66.6497C18.6232 64.0773 13.5588 59.9702 10.5195 57.4069C9.54973 56.589 8.91077 55.7198 8.49945 54.9211Z" fill="#B1AFC3"/>
<path fill-rule="evenodd" clip-rule="evenodd" d="M7.6882 55.6963L7.1709 56.1903C9.34669 58.9813 15.9059 64.8689 25.9995 67.618C36.2531 70.4107 52.5395 71.4494 59.3916 71.6211L59.4028 71.6214L59.414 71.621C63.9787 71.4488 75.2618 70.4343 83.8812 67.7431C84.6787 67.494 85.4637 67.2512 86.2343 67.0128C90.6289 65.6533 94.5575 64.4379 97.6863 63.0459C99.932 62.0467 101.804 60.9407 103.151 59.595L102.629 59.1106C101.381 60.3524 99.6119 61.4116 97.3958 62.3976C94.3093 63.7708 90.4293 64.9714 86.0312 66.3322C85.259 66.5711 84.4709 66.815 83.6682 67.0656C75.1434 69.7273 63.9439 70.7387 59.3983 70.9111C52.5467 70.7387 36.3464 69.7002 26.1874 66.9332C16.1746 64.2061 9.72254 58.3425 7.6882 55.6963Z" fill="#B1AFC3"/>
<path d="M7.53931 56.3708L8.60792 55.6609L12.17 59.2105L17.5131 62.7602L26.4182 66.3098L40.3102 68.7946L53.4898 69.8595L65.6007 69.5045L78.4241 67.7297L89.4665 64.535L98.0154 61.3403L101.577 58.5006L102.646 59.5655L99.084 62.4052L91.2475 65.2449L78.0679 69.1495L66.3132 70.9244L58.4766 71.2793L41.3788 70.2144L27.4868 67.7297L18.9379 64.89L13.2386 60.9854L7.53931 56.3708Z" fill="#B1AFC3"/>
<path d="M6.82704 54.3331C6.11464 56.8179 9.67668 58.9477 11.4577 60.3675L12.8825 60.7225L10.7453 58.9477L7.89565 55.0431C7.77692 54.2148 7.24861 52.8627 6.82704 54.3331Z" fill="#B1AFC3"/>
<path d="M105.496 55.0429C105.872 56.1669 104.071 59.3025 102.29 60.3674L100.509 60.0124L102.29 57.8827L104.071 55.3979C104.427 55.0429 105.211 54.191 105.496 55.0429Z" fill="#B1AFC3"/>
</g>
<defs>
<linearGradient id="paint0_linear_424_10311" x1="68.6341" y1="51.3159" x2="59.4508" y2="63.3887" gradientUnits="userSpaceOnUse">
<stop stop-color="#8CC638"/>
<stop offset="1" stop-color="white"/>
</linearGradient>
<linearGradient id="paint1_linear_424_10311" x1="47.8597" y1="52.9431" x2="45.6636" y2="63.461" gradientUnits="userSpaceOnUse">
<stop stop-color="#8CC638"/>
<stop offset="1" stop-color="white"/>
</linearGradient>
<clipPath id="clip0_424_10311">
<rect width="112" height="112" fill="white"/>
</clipPath>
</defs>
</svg>
