<svg width="100" height="76" viewBox="0 0 100 76" fill="none" xmlns="http://www.w3.org/2000/svg">
<path d="M6.71701 45.8067C5.36754 43.0908 2.08899 33.2645 0.618402 28.6908L0.358887 27.2763L0.618402 26.9934L1.26719 27.9836L5.93847 32.6515L12.9454 37.0366L23.7153 40.9973L42.6599 43.402L59.7879 43.9678L72.1149 41.7045C77.262 40.2429 88.4903 36.8385 92.2274 34.9148C95.9644 32.991 98.3692 29.3038 99.1045 27.7007C99.3208 27.5592 99.7273 27.5309 99.6235 28.5494C99.4938 29.8225 92.0976 46.231 91.7083 47.5041C91.3191 48.7772 81.3277 59.952 80.1599 61.7909C78.9921 63.6298 67.0544 70.2781 67.0544 70.7024C67.0544 71.1268 65.627 74.0973 64.8485 74.8046C64.0699 75.5118 54.5976 76.2191 53.8191 75.9362C53.0405 75.6533 38.6374 74.8046 37.9886 73.8144C37.3398 72.8242 37.8589 71.6926 36.9506 71.4097C36.0423 71.1268 19.8225 60.5178 18.3952 59.3862C16.9679 58.2545 8.40387 49.2015 6.71701 45.8067Z" fill="#EEECDD"/>
<path d="M19.7709 40.8141C9.48474 37.761 2.88443 31.1555 0.870046 28.2344C-0.0557127 25.8599 0.484313 22.9105 0.870046 21.7326C0.870046 20.1778 10.1276 7.73954 16.1708 5.47804C22.2139 3.21653 43.3006 0.389648 53.3297 0.389648C63.3587 0.389648 89.46 10.9905 93.9602 14.3827C98.4604 17.775 100.903 23.2874 98.9747 29.0825C97.0461 34.8776 88.6885 37.2805 77.888 40.9554C69.2476 43.8954 57.9156 45.0073 53.3297 45.1957C46.4294 45.0073 30.0572 43.8671 19.7709 40.8141Z" fill="#B1AFC3"/>
<path fill-rule="evenodd" clip-rule="evenodd" d="M33.211 1.69915C40.4972 0.708979 48.2932 0 53.3297 0C55.8821 0 59.4285 0.672228 63.3619 1.72061C67.3024 2.77086 71.6562 4.20553 75.8336 5.74511C80.0113 7.2848 84.0171 8.93106 87.2621 10.4058C90.495 11.875 93.0042 13.1878 94.1649 14.0626C98.7611 17.5273 101.31 23.2113 99.3123 29.2151C98.2952 32.271 95.6023 34.3772 91.9046 36.17C88.7522 37.6984 84.794 39.0329 80.3662 40.5256C79.5897 40.7874 78.7988 41.054 77.9953 41.3274C69.3108 44.2824 57.9424 45.3963 53.3433 45.5853L53.332 45.5857L53.3207 45.5854C46.4168 45.3969 30.0074 44.2564 19.6763 41.1901C9.30905 38.113 2.64242 31.4549 0.582781 28.4681L0.556591 28.4302L0.539557 28.3865C0.0475322 27.1244 -0.0494808 25.7274 0.0200374 24.5107C0.0876724 23.327 0.31462 22.2852 0.514665 21.6556C0.528676 21.4963 0.582893 21.3256 0.645182 21.1664C0.722542 20.9687 0.832981 20.7387 0.96962 20.4843C1.24336 19.9746 1.63666 19.3401 2.12192 18.624C3.09334 17.1905 4.44835 15.4079 5.99136 13.6051C7.53423 11.8025 9.27045 9.97341 11.0049 8.45028C12.7341 6.93182 14.4843 5.69703 16.0539 5.10965C19.1162 3.96364 25.9353 2.68787 33.211 1.69915ZM33.3001 2.4726C26.0143 3.46269 19.2685 4.73111 16.2877 5.84661C14.8357 6.38998 13.1625 7.55804 11.4563 9.05639C9.75531 10.5501 8.04404 12.3518 6.51712 14.1358C4.99034 15.9196 3.65326 17.6794 2.70004 19.086C2.22296 19.79 1.8458 20.4 1.58967 20.877C1.46137 21.1159 1.36701 21.3148 1.30581 21.4712C1.27527 21.5492 1.25492 21.6118 1.2426 21.66C1.23651 21.6838 1.23292 21.702 1.23092 21.7152C1.22908 21.7273 1.22896 21.7329 1.22895 21.7329L1.22895 21.7327V21.7999L1.2082 21.8633C1.02653 22.418 0.801872 23.414 0.736452 24.559C0.671814 25.6902 0.764354 26.9372 1.18382 28.0392C3.18454 30.9145 9.70576 37.4227 19.8656 40.4382C30.1014 43.4763 46.4241 44.6166 53.3274 44.8059C57.9075 44.6166 69.1915 43.5061 77.7807 40.5836C78.5894 40.3084 79.3835 40.0407 80.1615 39.7783C84.5929 38.2841 88.5022 36.966 91.612 35.4582C95.2754 33.6821 97.7256 31.6892 98.6372 28.9501C100.496 23.3637 98.1597 18.0228 93.7556 14.703C92.6661 13.8817 90.2251 12.5973 86.985 11.1248C83.7569 9.65778 79.7667 8.0178 75.6029 6.48325C71.4389 4.94859 67.1057 3.52105 63.1908 2.47763C59.269 1.43236 55.7919 0.779487 53.3297 0.779487C48.3371 0.779487 40.5752 1.48395 33.3001 2.4726Z" fill="#B1AFC3"/>
<path d="M3.84799 30.2761C1.37415 28.0025 0.927481 25.35 1.01338 24.3079C1.01338 22.4891 2.47363 19.8555 3.20376 18.766C10.6768 11.5189 9.13068 5.83491 31.9364 2.99291C54.7421 0.150907 55.6441 0.577207 65.9517 3.70341C76.2594 6.82962 93.7825 13.5083 96.8748 19.0502C99.3486 23.4838 98.1632 27.7183 97.2613 29.2814C93.0094 36.2444 84.8921 36.8128 76.9036 39.939C68.9152 43.0652 55.1287 43.6336 53.7114 43.7757C52.2941 43.9178 35.5441 43.3494 23.8191 40.5074C12.0941 37.6654 6.94029 33.1182 3.84799 30.2761Z" fill="#EEECDD"/>
<path fill-rule="evenodd" clip-rule="evenodd" d="M65.5645 3.1813C65.7235 3.22957 65.8847 3.2785 66.0482 3.32811C71.2122 4.89426 78.1846 7.35047 84.2576 10.1115C87.2936 11.4918 90.1132 12.952 92.3722 14.4195C94.6173 15.878 96.3598 17.3753 97.1817 18.8483C99.7404 23.434 98.523 27.8288 97.5654 29.4885L97.5605 29.497L97.5604 29.4969C95.3733 33.0785 92.1978 34.9994 88.6061 36.4154C86.8502 37.1076 84.9837 37.6833 83.079 38.2707L82.9548 38.309C81.0027 38.9111 79.009 39.5294 77.0253 40.3057C72.9885 41.8854 67.5088 42.8127 62.8824 43.3638C59.3473 43.785 56.2559 43.9911 54.7037 44.0946C54.2306 44.1262 53.9005 44.1482 53.7443 44.1638C53.3617 44.2022 52.0224 44.1915 50.0784 44.1142C48.1211 44.0363 45.5234 43.8895 42.6035 43.6493C36.7671 43.1692 29.6284 42.3149 23.7409 40.8878C11.9435 38.0283 6.73842 33.4433 3.6161 30.5737C1.06677 28.2307 0.564404 25.4706 0.654484 24.2908C0.658984 23.2928 1.05306 22.1208 1.5118 21.0935C1.97849 20.0483 2.53752 19.0978 2.91355 18.5368L2.93609 18.5031L2.96467 18.4754C4.63875 16.852 5.85392 15.3095 7.0098 13.8422C7.12921 13.6907 7.24798 13.5399 7.36656 13.3899C8.63104 11.7908 9.87392 10.282 11.6093 8.91236C15.084 6.16994 20.4746 4.02902 31.8955 2.60578C43.2907 1.18573 49.2457 0.577471 53.6416 0.720588C57.9162 0.859758 60.7174 1.71002 65.5645 3.1813ZM53.6201 1.49973C49.2866 1.35864 43.3878 1.95824 31.9773 3.38019C20.5924 4.79895 15.3532 6.92105 12.0313 9.54291C10.3684 10.8554 9.17123 12.3041 7.91114 13.8977C7.79276 14.0474 7.67384 14.1984 7.55393 14.3507C6.40598 15.808 5.16857 17.379 3.47171 19.0287C3.11767 19.5615 2.59441 20.4555 2.15767 21.4336C1.7064 22.4442 1.37224 23.4908 1.37224 24.308V24.3254L1.37081 24.3428C1.29544 25.2571 1.69415 27.7862 4.07981 29.9787C7.14209 32.7931 12.2447 37.3026 23.8973 40.1271C29.7348 41.542 36.8336 42.3929 42.6577 42.872C45.5681 43.1114 48.1564 43.2577 50.1047 43.3352C52.0664 43.4133 53.3523 43.4203 53.6783 43.3877C53.8605 43.3694 54.22 43.3454 54.7266 43.3116C56.3019 43.2065 59.299 43.0066 62.8042 42.589C67.4225 42.0389 72.8303 41.1188 76.7819 39.5724C78.7924 38.7856 80.8091 38.1605 82.7586 37.5592L82.871 37.5245C84.7847 36.9343 86.6297 36.3653 88.3612 35.6827C91.8868 34.2928 94.8948 32.449 96.9596 29.0703C97.8056 27.6001 98.9544 23.5295 96.5678 19.2523C95.8436 17.9543 94.2361 16.5386 92.0037 15.0885C89.7854 13.6474 87.0002 12.2034 83.9804 10.8305C77.9419 8.08516 70.9989 5.63891 65.8552 4.07886C65.7017 4.03233 65.5504 3.98641 65.4011 3.9411C60.5305 2.46285 57.8062 1.63601 53.6201 1.49973Z" fill="#B1AFC3"/>
<path fill-rule="evenodd" clip-rule="evenodd" d="M38.0408 71.7386C38.0718 71.526 38.2556 71.3809 38.4514 71.4145C40.5572 71.7762 46.6098 72.3971 53.8478 71.9594C54.0457 71.9474 54.2151 72.1119 54.2261 72.3268C54.2371 72.5417 54.0856 72.7257 53.8877 72.7376C46.5995 73.1784 40.4959 72.5548 38.3393 72.1844C38.1435 72.1508 38.0099 71.9512 38.0408 71.7386Z" fill="#B1AFC3"/>
<path fill-rule="evenodd" clip-rule="evenodd" d="M65.8259 71.0337C65.8592 71.2459 65.7278 71.4473 65.5325 71.4835C64.2752 71.7164 61.3235 72.1891 59.6699 72.1891C59.4717 72.1891 59.311 72.0146 59.311 71.7994C59.311 71.5841 59.4717 71.4096 59.6699 71.4096C61.2547 71.4096 64.1502 70.9488 65.4117 70.7151C65.6071 70.6789 65.7925 70.8215 65.8259 71.0337Z" fill="#B1AFC3"/>
<path d="M67.2342 19.0375C66.0401 17.2546 62.7564 16.8088 61.2638 16.8088L81.0405 42.5401C83.2172 41.5271 87.9064 38.4475 89.2497 34.2332C90.9289 28.9654 78.2419 21.0636 76.3762 19.848C74.5105 18.6323 68.7267 21.2662 67.2342 19.0375Z" fill="#563626"/>
<path d="M57.9056 38.4879C53.2786 32.8149 54.8582 24.2378 56.2264 20.6584C59.3982 15.3905 63.8759 16.4036 64.9953 19.0375C66.1147 21.6714 68.7268 21.2662 73.5777 21.0636C78.4285 20.861 84.2123 28.9653 86.2646 35.0436C88.3169 41.1219 77.6823 44.7688 73.2045 45.7819C68.7268 46.7949 63.6893 45.5793 57.9056 38.4879Z" fill="#74533E"/>
<path d="M49.4575 27.0032C48.0012 25.4672 44.6956 25.6355 43.2249 25.9116L66.749 47.6081C68.735 46.2072 72.8725 42.3051 73.5351 37.9039C74.3633 32.4024 60.6223 26.9633 58.5931 26.1105C56.5639 25.2578 51.2779 28.9232 49.4575 27.0032Z" fill="#492F21"/>
<path d="M43.3165 47.8953C37.8672 43.1611 38.0782 34.4172 38.8649 30.637C41.1639 24.8594 45.7351 25.0292 47.2513 27.4175C48.7676 29.8059 51.2779 28.9233 56.0261 27.8263C60.7743 26.7292 67.7448 33.6451 70.7207 39.2549C73.6965 44.8646 63.7894 50.4256 59.536 52.2523C55.2827 54.0789 50.1281 53.8129 43.3165 47.8953Z" fill="#63412C"/>
<path d="M10.6356 23.6066C18.6151 17.2999 30.699 22.5323 35.9505 25.0948C33.0367 30.0683 26.2249 40.0564 22.2873 40.2215C17.3653 40.4279 14.3218 37.3759 11.0231 32.7142C8.3841 28.9848 9.80318 24.5272 10.6356 23.6066Z" fill="#5F4431"/>
<path d="M35.7132 24.7823C33.6381 23.0691 22.063 21.7758 12.9491 24.4236C6.47957 28.6424 16.5597 39.0486 18.7292 39.9945C20.8986 40.9403 23.255 42.7692 25.1796 44.9848C27.1043 47.2005 42.1612 50.7855 43.2739 42.6978C44.1641 36.2276 39.8034 30.4861 37.5117 28.4241C37.7768 27.924 37.7883 26.4955 35.7132 24.7823Z" fill="#78543B"/>
<path d="M63.4003 9.71773C63.1823 7.53454 61.767 6.22771 61.0866 5.8472C51.6421 14.533 32.6244 32.5028 32.1099 34.8963C31.4668 37.8881 31.8688 37.1249 35.6071 37.9952C39.3454 38.8654 43.7089 32.6461 50.328 32.4734C56.947 32.3007 62.4717 26.8277 63.5436 24.7924C64.6154 22.7572 62.9406 21.5105 63.6819 18.9223C64.4232 16.3341 63.4451 15.5353 62.9046 13.3151C62.3641 11.0949 63.6728 12.4467 63.4003 9.71773Z" fill="#5E3E2A"/>
<path d="M37.9157 20.9208C40.1596 18.5491 41.5958 15.1136 42.0335 13.6923C42.8417 6.55016 55.7717 4.13379 59.0455 4.7055C62.3193 5.27722 62.3462 6.99703 60.908 9.13742C59.4699 11.2778 60.2204 15.1652 61.5425 17.377C62.8646 19.5887 61.7347 23.8 59.0773 27.3701C56.42 30.9402 52.2394 28.2535 42.3065 34.1283C32.3735 40.003 31.1363 37.3351 30.8504 33.7462C30.5644 30.1573 35.111 23.8854 37.9157 20.9208Z" fill="#84604A"/>
<path d="M6.71701 45.7056C5.36754 42.9897 2.08899 33.1634 0.618402 28.5898L0.358887 27.1752L0.618402 26.8923L1.26719 27.8825L5.93847 32.5505L12.9454 36.9355L23.7153 40.8962L42.6599 43.3009L59.7879 43.8667L72.1149 41.6035C77.262 40.1418 88.4903 36.7375 92.2274 34.8137C95.9644 32.8899 98.3692 29.2027 99.1045 27.5996C99.3208 27.4581 99.7273 27.4299 99.6235 28.4483C99.4938 29.7214 92.0976 46.13 91.7083 47.403C91.3191 48.6761 81.3277 59.8509 80.1599 61.6898C78.9921 63.5287 67.0544 70.177 67.0544 70.6013C67.0544 71.0257 65.627 73.9962 64.8485 74.7035C64.0699 75.4107 54.5976 76.118 53.8191 75.8351C53.0405 75.5522 38.6374 74.7035 37.9886 73.7133C37.3398 72.7231 37.8589 71.5915 36.9506 71.3086C36.0423 71.0257 19.8225 60.4167 18.3952 59.2851C16.9679 58.1535 8.40387 49.1005 6.71701 45.7056Z" fill="#EEECDD"/>
<path fill-rule="evenodd" clip-rule="evenodd" d="M38.0408 71.6375C38.0718 71.4249 38.2556 71.2798 38.4514 71.3134C40.5572 71.6751 46.6098 72.296 53.8478 71.8583C54.0457 71.8463 54.2151 72.0108 54.2261 72.2258C54.2371 72.4407 54.0856 72.6246 53.8877 72.6366C46.5995 73.0773 40.4959 72.4537 38.3393 72.0834C38.1435 72.0497 38.0099 71.8501 38.0408 71.6375Z" fill="#B1AFC3"/>
<path fill-rule="evenodd" clip-rule="evenodd" d="M65.8259 70.9326C65.8592 71.1448 65.7278 71.3462 65.5325 71.3824C64.2752 71.6154 61.3235 72.088 59.6699 72.088C59.4717 72.088 59.311 71.9135 59.311 71.6983C59.311 71.4831 59.4717 71.3086 59.6699 71.3086C61.2547 71.3086 64.1502 70.8478 65.4117 70.614C65.6071 70.5778 65.7925 70.7205 65.8259 70.9326Z" fill="#B1AFC3"/>
<path fill-rule="evenodd" clip-rule="evenodd" d="M2.04426 27.1482L1.50562 27.7088C1.96319 28.6164 2.63937 29.5751 3.61588 30.4725C6.7382 33.3421 11.9432 37.9271 23.7407 40.7866C29.6281 42.2137 36.7668 43.068 42.6033 43.5481C45.5232 43.7883 48.1208 43.9351 50.0782 44.013C52.0221 44.0903 53.3615 44.101 53.7441 44.0627C53.9003 44.047 54.2304 44.025 54.7033 43.9934L54.7034 43.9934C56.2557 43.8899 59.3471 43.6838 62.8822 43.2627C67.5086 42.7115 72.9883 41.7843 77.0251 40.2045C79.0088 39.4282 81.0024 38.8099 82.9545 38.2078L83.0786 38.1696C84.9834 37.5821 86.8499 37.0065 88.6059 36.3142C91.5581 35.1503 94.2291 33.6453 96.3012 31.1574L95.776 30.6257C93.813 32.9866 91.2622 34.4377 88.361 35.5815C86.6295 36.2641 84.7846 36.8331 82.8709 37.4233L82.8709 37.4233L82.7584 37.458C80.8089 38.0593 78.7922 38.6844 76.7817 39.4712C72.83 41.0177 67.4222 41.9377 62.8039 42.4878C59.2988 42.9054 56.3017 43.1053 54.7264 43.2104C54.2198 43.2442 53.8602 43.2682 53.6781 43.2865C53.3521 43.3192 52.0662 43.3121 50.1045 43.234C48.1562 43.1565 45.5678 43.0102 42.6575 42.7708C36.8333 42.2917 29.7346 41.4408 23.897 40.0259C12.2445 37.2014 7.14187 32.692 4.07958 29.8775C3.10248 28.9795 2.45868 28.025 2.04426 27.1482Z" fill="#B1AFC3"/>
<path fill-rule="evenodd" clip-rule="evenodd" d="M1.22678 27.9993L0.705566 28.5417C2.8978 31.6061 9.5066 38.0706 19.6764 41.0891C30.0075 44.1554 46.4169 45.2958 53.3208 45.4844L53.3321 45.4847L53.3434 45.4842C57.9425 45.2952 69.3109 44.1813 77.9954 41.2264C78.799 40.953 79.5899 40.6863 80.3663 40.4246C84.7941 38.9318 88.7523 37.5974 91.9047 36.0689C94.1674 34.9719 96.0539 33.7575 97.4103 32.28L96.8849 31.7481C95.6271 33.1115 93.845 34.2746 91.6121 35.3572C88.5023 36.8649 84.593 38.1831 80.1616 39.6773C79.3836 39.9396 78.5895 40.2074 77.7808 40.4825C69.1916 43.4051 57.9075 44.5156 53.3275 44.7048C46.4242 44.5155 30.1015 43.3752 19.8657 40.3371C9.77727 37.3428 3.27649 30.9048 1.22678 27.9993Z" fill="#B1AFC3"/>
<path d="M1.07666 28.7399L2.15335 27.9604L5.74231 31.8579L11.1258 35.7553L20.0982 39.6528L34.0951 42.381L47.3743 43.5502L59.5767 43.1604L72.497 41.2117L83.6228 37.704L92.2363 34.1963L95.8252 31.0784L96.9019 32.2476L93.313 35.3656L85.4173 38.4835L72.1381 42.7707L60.2945 44.7194L52.3988 45.1092L35.1718 43.9399L21.1748 41.2117L12.5613 38.0938L6.819 33.8066L1.07666 28.7399Z" fill="#B1AFC3"/>
<path d="M0.358989 26.5027C-0.358792 29.2309 3.23016 31.5694 5.02464 33.1283L6.46022 33.5181L4.30685 31.5694L1.43568 27.2822C1.31605 26.3728 0.783746 24.8882 0.358989 26.5027Z" fill="#B1AFC3"/>
<path d="M99.7731 27.2822C100.152 28.5163 98.3375 31.9592 96.543 33.1284L94.7485 32.7386L96.543 30.4002L98.3375 27.672C98.6964 27.2822 99.486 26.3468 99.7731 27.2822Z" fill="#B1AFC3"/>
</svg>
