<svg width="112" height="112" viewBox="0 0 112 112" fill="none" xmlns="http://www.w3.org/2000/svg">
<path d="M12.717 69.7368C11.3675 67.1046 8.08899 57.5809 6.6184 53.1481L6.35889 51.7771L6.6184 51.5029L7.26719 52.4626L11.9385 56.9868L18.9454 61.2368L29.7153 65.0755L48.6599 67.4062L65.7879 67.9546L78.1149 65.761C83.262 64.3443 94.4903 61.0449 98.2274 59.1804C101.964 57.3158 104.369 53.7422 105.105 52.1884C105.321 52.0513 105.727 52.0239 105.624 53.011C105.494 54.2449 98.0976 70.1481 97.7083 71.382C97.3191 72.6158 87.3277 83.4465 86.1599 85.2288C84.9921 87.011 73.0544 93.4546 73.0544 93.8659C73.0544 94.2772 71.627 97.1562 70.8485 97.8417C70.0699 98.5272 60.5976 99.2126 59.8191 98.9384C59.0405 98.6643 44.6374 97.8417 43.9886 96.882C43.3398 95.9223 43.8589 94.8255 42.9506 94.5513C42.0423 94.2772 25.8225 83.9949 24.3952 82.8981C22.9679 81.8013 14.4039 73.0271 12.717 69.7368Z" fill="#EEECDD"/>
<path d="M25.7709 64.8982C15.4847 61.9392 8.88443 55.5372 6.87005 52.706C5.94429 50.4046 6.48431 47.546 6.87005 46.4044C6.87005 44.8975 16.1276 32.8423 22.1708 30.6504C28.2139 28.4586 49.3006 25.7188 59.3297 25.7188C69.3587 25.7188 95.46 35.9931 99.9602 39.2809C104.46 42.5687 106.903 47.9113 104.975 53.528C103.046 59.1446 94.6885 61.4735 83.888 65.0352C75.2476 67.8846 63.9156 68.9623 59.3297 69.145C52.4294 68.9623 36.0572 67.8573 25.7709 64.8982Z" fill="#B1AFC3"/>
<path fill-rule="evenodd" clip-rule="evenodd" d="M39.211 26.9876C46.4972 26.028 54.2932 25.3408 59.3297 25.3408C61.8821 25.3408 65.4285 25.9923 69.3619 27.0084C73.3024 28.0263 77.6562 29.4168 81.8336 30.909C86.0113 32.4013 90.0171 33.9968 93.2621 35.4261C96.495 36.8501 99.0042 38.1224 100.165 38.9704C104.761 42.3283 107.31 47.8373 105.312 53.6562C104.295 56.618 101.602 58.6593 97.9046 60.3969C94.7522 61.8783 90.794 63.1716 86.3662 64.6184C85.5897 64.8721 84.7988 65.1305 83.9953 65.3955C75.3108 68.2595 63.9424 69.3391 59.3433 69.5222L59.332 69.5227L59.3207 69.5224C52.4168 69.3396 36.0074 68.2343 25.6763 65.2624C15.309 62.2801 8.64242 55.827 6.58278 52.9323L6.55659 52.8954L6.53956 52.8531C6.04753 51.6299 5.95052 50.2759 6.02004 49.0967C6.08767 47.9494 6.31462 46.9397 6.51467 46.3295C6.52868 46.1751 6.58289 46.0096 6.64518 45.8553C6.72254 45.6637 6.83298 45.4408 6.96962 45.1943C7.24336 44.7002 7.63666 44.0853 8.12192 43.3913C9.09334 42.0019 10.4483 40.2742 11.9914 38.5269C13.5342 36.7798 15.2704 35.0071 17.0049 33.5309C18.7341 32.0592 20.4843 30.8624 22.0539 30.2931C25.1162 29.1824 31.9353 27.9459 39.211 26.9876ZM39.3001 27.7373C32.0143 28.6969 25.2685 29.9262 22.2877 31.0074C20.8357 31.534 19.1625 32.6661 17.4563 34.1183C15.7553 35.566 14.044 37.3122 12.5171 39.0413C10.9903 40.7701 9.65326 42.4758 8.70004 43.8391C8.22296 44.5214 7.8458 45.1126 7.58967 45.5749C7.46137 45.8064 7.36701 45.9992 7.30581 46.1508C7.27527 46.2264 7.25492 46.2871 7.2426 46.3338C7.23651 46.3568 7.23292 46.3745 7.23092 46.3873C7.22908 46.399 7.22896 46.4044 7.22895 46.4044L7.22895 46.4042V46.4694L7.2082 46.5308C7.02653 47.0685 6.80187 48.0338 6.73645 49.1435C6.67181 50.2399 6.76435 51.4485 7.18382 52.5165C9.18454 55.3033 15.7058 61.611 25.8656 64.5337C36.1014 67.4782 52.4241 68.5834 59.3274 68.7669C63.9075 68.5834 75.1915 67.5071 83.7807 64.6746C84.5894 64.4079 85.3835 64.1484 86.1615 63.8941C90.5929 62.4459 94.5022 61.1684 97.612 59.7071C101.275 57.9856 103.726 56.0541 104.637 53.3994C106.496 47.985 104.16 42.8086 99.7556 39.591C98.6661 38.795 96.2251 37.5502 92.985 36.123C89.7569 34.7012 85.7667 33.1117 81.6029 31.6244C77.4389 30.137 73.1057 28.7534 69.1908 27.7422C65.269 26.7291 61.7919 26.0963 59.3297 26.0963C54.3371 26.0963 46.5752 26.7791 39.3001 27.7373Z" fill="#B1AFC3"/>
<path d="M9.84799 54.6845C7.37415 52.4809 6.92748 49.91 7.01338 48.9C7.01338 47.1372 8.47363 44.5847 9.20376 43.5288C16.6768 36.5049 15.1307 30.9959 37.9364 28.2414C60.7421 25.487 61.6441 25.9001 71.9517 28.9301C82.2594 31.96 99.7825 38.433 102.875 43.8043C105.349 48.1012 104.163 52.2054 103.261 53.7204C99.0094 60.4689 90.8921 61.0198 82.9036 64.0497C74.9152 67.0796 61.1287 67.6305 59.7114 67.7682C58.2941 67.906 41.5441 67.3551 29.8191 64.6006C18.0941 61.8461 12.9403 57.4389 9.84799 54.6845Z" fill="#EEECDD"/>
<path fill-rule="evenodd" clip-rule="evenodd" d="M71.5645 28.4237C71.7235 28.4705 71.8847 28.5179 72.0482 28.566C77.2122 30.084 84.1846 32.4645 90.2576 35.1405C93.2936 36.4783 96.1132 37.8935 98.3722 39.3159C100.617 40.7294 102.36 42.1806 103.182 43.6083C105.74 48.0527 104.523 52.3122 103.565 53.9207L103.56 53.929L103.56 53.9289C101.373 57.4002 98.1978 59.262 94.6061 60.6343C92.8502 61.3053 90.9837 61.8632 89.079 62.4325L88.9548 62.4696C87.0027 63.0532 85.009 63.6524 83.0253 64.4048C78.9885 65.9359 73.5088 66.8347 68.8824 67.3688C65.3473 67.777 62.2559 67.9768 60.7037 68.0771C60.2306 68.1077 59.9005 68.129 59.7443 68.1442C59.3617 68.1813 58.0224 68.171 56.0784 68.096C54.1211 68.0205 51.5234 67.8782 48.6035 67.6454C42.7671 67.1801 35.6284 66.3521 29.7409 64.969C17.9435 62.1975 12.7384 57.7538 9.6161 54.9726C7.06677 52.7018 6.5644 50.0266 6.65448 48.8831C6.65898 47.9159 7.05306 46.78 7.5118 45.7843C7.97849 44.7713 8.53752 43.8501 8.91355 43.3063L8.93609 43.2737L8.96467 43.2468C10.6387 41.6734 11.8539 40.1784 13.0098 38.7564C13.1292 38.6095 13.248 38.4633 13.3666 38.318C14.631 36.7681 15.8739 35.3058 17.6093 33.9783C21.084 31.3203 26.4746 29.2454 37.8955 27.8659C49.2907 26.4896 55.2457 25.9001 59.6416 26.0388C63.9162 26.1737 66.7174 26.9978 71.5645 28.4237ZM59.6201 26.794C55.2866 26.6572 49.3878 27.2383 37.9773 28.6165C26.5924 29.9916 21.3532 32.0483 18.0313 34.5894C16.3684 35.8615 15.1712 37.2656 13.9111 38.8102C13.7928 38.9552 13.6738 39.1016 13.5539 39.2491C12.406 40.6616 11.1686 42.1842 9.47171 43.7831C9.11767 44.2995 8.59441 45.166 8.15767 46.1139C7.7064 47.0934 7.37224 48.1078 7.37224 48.8998V48.9167L7.37081 48.9335C7.29544 49.8197 7.69415 52.2709 10.0798 54.3959C13.1421 57.1236 18.2447 61.4942 29.8973 64.2317C35.7348 65.6031 42.8336 66.4278 48.6577 66.8921C51.5681 67.1241 54.1564 67.2659 56.1047 67.341C58.0664 67.4167 59.3523 67.4236 59.6783 67.3919C59.8605 67.3742 60.22 67.3509 60.7266 67.3182C62.3019 67.2163 65.299 67.0225 68.8042 66.6178C73.4225 66.0846 78.8303 65.1929 82.7819 63.6941C84.7924 62.9315 86.8091 62.3257 88.7586 61.7429L88.871 61.7093C90.7847 61.1373 92.6297 60.5858 94.3612 59.9242C97.8868 58.5771 100.895 56.7901 102.96 53.5155C103.806 52.0906 104.954 48.1453 102.568 43.9998C101.844 42.7418 100.236 41.3697 98.0037 39.9642C95.7854 38.5675 93.0002 37.168 89.9804 35.8374C83.9419 33.1766 76.9989 30.8057 71.8552 29.2937C71.7017 29.2486 71.5504 29.2041 71.4011 29.1601C66.5305 27.7274 63.8062 26.926 59.6201 26.794Z" fill="#B1AFC3"/>
<path fill-rule="evenodd" clip-rule="evenodd" d="M44.0408 94.8701C44.0718 94.664 44.2556 94.5234 44.4514 94.556C46.5572 94.9065 52.6098 95.5083 59.8478 95.084C60.0457 95.0724 60.2151 95.2319 60.2261 95.4402C60.2371 95.6485 60.0856 95.8267 59.8877 95.8383C52.5995 96.2655 46.4959 95.6611 44.3393 95.3022C44.1435 95.2696 44.0099 95.0761 44.0408 94.8701Z" fill="#B1AFC3"/>
<path fill-rule="evenodd" clip-rule="evenodd" d="M71.8259 94.1868C71.8592 94.3925 71.7278 94.5876 71.5325 94.6227C70.2752 94.8485 67.3235 95.3066 65.6699 95.3066C65.4717 95.3066 65.311 95.1375 65.311 94.9289C65.311 94.7203 65.4717 94.5512 65.6699 94.5512C67.2547 94.5512 70.1502 94.1046 71.4117 93.878C71.6071 93.8429 71.7925 93.9812 71.8259 94.1868Z" fill="#B1AFC3"/>
<path d="M28.1886 66.5776C19.0062 49.7273 23.3485 37.5063 26.6674 33.502C35.173 27.1887 46.9848 33.6748 57.225 45.0252C69.2128 58.3125 64.9241 70.2797 59.3515 74.416C53.7788 78.5523 39.6666 87.6405 28.1886 66.5776Z" fill="#E1B74A"/>
<path d="M88.7441 53.9261C93.6215 35.5503 86.6843 25.0183 82.606 22.0493C73.06 18.1997 63.3021 27.3762 56.156 40.7844C47.7906 56.4808 54.6185 66.7847 60.8728 69.3068C67.1271 71.829 82.6474 76.8958 88.7441 53.9261Z" fill="#FFCA43"/>
<path d="M12.717 69.6387C11.3675 67.0064 8.08899 57.4827 6.6184 53.0499L6.35889 51.679L6.6184 51.4048L7.26719 52.3645L11.9385 56.8887L18.9454 61.1387L29.7153 64.9774L48.6599 67.308L65.7879 67.8564L78.1149 65.6629C83.262 64.2462 94.4903 60.9467 98.2274 59.0822C101.964 57.2177 104.369 53.644 105.105 52.0903C105.321 51.9532 105.727 51.9257 105.624 52.9128C105.494 54.1467 98.0976 70.05 97.7083 71.2838C97.3191 72.5177 87.3277 83.3484 86.1599 85.1306C84.9921 86.9129 73.0544 93.3564 73.0544 93.7677C73.0544 94.179 71.627 97.058 70.8485 97.7435C70.0699 98.429 60.5976 99.1145 59.8191 98.8403C59.0405 98.5661 44.6374 97.7435 43.9886 96.7839C43.3398 95.8242 43.8589 94.7274 42.9506 94.4532C42.0423 94.179 25.8225 83.8967 24.3952 82.8C22.9679 81.7032 14.4039 72.929 12.717 69.6387Z" fill="#EEECDD"/>
<path fill-rule="evenodd" clip-rule="evenodd" d="M44.0408 94.7719C44.0718 94.5659 44.2556 94.4252 44.4514 94.4578C46.5572 94.8083 52.6098 95.4101 59.8478 94.9859C60.0457 94.9743 60.2151 95.1337 60.2261 95.342C60.2371 95.5503 60.0856 95.7286 59.8877 95.7402C52.5995 96.1674 46.4959 95.563 44.3393 95.204C44.1435 95.1714 44.0099 94.978 44.0408 94.7719Z" fill="#B1AFC3"/>
<path fill-rule="evenodd" clip-rule="evenodd" d="M71.8259 94.0882C71.8592 94.2938 71.7278 94.489 71.5325 94.5241C70.2752 94.7499 67.3235 95.208 65.6699 95.208C65.4717 95.208 65.311 95.0389 65.311 94.8303C65.311 94.6216 65.4717 94.4525 65.6699 94.4525C67.2547 94.4525 70.1502 94.0059 71.4117 93.7794C71.6071 93.7443 71.7925 93.8825 71.8259 94.0882Z" fill="#B1AFC3"/>
<path fill-rule="evenodd" clip-rule="evenodd" d="M8.04426 51.6528L7.50562 52.1961C7.96319 53.0758 8.63937 54.005 9.61588 54.8748C12.7382 57.656 17.9432 62.0998 29.7407 64.8713C35.6281 66.2544 42.7668 67.0824 48.6033 67.5477C51.5232 67.7805 54.1208 67.9228 56.0782 67.9982C58.0221 68.0732 59.3615 68.0836 59.7441 68.0464C59.9003 68.0312 60.2304 68.0099 60.7033 67.9793L60.7034 67.9793C62.2557 67.879 65.3471 67.6792 68.8822 67.271C73.5086 66.7369 78.9883 65.8382 83.0251 64.3071C85.0088 63.5547 87.0024 62.9554 88.9545 62.3719L89.0786 62.3348C90.9834 61.7654 92.8499 61.2075 94.6059 60.5366C97.5581 59.4085 100.229 57.9499 102.301 55.5385L101.776 55.0233C99.813 57.3115 97.2622 58.7179 94.361 59.8264C92.6295 60.488 90.7846 61.0395 88.8709 61.6115L88.8709 61.6115L88.7584 61.6451C86.8089 62.2279 84.7922 62.8338 82.7817 63.5963C78.83 65.0952 73.4222 65.9869 68.8039 66.5201C65.2988 66.9248 62.3017 67.1186 60.7264 67.2204C60.2198 67.2532 59.8602 67.2764 59.6781 67.2941C59.3521 67.3258 58.0662 67.3189 56.1045 67.2433C54.1562 67.1681 51.5678 67.0264 48.6575 66.7943C42.8333 66.33 35.7346 65.5053 29.897 64.1339C18.2445 61.3965 13.1419 57.0259 10.0796 54.2981C9.10248 53.4278 8.45868 52.5027 8.04426 51.6528Z" fill="#B1AFC3"/>
<path fill-rule="evenodd" clip-rule="evenodd" d="M7.22678 52.4775L6.70557 53.0033C8.8978 55.9733 15.5066 62.2387 25.6764 65.1642C36.0075 68.1361 52.4169 69.2414 59.3208 69.4242L59.3321 69.4245L59.3434 69.424C63.9425 69.2409 75.3109 68.1613 83.9954 65.2973C84.799 65.0323 85.5899 64.7739 86.3663 64.5202C90.7941 63.0734 94.7523 61.78 97.9047 60.2987C100.167 59.2354 102.054 58.0585 103.41 56.6264L102.885 56.1109C101.627 57.4324 99.845 58.5596 97.6121 59.6088C94.5023 61.0702 90.593 62.3477 86.1616 63.7959C85.3836 64.0502 84.5895 64.3097 83.7808 64.5764C75.1916 67.4089 63.9075 68.4852 59.3275 68.6686C52.4242 68.4852 36.1015 67.38 25.8657 64.4355C15.7773 61.5334 9.27649 55.2936 7.22678 52.4775Z" fill="#B1AFC3"/>
<path d="M7.07666 53.1954L8.15335 52.4399L11.7423 56.2174L17.1258 59.9948L26.0982 63.7722L40.0951 66.4164L53.3743 67.5496L65.5767 67.1718L78.497 65.2831L89.6228 61.8835L98.2363 58.4838L101.825 55.4619L102.902 56.5951L99.313 59.617L91.4173 62.6389L78.1381 66.7941L66.2945 68.6828L58.3988 69.0605L41.1718 67.9273L27.1748 65.2831L18.5613 62.2612L12.819 58.1061L7.07666 53.1954Z" fill="#B1AFC3"/>
<path d="M6.35899 51.0272C5.64121 53.6714 9.23016 55.9379 11.0246 57.4488L12.4602 57.8266L10.3068 55.9379L7.43568 51.7827C7.31605 50.9013 6.78375 49.4625 6.35899 51.0272Z" fill="#B1AFC3"/>
<path d="M105.773 51.7823C106.152 52.9784 104.337 56.3152 102.543 57.4484L100.749 57.0707L102.543 54.8042L104.337 52.16C104.696 51.7823 105.486 50.8757 105.773 51.7823Z" fill="#B1AFC3"/>
</svg>
