<svg width="112" height="112" viewBox="0 0 112 112" fill="none" xmlns="http://www.w3.org/2000/svg">
<path d="M12.717 68.8067C11.3675 66.0908 8.08899 56.2645 6.6184 51.6908L6.35889 50.2763L6.6184 49.9934L7.26719 50.9836L11.9385 55.6515L18.9454 60.0366L29.7153 63.9973L48.6599 66.402L65.7879 66.9678L78.1149 64.7045C83.262 63.2429 94.4903 59.8385 98.2274 57.9148C101.964 55.991 104.369 52.3038 105.105 50.7007C105.321 50.5592 105.727 50.5309 105.624 51.5494C105.494 52.8225 98.0976 69.231 97.7083 70.5041C97.3191 71.7772 87.3277 82.952 86.1599 84.7909C84.9921 86.6298 73.0544 93.2781 73.0544 93.7024C73.0544 94.1268 71.627 97.0973 70.8485 97.8046C70.0699 98.5118 60.5976 99.2191 59.8191 98.9362C59.0405 98.6533 44.6374 97.8046 43.9886 96.8144C43.3398 95.8242 43.8589 94.6926 42.9506 94.4097C42.0423 94.1268 25.8225 83.5178 24.3952 82.3862C22.9679 81.2545 14.4039 72.2015 12.717 68.8067Z" fill="#EEECDD"/>
<path d="M25.7709 63.8141C15.4847 60.761 8.88443 54.1555 6.87005 51.2344C5.94429 48.8599 6.48431 45.9105 6.87005 44.7326C6.87005 43.1778 16.1276 30.7395 22.1708 28.478C28.2139 26.2165 49.3006 23.3896 59.3297 23.3896C69.3587 23.3896 95.46 33.9905 99.9602 37.3827C104.46 40.775 106.903 46.2874 104.975 52.0825C103.046 57.8776 94.6885 60.2805 83.888 63.9554C75.2476 66.8954 63.9156 68.0073 59.3297 68.1957C52.4294 68.0073 36.0572 66.8671 25.7709 63.8141Z" fill="#B1AFC3"/>
<path fill-rule="evenodd" clip-rule="evenodd" d="M39.211 24.6991C46.4972 23.709 54.2932 23 59.3297 23C61.8821 23 65.4285 23.6722 69.3619 24.7206C73.3024 25.7709 77.6562 27.2055 81.8336 28.7451C86.0113 30.2848 90.0171 31.9311 93.2621 33.4058C96.495 34.875 99.0042 36.1878 100.165 37.0626C104.761 40.5273 107.31 46.2113 105.312 52.2151C104.295 55.271 101.602 57.3772 97.9046 59.17C94.7522 60.6984 90.794 62.0329 86.3662 63.5256C85.5897 63.7874 84.7988 64.054 83.9953 64.3274C75.3108 67.2824 63.9424 68.3963 59.3433 68.5853L59.332 68.5857L59.3207 68.5854C52.4168 68.3969 36.0074 67.2564 25.6763 64.1901C15.309 61.113 8.64242 54.4549 6.58278 51.4681L6.55659 51.4302L6.53956 51.3865C6.04753 50.1244 5.95052 48.7274 6.02004 47.5107C6.08767 46.327 6.31462 45.2852 6.51467 44.6556C6.52868 44.4963 6.58289 44.3256 6.64518 44.1664C6.72254 43.9687 6.83298 43.7387 6.96962 43.4843C7.24336 42.9746 7.63666 42.3401 8.12192 41.624C9.09334 40.1905 10.4483 38.4079 11.9914 36.6051C13.5342 34.8025 15.2704 32.9734 17.0049 31.4503C18.7341 29.9318 20.4843 28.697 22.0539 28.1097C25.1162 26.9636 31.9353 25.6879 39.211 24.6991ZM39.3001 25.4726C32.0143 26.4627 25.2685 27.7311 22.2877 28.8466C20.8357 29.39 19.1625 30.558 17.4563 32.0564C15.7553 33.5501 14.044 35.3518 12.5171 37.1358C10.9903 38.9196 9.65326 40.6794 8.70004 42.086C8.22296 42.79 7.8458 43.4 7.58967 43.877C7.46137 44.1159 7.36701 44.3148 7.30581 44.4712C7.27527 44.5492 7.25492 44.6118 7.2426 44.66C7.23651 44.6838 7.23292 44.702 7.23092 44.7152C7.22908 44.7273 7.22896 44.7329 7.22895 44.7329L7.22895 44.7327V44.7999L7.2082 44.8633C7.02653 45.418 6.80187 46.414 6.73645 47.559C6.67181 48.6902 6.76435 49.9372 7.18382 51.0392C9.18454 53.9145 15.7058 60.4227 25.8656 63.4382C36.1014 66.4763 52.4241 67.6166 59.3274 67.8059C63.9075 67.6166 75.1915 66.5061 83.7807 63.5836C84.5894 63.3084 85.3835 63.0407 86.1615 62.7783C90.5929 61.2841 94.5022 59.966 97.612 58.4582C101.275 56.6821 103.726 54.6892 104.637 51.9501C106.496 46.3637 104.16 41.0228 99.7556 37.703C98.6661 36.8817 96.2251 35.5973 92.985 34.1248C89.7569 32.6578 85.7667 31.0178 81.6029 29.4832C77.4389 27.9486 73.1057 26.521 69.1908 25.4776C65.269 24.4324 61.7919 23.7795 59.3297 23.7795C54.3371 23.7795 46.5752 24.4839 39.3001 25.4726Z" fill="#B1AFC3"/>
<path d="M9.84799 53.2761C7.37415 51.0025 6.92748 48.35 7.01338 47.3079C7.01338 45.4891 8.47363 42.8555 9.20376 41.766C16.6768 34.5189 15.1307 28.8349 37.9364 25.9929C60.7421 23.1509 61.6441 23.5772 71.9517 26.7034C82.2594 29.8296 99.7825 36.5083 102.875 42.0502C105.349 46.4838 104.163 50.7183 103.261 52.2814C99.0094 59.2444 90.8921 59.8128 82.9036 62.939C74.9152 66.0652 61.1287 66.6336 59.7114 66.7757C58.2941 66.9178 41.5441 66.3494 29.8191 63.5074C18.0941 60.6654 12.9403 56.1182 9.84799 53.2761Z" fill="#EEECDD"/>
<path fill-rule="evenodd" clip-rule="evenodd" d="M71.5645 26.1813C71.7235 26.2296 71.8847 26.2785 72.0482 26.3281C77.2122 27.8943 84.1846 30.3505 90.2576 33.1115C93.2936 34.4918 96.1132 35.952 98.3722 37.4195C100.617 38.878 102.36 40.3753 103.182 41.8483C105.74 46.434 104.523 50.8288 103.565 52.4885L103.56 52.497L103.56 52.4969C101.373 56.0785 98.1978 57.9994 94.6061 59.4154C92.8502 60.1076 90.9837 60.6833 89.079 61.2707L88.9548 61.309C87.0027 61.9111 85.009 62.5294 83.0253 63.3057C78.9885 64.8854 73.5088 65.8127 68.8824 66.3638C65.3473 66.785 62.2559 66.9911 60.7037 67.0946C60.2306 67.1262 59.9005 67.1482 59.7443 67.1638C59.3617 67.2022 58.0224 67.1915 56.0784 67.1142C54.1211 67.0363 51.5234 66.8895 48.6035 66.6493C42.7671 66.1692 35.6284 65.3149 29.7409 63.8878C17.9435 61.0283 12.7384 56.4433 9.6161 53.5737C7.06677 51.2307 6.5644 48.4706 6.65448 47.2908C6.65898 46.2928 7.05306 45.1208 7.5118 44.0935C7.97849 43.0483 8.53752 42.0978 8.91355 41.5368L8.93609 41.5031L8.96467 41.4754C10.6387 39.852 11.8539 38.3095 13.0098 36.8422C13.1292 36.6907 13.248 36.5399 13.3666 36.3899C14.631 34.7908 15.8739 33.282 17.6093 31.9124C21.084 29.1699 26.4746 27.029 37.8955 25.6058C49.2907 24.1857 55.2457 23.5775 59.6416 23.7206C63.9162 23.8598 66.7174 24.71 71.5645 26.1813ZM59.6201 24.4997C55.2866 24.3586 49.3878 24.9582 37.9773 26.3802C26.5924 27.799 21.3532 29.921 18.0313 32.5429C16.3684 33.8554 15.1712 35.3041 13.9111 36.8977C13.7928 37.0474 13.6738 37.1984 13.5539 37.3507C12.406 38.808 11.1686 40.379 9.47171 42.0287C9.11767 42.5615 8.59441 43.4555 8.15767 44.4336C7.7064 45.4442 7.37224 46.4908 7.37224 47.308V47.3254L7.37081 47.3428C7.29544 48.2571 7.69415 50.7862 10.0798 52.9787C13.1421 55.7931 18.2447 60.3026 29.8973 63.1271C35.7348 64.542 42.8336 65.3929 48.6577 65.872C51.5681 66.1114 54.1564 66.2577 56.1047 66.3352C58.0664 66.4133 59.3523 66.4203 59.6783 66.3877C59.8605 66.3694 60.22 66.3454 60.7266 66.3116C62.3019 66.2065 65.299 66.0066 68.8042 65.589C73.4225 65.0389 78.8303 64.1188 82.7819 62.5724C84.7924 61.7856 86.8091 61.1605 88.7586 60.5592L88.871 60.5245C90.7847 59.9343 92.6297 59.3653 94.3612 58.6827C97.8868 57.2928 100.895 55.449 102.96 52.0703C103.806 50.6001 104.954 46.5295 102.568 42.2523C101.844 40.9543 100.236 39.5386 98.0037 38.0885C95.7854 36.6474 93.0002 35.2034 89.9804 33.8305C83.9419 31.0852 76.9989 28.6389 71.8552 27.0789C71.7017 27.0323 71.5504 26.9864 71.4011 26.9411C66.5305 25.4629 63.8062 24.636 59.6201 24.4997Z" fill="#B1AFC3"/>
<path fill-rule="evenodd" clip-rule="evenodd" d="M44.0408 94.7386C44.0718 94.526 44.2556 94.3809 44.4514 94.4145C46.5572 94.7762 52.6098 95.3971 59.8478 94.9594C60.0457 94.9474 60.2151 95.1119 60.2261 95.3268C60.2371 95.5417 60.0856 95.7257 59.8877 95.7376C52.5995 96.1784 46.4959 95.5548 44.3393 95.1844C44.1435 95.1508 44.0099 94.9512 44.0408 94.7386Z" fill="#B1AFC3"/>
<path fill-rule="evenodd" clip-rule="evenodd" d="M71.8259 94.0337C71.8592 94.2459 71.7278 94.4473 71.5325 94.4835C70.2752 94.7164 67.3235 95.1891 65.6699 95.1891C65.4717 95.1891 65.311 95.0146 65.311 94.7994C65.311 94.5841 65.4717 94.4096 65.6699 94.4096C67.2547 94.4096 70.1502 93.9488 71.4117 93.7151C71.6071 93.6789 71.7925 93.8215 71.8259 94.0337Z" fill="#B1AFC3"/>
<path d="M73.2341 42.0375C72.0401 40.2546 68.7564 39.8088 67.2638 39.8088L87.0405 65.5401C89.2172 64.5271 93.9064 61.4475 95.2497 57.2332C96.9289 51.9654 84.2419 44.0636 82.3762 42.848C80.5105 41.6323 74.7267 44.2662 73.2341 42.0375Z" fill="#563626"/>
<path d="M63.9056 61.4879C59.2786 55.8149 60.8582 47.2378 62.2264 43.6584C65.3982 38.3905 69.8759 39.4036 70.9953 42.0375C72.1147 44.6714 74.7268 44.2662 79.5777 44.0636C84.4285 43.861 90.2123 51.9653 92.2646 58.0436C94.3169 64.1219 83.6823 67.7688 79.2045 68.7819C74.7268 69.7949 69.6893 68.5793 63.9056 61.4879Z" fill="#74533E"/>
<path d="M55.4575 50.0032C54.0012 48.4672 50.6956 48.6355 49.2249 48.9116L72.749 70.6081C74.735 69.2072 78.8725 65.3051 79.5351 60.9039C80.3633 55.4024 66.6223 49.9633 64.5931 49.1105C62.5639 48.2578 57.2779 51.9232 55.4575 50.0032Z" fill="#492F21"/>
<path d="M49.3165 70.8953C43.8672 66.1611 44.0782 57.4172 44.8649 53.637C47.1639 47.8594 51.7351 48.0292 53.2513 50.4175C54.7676 52.8059 57.2779 51.9233 62.0261 50.8263C66.7743 49.7292 73.7448 56.6451 76.7207 62.2549C79.6965 67.8646 69.7894 73.4256 65.536 75.2523C61.2827 77.0789 56.1281 76.8129 49.3165 70.8953Z" fill="#63412C"/>
<path d="M16.6356 46.6066C24.6151 40.2999 36.699 45.5323 41.9505 48.0948C39.0367 53.0683 32.2249 63.0564 28.2873 63.2215C23.3653 63.4279 20.3218 60.3759 17.0231 55.7142C14.3841 51.9848 15.8032 47.5272 16.6356 46.6066Z" fill="#5F4431"/>
<path d="M41.7132 47.7823C39.6381 46.0691 28.063 44.7758 18.9491 47.4236C12.4796 51.6424 22.5597 62.0486 24.7292 62.9945C26.8986 63.9403 29.255 65.7692 31.1796 67.9848C33.1043 70.2005 48.1612 73.7855 49.2739 65.6978C50.1641 59.2276 45.8034 53.4861 43.5117 51.4241C43.7768 50.924 43.7883 49.4955 41.7132 47.7823Z" fill="#78543B"/>
<path d="M69.4003 32.7177C69.1823 30.5345 67.767 29.2277 67.0866 28.8472C57.6421 37.533 38.6244 55.5028 38.1099 57.8963C37.4668 60.8881 37.8688 60.1249 41.6071 60.9952C45.3454 61.8654 49.7089 55.6461 56.328 55.4734C62.947 55.3007 68.4717 49.8277 69.5436 47.7924C70.6154 45.7572 68.9406 44.5105 69.6819 41.9223C70.4232 39.3341 69.4451 38.5353 68.9046 36.3151C68.3641 34.0949 69.6728 35.4467 69.4003 32.7177Z" fill="#5E3E2A"/>
<path d="M43.9157 43.9208C46.1596 41.5491 47.5958 38.1136 48.0335 36.6923C48.8417 29.5502 61.7717 27.1338 65.0455 27.7055C68.3193 28.2772 68.3462 29.997 66.908 32.1374C65.4699 34.2778 66.2204 38.1652 67.5425 40.377C68.8646 42.5887 67.7347 46.8 65.0773 50.3701C62.42 53.9402 58.2394 51.2535 48.3065 57.1283C38.3735 63.003 37.1363 60.3351 36.8504 56.7462C36.5644 53.1573 41.111 46.8854 43.9157 43.9208Z" fill="#84604A"/>
<path d="M12.717 68.7056C11.3675 65.9897 8.08899 56.1634 6.6184 51.5898L6.35889 50.1752L6.6184 49.8923L7.26719 50.8825L11.9385 55.5505L18.9454 59.9355L29.7153 63.8962L48.6599 66.3009L65.7879 66.8667L78.1149 64.6035C83.262 63.1418 94.4903 59.7375 98.2274 57.8137C101.964 55.8899 104.369 52.2027 105.105 50.5996C105.321 50.4581 105.727 50.4299 105.624 51.4483C105.494 52.7214 98.0976 69.13 97.7083 70.403C97.3191 71.6761 87.3277 82.8509 86.1599 84.6898C84.9921 86.5287 73.0544 93.177 73.0544 93.6013C73.0544 94.0257 71.627 96.9962 70.8485 97.7035C70.0699 98.4107 60.5976 99.118 59.8191 98.8351C59.0405 98.5522 44.6374 97.7035 43.9886 96.7133C43.3398 95.7231 43.8589 94.5915 42.9506 94.3086C42.0423 94.0257 25.8225 83.4167 24.3952 82.2851C22.9679 81.1535 14.4039 72.1005 12.717 68.7056Z" fill="#EEECDD"/>
<path fill-rule="evenodd" clip-rule="evenodd" d="M44.0408 94.6375C44.0718 94.4249 44.2556 94.2798 44.4514 94.3134C46.5572 94.6751 52.6098 95.296 59.8478 94.8583C60.0457 94.8463 60.2151 95.0108 60.2261 95.2258C60.2371 95.4407 60.0856 95.6246 59.8877 95.6366C52.5995 96.0773 46.4959 95.4537 44.3393 95.0834C44.1435 95.0497 44.0099 94.8501 44.0408 94.6375Z" fill="#B1AFC3"/>
<path fill-rule="evenodd" clip-rule="evenodd" d="M71.8259 93.9326C71.8592 94.1448 71.7278 94.3462 71.5325 94.3824C70.2752 94.6154 67.3235 95.088 65.6699 95.088C65.4717 95.088 65.311 94.9135 65.311 94.6983C65.311 94.4831 65.4717 94.3086 65.6699 94.3086C67.2547 94.3086 70.1502 93.8478 71.4117 93.614C71.6071 93.5778 71.7925 93.7205 71.8259 93.9326Z" fill="#B1AFC3"/>
<path fill-rule="evenodd" clip-rule="evenodd" d="M8.04426 50.1482L7.50562 50.7088C7.96319 51.6164 8.63937 52.5751 9.61588 53.4725C12.7382 56.3421 17.9432 60.9271 29.7407 63.7866C35.6281 65.2137 42.7668 66.068 48.6033 66.5481C51.5232 66.7883 54.1208 66.9351 56.0782 67.013C58.0221 67.0903 59.3615 67.101 59.7441 67.0627C59.9003 67.047 60.2304 67.025 60.7033 66.9934L60.7034 66.9934C62.2557 66.8899 65.3471 66.6838 68.8822 66.2627C73.5086 65.7115 78.9883 64.7843 83.0251 63.2045C85.0088 62.4282 87.0024 61.8099 88.9545 61.2078L89.0786 61.1696C90.9834 60.5821 92.8499 60.0065 94.6059 59.3142C97.5581 58.1503 100.229 56.6453 102.301 54.1574L101.776 53.6257C99.813 55.9866 97.2622 57.4377 94.361 58.5815C92.6295 59.2641 90.7846 59.8331 88.8709 60.4233L88.8709 60.4233L88.7584 60.458C86.8089 61.0593 84.7922 61.6844 82.7817 62.4712C78.83 64.0177 73.4222 64.9377 68.8039 65.4878C65.2988 65.9054 62.3017 66.1053 60.7264 66.2104C60.2198 66.2442 59.8602 66.2682 59.6781 66.2865C59.3521 66.3192 58.0662 66.3121 56.1045 66.234C54.1562 66.1565 51.5678 66.0102 48.6575 65.7708C42.8333 65.2917 35.7346 64.4408 29.897 63.0259C18.2445 60.2014 13.1419 55.692 10.0796 52.8775C9.10248 51.9795 8.45868 51.025 8.04426 50.1482Z" fill="#B1AFC3"/>
<path fill-rule="evenodd" clip-rule="evenodd" d="M7.22678 50.9993L6.70557 51.5417C8.8978 54.6061 15.5066 61.0706 25.6764 64.0891C36.0075 67.1554 52.4169 68.2958 59.3208 68.4844L59.3321 68.4847L59.3434 68.4842C63.9425 68.2952 75.3109 67.1813 83.9954 64.2264C84.799 63.953 85.5899 63.6863 86.3663 63.4246C90.7941 61.9318 94.7523 60.5974 97.9047 59.0689C100.167 57.9719 102.054 56.7575 103.41 55.28L102.885 54.7481C101.627 56.1115 99.845 57.2746 97.6121 58.3572C94.5023 59.8649 90.593 61.1831 86.1616 62.6773C85.3836 62.9396 84.5895 63.2074 83.7808 63.4825C75.1916 66.4051 63.9075 67.5156 59.3275 67.7048C52.4242 67.5155 36.1015 66.3752 25.8657 63.3371C15.7773 60.3428 9.27649 53.9048 7.22678 50.9993Z" fill="#B1AFC3"/>
<path d="M7.07666 51.7399L8.15335 50.9604L11.7423 54.8579L17.1258 58.7553L26.0982 62.6528L40.0951 65.381L53.3743 66.5502L65.5767 66.1604L78.497 64.2117L89.6228 60.704L98.2363 57.1963L101.825 54.0784L102.902 55.2476L99.313 58.3656L91.4173 61.4835L78.1381 65.7707L66.2945 67.7194L58.3988 68.1092L41.1718 66.9399L27.1748 64.2117L18.5613 61.0938L12.819 56.8066L7.07666 51.7399Z" fill="#B1AFC3"/>
<path d="M6.35899 49.5027C5.64121 52.2309 9.23016 54.5694 11.0246 56.1283L12.4602 56.5181L10.3068 54.5694L7.43568 50.2822C7.31605 49.3728 6.78375 47.8882 6.35899 49.5027Z" fill="#B1AFC3"/>
<path d="M105.773 50.2822C106.152 51.5163 104.337 54.9592 102.543 56.1284L100.749 55.7386L102.543 53.4002L104.337 50.672C104.696 50.2822 105.486 49.3468 105.773 50.2822Z" fill="#B1AFC3"/>
</svg>
