<svg width="112" height="161" viewBox="0 0 112 161" fill="none" xmlns="http://www.w3.org/2000/svg">
<path d="M13.1354 70.9145C11.796 68.4409 8.54208 59.4915 7.08252 55.326L6.82495 54.0377L7.08252 53.78L7.72644 54.6818L12.3627 58.9332L19.3171 62.927L30.0062 66.5342L48.8088 68.7244L65.8084 69.2397L78.0429 67.1784C83.1514 65.8471 94.2956 62.7466 98.0046 60.9945C101.714 59.2424 104.1 55.8843 104.83 54.4242C105.045 54.2953 105.448 54.2696 105.345 55.1972C105.217 56.3566 97.8758 71.301 97.4894 72.4604C97.1031 73.6199 87.1867 83.7975 86.0276 85.4723C84.8685 87.1471 73.0203 93.2021 73.0203 93.5886C73.0203 93.9751 71.6037 96.6806 70.831 97.3247C70.0583 97.9689 60.657 98.613 59.8843 98.3554C59.1116 98.0977 44.8165 97.3247 44.1725 96.4229C43.5286 95.5211 44.0438 94.4904 43.1423 94.2328C42.2408 93.9751 26.1427 84.3128 24.726 83.2822C23.3094 82.2516 14.8096 74.0064 13.1354 70.9145Z" fill="#EEECDD"/>
<path d="M26.0915 66.3674C15.8824 63.5868 9.33156 57.5708 7.33228 54.9103C6.41346 52.7476 6.94944 50.0615 7.33228 48.9887C7.33228 47.5727 16.5205 36.2443 22.5183 34.1846C28.5161 32.1249 49.4447 29.5503 59.3986 29.5503C69.3524 29.5503 95.258 39.2051 99.7245 42.2947C104.191 45.3842 106.616 50.4047 104.701 55.6827C102.787 60.9607 94.4923 63.1491 83.7728 66.4961C75.1971 69.1737 63.9501 70.1864 59.3986 70.3581C52.55 70.1864 36.3005 69.148 26.0915 66.3674Z" fill="#B1AFC3"/>
<path fill-rule="evenodd" clip-rule="evenodd" d="M39.4305 30.7431C46.6621 29.8413 54.3996 29.1956 59.3983 29.1956C61.9316 29.1956 65.4514 29.8078 69.3554 30.7626C73.2663 31.7192 77.5874 33.0258 81.7335 34.428C85.8799 35.8303 89.8556 37.3296 93.0763 38.6727C96.285 40.0109 98.7754 41.2065 99.9273 42.0033C104.489 45.1588 107.019 50.3356 105.036 55.8036C104.027 58.5869 101.354 60.5051 97.684 62.1379C94.5552 63.5299 90.6267 64.7453 86.2321 66.1048C85.4615 66.3432 84.6765 66.5861 83.879 66.8351C75.2596 69.5264 63.9764 70.5409 59.4118 70.713L59.4006 70.7134L59.3894 70.7132C52.5373 70.5414 36.2509 69.5027 25.9973 66.71C15.7078 63.9075 9.09111 57.8435 7.04692 55.1233L7.02092 55.0887L7.00402 55.049C6.51568 53.8995 6.4194 52.6271 6.48839 51.519C6.55552 50.441 6.78077 49.4921 6.97931 48.9187C6.99322 48.7736 7.04703 48.6181 7.10885 48.4731C7.18563 48.2931 7.29524 48.0836 7.43086 47.8519C7.70255 47.3877 8.0929 46.8098 8.57451 46.1576C9.53865 44.8521 10.8835 43.2285 12.4149 41.5866C13.9462 39.9448 15.6694 38.279 17.3909 36.8918C19.1071 35.5088 20.8442 34.3842 22.402 33.8492C25.4414 32.8055 32.2093 31.6436 39.4305 30.7431ZM39.5189 31.4475C32.2878 32.3493 25.5925 33.5045 22.6341 34.5204C21.193 35.0153 19.5323 36.0791 17.8389 37.4438C16.1507 38.8042 14.4522 40.4451 12.9368 42.0699C11.4214 43.6946 10.0944 45.2973 9.1483 46.5784C8.6748 47.2196 8.30047 47.7752 8.04625 48.2096C7.91892 48.4271 7.82527 48.6083 7.76452 48.7508C7.73422 48.8218 7.71402 48.8788 7.70179 48.9227C7.69575 48.9444 7.69218 48.961 7.6902 48.973C7.68837 48.984 7.68825 48.9891 7.68824 48.9891L7.68824 48.9889V49.0502L7.66765 49.1079C7.48734 49.6131 7.26437 50.5202 7.19944 51.563C7.13528 52.5933 7.22713 53.729 7.64345 54.7326C9.62917 57.3514 16.1015 63.2788 26.1851 66.0252C36.3442 68.7922 52.5446 69.8308 59.3961 70.0032C63.9418 69.8308 75.1412 68.8194 83.666 66.1576C84.4687 65.907 85.2568 65.6632 86.029 65.4242C90.4271 64.0634 94.3071 62.8629 97.3936 61.4896C101.03 59.872 103.461 58.057 104.366 55.5623C106.211 50.4744 103.892 45.6101 99.5211 42.5865C98.4398 41.8385 96.0171 40.6687 92.8012 39.3276C89.5974 37.9915 85.6371 36.4979 81.5046 35.1003C77.3717 33.7026 73.071 32.4024 69.1855 31.4521C65.2931 30.5001 61.8421 29.9055 59.3983 29.9055C54.4432 29.9055 46.7395 30.5471 39.5189 31.4475Z" fill="#B1AFC3"/>
<path d="M10.2876 56.7701C7.83231 54.6994 7.38899 52.2835 7.47424 51.3344C7.47424 49.6779 8.92355 47.2793 9.6482 46.2871C17.0652 39.6867 15.5307 34.5099 38.1654 31.9215C60.8002 29.3331 61.6953 29.7213 71.9257 32.5686C82.1561 35.4158 99.5478 41.4985 102.617 46.5459C105.072 50.5838 103.896 54.4405 103.001 55.8641C98.7805 62.2057 90.724 62.7234 82.7955 65.5706C74.8669 68.4179 61.1838 68.9355 59.7771 69.065C58.3704 69.1944 41.7461 68.6767 30.109 66.0883C18.4719 63.4999 13.3567 59.3585 10.2876 56.7701Z" fill="#EEECDD"/>
<path fill-rule="evenodd" clip-rule="evenodd" d="M71.5416 32.0927C71.6994 32.1367 71.8594 32.1812 72.0217 32.2264C77.1469 33.6528 84.0671 35.8898 90.0945 38.4045C93.1077 39.6616 95.9062 40.9915 98.1483 42.3281C100.377 43.6564 102.106 45.0201 102.922 46.3617C105.461 50.5381 104.253 54.5408 103.303 56.0523L103.298 56.0601L103.298 56.06C101.127 59.322 97.9752 61.0715 94.4105 62.3611C92.6677 62.9916 90.8152 63.5159 88.9247 64.0509L88.8015 64.0858C86.864 64.6341 84.8853 65.1973 82.9165 65.9043C78.91 67.3431 73.4714 68.1876 68.8797 68.6895C65.3711 69.0731 62.3028 69.2608 60.7622 69.3551C60.2927 69.3838 59.9651 69.4039 59.8101 69.4181C59.4303 69.4531 58.101 69.4434 56.1716 69.3729C54.229 69.302 51.6508 69.1682 48.7527 68.9495C42.9601 68.5122 35.8749 67.7342 30.0316 66.4345C18.3226 63.8301 13.1566 59.6543 10.0577 57.0408C7.52747 54.9069 7.02887 52.393 7.11828 51.3185C7.12274 50.4096 7.51386 49.3421 7.96917 48.4065C8.43236 47.4546 8.98719 46.5889 9.3604 46.0779L9.38278 46.0473L9.41115 46.022C11.0727 44.5435 12.2787 43.1386 13.4259 41.8023C13.5445 41.6643 13.6623 41.527 13.78 41.3904C15.035 39.9339 16.2686 38.5598 17.991 37.3124C21.4396 34.8147 26.7898 32.8648 38.125 31.5685C49.4348 30.2752 55.3451 29.7212 59.7081 29.8516C63.9507 29.9783 66.7308 30.7527 71.5416 32.0927ZM59.6867 30.5612C55.3858 30.4327 49.5312 30.9788 38.2062 32.2738C26.9067 33.566 21.7068 35.4987 18.4098 37.8866C16.7593 39.082 15.5712 40.4014 14.3205 41.8529C14.203 41.9892 14.085 42.1267 13.966 42.2654C12.8266 43.5927 11.5985 45.0235 9.91438 46.526C9.563 47.0112 9.04366 47.8254 8.61019 48.7162C8.16231 49.6366 7.83065 50.5899 7.83065 51.3342V51.35L7.82923 51.3658C7.75443 52.1986 8.15015 54.5019 10.5179 56.4988C13.5572 59.0621 18.6216 63.1692 30.1868 65.7416C35.9805 67.0303 43.0261 67.8053 48.8066 68.2416C51.6951 68.4596 54.2641 68.5928 56.1977 68.6634C58.1447 68.7345 59.421 68.741 59.7446 68.7112C59.9253 68.6946 60.2822 68.6727 60.785 68.642C62.3485 68.5462 65.3231 68.3641 68.802 67.9838C73.3856 67.4828 78.7529 66.6449 82.6749 65.2364C84.6704 64.5198 86.6719 63.9505 88.6068 63.4029L88.7183 63.3713C90.6177 62.8338 92.4489 62.3155 94.1674 61.6938C97.6665 60.4279 100.652 58.7487 102.701 55.6715C103.541 54.3325 104.681 50.6252 102.312 46.7296C101.594 45.5475 99.9982 44.2581 97.7826 42.9373C95.5809 41.6248 92.8166 40.3097 89.8194 39.0593C83.8262 36.559 76.9353 34.331 71.8301 32.9102C71.6778 32.8678 71.5276 32.826 71.3795 32.7847C66.5454 31.4384 63.8414 30.6853 59.6867 30.5612Z" fill="#B1AFC3"/>
<path fill-rule="evenodd" clip-rule="evenodd" d="M44.2242 94.5322C44.2549 94.3386 44.4373 94.2065 44.6316 94.2371C46.7216 94.5665 52.7289 95.1319 59.9126 94.7333C60.109 94.7224 60.2771 94.8722 60.288 95.068C60.299 95.2637 60.1486 95.4312 59.9522 95.4421C52.7186 95.8435 46.6608 95.2756 44.5203 94.9383C44.326 94.9077 44.1934 94.7259 44.2242 94.5322Z" fill="#B1AFC3"/>
<path fill-rule="evenodd" clip-rule="evenodd" d="M71.8009 93.8905C71.834 94.0838 71.7037 94.2672 71.5097 94.3001C70.2619 94.5123 67.3324 94.9428 65.6912 94.9428C65.4944 94.9428 65.335 94.7839 65.335 94.5879C65.335 94.3918 65.4944 94.2329 65.6912 94.2329C67.2641 94.2329 70.1379 93.8132 71.3899 93.6003C71.5838 93.5674 71.7679 93.6973 71.8009 93.8905Z" fill="#B1AFC3"/>
<path d="M71.9632 23.2628C71.9055 29.0537 71.7678 40.8346 71.6787 41.6313L65.291 48.9875L68.6866 25.4193L71.9632 23.2628Z" fill="#81B152"/>
<path d="M91.5955 21.7252L84.8498 36.1014L74.8243 44.9782L70.8998 43.8503L87.2738 19.945L91.5955 21.7252Z" fill="#4D8A18"/>
<path d="M42.1816 80.1345C42.6315 85.5124 48.119 86.035 50.8064 85.6241L73.3767 47.6785L103.997 25.2964L105.331 21.173L88.3925 32.3981L105.637 18.4344L102.908 16.0359L78.2043 33.0306C78.6444 28.1791 83.0292 15.8367 82.716 14.9335C82.4028 14.0302 80.0242 14.3117 78.874 14.5654L70.6918 39.9359C61.0009 51.0946 41.7317 74.7566 42.1816 80.1345Z" fill="#8CC638"/>
<path fill-rule="evenodd" clip-rule="evenodd" d="M70.8204 51.9808L50.8723 85.779C48.1848 86.19 43.0368 85.6222 42.2475 80.2894C41.6147 76.0143 54.4897 59.268 64.518 47.1821L70.8204 51.9808Z" fill="url(#paint0_linear_75_8646)"/>
<path d="M55.3977 15.9807L50.3463 27.7528L50.3776 38.5346L53.1683 40.2807L58.7956 17.6142L55.3977 15.9807Z" fill="#4D8A18"/>
<path d="M45.0464 80.1191C41.9891 82.3811 39.0327 79.6608 37.9366 78.0179L46.9321 48.1534L43.7834 21.1904L49.2013 17.465L51.8255 35.6641C54.1703 33.1666 59.0173 28.1088 59.6469 27.8572C60.2765 27.6057 61.2899 29.0215 61.7179 29.7608L52.3288 45.9971C51.1752 56.4287 48.1036 77.8572 45.0464 80.1191Z" fill="#8CC638"/>
<path fill-rule="evenodd" clip-rule="evenodd" d="M45.9111 51.5378L37.823 78.0543C38.9191 79.6972 41.7334 82.2132 44.9327 80.1556C47.4975 78.5061 50.0438 63.7522 51.5217 52.7065L45.9111 51.5378Z" fill="url(#paint1_linear_75_8646)"/>
<path d="M13.1354 70.8227C11.796 68.3491 8.54208 59.3997 7.08252 55.2342L6.82495 53.9459L7.08252 53.6882L7.72644 54.59L12.3627 58.8414L19.3171 62.8352L30.0062 66.4424L48.8088 68.6326L65.8084 69.1479L78.0429 67.0866C83.1514 65.7554 94.2956 62.6548 98.0046 60.9027C101.714 59.1506 104.1 55.7925 104.83 54.3324C105.045 54.2036 105.448 54.1778 105.345 55.1054C105.217 56.2648 97.8758 71.2092 97.4894 72.3686C97.1031 73.5281 87.1867 83.7057 86.0276 85.3805C84.8685 87.0553 73.0203 93.1103 73.0203 93.4968C73.0203 93.8833 71.6037 96.5888 70.831 97.2329C70.0583 97.8771 60.657 98.5212 59.8843 98.2636C59.1116 98.0059 44.8165 97.2329 44.1725 96.3311C43.5286 95.4293 44.0438 94.3986 43.1423 94.141C42.2408 93.8833 26.1427 84.221 24.726 83.1904C23.3094 82.1598 14.8096 73.9146 13.1354 70.8227Z" fill="#EEECDD"/>
<path fill-rule="evenodd" clip-rule="evenodd" d="M44.2242 94.4404C44.2549 94.2468 44.4373 94.1147 44.6316 94.1453C46.7216 94.4747 52.7289 95.0401 59.9126 94.6415C60.109 94.6306 60.2771 94.7804 60.288 94.9762C60.299 95.1719 60.1486 95.3394 59.9522 95.3503C52.7186 95.7517 46.6608 95.1838 44.5203 94.8465C44.326 94.8159 44.1934 94.6341 44.2242 94.4404Z" fill="#B1AFC3"/>
<path fill-rule="evenodd" clip-rule="evenodd" d="M71.8009 93.7987C71.834 93.992 71.7037 94.1754 71.5097 94.2083C70.2619 94.4205 67.3324 94.851 65.6912 94.851C65.4944 94.851 65.335 94.6921 65.335 94.4961C65.335 94.3 65.4944 94.1411 65.6912 94.1411C67.2641 94.1411 70.1379 93.7214 71.3899 93.5085C71.5838 93.4756 71.7679 93.6055 71.8009 93.7987Z" fill="#B1AFC3"/>
<path fill-rule="evenodd" clip-rule="evenodd" d="M8.4975 53.9214L7.96289 54.4319C8.41704 55.2586 9.08814 56.1317 10.0573 56.9491C13.1562 59.5626 18.3223 63.7384 30.0312 66.3428C35.8745 67.6425 42.9597 68.4206 48.7524 68.8578C51.6504 69.0766 54.2286 69.2103 56.1713 69.2812C58.1007 69.3517 59.4299 69.3614 59.8097 69.3265C59.9647 69.3122 60.2923 69.2922 60.7617 69.2634L60.7618 69.2634C62.3025 69.1692 65.3707 68.9814 68.8793 68.5979C73.471 68.0959 78.9096 67.2514 82.9161 65.8126C84.885 65.1056 86.8636 64.5425 88.8011 63.9941L88.9243 63.9592C90.8148 63.4242 92.6673 62.9 94.4101 62.2695C97.3402 61.2095 99.9912 59.8387 102.048 57.5728L101.526 57.0886C99.5781 59.2388 97.0465 60.5604 94.167 61.6022C92.4486 62.2238 90.6174 62.7421 88.7181 63.2796L88.7181 63.2796L88.6065 63.3112C86.6716 63.8588 84.67 64.4282 82.6746 65.1447C78.7525 66.5532 73.3853 67.3911 68.8016 67.8922C65.3227 68.2725 62.3481 68.4546 60.7846 68.5503C60.2818 68.5811 59.925 68.6029 59.7442 68.6196C59.4206 68.6493 58.1444 68.6429 56.1974 68.5718C54.2637 68.5012 51.6947 68.368 48.8062 68.1499C43.0257 67.7136 35.9802 66.9386 30.1864 65.6499C18.6213 63.0775 13.5569 58.9704 10.5176 56.4072C9.54778 55.5893 8.90881 54.72 8.4975 53.9214Z" fill="#B1AFC3"/>
<path fill-rule="evenodd" clip-rule="evenodd" d="M7.68625 54.6965L7.16895 55.1906C9.34474 57.9816 15.904 63.8691 25.9976 66.6182C36.2511 69.411 52.5375 70.4496 59.3897 70.6214L59.4009 70.6216L59.4121 70.6212C63.9767 70.4491 75.2598 69.4346 83.8793 66.7433C84.6768 66.4943 85.4618 66.2514 86.2324 66.013C90.627 64.6535 94.5555 63.4381 97.6843 62.0461C99.93 61.047 101.802 59.9409 103.149 58.5952L102.627 58.1108C101.379 59.3526 99.61 60.4119 97.3939 61.3979C94.3073 62.7711 90.4274 63.9716 86.0292 65.3324C85.2571 65.5714 84.4689 65.8152 83.6663 66.0658C75.1415 68.7276 63.942 69.739 59.3963 69.9114C52.5448 69.739 36.3444 68.7004 26.1854 65.9334C16.1726 63.2063 9.72059 57.3428 7.68625 54.6965Z" fill="#B1AFC3"/>
<path d="M7.53735 55.3711L8.60597 54.6611L12.168 58.2108L17.5111 61.7604L26.4162 65.3101L40.3082 67.7948L53.4878 68.8597L65.5988 68.5047L78.4222 66.7299L89.4645 63.5352L98.0135 60.3406L101.576 57.5008L102.644 58.5657L99.0821 61.4055L91.2456 64.2452L78.066 68.1498L66.3112 69.9246L58.4747 70.2796L41.3768 69.2147L27.4848 66.7299L18.9359 63.8902L13.2366 59.9856L7.53735 55.3711Z" fill="#B1AFC3"/>
<path d="M6.82508 53.3334C6.11268 55.8182 9.67473 57.9479 11.4558 59.3678L12.8806 59.7228L10.7433 57.9479L7.8937 54.0433C7.77496 53.2151 7.24666 51.863 6.82508 53.3334Z" fill="#B1AFC3"/>
<path d="M105.494 54.0432C105.87 55.1672 104.069 58.3028 102.288 59.3676L100.507 59.0127L102.288 56.8829L104.069 54.3981C104.425 54.0432 105.209 53.1913 105.494 54.0432Z" fill="#B1AFC3"/>
<defs>
<linearGradient id="paint0_linear_75_8646" x1="68.6337" y1="50.3159" x2="59.4505" y2="62.3887" gradientUnits="userSpaceOnUse">
<stop stop-color="#8CC638"/>
<stop offset="1" stop-color="white"/>
</linearGradient>
<linearGradient id="paint1_linear_75_8646" x1="47.8578" y1="51.9433" x2="45.6616" y2="62.4612" gradientUnits="userSpaceOnUse">
<stop stop-color="#8CC638"/>
<stop offset="1" stop-color="white"/>
</linearGradient>
</defs>
</svg>
