<svg width="112" height="112" viewBox="0 0 112 112" fill="none" xmlns="http://www.w3.org/2000/svg">
<g clip-path="url(#clip0_424_10349)">
<path d="M12.759 70.1761C11.4116 67.5815 8.13822 58.194 6.66994 53.8245L6.41083 52.4732L6.66994 52.2029L7.31771 53.1488L11.9817 57.6084L18.9776 61.7976L29.7306 65.5815L48.6456 67.8788L65.7468 68.4194L78.0545 66.2572C83.1935 64.8607 94.4043 61.6084 98.1354 59.7706C101.867 57.9327 104.268 54.4101 105.002 52.8786C105.218 52.7434 105.624 52.7164 105.52 53.6894C105.39 54.9056 98.0059 70.5815 97.6172 71.7978C97.2286 73.014 87.2529 83.6899 86.0869 85.4466C84.9209 87.2034 73.0019 93.5549 73.0019 93.9603C73.0019 94.3657 71.5768 97.2036 70.7994 97.8793C70.0221 98.555 60.5646 99.2306 59.7873 98.9604C59.01 98.6901 44.6294 97.8793 43.9816 96.9333C43.3339 95.9873 43.8521 94.9062 42.9452 94.636C42.0383 94.3657 25.844 84.2304 24.4189 83.1493C22.9938 82.0682 14.4432 73.4194 12.759 70.1761Z" fill="#EEECDD"/>
<path d="M25.7925 65.4068C15.5224 62.4901 8.93241 56.1796 6.92119 53.3889C5.99688 51.1203 6.53606 48.3026 6.92119 47.1774C6.92119 45.692 16.1643 33.8091 22.198 31.6485C28.2316 29.488 49.2853 26.7874 59.2987 26.7874C69.312 26.7874 95.3724 36.9148 99.8656 40.1556C104.359 43.3964 106.798 48.6627 104.872 54.1991C102.947 59.7354 94.6022 62.031 83.8186 65.5419C75.1917 68.3505 63.8774 69.4128 59.2987 69.5928C52.4092 69.4128 36.0626 68.3235 25.7925 65.4068Z" fill="#B1AFC3"/>
<path fill-rule="evenodd" clip-rule="evenodd" d="M39.2116 28.0381C46.4865 27.0921 54.2703 26.4148 59.2989 26.4148C61.8472 26.4148 65.3881 27.057 69.3154 28.0586C73.2497 29.0619 77.5967 30.4326 81.7675 31.9034C85.9387 33.3743 89.9382 34.9471 93.1781 36.3559C96.406 37.7596 98.9113 39.0137 100.07 39.8495C104.659 43.1595 107.204 48.5897 105.209 54.3254C104.194 57.245 101.505 59.2571 97.8134 60.9698C94.6659 62.43 90.7139 63.7048 86.293 65.131C85.5178 65.381 84.7281 65.6358 83.9259 65.8969C75.2549 68.72 63.9043 69.7841 59.3124 69.9647L59.3011 69.9651L59.2899 69.9649C52.3968 69.7847 36.013 68.6952 25.6982 65.7658C15.3471 62.8261 8.69096 56.4652 6.63454 53.6118L6.60839 53.5756L6.59139 53.5338C6.10013 52.3281 6.00327 50.9935 6.07268 49.8311C6.14021 48.7003 6.3668 47.705 6.56653 47.1034C6.58052 46.9513 6.63465 46.7882 6.69685 46.6361C6.77408 46.4472 6.88435 46.2275 7.02078 45.9845C7.29409 45.4975 7.68677 44.8913 8.17127 44.2073C9.14117 42.8378 10.4941 41.1347 12.0347 39.4124C13.5751 37.6903 15.3086 35.9429 17.0404 34.4878C18.7668 33.0371 20.5143 31.8575 22.0814 31.2963C25.1389 30.2015 31.9474 28.9827 39.2116 28.0381ZM39.3006 28.777C32.0263 29.7229 25.291 30.9347 22.3149 32.0004C20.8652 32.5195 19.1946 33.6354 17.491 35.0668C15.7927 36.4938 14.0841 38.2151 12.5596 39.9194C11.0352 41.6236 9.70021 43.3048 8.74848 44.6486C8.27216 45.3212 7.89559 45.904 7.63985 46.3596C7.51175 46.5879 7.41754 46.7779 7.35644 46.9273C7.32595 47.0019 7.30563 47.0617 7.29333 47.1077C7.28725 47.1304 7.28366 47.1478 7.28167 47.1604C7.27983 47.172 7.27971 47.1773 7.2797 47.1773L7.2797 47.1771V47.2414L7.25898 47.3019C7.0776 47.8319 6.85329 48.7834 6.78797 49.8772C6.72344 50.958 6.81583 52.1493 7.23464 53.202C9.23223 55.949 15.7432 62.1666 25.8871 65.0474C36.1069 67.9499 52.4041 69.0393 59.2966 69.2201C63.8695 69.0393 75.1359 67.9784 83.7116 65.1863C84.519 64.9235 85.3119 64.6676 86.0887 64.417C90.5131 62.9896 94.4163 61.7303 97.5212 60.2898C101.179 58.593 103.625 56.6891 104.535 54.0723C106.392 48.7353 104.059 43.6329 99.6614 40.4613C98.5737 39.6767 96.1365 38.4496 92.9014 37.0429C89.6784 35.6414 85.6945 34.0746 81.5372 32.6086C77.3797 31.1424 73.0533 29.7786 69.1446 28.7818C65.2289 27.7832 61.7572 27.1595 59.2989 27.1595C54.3141 27.1595 46.5644 27.8325 39.3006 28.777Z" fill="#B1AFC3"/>
<path d="M9.89438 55.339C7.42441 53.1669 6.97844 50.6328 7.06421 49.6372C7.06421 47.8995 8.52218 45.3836 9.25116 44.3428C16.7125 37.4192 15.1688 31.989 37.9388 29.2739C60.7088 26.5588 61.6094 26.9661 71.9009 29.9527C82.1924 32.9393 99.688 39.3198 102.775 44.6143C105.245 48.8498 104.062 52.8954 103.161 54.3887C98.9162 61.0407 90.8116 61.5837 82.8356 64.5703C74.8597 67.5569 61.0948 68.1 59.6797 68.2357C58.2646 68.3715 41.5409 67.8285 29.8342 65.1133C18.1276 62.3982 12.9818 58.0541 9.89438 55.339Z" fill="#EEECDD"/>
<path fill-rule="evenodd" clip-rule="evenodd" d="M71.5143 29.4538C71.6731 29.4999 71.8341 29.5467 71.9974 29.5941C77.1532 31.0903 84.1147 33.4368 90.1782 36.0746C93.2094 37.3932 96.0246 38.7883 98.2801 40.1903C100.522 41.5836 102.261 43.0141 103.082 44.4213C105.637 48.8022 104.421 53.0008 103.465 54.5864L103.46 54.5945L103.46 54.5945C101.276 58.0161 98.106 59.8513 94.5199 61.204C92.7667 61.8654 90.9031 62.4153 89.0014 62.9765L88.8774 63.0131C86.9284 63.5883 84.9378 64.179 82.9572 64.9206C78.9268 66.4298 73.4557 67.3157 68.8365 67.8422C65.3069 68.2445 62.2204 68.4415 60.6705 68.5404C60.1982 68.5705 59.8687 68.5915 59.7127 68.6065C59.3307 68.6431 57.9934 68.6329 56.0525 68.559C54.0982 68.4846 51.5046 68.3444 48.5893 68.1149C42.762 67.6562 35.6345 66.8401 29.7562 65.4768C17.9773 62.7449 12.7804 58.3646 9.66296 55.6232C7.11762 53.3848 6.61604 50.7479 6.70598 49.6208C6.71048 48.6674 7.10393 47.5477 7.56196 46.5662C8.02792 45.5677 8.58607 44.6597 8.96151 44.1237L8.98402 44.0915L9.01255 44.0651C10.684 42.5141 11.8973 41.0405 13.0513 39.6388C13.1706 39.494 13.2892 39.3499 13.4075 39.2066C14.67 37.6789 15.911 36.2375 17.6436 34.929C21.1129 32.309 26.4951 30.2637 37.898 28.904C49.2754 27.5474 55.2211 26.9663 59.6101 27.103C63.878 27.2359 66.6748 28.0482 71.5143 29.4538ZM59.5886 27.8473C55.262 27.7125 49.3724 28.2854 37.9797 29.6438C26.6127 30.9992 21.3817 33.0266 18.065 35.5314C16.4047 36.7853 15.2094 38.1693 13.9513 39.6918C13.8331 39.8348 13.7143 39.979 13.5946 40.1245C12.4485 41.5168 11.213 43.0176 9.5188 44.5937C9.16532 45.1027 8.64287 45.9567 8.20681 46.8911C7.75625 47.8566 7.42261 48.8565 7.42261 49.6372V49.6539L7.42119 49.6704C7.34593 50.5439 7.74402 52.9601 10.1259 55.0547C13.1834 57.7435 18.2781 62.0516 29.9124 64.75C35.7407 66.1017 42.8284 66.9146 48.6434 67.3723C51.5492 67.6011 54.1336 67.7408 56.0788 67.8148C58.0374 67.8894 59.3213 67.8962 59.6468 67.865C59.8287 67.8475 60.1877 67.8246 60.6934 67.7923C62.2663 67.6919 65.2586 67.5009 68.7583 67.102C73.3694 66.5764 78.7687 65.6974 82.7142 64.22C84.7216 63.4684 86.7351 62.8712 88.6816 62.2967L88.7938 62.2636C90.7045 61.6998 92.5466 61.1562 94.2753 60.504C97.7954 59.1762 100.799 57.4147 102.86 54.1869C103.705 52.7823 104.852 48.8935 102.469 44.8072C101.746 43.5673 100.141 42.2148 97.9122 40.8293C95.6973 39.4526 92.9165 38.0731 89.9014 36.7615C83.8723 34.1387 76.9403 31.8017 71.8046 30.3113C71.6514 30.2669 71.5003 30.223 71.3512 30.1797C66.4883 28.7675 63.7682 27.9775 59.5886 27.8473Z" fill="#B1AFC3"/>
<path fill-rule="evenodd" clip-rule="evenodd" d="M44.0339 94.9502C44.0648 94.7471 44.2484 94.6085 44.4438 94.6406C46.5463 94.9861 52.5895 95.5793 59.8161 95.1611C60.0137 95.1497 60.1828 95.3069 60.1938 95.5122C60.2048 95.7175 60.0536 95.8932 59.856 95.9047C52.5792 96.3257 46.4851 95.73 44.3319 95.3762C44.1364 95.344 44.003 95.1533 44.0339 94.9502Z" fill="#B1AFC3"/>
<path fill-rule="evenodd" clip-rule="evenodd" d="M71.7752 94.2766C71.8085 94.4793 71.6773 94.6716 71.4822 94.7062C70.2269 94.9288 67.2799 95.3804 65.6289 95.3804C65.431 95.3804 65.2706 95.2137 65.2706 95.008C65.2706 94.8024 65.431 94.6357 65.6289 94.6357C67.2112 94.6357 70.1022 94.1955 71.3617 93.9722C71.5568 93.9376 71.7419 94.0739 71.7752 94.2766Z" fill="#B1AFC3"/>
<path d="M45.0335 44.4714L64.2789 24.7702L75.5645 29.3925L104.159 38.7995L96.5447 44.913L85.5271 57.6747L58.2419 85.2682L51.3904 79.5017L19.9866 69.9136L34.0088 57.7595L45.0335 44.4714Z" fill="#686868"/>
<path d="M41.1419 39.0897L60.5931 19.2869L71.9455 23.8762L100.717 33.1958L93.0268 39.3467L81.8864 52.1691L54.3106 79.9061L47.4284 74.1548L15.8279 64.6639L29.9926 52.4393L41.1419 39.0897Z" fill="#575757"/>
<path d="M44.0544 32.0116L63.566 12.3408L74.858 16.7981L103.49 25.8131L95.786 31.9335L84.6023 44.6611L56.9429 72.2153L50.1148 66.5825L18.663 57.4166L32.8587 45.2597L44.0544 32.0116Z" fill="#474747"/>
<path d="M12.7591 70.0799C11.4118 67.4853 8.13834 58.0978 6.67006 53.7283L6.41095 52.377L6.67006 52.1067L7.31783 53.0527L11.9818 57.5122L18.9777 61.7014L29.7308 65.4853L48.6457 67.7826L65.7469 68.3232L78.0546 66.161C83.1936 64.7645 94.4044 61.5122 98.1356 59.6744C101.867 57.8365 104.268 54.3139 105.002 52.7824C105.218 52.6472 105.624 52.6202 105.52 53.5932C105.391 54.8094 98.006 70.4854 97.6173 71.7016C97.2287 72.9178 87.253 83.5937 86.087 85.3504C84.921 87.1072 73.002 93.4587 73.002 93.8641C73.002 94.2695 71.5769 97.1074 70.7996 97.7831C70.0222 98.4588 60.5647 99.1344 59.7874 98.8642C59.0101 98.5939 44.6295 97.7831 43.9818 96.8371C43.334 95.8912 43.8522 94.8101 42.9453 94.5398C42.0384 94.2695 25.8441 84.1342 24.419 83.0531C22.9939 81.972 14.4433 73.3232 12.7591 70.0799Z" fill="#EEECDD"/>
<path fill-rule="evenodd" clip-rule="evenodd" d="M44.0341 94.854C44.065 94.6509 44.2485 94.5123 44.444 94.5444C46.5464 94.8899 52.5896 95.4831 59.8162 95.0649C60.0138 95.0535 60.1829 95.2107 60.194 95.416C60.205 95.6213 60.0537 95.797 59.8561 95.8085C52.5793 96.2295 46.4852 95.6338 44.332 95.28C44.1365 95.2478 44.0031 95.0571 44.0341 94.854Z" fill="#B1AFC3"/>
<path fill-rule="evenodd" clip-rule="evenodd" d="M71.7753 94.1809C71.8086 94.3836 71.6775 94.5759 71.4824 94.6105C70.227 94.8331 67.28 95.2847 65.629 95.2847C65.4311 95.2847 65.2707 95.118 65.2707 94.9123C65.2707 94.7067 65.4311 94.54 65.629 94.54C67.2114 94.54 70.1023 94.0998 71.3618 93.8765C71.5569 93.8419 71.742 93.9782 71.7753 94.1809Z" fill="#B1AFC3"/>
<path fill-rule="evenodd" clip-rule="evenodd" d="M8.09389 52.3513L7.55609 52.8869C8.01295 53.754 8.68807 54.6698 9.66305 55.5272C12.7805 58.2687 17.9774 62.6489 29.7563 65.3808C35.6346 66.7441 42.7621 67.5603 48.5894 68.019C51.5047 68.2484 54.0983 68.3887 56.0526 68.4631C57.9935 68.537 59.3308 68.5472 59.7128 68.5106C59.8687 68.4956 60.1983 68.4746 60.6705 68.4444L60.6706 68.4444C62.2205 68.3455 65.307 68.1486 68.8366 67.7463C73.4557 67.2198 78.9268 66.3339 82.9573 64.8247C84.9379 64.083 86.9284 63.4924 88.8775 62.9171L89.0014 62.8806C90.9032 62.3194 92.7668 61.7694 94.52 61.1081C97.4676 59.9962 100.134 58.5583 102.203 56.1815L101.679 55.6736C99.7189 57.9291 97.1721 59.3154 94.2754 60.4081C92.5467 61.0602 90.7046 61.6038 88.794 62.1676L88.7939 62.1677L88.6817 62.2008C86.7352 62.7753 84.7217 63.3724 82.7143 64.1241C78.7688 65.6015 73.3695 66.4804 68.7584 67.006C65.2587 67.405 62.2663 67.596 60.6935 67.6964C60.1877 67.7287 59.8287 67.7516 59.6469 67.769C59.3214 67.8003 58.0375 67.7935 56.0789 67.7189C54.1336 67.6448 51.5493 67.5051 48.6435 67.2764C42.8285 66.8187 35.7408 66.0058 29.9125 64.654C18.2782 61.9557 13.1835 57.6476 10.126 54.9588C9.15045 54.1009 8.50767 53.189 8.09389 52.3513Z" fill="#B1AFC3"/>
<path fill-rule="evenodd" clip-rule="evenodd" d="M7.27772 53.1643L6.75732 53.6825C8.94612 56.6101 15.5446 62.7859 25.6985 65.6696C36.0133 68.5991 52.3971 69.6886 59.2902 69.8687L59.3014 69.869L59.3127 69.8686C63.9046 69.688 75.2552 68.6239 83.9262 65.8008C84.7284 65.5396 85.5181 65.2849 86.2933 65.0348C90.7142 63.6087 94.6662 62.3338 97.8137 60.8737C100.073 59.8256 101.956 58.6655 103.311 57.2539L102.786 56.7457C101.53 58.0483 99.7509 59.1594 97.5215 60.1937C94.4165 61.6341 90.5134 62.8934 86.089 64.3209C85.3122 64.5715 84.5193 64.8273 83.7119 65.0902C75.1361 67.8822 63.8697 68.9432 59.2968 69.124C52.4043 68.9431 36.1072 67.8537 25.8874 64.9513C15.8148 62.0907 9.32422 55.9401 7.27772 53.1643Z" fill="#B1AFC3"/>
<path d="M7.12787 53.8719L8.20287 53.1272L11.7862 56.8506L17.1612 60.574L26.1196 64.2974L40.0946 66.9038L53.353 68.0209L65.5363 67.6485L78.4364 65.7868L89.5447 62.4357L98.1448 59.0847L101.728 56.1059L102.803 57.223L99.2198 60.2017L91.3364 63.1804L78.078 67.2762L66.253 69.1379L58.3697 69.5102L41.1696 68.3932L27.1946 65.7868L18.5946 62.8081L12.8612 58.7123L7.12787 53.8719Z" fill="#B1AFC3"/>
<path d="M6.41115 51.7343C5.69449 54.3407 9.27782 56.5747 11.0695 58.0641L12.5028 58.4365L10.3528 56.5748L7.48615 52.479C7.36671 51.6102 6.83524 50.1919 6.41115 51.7343Z" fill="#B1AFC3"/>
<path d="M105.67 52.4793C106.048 53.6584 104.236 56.9474 102.445 58.0645L100.653 57.6921L102.445 55.4581L104.236 52.8517C104.595 52.4793 105.383 51.5857 105.67 52.4793Z" fill="#B1AFC3"/>
</g>
<defs>
<clipPath id="clip0_424_10349">
<rect width="112" height="112" fill="white"/>
</clipPath>
</defs>
</svg>
