<svg width="108" height="99" viewBox="0 0 108 99" fill="none" xmlns="http://www.w3.org/2000/svg">
<path d="M9.21769 69.466C7.88341 66.8965 4.64178 57.6002 3.18775 53.2731L2.93115 51.9349L3.18775 51.6672L3.82923 52.604L8.44791 57.0202L15.3759 61.1688L26.0246 64.9159L44.7559 67.191L61.6911 67.7263L73.8792 65.5851C78.9683 64.2022 90.0703 60.9815 93.7652 59.1615C97.4602 57.3414 99.8379 53.853 100.565 52.3364C100.779 52.2025 101.181 52.1758 101.078 53.1393C100.95 54.3437 93.6369 69.8675 93.252 71.0719C92.8671 72.2763 82.9883 82.8485 81.8336 84.5882C80.679 86.328 68.8757 92.6178 68.8757 93.0192C68.8757 93.4207 67.4644 96.231 66.6946 96.9002C65.9248 97.5693 56.5592 98.2384 55.7894 97.9708C55.0196 97.7031 40.7787 96.9002 40.1372 95.9634C39.4957 95.0266 40.0089 93.956 39.1108 93.6884C38.2127 93.4207 22.1757 83.3838 20.7644 82.3132C19.3531 81.2426 10.8855 72.6778 9.21769 69.466Z" fill="#EEECDD"/>
<path d="M22.1246 64.7428C11.9543 61.8544 5.42826 55.6051 3.43656 52.8415C2.52122 50.595 3.05517 47.8047 3.43656 46.6903C3.43656 45.2194 12.5899 33.4518 18.565 31.3123C24.5401 29.1727 45.3894 26.4983 55.3055 26.4983C65.2217 26.4983 91.029 36.5274 95.4786 39.7368C99.9281 42.9461 102.344 48.1613 100.437 53.6439C98.5297 59.1265 90.2663 61.3998 79.5873 64.8765C71.0442 67.658 59.8398 68.7099 55.3055 68.8882C48.4829 68.7099 32.295 67.6312 22.1246 64.7428Z" fill="#B1AFC3"/>
<path fill-rule="evenodd" clip-rule="evenodd" d="M35.4134 27.7369C42.6177 26.8001 50.3259 26.1294 55.3057 26.1294C57.8293 26.1294 61.3357 26.7654 65.2249 27.7572C69.121 28.7508 73.4258 30.1081 77.5562 31.5647C81.6869 33.0214 85.6475 34.5788 88.856 35.974C92.0525 37.364 94.5335 38.606 95.681 39.4337C100.226 42.7115 102.746 48.089 100.77 53.769C99.7649 56.6602 97.1023 58.6528 93.4463 60.3489C90.3293 61.7949 86.4157 63.0574 82.0377 64.4697C81.27 64.7173 80.488 64.9696 79.6936 65.2282C71.1068 68.0239 59.8664 69.0777 55.3191 69.2565L55.3079 69.2569L55.2967 69.2566C48.4706 69.0783 32.2459 67.9993 22.0312 65.0983C11.7807 62.1872 5.18909 55.8881 3.15263 53.0624L3.12674 53.0265L3.1099 52.9851C2.62341 51.7911 2.52749 50.4694 2.59623 49.3184C2.6631 48.1985 2.88749 47.2129 3.08529 46.6172C3.09914 46.4665 3.15275 46.305 3.21433 46.1544C3.29082 45.9673 3.40002 45.7498 3.53512 45.5091C3.80578 45.0268 4.19465 44.4266 4.67444 43.7491C5.63493 42.3929 6.97468 40.7064 8.50032 39.0008C10.0258 37.2954 11.7425 35.565 13.4574 34.124C15.1671 32.6874 16.8976 31.5192 18.4495 30.9635C21.4774 29.8793 28.2197 28.6723 35.4134 27.7369ZM35.5016 28.4687C28.2979 29.4054 21.628 30.6054 18.6807 31.6607C17.2451 32.1748 15.5907 33.2799 13.9037 34.6974C12.2219 36.1106 10.5299 37.8151 9.02016 39.5029C7.51057 41.1905 6.18854 42.8554 5.24605 44.1862C4.77435 44.8522 4.40144 45.4294 4.14818 45.8806C4.02133 46.1066 3.92803 46.2948 3.86752 46.4428C3.83733 46.5166 3.81721 46.5758 3.80502 46.6214C3.799 46.6439 3.79545 46.6611 3.79348 46.6736C3.79166 46.6851 3.79154 46.6903 3.79153 46.6903L3.79153 46.6902V46.7538L3.77102 46.8137C3.59139 47.3386 3.36926 48.2808 3.30458 49.364C3.24067 50.4343 3.33216 51.614 3.74691 52.6565C5.7251 55.3768 12.1729 61.5341 22.2183 64.387C32.3389 67.2612 48.4778 68.34 55.3034 68.5191C59.8319 68.34 70.9889 67.2894 79.4814 64.5245C80.281 64.2642 81.0661 64.0109 81.8354 63.7627C86.2169 62.3491 90.0821 61.102 93.1569 59.6755C96.7791 57.9952 99.2017 56.1098 100.103 53.5184C101.941 48.2332 99.6309 43.1804 95.2764 40.0395C94.1991 39.2626 91.7856 38.0474 88.582 36.6543C85.3902 35.2664 81.445 33.7148 77.3281 32.263C73.2109 30.8111 68.9265 29.4606 65.0558 28.4734C61.1781 27.4845 57.7401 26.8668 55.3057 26.8668C50.3693 26.8668 42.6948 27.5333 35.5016 28.4687Z" fill="#B1AFC3"/>
<path d="M6.38091 54.7728C3.93492 52.6218 3.49328 50.1123 3.57821 49.1265C3.57821 47.4057 5.02203 44.9141 5.74393 43.8834C13.1329 37.0271 11.6041 31.6496 34.1531 28.9608C56.702 26.2721 57.5938 26.6754 67.7854 29.633C77.977 32.5907 95.3028 38.9092 98.3603 44.1523C100.806 48.3467 99.6342 52.353 98.7424 53.8318C94.5384 60.4192 86.5125 60.957 78.614 63.9146C70.7155 66.8722 57.0842 67.41 55.6829 67.5444C54.2815 67.6788 37.7201 67.1411 26.1272 64.4523C14.5342 61.7636 9.43839 57.4616 6.38091 54.7728Z" fill="#EEECDD"/>
<path fill-rule="evenodd" clip-rule="evenodd" d="M67.4026 29.1391C67.5598 29.1847 67.7192 29.231 67.8809 29.2779C72.9867 30.7597 79.8806 33.0834 85.8852 35.6955C88.887 37.0014 91.6749 38.3829 93.9085 39.7713C96.1283 41.1511 97.8511 42.5677 98.6638 43.9612C101.194 48.2996 99.9901 52.4575 99.0432 54.0276L99.0384 54.0357L99.0383 54.0356C96.8758 57.424 93.7361 59.2414 90.1848 60.581C88.4487 61.2359 86.6032 61.7805 84.7199 62.3363L84.5971 62.3725C82.667 62.9421 80.6958 63.5271 78.7344 64.2615C74.7431 65.7561 69.3251 66.6334 64.7508 67.1548C61.2555 67.5532 58.1989 67.7482 56.6641 67.8461C56.1964 67.876 55.87 67.8968 55.7156 67.9116C55.3372 67.9479 54.013 67.9378 52.0909 67.8646C50.1556 67.7909 47.5872 67.652 44.7001 67.4248C38.9294 66.9706 31.8711 66.1624 26.0499 64.8123C14.3853 62.1069 9.2389 57.7692 6.15174 55.0543C3.63111 52.8377 3.1344 50.2264 3.22347 49.1102C3.22792 48.1661 3.61755 47.0573 4.07113 46.0853C4.53257 45.0965 5.0853 44.1973 5.45709 43.6665L5.47939 43.6347L5.50764 43.6084C7.16287 42.0725 8.36436 40.6132 9.50723 39.2251C9.62529 39.0817 9.74272 38.9391 9.85997 38.7972C11.1102 37.2843 12.3391 35.8569 14.0549 34.5611C17.4905 31.9665 22.8204 29.9411 34.1127 28.5946C45.3796 27.2511 51.2675 26.6756 55.6139 26.811C59.8405 26.9427 62.6101 27.7471 67.4026 29.1391ZM55.5927 27.5482C51.3081 27.4147 45.4756 27.9819 34.1936 29.3272C22.9369 30.6695 17.7567 32.6771 14.4722 35.1576C12.828 36.3993 11.6443 37.7699 10.3984 39.2776C10.2814 39.4192 10.1638 39.5621 10.0452 39.7061C8.9102 41.0849 7.68673 42.5711 6.00897 44.1319C5.65892 44.636 5.14155 45.4817 4.70973 46.4071C4.26354 47.3632 3.93314 48.3534 3.93314 49.1265V49.143L3.93173 49.1594C3.85721 50.0244 4.25143 52.4171 6.61022 54.4914C9.63803 57.1541 14.6832 61.4204 26.2045 64.0925C31.9763 65.4312 38.9952 66.2362 44.7537 66.6894C47.6313 66.9159 50.1906 67.0543 52.1169 67.1276C54.0565 67.2015 55.328 67.2082 55.6503 67.1773C55.8304 67.16 56.1859 67.1373 56.6868 67.1053C58.2443 67.0059 61.2077 66.8167 64.6734 66.4217C69.2397 65.9012 74.5866 65.0308 78.4938 63.5677C80.4816 62.8234 82.4756 62.232 84.4032 61.6631L84.5143 61.6303C86.4064 61.0719 88.2307 60.5336 89.9426 59.8878C93.4285 58.5728 96.4027 56.8285 98.4442 53.632C99.2807 52.2411 100.417 48.39 98.0568 44.3434C97.3408 43.1155 95.7514 41.7761 93.5442 40.4041C91.3508 39.0408 88.5969 37.6747 85.6112 36.3758C79.6406 33.7785 72.7759 31.4641 67.69 29.9882C67.5383 29.9442 67.3887 29.9008 67.2411 29.8579C62.4253 28.4594 59.7317 27.6771 55.5927 27.5482Z" fill="#B1AFC3"/>
<path fill-rule="evenodd" clip-rule="evenodd" d="M40.189 93.9994C40.2196 93.7983 40.4013 93.661 40.5949 93.6928C42.677 94.035 48.6615 94.6224 55.8179 94.2083C56.0136 94.197 56.1811 94.3526 56.192 94.5559C56.2029 94.7593 56.0531 94.9333 55.8574 94.9446C48.6513 95.3616 42.6164 94.7716 40.484 94.4212C40.2905 94.3894 40.1584 94.2006 40.189 93.9994Z" fill="#B1AFC3"/>
<path fill-rule="evenodd" clip-rule="evenodd" d="M67.661 93.3324C67.6939 93.5331 67.564 93.7236 67.3709 93.7579C66.1277 93.9783 63.2093 94.4255 61.5743 94.4255C61.3784 94.4255 61.2195 94.2604 61.2195 94.0568C61.2195 93.8531 61.3784 93.688 61.5743 93.688C63.1413 93.688 66.0042 93.2521 67.2515 93.0309C67.4447 92.9967 67.628 93.1317 67.661 93.3324Z" fill="#B1AFC3"/>
<path d="M41.1787 44.0104L60.2373 24.5006L71.4133 29.078L99.73 38.3936L92.1898 44.4478L81.2792 57.0856L54.2589 84.4112L47.4739 78.7007L16.375 69.2057L30.2611 57.1696L41.1787 44.0104Z" fill="#686868"/>
<path d="M37.3249 38.681L56.5873 19.0705L67.8294 23.6152L96.3214 32.8444L88.7061 38.9356L77.6739 51.6335L50.3658 79.1012L43.5504 73.4057L12.2566 64.007L26.2839 51.9011L37.3249 38.681Z" fill="#575757"/>
<path d="M40.2092 31.6716L59.5314 12.1918L70.7137 16.6058L99.0676 25.5333L91.4386 31.5943L80.3634 44.1983L52.9725 71.485L46.2108 65.9069L15.0643 56.8299L29.1222 44.7911L40.2092 31.6716Z" fill="#474747"/>
<path d="M9.21769 69.3705C7.88341 66.8011 4.64178 57.5047 3.18775 53.1777L2.93115 51.8394L3.18775 51.5718L3.82923 52.5086L8.44791 56.9248L15.3759 61.0734L26.0246 64.8205L44.7559 67.0955L61.6911 67.6308L73.8792 65.4896C78.9683 64.1067 90.0703 60.886 93.7652 59.066C97.4602 57.246 99.8379 53.7576 100.565 52.2409C100.779 52.1071 101.181 52.0803 101.078 53.0439C100.95 54.2483 93.6369 69.772 93.252 70.9764C92.8671 72.1809 82.9883 82.7531 81.8336 84.4928C80.679 86.2325 68.8757 92.5223 68.8757 92.9238C68.8757 93.3252 67.4644 96.1356 66.6946 96.8047C65.9248 97.4738 56.5592 98.143 55.7894 97.8753C55.0196 97.6077 40.7787 96.8047 40.1372 95.8679C39.4957 94.9312 40.0089 93.8605 39.1108 93.5929C38.2127 93.3252 22.1757 83.2884 20.7644 82.2178C19.3531 81.1472 10.8855 72.5823 9.21769 69.3705Z" fill="#EEECDD"/>
<path fill-rule="evenodd" clip-rule="evenodd" d="M40.189 93.904C40.2196 93.7028 40.4013 93.5655 40.5949 93.5974C42.677 93.9395 48.6615 94.5269 55.8179 94.1128C56.0136 94.1015 56.1811 94.2571 56.192 94.4605C56.2029 94.6638 56.0531 94.8378 55.8574 94.8491C48.6513 95.2661 42.6164 94.6762 40.484 94.3258C40.2905 94.2939 40.1584 94.1051 40.189 93.904Z" fill="#B1AFC3"/>
<path fill-rule="evenodd" clip-rule="evenodd" d="M67.661 93.2374C67.6939 93.4382 67.564 93.6287 67.3709 93.6629C66.1277 93.8833 63.2093 94.3305 61.5743 94.3305C61.3784 94.3305 61.2195 94.1654 61.2195 93.9618C61.2195 93.7582 61.3784 93.5931 61.5743 93.5931C63.1413 93.5931 66.0042 93.1571 67.2515 92.936C67.4447 92.9017 67.628 93.0367 67.661 93.2374Z" fill="#B1AFC3"/>
<path fill-rule="evenodd" clip-rule="evenodd" d="M4.59777 51.814L4.06519 52.3443C4.51761 53.203 5.18617 54.11 6.15169 54.959C9.23885 57.6739 14.3853 62.0116 26.0499 64.717C31.8711 66.0671 38.9294 66.8753 44.7001 67.3295C47.5871 67.5567 50.1556 67.6956 52.0909 67.7693C54.0129 67.8425 55.3372 67.8526 55.7155 67.8163C55.8699 67.8015 56.1963 67.7807 56.6639 67.7508L56.664 67.7508C58.1988 67.6529 61.2554 67.4579 64.7507 67.0595C69.325 66.5381 74.743 65.6608 78.7343 64.1662C80.6957 63.4318 82.6669 62.8468 84.597 62.2772L84.7197 62.241C86.603 61.6852 88.4486 61.1406 90.1848 60.4857C93.1037 59.3846 95.7447 57.9607 97.7934 55.607L97.2742 55.104C95.3332 57.3376 92.8111 58.7104 89.9426 59.7925C88.2307 60.4383 86.4064 60.9766 84.5144 61.535L84.5143 61.535L84.4031 61.5678C82.4755 62.1367 80.4816 62.7281 78.4937 63.4724C74.5865 64.9355 69.2396 65.8059 64.6733 66.3264C61.2076 66.7214 58.2443 66.9106 56.6867 67.01C56.1858 67.042 55.8303 67.0647 55.6503 67.082C55.3279 67.1129 54.0565 67.1062 52.1169 67.0324C50.1905 66.959 47.6313 66.8206 44.7537 66.5941C38.9951 66.1409 31.9763 65.3359 26.2045 63.9972C14.6832 61.3251 9.63798 57.0588 6.61017 54.3961C5.64407 53.5465 5.00752 52.6435 4.59777 51.814Z" fill="#B1AFC3"/>
<path fill-rule="evenodd" clip-rule="evenodd" d="M3.78951 52.6191L3.27417 53.1323C5.44172 56.0315 11.9761 62.1473 22.0314 65.0031C32.2461 67.904 48.4708 68.983 55.297 69.1614L55.3081 69.1617L55.3193 69.1612C59.8666 68.9824 71.107 67.9286 79.6938 65.133C80.4883 64.8743 81.2703 64.622 82.038 64.3744C86.4159 62.9621 90.3296 61.6997 93.4465 60.2537C95.6837 59.2158 97.5489 58.0669 98.8901 56.669L98.3706 56.1658C97.127 57.4557 95.3649 58.5561 93.1572 59.5803C90.0823 61.0067 86.2171 62.2538 81.8356 63.6674C81.0663 63.9156 80.2812 64.1689 79.4816 64.4292C70.9891 67.1942 59.832 68.2448 55.3036 68.4239C48.478 68.2448 32.3391 67.1659 22.2186 64.2917C12.2437 61.4588 5.81614 55.368 3.78951 52.6191Z" fill="#B1AFC3"/>
<path d="M3.64111 53.3197L4.70568 52.5823L8.25423 56.2695L13.5771 59.9568L22.4484 63.6441L36.2878 66.2252L49.4174 67.3313L61.4825 66.9626L74.2573 65.119L85.2578 61.8004L93.7743 58.4819L97.3229 55.5321L98.3875 56.6383L94.8389 59.5881L87.0321 62.5379L73.9025 66.5939L62.1922 68.4375L54.3854 68.8062L37.3524 67.7001L23.513 65.119L14.9965 62.1692L9.3188 58.1132L3.64111 53.3197Z" fill="#B1AFC3"/>
<path d="M2.93142 51.203C2.22172 53.7841 5.77026 55.9964 7.54454 57.4713L8.96396 57.8401L6.83483 55.9964L3.99599 51.9404C3.8777 51.0801 3.3514 49.6756 2.93142 51.203Z" fill="#B1AFC3"/>
<path d="M101.226 51.9407C101.601 53.1083 99.8069 56.3654 98.0326 57.4716L96.2583 57.1029L98.0326 54.8905L99.8069 52.3094C100.162 51.9407 100.942 51.0558 101.226 51.9407Z" fill="#B1AFC3"/>
</svg>
