<svg width="100" height="84" viewBox="0 0 100 84" fill="none" xmlns="http://www.w3.org/2000/svg">
<path d="M6.71701 54.7363C5.36754 52.1041 2.08899 42.5804 0.618402 38.1476L0.358887 36.7766L0.618402 36.5024L1.26719 37.4621L5.93847 41.9863L12.9454 46.2363L23.7153 50.075L42.6599 52.4057L59.7879 52.9541L72.1149 50.7605C77.262 49.3439 88.4903 46.0444 92.2274 44.1799C95.9644 42.3153 98.3692 38.7417 99.1045 37.1879C99.3208 37.0508 99.7273 37.0234 99.6235 38.0105C99.4938 39.2444 92.0976 55.1476 91.7083 56.3815C91.3191 57.6154 81.3277 68.446 80.1599 70.2283C78.9921 72.0105 67.0544 78.4541 67.0544 78.8654C67.0544 79.2767 65.627 82.1557 64.8485 82.8412C64.0699 83.5267 54.5976 84.2122 53.8191 83.938C53.0405 83.6638 38.6374 82.8412 37.9886 81.8815C37.3398 80.9218 37.8589 79.8251 36.9506 79.5509C36.0423 79.2767 19.8225 68.9944 18.3952 67.8976C16.9679 66.8008 8.40387 58.0266 6.71701 54.7363Z" fill="#EEECDD"/>
<path d="M19.7709 49.8978C9.48474 46.9387 2.88443 40.5367 0.870046 37.7055C-0.0557127 35.4041 0.484313 32.5455 0.870046 31.4039C0.870046 29.897 10.1276 17.8418 16.1708 15.6499C22.2139 13.4581 43.3006 10.7183 53.3297 10.7183C63.3587 10.7183 89.46 20.9926 93.9602 24.2804C98.4604 27.5682 100.903 32.9108 98.9747 38.5275C97.0461 44.1441 88.6885 46.473 77.888 50.0347C69.2476 52.8842 57.9156 53.9618 53.3297 54.1445C46.4294 53.9618 30.0572 52.8568 19.7709 49.8978Z" fill="#B1AFC3"/>
<path fill-rule="evenodd" clip-rule="evenodd" d="M33.211 11.9874C40.4972 11.0277 48.2932 10.3406 53.3297 10.3406C55.8821 10.3406 59.4285 10.9921 63.3619 12.0082C67.3024 13.0261 71.6562 14.4166 75.8336 15.9088C80.0113 17.401 84.0171 18.9966 87.2621 20.4259C90.495 21.8499 93.0042 23.1222 94.1649 23.9701C98.7611 27.3281 101.31 32.837 99.3123 38.6559C98.2952 41.6178 95.6023 43.6591 91.9046 45.3967C88.7522 46.878 84.794 48.1714 80.3662 49.6182C79.5897 49.8719 78.7988 50.1303 77.9953 50.3953C69.3108 53.2592 57.9424 54.3388 53.3433 54.522L53.332 54.5224L53.3207 54.5222C46.4168 54.3394 30.0074 53.2341 19.6763 50.2622C9.30905 47.2798 2.64242 40.8268 0.582781 37.932L0.556591 37.8952L0.539557 37.8529C0.0475322 36.6297 -0.0494808 35.2756 0.0200374 34.0964C0.0876724 32.9492 0.31462 31.9395 0.514665 31.3292C0.528676 31.1748 0.582893 31.0094 0.645182 30.8551C0.722542 30.6635 0.832981 30.4406 0.96962 30.194C1.24336 29.7 1.63666 29.0851 2.12192 28.391C3.09334 27.0017 4.44835 25.274 5.99136 23.5267C7.53423 21.7796 9.27045 20.0068 11.0049 18.5306C12.7341 17.0589 14.4843 15.8622 16.0539 15.2929C19.1162 14.1822 25.9353 12.9457 33.211 11.9874ZM33.3001 12.737C26.0143 13.6966 19.2685 14.926 16.2877 16.0071C14.8357 16.5338 13.1625 17.6659 11.4563 19.1181C9.75531 20.5658 8.04404 22.312 6.51712 24.041C4.99034 25.7699 3.65326 27.4755 2.70004 28.8388C2.22296 29.5211 1.8458 30.1124 1.58967 30.5746C1.46137 30.8062 1.36701 30.9989 1.30581 31.1505C1.27527 31.2262 1.25492 31.2868 1.2426 31.3335C1.23651 31.3566 1.23292 31.3743 1.23092 31.387C1.22908 31.3988 1.22896 31.4042 1.22895 31.4042L1.22895 31.404V31.4692L1.2082 31.5306C1.02653 32.0682 0.801872 33.0335 0.736452 34.1432C0.671814 35.2396 0.764354 36.4482 1.18382 37.5162C3.18454 40.303 9.70576 46.6108 19.8656 49.5334C30.1014 52.4779 46.4241 53.5831 53.3274 53.7666C57.9075 53.5832 69.1915 52.5069 77.7807 49.6743C78.5894 49.4076 79.3835 49.1481 80.1615 48.8939C84.5929 47.4457 88.5022 46.1682 91.612 44.7068C95.2754 42.9854 97.7256 41.0539 98.6372 38.3991C100.496 32.9848 98.1597 27.8084 93.7556 24.5908C92.6661 23.7948 90.2251 22.5499 86.985 21.1228C83.7569 19.7009 79.7667 18.1115 75.6029 16.6242C71.4389 15.1368 67.1057 13.7532 63.1908 12.7419C59.269 11.7288 55.7919 11.0961 53.3297 11.0961C48.3371 11.0961 40.5752 11.7788 33.3001 12.737Z" fill="#B1AFC3"/>
<path d="M3.84799 39.6842C1.37415 37.4806 0.927481 34.9098 1.01338 33.8998C1.01338 32.1369 2.47363 29.5844 3.20376 28.5286C10.6768 21.5046 9.13068 15.9957 31.9364 13.2412C54.7421 10.4867 55.6441 10.8999 65.9517 13.9298C76.2594 16.9597 93.7825 23.4328 96.8748 28.804C99.3486 33.101 98.1632 37.2052 97.2613 38.7201C93.0094 45.4686 84.8921 46.0195 76.9036 49.0494C68.9152 52.0794 55.1287 52.6303 53.7114 52.768C52.2941 52.9057 35.5441 52.3548 23.8191 49.6003C12.0941 46.8459 6.94029 42.4387 3.84799 39.6842Z" fill="#EEECDD"/>
<path fill-rule="evenodd" clip-rule="evenodd" d="M65.5645 13.4237C65.7235 13.4705 65.8847 13.5179 66.0482 13.566C71.2122 15.084 78.1846 17.4645 84.2576 20.1405C87.2936 21.4783 90.1132 22.8935 92.3722 24.3159C94.6173 25.7294 96.3598 27.1806 97.1817 28.6083C99.7404 33.0527 98.523 37.3122 97.5654 38.9207L97.5605 38.929L97.5604 38.9289C95.3733 42.4002 92.1978 44.262 88.6061 45.6343C86.8502 46.3053 84.9837 46.8632 83.079 47.4325L82.9548 47.4696C81.0027 48.0532 79.009 48.6524 77.0253 49.4048C72.9885 50.9359 67.5088 51.8347 62.8824 52.3688C59.3473 52.777 56.2559 52.9768 54.7037 53.0771C54.2306 53.1077 53.9005 53.129 53.7443 53.1442C53.3617 53.1813 52.0224 53.171 50.0784 53.096C48.1211 53.0205 45.5234 52.8782 42.6035 52.6454C36.7671 52.1801 29.6284 51.3521 23.7409 49.969C11.9435 47.1975 6.73842 42.7538 3.6161 39.9726C1.06677 37.7018 0.564404 35.0266 0.654484 33.8831C0.658984 32.9159 1.05306 31.78 1.5118 30.7843C1.97849 29.7713 2.53752 28.8501 2.91355 28.3063L2.93609 28.2737L2.96467 28.2468C4.63875 26.6734 5.85392 25.1784 7.0098 23.7564C7.12921 23.6095 7.24798 23.4633 7.36656 23.318C8.63104 21.7681 9.87392 20.3058 11.6093 18.9783C15.084 16.3203 20.4746 14.2454 31.8955 12.8659C43.2907 11.4896 49.2457 10.9001 53.6416 11.0388C57.9162 11.1737 60.7174 11.9978 65.5645 13.4237ZM53.6201 11.794C49.2866 11.6572 43.3878 12.2383 31.9773 13.6165C20.5924 14.9916 15.3532 17.0483 12.0313 19.5894C10.3684 20.8615 9.17123 22.2656 7.91114 23.8102C7.79276 23.9552 7.67384 24.1016 7.55393 24.2491C6.40598 25.6616 5.16857 27.1842 3.47171 28.7831C3.11767 29.2995 2.59441 30.166 2.15767 31.1139C1.7064 32.0934 1.37224 33.1078 1.37224 33.8998V33.9167L1.37081 33.9335C1.29544 34.8197 1.69415 37.2709 4.07981 39.3959C7.14209 42.1236 12.2447 46.4942 23.8973 49.2317C29.7348 50.6031 36.8336 51.4278 42.6577 51.8921C45.5681 52.1241 48.1564 52.2659 50.1047 52.341C52.0664 52.4167 53.3523 52.4236 53.6783 52.3919C53.8605 52.3742 54.22 52.3509 54.7266 52.3182C56.3019 52.2163 59.299 52.0225 62.8042 51.6178C67.4225 51.0846 72.8303 50.1929 76.7819 48.6941C78.7924 47.9315 80.8091 47.3257 82.7586 46.7429L82.871 46.7093C84.7847 46.1373 86.6297 45.5858 88.3612 44.9242C91.8868 43.5771 94.8948 41.7901 96.9596 38.5155C97.8056 37.0906 98.9544 33.1453 96.5678 28.9998C95.8436 27.7418 94.2361 26.3697 92.0037 24.9642C89.7854 23.5675 87.0002 22.168 83.9804 20.8374C77.9419 18.1766 70.9989 15.8057 65.8552 14.2937C65.7017 14.2486 65.5504 14.2041 65.4011 14.1601C60.5305 12.7274 57.8062 11.926 53.6201 11.794Z" fill="#B1AFC3"/>
<path fill-rule="evenodd" clip-rule="evenodd" d="M38.0408 79.8696C38.0718 79.6635 38.2556 79.5229 38.4514 79.5555C40.5572 79.906 46.6098 80.5078 53.8478 80.0835C54.0457 80.0719 54.2151 80.2314 54.2261 80.4397C54.2371 80.648 54.0856 80.8263 53.8877 80.8379C46.5995 81.265 40.4959 80.6607 38.3393 80.3017C38.1435 80.2691 38.0099 80.0756 38.0408 79.8696Z" fill="#B1AFC3"/>
<path fill-rule="evenodd" clip-rule="evenodd" d="M65.8259 79.1868C65.8592 79.3925 65.7278 79.5876 65.5325 79.6227C64.2752 79.8485 61.3235 80.3066 59.6699 80.3066C59.4717 80.3066 59.311 80.1375 59.311 79.9289C59.311 79.7203 59.4717 79.5512 59.6699 79.5512C61.2547 79.5512 64.1502 79.1046 65.4117 78.878C65.6071 78.8429 65.7925 78.9812 65.8259 79.1868Z" fill="#B1AFC3"/>
<path d="M22.1886 51.5776C13.0062 34.7273 17.3485 22.5063 20.6674 18.502C29.173 12.1887 40.9848 18.6748 51.225 30.0252C63.2128 43.3125 58.9241 55.2797 53.3515 59.416C47.7788 63.5523 33.6666 72.6405 22.1886 51.5776Z" fill="#E1B74A"/>
<path d="M82.7441 38.9259C87.6215 20.5501 80.6843 10.0181 76.606 7.04907C67.06 3.1995 57.3021 12.3759 50.156 25.7842C41.7906 41.4805 48.6185 51.7844 54.8728 54.3066C61.1271 56.8287 76.6474 61.8956 82.7441 38.9259Z" fill="#FFCA43"/>
<path d="M6.71701 54.6384C5.36754 52.0062 2.08899 42.4825 0.618402 38.0497L0.358887 36.6787L0.618402 36.4045L1.26719 37.3642L5.93847 41.8884L12.9454 46.1384L23.7153 49.9771L42.6599 52.3078L59.7879 52.8562L72.1149 50.6626C77.262 49.2459 88.4903 45.9465 92.2274 44.082C95.9644 42.2174 98.3692 38.6438 99.1045 37.09C99.3208 36.9529 99.7273 36.9255 99.6235 37.9126C99.4938 39.1465 92.0976 55.0497 91.7083 56.2836C91.3191 57.5175 81.3277 68.3481 80.1599 70.1304C78.9921 71.9126 67.0544 78.3562 67.0544 78.7675C67.0544 79.1788 65.627 82.0578 64.8485 82.7433C64.0699 83.4288 54.5976 84.1143 53.8191 83.8401C53.0405 83.5659 38.6374 82.7433 37.9886 81.7836C37.3398 80.8239 37.8589 79.7272 36.9506 79.453C36.0423 79.1788 19.8225 68.8965 18.3952 67.7997C16.9679 66.7029 8.40387 57.9287 6.71701 54.6384Z" fill="#EEECDD"/>
<path fill-rule="evenodd" clip-rule="evenodd" d="M38.0408 79.7717C38.0718 79.5656 38.2556 79.425 38.4514 79.4576C40.5572 79.8081 46.6098 80.4099 53.8478 79.9856C54.0457 79.974 54.2151 80.1335 54.2261 80.3418C54.2371 80.5501 54.0856 80.7284 53.8877 80.74C46.5995 81.1671 40.4959 80.5628 38.3393 80.2038C38.1435 80.1712 38.0099 79.9777 38.0408 79.7717Z" fill="#B1AFC3"/>
<path fill-rule="evenodd" clip-rule="evenodd" d="M65.8259 79.0882C65.8592 79.2938 65.7278 79.489 65.5325 79.5241C64.2752 79.7499 61.3235 80.208 59.6699 80.208C59.4717 80.208 59.311 80.0389 59.311 79.8303C59.311 79.6216 59.4717 79.4525 59.6699 79.4525C61.2547 79.4525 64.1502 79.0059 65.4117 78.7794C65.6071 78.7443 65.7925 78.8825 65.8259 79.0882Z" fill="#B1AFC3"/>
<path fill-rule="evenodd" clip-rule="evenodd" d="M2.04426 36.6526L1.50562 37.1959C1.96319 38.0756 2.63937 39.0047 3.61588 39.8746C6.7382 42.6558 11.9432 47.0995 23.7407 49.871C29.6281 51.2541 36.7668 52.0821 42.6033 52.5474C45.5232 52.7802 48.1208 52.9225 50.0782 52.998C52.0221 53.073 53.3615 53.0833 53.7441 53.0462C53.9003 53.031 54.2304 53.0096 54.7033 52.9791L54.7034 52.9791C56.2557 52.8787 59.3471 52.6789 62.8822 52.2708C67.5086 51.7366 72.9883 50.8379 77.0251 49.3068C79.0088 48.5544 81.0024 47.9552 82.9545 47.3716L83.0786 47.3345C84.9834 46.7652 86.8499 46.2073 88.6059 45.5363C91.5581 44.4083 94.2291 42.9496 96.3012 40.5383L95.776 40.023C93.813 42.3112 91.2622 43.7176 88.361 44.8262C86.6295 45.4878 84.7846 46.0393 82.8709 46.6113L82.8709 46.6113L82.7584 46.6449C80.8089 47.2277 78.7922 47.8335 76.7817 48.5961C72.83 50.0949 67.4222 50.9866 62.8039 51.5198C59.2988 51.9245 56.3017 52.1183 54.7264 52.2202C54.2198 52.2529 53.8602 52.2762 53.6781 52.2939C53.3521 52.3255 52.0662 52.3187 50.1045 52.243C48.1562 52.1679 45.5678 52.0261 42.6575 51.7941C36.8333 51.3298 29.7346 50.5051 23.897 49.1337C12.2445 46.3962 7.14187 42.0256 4.07958 39.2979C3.10248 38.4275 2.45868 37.5024 2.04426 36.6526Z" fill="#B1AFC3"/>
<path fill-rule="evenodd" clip-rule="evenodd" d="M1.22678 37.4773L0.705566 38.003C2.8978 40.9731 9.5066 47.2384 19.6764 50.164C30.0075 53.1359 46.4169 54.2412 53.3208 54.4239L53.3321 54.4242L53.3434 54.4238C57.9425 54.2406 69.3109 53.161 77.9954 50.297C78.799 50.0321 79.5899 49.7736 80.3663 49.5199C84.7941 48.0732 88.7523 46.7798 91.9047 45.2985C94.1674 44.2352 96.0539 43.0582 97.4103 41.6262L96.8849 41.1106C95.6271 42.4321 93.845 43.5594 91.6121 44.6086C88.5023 46.0699 84.593 47.3475 80.1616 48.7957C79.3836 49.0499 78.5895 49.3094 77.7808 49.5761C69.1916 52.4087 57.9075 53.485 53.3275 53.6684C46.4242 53.4849 30.1015 52.3797 19.8657 49.4352C9.77727 46.5331 3.27649 40.2933 1.22678 37.4773Z" fill="#B1AFC3"/>
<path d="M1.07666 38.1952L2.15335 37.4397L5.74231 41.2171L11.1258 44.9945L20.0982 48.7719L34.0951 51.4161L47.3743 52.5493L59.5767 52.1716L72.497 50.2829L83.6228 46.8832L92.2363 43.4836L95.8252 40.4616L96.9019 41.5948L93.313 44.6168L85.4173 47.6387L72.1381 51.7939L60.2945 53.6826L52.3988 54.0603L35.1718 52.9271L21.1748 50.2829L12.5613 47.261L6.819 43.1058L1.07666 38.1952Z" fill="#B1AFC3"/>
<path d="M0.358989 36.027C-0.358792 38.6712 3.23016 40.9376 5.02464 42.4486L6.46022 42.8263L4.30685 40.9376L1.43568 36.7825C1.31605 35.9011 0.783746 34.4622 0.358989 36.027Z" fill="#B1AFC3"/>
<path d="M99.7731 36.782C100.152 37.9781 98.3375 41.3149 96.543 42.4481L94.7485 42.0704L96.543 39.804L98.3375 37.1598C98.6964 36.782 99.486 35.8755 99.7731 36.782Z" fill="#B1AFC3"/>
</svg>
