<svg width="100" height="76" viewBox="0 0 100 76" fill="none" xmlns="http://www.w3.org/2000/svg">
<path d="M6.71701 48.4872C5.36754 46.0124 2.08899 37.0585 0.618402 32.891L0.358887 31.602L0.618402 31.3442L1.26719 32.2465L5.93847 36.5L12.9454 40.4957L23.7153 44.1048L42.6599 46.296L59.7879 46.8115L72.1149 44.7492C77.262 43.4173 88.4903 40.3153 92.2274 38.5623C95.9644 36.8094 98.3692 33.4495 99.1045 31.9887C99.3208 31.8598 99.7273 31.834 99.6235 32.7621C99.4938 33.9221 92.0976 48.8738 91.7083 50.0339C91.3191 51.1939 81.3277 61.3766 80.1599 63.0522C78.9921 64.7278 67.0544 70.7859 67.0544 71.1725C67.0544 71.5592 65.627 74.266 64.8485 74.9105C64.0699 75.5549 54.5976 76.1994 53.8191 75.9416C53.0405 75.6838 38.6374 74.9105 37.9886 74.0082C37.3398 73.1059 37.8589 72.0748 36.9506 71.817C36.0423 71.5592 19.8225 61.8922 18.3952 60.861C16.9679 59.8298 8.40387 51.5806 6.71701 48.4872Z" fill="#EEECDD"/>
<path d="M19.7709 43.9381C9.48474 41.1561 2.88443 35.1371 0.870046 32.4754C-0.0557127 30.3116 0.484313 27.6241 0.870046 26.5508C0.870046 25.1341 10.1276 13.8001 16.1708 11.7394C22.2139 9.67868 43.3006 7.10278 53.3297 7.10278C63.3587 7.10278 89.46 16.7624 93.9602 19.8535C98.4604 22.9445 100.903 27.9675 98.9747 33.2481C97.0461 38.5287 88.6885 40.7182 77.888 44.0669C69.2476 46.7458 57.9156 47.759 53.3297 47.9307C46.4294 47.759 30.0572 46.7201 19.7709 43.9381Z" fill="#B1AFC3"/>
<path fill-rule="evenodd" clip-rule="evenodd" d="M33.211 8.29609C40.4972 7.39384 48.2932 6.7478 53.3297 6.7478C55.8821 6.7478 59.4285 7.36035 63.3619 8.31565C67.3024 9.27265 71.6562 10.5799 75.8336 11.9828C80.0113 13.3858 84.0171 14.8859 87.2621 16.2297C90.495 17.5685 93.0042 18.7647 94.1649 19.5619C98.7611 22.7189 101.31 27.8983 99.3123 33.369C98.2952 36.1537 95.6023 38.0728 91.9046 39.7064C88.7522 41.0992 84.794 42.3151 80.3662 43.6753C79.5897 43.9139 78.7988 44.1568 77.9953 44.406C69.3108 47.0986 57.9424 48.1136 53.3433 48.2858L53.332 48.2862L53.3207 48.2859C46.4168 48.1141 30.0074 47.0749 19.6763 44.2808C9.30905 41.4769 2.64242 35.41 0.582781 32.6884L0.556591 32.6538L0.539557 32.614C0.0475322 31.464 -0.0494808 30.191 0.0200374 29.0823C0.0876724 28.0037 0.31462 27.0544 0.514665 26.4807C0.528676 26.3355 0.582893 26.18 0.645182 26.0349C0.722542 25.8547 0.832981 25.6452 0.96962 25.4134C1.24336 24.9489 1.63666 24.3708 2.12192 23.7183C3.09334 22.4121 4.44835 20.7877 5.99136 19.145C7.53423 17.5024 9.27045 15.8357 11.0049 14.4478C12.7341 13.0642 14.4843 11.939 16.0539 11.4038C19.1162 10.3595 25.9353 9.19703 33.211 8.29609ZM33.3001 9.00087C26.0143 9.90306 19.2685 11.0589 16.2877 12.0753C14.8357 12.5704 13.1625 13.6348 11.4563 15.0001C9.75531 16.3612 8.04404 18.0029 6.51712 19.6285C4.99034 21.254 3.65326 22.8575 2.70004 24.1393C2.22296 24.7808 1.8458 25.3366 1.58967 25.7712C1.46137 25.9889 1.36701 26.1702 1.30581 26.3127C1.27527 26.3838 1.25492 26.4408 1.2426 26.4847C1.23651 26.5064 1.23292 26.523 1.23092 26.535C1.22908 26.5461 1.22896 26.5511 1.22895 26.5511L1.22895 26.551V26.6122L1.2082 26.67C1.02653 27.1755 0.801872 28.083 0.736452 29.1263C0.671814 30.1571 0.764354 31.2934 1.18382 32.2975C3.18454 34.9176 9.70576 40.8479 19.8656 43.5957C30.1014 46.364 46.4241 47.4031 53.3274 47.5756C57.9075 47.4031 69.1915 46.3912 77.7807 43.7282C78.5894 43.4774 79.3835 43.2334 80.1615 42.9944C84.5929 41.6329 88.5022 40.4318 91.612 39.0579C95.2754 37.4394 97.7256 35.6235 98.6372 33.1276C100.496 28.0372 98.1597 23.1705 93.7556 20.1454C92.6661 19.397 90.2251 18.2266 86.985 16.8849C83.7569 15.5481 79.7667 14.0537 75.6029 12.6554C71.4389 11.257 67.1057 9.95623 63.1908 9.00546C59.269 8.05299 55.7919 7.45808 53.3297 7.45808C48.3371 7.45808 40.5752 8.1 33.3001 9.00087Z" fill="#B1AFC3"/>
<path d="M3.84774 34.3357C1.3739 32.264 0.927237 29.8469 1.01313 28.8974C1.01313 27.24 2.47339 24.8402 3.20352 23.8475C10.6766 17.2439 9.13043 12.0645 31.9362 9.47483C54.7419 6.88515 55.6438 7.2736 65.9515 10.1222C76.2592 12.9709 93.7822 19.0566 96.8745 24.1065C99.3484 28.1464 98.163 32.005 97.2611 33.4293C93.0091 39.774 84.8918 40.292 76.9034 43.1406C68.9149 45.9893 55.1284 46.5072 53.7111 46.6367C52.2938 46.7662 35.5439 46.2482 23.8189 43.6586C12.0939 41.0689 6.94005 36.9254 3.84774 34.3357Z" fill="#EEECDD"/>
<path fill-rule="evenodd" clip-rule="evenodd" d="M65.5645 9.64656C65.7235 9.69054 65.8847 9.73514 66.0482 9.78033C71.2122 11.2074 78.1846 13.4456 84.2576 15.9615C87.2936 17.2192 90.1131 18.5498 92.3722 19.887C94.6172 21.2159 96.3597 22.5804 97.1817 23.9226C99.7404 28.1011 98.523 32.1058 97.5654 33.618L97.5605 33.6258L97.5604 33.6257C95.3733 36.8893 92.1978 38.6397 88.6061 39.93C86.8502 40.5607 84.9837 41.0853 83.079 41.6205L82.9548 41.6555C81.0027 42.2041 79.009 42.7675 77.0253 43.4749C72.9885 44.9144 67.5088 45.7593 62.8824 46.2615C59.3473 46.6452 56.2559 46.8331 54.7036 46.9274C54.2306 46.9561 53.9005 46.9762 53.7443 46.9905C53.3617 47.0254 52.0224 47.0157 50.0784 46.9452C48.1211 46.8742 45.5234 46.7404 42.6035 46.5216C36.7671 46.0841 29.6284 45.3057 23.7409 44.0053C11.9435 41.3996 6.73842 37.2218 3.6161 34.6069C1.06677 32.472 0.564404 29.9569 0.654484 28.8818C0.658984 27.9725 1.05306 26.9045 1.5118 25.9684C1.97849 25.016 2.53752 24.15 2.91355 23.6387L2.93609 23.608L2.96467 23.5828C4.63875 22.1035 5.85392 20.6979 7.0098 19.361C7.12921 19.2229 7.24798 19.0855 7.36656 18.9488C8.63104 17.4916 9.87392 16.1168 11.6093 14.8688C15.084 12.3699 20.4746 10.419 31.8955 9.12214C43.2907 7.82817 49.2457 7.27391 53.6416 7.40432C57.9162 7.53114 60.7174 8.30591 65.5645 9.64656ZM53.6201 8.11429C49.2866 7.98573 43.3878 8.53209 31.9773 9.82779C20.5924 11.1206 15.3532 13.0543 12.0313 15.4434C10.3684 16.6393 9.17123 17.9594 7.91114 19.4115C7.79276 19.548 7.67384 19.6855 7.55393 19.8242C6.40598 21.1522 5.16857 22.5837 3.47171 24.087C3.11767 24.5725 2.59441 25.3871 2.15767 26.2783C1.7064 27.1992 1.37224 28.1529 1.37224 28.8975V28.9134L1.37081 28.9292C1.29544 29.7624 1.69415 32.0669 4.0798 34.0648C7.14209 36.6293 12.2447 40.7384 23.8973 43.3121C29.7348 44.6014 36.8336 45.3768 42.6577 45.8133C45.5681 46.0315 48.1564 46.1647 50.1047 46.2354C52.0664 46.3065 53.3523 46.313 53.6783 46.2832C53.8605 46.2665 54.22 46.2447 54.7266 46.2139C56.3019 46.1181 59.299 45.9359 62.8042 45.5555C67.4225 45.0541 72.8302 44.2158 76.7819 42.8067C78.7924 42.0897 80.8091 41.5201 82.7586 40.9722L82.871 40.9406C84.7847 40.4028 86.6297 39.8843 88.3612 39.2623C91.8868 37.9958 94.8948 36.3157 96.9596 33.237C97.8056 31.8974 98.9544 28.1882 96.5678 24.2907C95.8436 23.108 94.2361 21.818 92.0037 20.4965C89.7854 19.1834 87.0002 17.8677 83.9804 16.6166C77.9419 14.115 70.9989 11.886 65.8552 10.4644C65.7017 10.422 65.5504 10.3802 65.4011 10.3389C60.5305 8.9919 57.8062 8.23847 53.6201 8.11429Z" fill="#B1AFC3"/>
<path fill-rule="evenodd" clip-rule="evenodd" d="M38.0408 72.1169C38.0718 71.9231 38.2556 71.7909 38.4514 71.8216C40.5572 72.1511 46.6098 72.7169 53.8478 72.318C54.0457 72.3071 54.2151 72.457 54.2261 72.6529C54.2371 72.8487 54.0856 73.0163 53.8877 73.0272C46.5995 73.4288 40.4959 72.8606 38.3393 72.5231C38.1435 72.4925 38.0099 72.3106 38.0408 72.1169Z" fill="#B1AFC3"/>
<path fill-rule="evenodd" clip-rule="evenodd" d="M65.8259 71.4747C65.8592 71.668 65.7278 71.8515 65.5325 71.8845C64.2752 72.0968 61.3235 72.5275 59.6699 72.5275C59.4717 72.5275 59.311 72.3685 59.311 72.1723C59.311 71.9762 59.4717 71.8172 59.6699 71.8172C61.2547 71.8172 64.1502 71.3973 65.4117 71.1843C65.6071 71.1513 65.7925 71.2813 65.8259 71.4747Z" fill="#B1AFC3"/>
<path d="M35.7252 34.2866C27.6989 29.6509 15.4346 29.8945 12.6978 31.8238C6.9766 35.3781 9.39873 41.4697 11.2884 44.727C13.178 47.9843 26.8852 56.1161 35.3508 53.1331C43.8164 50.1501 45.7582 40.0813 35.7252 34.2866Z" fill="#D0CDB5"/>
<path d="M35.1178 32.4907C27.0915 27.855 14.8272 28.0987 12.0903 30.0279C6.36918 33.5822 8.79131 39.6738 10.681 42.9311C12.5706 46.1884 26.2778 54.3202 34.7434 51.3372C43.2089 48.3542 45.1508 38.2854 35.1178 32.4907Z" fill="#FCFAF0"/>
<path d="M59.6964 33.1057C52.2372 27.6204 40.0208 26.521 37.0852 28.139C31.0021 31.0457 32.7288 37.365 34.243 40.809C35.7572 44.253 48.472 53.8344 57.2189 51.7957C65.9658 49.757 69.0206 39.9623 59.6964 33.1057Z" fill="#D0CDB5"/>
<path d="M59.2936 31.2544C51.8343 25.769 39.618 24.6697 36.6824 26.2877C30.5992 29.1944 32.326 35.5136 33.8402 38.9577C35.3544 42.4017 48.0692 51.9831 56.8161 49.9444C65.563 47.9057 68.6177 38.111 59.2936 31.2544Z" fill="#FCFAF0"/>
<path d="M65.3048 35.9519C73.3311 31.3162 85.5954 31.5598 88.3323 33.4891C94.0534 37.0433 91.6313 43.135 89.7416 46.3923C87.852 49.6496 74.1448 57.7814 65.6792 54.7984C57.2137 51.8154 55.2719 41.7466 65.3048 35.9519Z" fill="#D0CDB5"/>
<path d="M65.912 34.1562C73.9383 29.5205 86.2026 29.7642 88.9395 31.6934C94.6606 35.2477 92.2385 41.3393 90.3488 44.5966C88.4592 47.8539 74.752 55.9857 66.2864 53.0027C57.8208 50.0197 55.879 39.9509 65.912 34.1562Z" fill="#FCFAF0"/>
<path d="M56.4944 28.6599C66.3253 26.5256 79.3437 30.1195 81.7362 32.6756C86.8684 37.5711 82.6186 42.6057 79.712 45.1346C76.8053 47.6634 59.9575 51.5096 51.741 46.3953C43.5245 41.2811 44.2057 31.3278 56.4944 28.6599Z" fill="#D0CDB5"/>
<path d="M57.6333 27.1463C67.4642 25.0119 80.4826 28.6058 82.8751 31.162C88.0073 36.0575 83.7576 41.092 80.8509 43.6209C77.9442 46.1498 61.0964 49.9959 52.8799 44.8817C44.6634 39.7674 45.3446 29.8142 57.6333 27.1463Z" fill="white"/>
<path d="M26.9308 26.6226C32.1241 18.9962 43.2769 13.9421 46.5891 14.5029C53.3027 15.244 53.7962 21.772 53.5247 25.5182C53.2531 29.2644 44.4786 42.4823 35.5441 43.4358C26.6097 44.3892 20.4392 36.1557 26.9308 26.6226Z" fill="#D0CDB5"/>
<path d="M26.6891 24.7442C31.8824 17.1178 43.0352 12.0637 46.3474 12.6245C53.061 13.3656 53.5545 19.8936 53.283 23.6398C53.0114 27.386 44.2369 40.6039 35.3024 41.5574C26.368 42.5108 20.1975 34.2772 26.6891 24.7442Z" fill="white"/>
<path d="M75.8224 18.7148C70.4937 10.607 58.8535 5.10307 55.3608 5.6365C48.2883 6.30183 47.6561 13.158 47.8767 17.1019C48.0973 21.0459 57.0949 35.0942 66.4734 36.2485C75.852 37.4028 82.4833 28.8496 75.8224 18.7148Z" fill="#D0CDB5"/>
<path d="M76.109 16.7434C70.7803 8.63561 59.1401 3.13163 55.6475 3.66507C48.5749 4.33039 47.9427 11.1865 48.1633 15.1305C48.3839 19.0744 57.3815 33.1228 66.76 34.2771C76.1386 35.4314 82.7699 26.8782 76.109 16.7434Z" fill="white"/>
<path d="M6.71701 48.3951C5.36754 45.9204 2.08899 36.9665 0.618402 32.7989L0.358887 31.51L0.618402 31.2522L1.26719 32.1545L5.93847 36.408L12.9454 40.4037L23.7153 44.0127L42.6599 46.2039L59.7879 46.7195L72.1149 44.6572C77.262 43.3253 88.4903 40.2232 92.2274 38.4703C95.9644 36.7173 98.3692 33.3575 99.1045 31.8967C99.3208 31.7678 99.7273 31.742 99.6235 32.67C99.4938 33.8301 92.0976 48.7818 91.7083 49.9418C91.3191 51.1019 81.3277 61.2845 80.1599 62.9602C78.9921 64.6358 67.0544 70.6938 67.0544 71.0805C67.0544 71.4672 65.627 74.174 64.8485 74.8184C64.0699 75.4629 54.5976 76.1074 53.8191 75.8496C53.0405 75.5918 38.6374 74.8184 37.9886 73.9162C37.3398 73.0139 37.8589 71.9828 36.9506 71.725C36.0423 71.4672 19.8225 61.8001 18.3952 60.769C16.9679 59.7378 8.40387 51.4886 6.71701 48.3951Z" fill="#EEECDD"/>
<path fill-rule="evenodd" clip-rule="evenodd" d="M38.0408 72.0248C38.0718 71.8311 38.2556 71.6989 38.4514 71.7295C40.5572 72.0591 46.6098 72.6248 53.8478 72.226C54.0457 72.2151 54.2151 72.365 54.2261 72.5608C54.2371 72.7567 54.0856 72.9243 53.8877 72.9352C46.5995 73.3368 40.4959 72.7686 38.3393 72.4311C38.1435 72.4004 38.0099 72.2185 38.0408 72.0248Z" fill="#B1AFC3"/>
<path fill-rule="evenodd" clip-rule="evenodd" d="M65.8259 71.3826C65.8592 71.576 65.7278 71.7594 65.5325 71.7924C64.2752 72.0047 61.3235 72.4354 59.6699 72.4354C59.4717 72.4354 59.311 72.2764 59.311 72.0803C59.311 71.8842 59.4717 71.7252 59.6699 71.7252C61.2547 71.7252 64.1502 71.3053 65.4117 71.0923C65.6071 71.0593 65.7925 71.1893 65.8259 71.3826Z" fill="#B1AFC3"/>
<path fill-rule="evenodd" clip-rule="evenodd" d="M2.04426 31.4854L1.50562 31.9962C1.96319 32.8232 2.63937 33.6968 3.61588 34.5145C6.7382 37.1294 11.9432 41.3072 23.7407 43.9129C29.6281 45.2133 36.7668 45.9917 42.6033 46.4292C45.5232 46.648 48.1208 46.7818 50.0782 46.8528C52.0221 46.9233 53.3615 46.933 53.7441 46.8981C53.9003 46.8838 54.2304 46.8637 54.7033 46.835L54.7034 46.835C56.2557 46.7407 59.3471 46.5528 62.8822 46.1691C67.5086 45.6669 72.9883 44.822 77.0251 43.3825C79.0088 42.6751 81.0024 42.1117 82.9545 41.5631L83.0786 41.5282C84.9834 40.9929 86.8499 40.4684 88.6059 39.8376C91.5581 38.777 94.2291 37.4056 96.3012 35.1386L95.776 34.6542C93.813 36.8054 91.2622 38.1277 88.3609 39.1699C86.6295 39.7919 84.7846 40.3104 82.8709 40.8482L82.8708 40.8482L82.7584 40.8798C80.8089 41.4277 78.7922 41.9973 76.7817 42.7143C72.83 44.1234 67.4222 44.9617 62.8039 45.4631C59.2987 45.8435 56.3017 46.0257 54.7264 46.1215C54.2198 46.1523 53.8602 46.1742 53.6781 46.1908C53.3521 46.2206 52.0662 46.2141 50.1045 46.143C48.1562 46.0723 45.5678 45.9391 42.6575 45.7209C36.8333 45.2844 29.7346 44.509 23.897 43.2197C12.2445 40.646 7.14187 36.5369 4.07958 33.9724C3.10248 33.1541 2.45868 32.2844 2.04426 31.4854Z" fill="#B1AFC3"/>
<path fill-rule="evenodd" clip-rule="evenodd" d="M1.22678 32.2612L0.705566 32.7555C2.8978 35.5479 9.5066 41.4383 19.6764 44.1888C30.0075 46.9829 46.4169 48.0221 53.3208 48.1939L53.3321 48.1942L53.3434 48.1938C57.9425 48.0216 69.3109 47.0066 77.9954 44.314C78.799 44.0648 79.5899 43.8219 80.3663 43.5833C84.7941 42.2231 88.7523 41.0072 91.9047 39.6144C94.1674 38.6148 96.0539 37.5082 97.4103 36.1619L96.8849 35.6772C95.6271 36.9196 93.845 37.9794 91.6121 38.9659C88.5023 40.3398 84.593 41.5409 80.1616 42.9024C79.3836 43.1414 78.5895 43.3854 77.7808 43.6362C69.1916 46.2992 57.9075 47.3111 53.3275 47.4836C46.4242 47.3111 30.1015 46.272 19.8657 43.5037C9.77727 40.7752 3.27649 34.9088 1.22678 32.2612Z" fill="#B1AFC3"/>
<path d="M1.07666 32.9359L2.15335 32.2256L5.74231 35.777L11.1258 39.3284L20.0982 42.8798L34.0951 45.3658L47.3743 46.4312L59.5767 46.0761L72.497 44.3004L83.6228 41.1041L92.2363 37.9078L95.8252 35.0667L96.9019 36.1321L93.313 38.9732L85.4173 41.8144L72.1381 45.7209L60.2945 47.4966L52.3988 47.8518L35.1718 46.7863L21.1748 44.3004L12.5613 41.4592L6.819 37.5527L1.07666 32.9359Z" fill="#B1AFC3"/>
<path d="M0.358745 30.8974C-0.359036 33.3834 3.22991 35.5143 5.02439 36.9348L6.45998 37.29L4.3066 35.5143L1.43543 31.6077C1.3158 30.7791 0.783501 29.4263 0.358745 30.8974Z" fill="#B1AFC3"/>
<path d="M99.7731 31.6076C100.152 32.7321 98.3375 35.8693 96.543 36.9347L94.7485 36.5795L96.543 34.4487L98.3375 31.9627C98.6964 31.6076 99.486 30.7552 99.7731 31.6076Z" fill="#B1AFC3"/>
</svg>
