<svg width="140" height="140" viewBox="0 0 140 140" fill="none" xmlns="http://www.w3.org/2000/svg">
<path d="M9.98826 85.2651C8.10822 81.7809 3.54068 69.1748 1.49192 63.3073L1.13037 61.4926L1.49192 61.1296L2.39578 62.3999L8.90362 68.3884L18.6654 74.014L33.6696 79.0951L60.0625 82.1801L83.9246 82.906L101.098 80.0025C108.269 78.1273 123.912 73.7599 129.118 71.2919C134.324 68.8239 137.674 64.0936 138.699 62.037C139 61.8555 139.567 61.8192 139.422 63.1258C139.241 64.759 128.937 85.8095 128.395 87.4427C127.852 89.0759 113.933 103.412 112.306 105.771C110.679 108.13 94.0479 116.659 94.0479 117.204C94.0479 117.748 92.0594 121.559 90.9747 122.466C89.8901 123.374 76.6936 124.281 75.609 123.918C74.5243 123.555 54.4585 122.466 53.5546 121.196C52.6508 119.926 53.3739 118.474 52.1085 118.111C50.843 117.748 28.2464 104.138 26.2579 102.686C24.2694 101.234 12.3383 89.6203 9.98826 85.2651Z" fill="#EEECDD"/>
<path d="M28.1745 78.8603C13.8442 74.9435 4.64886 66.4694 1.8425 62.7219C0.552768 59.6756 1.30511 55.8918 1.8425 54.3808C1.8425 52.3861 14.7398 36.4291 23.1589 33.5279C31.5779 30.6266 60.9551 27 74.9272 27C88.8993 27 125.263 40.5997 131.532 44.9516C137.802 49.3035 141.205 56.3754 138.518 63.8099C135.831 71.2444 124.188 74.327 109.141 79.0416C97.1034 82.8132 81.3162 84.2397 74.9272 84.4815C65.3139 84.2397 42.5048 82.777 28.1745 78.8603Z" fill="#E9B68F" stroke="#E9B68F"/>
<path d="M5.99117 65.3411C2.54471 62.4243 1.92243 59.0214 2.0421 57.6845C2.0421 55.3511 4.07647 51.9725 5.09366 50.5748C15.5048 41.2775 13.3508 33.9856 45.1228 30.3396C76.8949 26.6936 78.1514 27.2405 92.5117 31.2511C106.872 35.2617 131.284 43.8297 135.592 50.9394C139.039 56.6272 137.387 62.0597 136.131 64.065C130.207 72.9977 118.899 73.7269 107.769 77.7375C96.6402 81.7481 77.4334 82.4773 75.4589 82.6596C73.4843 82.8419 50.1489 82.1127 33.8142 78.4667C17.4794 74.8207 10.2992 68.9871 5.99117 65.3411Z" fill="#EEECDD" stroke="#E9B68F"/>
<path d="M54.1211 118.611C57.0902 119.081 65.558 119.879 75.6766 119.315" stroke="#E9B68F" stroke-linecap="round"/>
<path d="M91.8433 117.713C90.0888 118.012 86.0158 118.611 83.76 118.611" stroke="#E9B68F" stroke-linecap="round"/>
<path d="M50.4013 65.2718C39.2193 58.7452 22.1332 59.0882 18.3203 61.8044C10.3498 66.8084 13.7242 75.3849 16.3568 79.9708C18.9894 84.5567 38.0857 96.0054 49.8796 91.8057C61.6735 87.6059 64.3788 73.4301 50.4013 65.2718Z" fill="#D0CDB5"/>
<path d="M49.5551 62.7435C38.3731 56.2168 21.287 56.5599 17.4741 59.2761C9.50361 64.2801 12.878 72.8565 15.5106 77.4424C18.1432 82.0283 37.2396 93.4771 49.0334 89.2773C60.8273 85.0776 63.5326 70.9018 49.5551 62.7435Z" fill="#FCFAF0"/>
<path d="M83.7971 63.6089C73.4051 55.8862 56.3858 54.3384 52.296 56.6164C43.8212 60.7087 46.2269 69.6056 48.3364 74.4544C50.4459 79.3032 68.1596 92.7928 80.3454 89.9225C92.5313 87.0523 96.787 73.2624 83.7971 63.6089Z" fill="#D0CDB5"/>
<path d="M83.2358 61.0026C72.8438 53.2799 55.8245 51.7321 51.7347 54.0101C43.2599 58.1024 45.6656 66.9993 47.7751 71.8481C49.8846 76.6969 67.5983 90.1865 79.7842 87.3162C91.97 84.446 96.2258 70.656 83.2358 61.0026Z" fill="#FCFAF0"/>
<path d="M91.6105 67.6167C102.792 61.0901 119.879 61.4331 123.691 64.1493C131.662 69.1534 128.287 77.7298 125.655 82.3157C123.022 86.9016 103.926 98.3503 92.1321 94.1506C80.3382 89.9508 77.633 75.775 91.6105 67.6167Z" fill="#D0CDB5"/>
<path d="M92.4564 65.0884C103.638 58.5618 120.725 58.9048 124.537 61.621C132.508 66.625 129.133 75.2015 126.501 79.7874C123.868 84.3733 104.772 95.822 92.978 91.6223C81.1842 87.4225 78.4789 73.2467 92.4564 65.0884Z" fill="#FCFAF0"/>
<path d="M79.336 57.3499C93.0321 54.345 111.169 59.4048 114.502 63.0035C121.652 69.8959 115.731 76.984 111.682 80.5444C107.632 84.1048 84.1607 89.5197 72.7138 82.3194C61.2669 75.1191 62.2159 61.106 79.336 57.3499Z" fill="#D0CDB5"/>
<path d="M80.9227 55.2191C94.6188 52.2142 112.755 57.274 116.089 60.8727C123.239 67.7651 117.318 74.8532 113.269 78.4136C109.219 81.974 85.7473 87.3889 74.3005 80.1886C62.8536 72.9883 63.8026 58.9752 80.9227 55.2191Z" fill="white"/>
<path d="M38.1484 54.4819C45.3835 43.7447 60.9212 36.6292 65.5356 37.4187C74.8886 38.4621 75.5762 47.6528 75.1979 52.9271C74.8196 58.2013 62.5953 76.8108 50.1482 78.1531C37.701 79.4955 29.1046 67.9035 38.1484 54.4819Z" fill="#D0CDB5"/>
<path d="M37.8117 51.8372C45.0468 41.1 60.5845 33.9844 65.1989 34.774C74.552 35.8174 75.2396 45.0081 74.8612 50.2823C74.4829 55.5566 62.2586 74.166 49.8115 75.5084C37.3643 76.8507 28.7679 65.2588 37.8117 51.8372Z" fill="white"/>
<path d="M106.263 43.3482C98.8394 31.9333 82.6227 24.1843 77.7569 24.9353C67.9038 25.872 67.023 35.5247 67.3303 41.0774C67.6376 46.63 80.1727 66.4086 93.2386 68.0338C106.304 69.6589 115.543 57.6169 106.263 43.3482Z" fill="#D0CDB5"/>
<path d="M106.663 40.5729C99.2388 29.158 83.0221 21.4089 78.1564 22.16C68.3032 23.0967 67.4224 32.7494 67.7297 38.302C68.037 43.8547 80.5722 63.6333 93.638 65.2585C106.704 66.8836 115.942 54.8415 106.663 40.5729Z" fill="white"/>
<path d="M9.98826 85.1354C8.10822 81.6512 3.54068 69.0451 1.49192 63.1776L1.13037 61.3629L1.49192 61L2.39578 62.2703L8.90362 68.2588L18.6654 73.8843L33.6696 78.9655L60.0625 82.0505L83.9246 82.7763L101.098 79.8728C108.269 77.9976 123.912 73.6303 129.118 71.1623C134.324 68.6943 137.674 63.964 138.699 61.9073C139 61.7259 139.567 61.6896 139.422 62.9962C139.241 64.6294 128.937 85.6798 128.395 87.3131C127.852 88.9463 113.933 103.282 112.306 105.641C110.679 108.001 94.0479 116.53 94.0479 117.074C94.0479 117.618 92.0594 121.429 90.9747 122.337C89.8901 123.244 76.6936 124.151 75.609 123.788C74.5243 123.425 54.4585 122.337 53.5546 121.066C52.6508 119.796 53.3739 118.344 52.1085 117.981C50.843 117.618 28.2464 104.008 26.2579 102.556C24.2694 101.105 12.3383 89.4907 9.98826 85.1354Z" fill="#EEECDD"/>
<path d="M54.1211 118.481C57.0902 118.951 65.558 119.749 75.6766 119.186" stroke="#E9B68F" stroke-linecap="round"/>
<path d="M91.8433 117.583C90.0888 117.883 86.0158 118.481 83.76 118.481" stroke="#E9B68F" stroke-linecap="round"/>
<path fill-rule="evenodd" clip-rule="evenodd" d="M3.47845 61.3284L2.72803 62.0475C3.36551 63.2119 4.30753 64.4418 5.66796 65.5932C10.0179 69.2745 17.2693 75.1565 33.705 78.8251C41.9072 80.6558 51.8526 81.7518 59.9836 82.3677C64.0515 82.6758 67.6705 82.8642 70.3974 82.9641C73.1057 83.0634 74.9716 83.0771 75.5046 83.0278C75.7222 83.0078 76.1821 82.9795 76.841 82.9391L76.8411 82.939C79.0037 82.8063 83.3105 82.5418 88.2355 82.0015C94.6808 81.2945 102.315 80.1049 107.939 78.0783C110.702 77.0823 113.48 76.2891 116.199 75.5167L116.372 75.4676C119.026 74.714 121.626 73.9755 124.073 73.0874C128.186 71.5943 131.907 69.6635 134.793 66.4717L134.062 65.7897C131.327 68.8185 127.773 70.6801 123.731 72.1474C121.319 73.0231 118.749 73.7531 116.083 74.5103L116.083 74.5103L115.926 74.5548C113.21 75.3262 110.401 76.1281 107.6 77.1375C102.094 79.1214 94.5605 80.3017 88.1264 81.0075C83.2431 81.5432 79.0677 81.7997 76.8731 81.9345C76.1674 81.9779 75.6664 82.0087 75.4127 82.0321C74.9585 82.074 73.167 82.0649 70.4341 81.9648C67.7198 81.8653 64.1138 81.6777 60.0592 81.3706C51.9452 80.7559 42.0555 79.6643 33.9229 77.8491C17.689 74.2256 10.5802 68.4404 6.31398 64.8298C4.95271 63.6778 4.0558 62.4533 3.47845 61.3284Z" fill="#E9B68F"/>
<path fill-rule="evenodd" clip-rule="evenodd" d="M2.33941 62.4201L1.61328 63.116C4.66741 67.0474 13.8745 75.3405 28.0428 79.2129C42.4355 83.1467 65.2965 84.6098 74.9147 84.8517L74.9305 84.8521L74.9462 84.8515C81.3535 84.609 97.1915 83.18 109.29 79.3891C110.41 79.0383 111.512 78.6963 112.593 78.3604C118.762 76.4454 124.277 74.7334 128.668 72.7726C131.821 71.3653 134.449 69.8073 136.339 67.9118L135.607 67.2294C133.854 68.9786 131.371 70.4707 128.261 71.8595C123.928 73.7938 118.482 75.4849 112.308 77.4018C111.224 77.7383 110.118 78.0818 108.991 78.4348C97.0253 82.1841 81.3048 83.6088 74.9241 83.8516C65.3066 83.6087 42.5665 82.1458 28.3064 78.2483C14.2516 74.4069 5.19499 66.1475 2.33941 62.4201Z" fill="#E9B68F"/>
<path d="M2.13037 63.3704L3.63037 62.3704L8.63037 67.3704L16.1304 72.3704L28.6304 77.3704L48.1304 80.8704L66.6304 82.3704L83.6304 81.8704L101.63 79.3704L117.13 74.8704L129.13 70.3704L134.13 66.3704L135.63 67.8704L130.63 71.8704L119.63 75.8704L101.13 81.3704L84.6304 83.8704L73.6304 84.3704L49.6304 82.8704L30.1304 79.3704L18.1304 75.3704L10.1304 69.8704L2.13037 63.3704Z" fill="#E9B68F"/>
<path d="M1.13042 60.5C0.130432 64 5.13042 67 7.63042 69L9.63042 69.5L6.63042 67L2.63042 61.5C2.46375 60.3333 1.72217 58.4288 1.13042 60.5Z" fill="#E9B68F"/>
<path d="M139.63 61.5C140.158 63.0832 137.63 67.5 135.13 69L132.63 68.5L135.13 65.5L137.63 62C138.13 61.5 139.23 60.3 139.63 61.5Z" fill="#E9B68F"/>
</svg>
