<svg width="140" height="140" viewBox="0 0 140 140" fill="none" xmlns="http://www.w3.org/2000/svg">
<g clip-path="url(#clip0_5_1934)">
<path d="M9.98833 85.2651C8.10828 81.7809 3.54074 69.1748 1.49198 63.3073L1.13043 61.4926L1.49198 61.1296L2.39585 62.3999L8.90369 68.3884L18.6654 74.014L33.6696 79.0951L60.0625 82.1801L83.9246 82.906L101.098 80.0025C108.269 78.1273 123.912 73.7599 129.118 71.2919C134.324 68.8239 137.675 64.0936 138.699 62.037C139 61.8555 139.567 61.8192 139.422 63.1258C139.241 64.759 128.937 85.8095 128.395 87.4427C127.853 89.0759 113.933 103.412 112.306 105.771C110.679 108.13 94.0479 116.659 94.0479 117.204C94.0479 117.748 92.0594 121.559 90.9748 122.466C89.8901 123.374 76.6937 124.281 75.609 123.918C74.5244 123.555 54.4586 122.466 53.5547 121.196C52.6508 119.926 53.3739 118.474 52.1085 118.111C50.8431 117.748 28.2464 104.138 26.2579 102.686C24.2694 101.234 12.3384 89.6203 9.98833 85.2651Z" fill="#EEECDD"/>
<path d="M28.1746 78.8603C13.8442 74.9435 4.64892 66.4694 1.84256 62.7219C0.552829 59.6756 1.30517 55.8918 1.84256 54.3808C1.84256 52.3861 14.7399 36.4291 23.1589 33.5279C31.578 30.6266 60.9552 27 74.9273 27C88.8994 27 125.263 40.5997 131.532 44.9516C137.802 49.3035 141.205 56.3754 138.518 63.8099C135.831 71.2444 124.188 74.327 109.141 79.0416C97.1035 82.8132 81.3162 84.2397 74.9273 84.4815C65.314 84.2397 42.5049 82.777 28.1746 78.8603Z" fill="#E9B68F" stroke="#E9B68F"/>
<path d="M5.99117 65.3412C2.54471 62.4244 1.92243 59.0214 2.0421 57.6846C2.0421 55.3511 4.07647 51.9725 5.09366 50.5749C15.5048 41.2776 13.3508 33.9856 45.1228 30.3396C76.8949 26.6936 78.1514 27.2405 92.5117 31.2511C106.872 35.2617 131.284 43.8298 135.592 50.9395C139.039 56.6272 137.387 62.0598 136.131 64.0651C130.207 72.9977 118.899 73.7269 107.769 77.7375C96.6402 81.7481 77.4334 82.4773 75.4589 82.6596C73.4843 82.8419 50.1489 82.1127 33.8142 78.4667C17.4794 74.8207 10.2992 68.9871 5.99117 65.3412Z" fill="#EEECDD" stroke="#E9B68F"/>
<path d="M54.1212 118.611C57.0902 119.081 65.5581 119.879 75.6767 119.315" stroke="#E9B68F" stroke-linecap="round"/>
<path d="M91.8434 117.713C90.0889 118.012 86.0159 118.611 83.7601 118.611" stroke="#E9B68F" stroke-linecap="round"/>
<path d="M55.0215 50.7471L81.8755 24.2914L97.6228 30.4984L137.522 43.1307L126.897 51.3401L111.524 68.4773L73.4518 105.531L63.8916 97.7878L20.0725 84.9123L39.6382 68.5911L55.0215 50.7471Z" fill="#686868"/>
<path d="M49.5916 43.5203L76.7328 16.928L92.5732 23.0907L132.719 35.6056L121.989 43.8654L106.444 61.084L67.9665 98.3307L58.3634 90.6076L14.2698 77.8627L34.0345 61.4469L49.5916 43.5203Z" fill="#575757"/>
<path d="M53.6557 34.0155L80.8811 7.60049L96.6373 13.5859L136.589 25.6917L125.839 33.9106L110.234 51.0019L71.6395 88.0031L62.112 80.4391L18.2258 68.1306L38.0337 51.8057L53.6557 34.0155Z" fill="#474747"/>
<path d="M9.98833 85.1354C8.10828 81.6512 3.54074 69.0451 1.49198 63.1776L1.13043 61.3629L1.49198 61L2.39585 62.2703L8.90369 68.2588L18.6654 73.8843L33.6696 78.9655L60.0625 82.0505L83.9246 82.7763L101.098 79.8728C108.269 77.9976 123.912 73.6303 129.118 71.1623C134.324 68.6943 137.675 63.964 138.699 61.9073C139 61.7259 139.567 61.6896 139.422 62.9962C139.241 64.6294 128.937 85.6798 128.395 87.3131C127.853 88.9463 113.933 103.282 112.306 105.641C110.679 108.001 94.0479 116.53 94.0479 117.074C94.0479 117.618 92.0594 121.429 90.9748 122.337C89.8901 123.244 76.6937 124.151 75.609 123.788C74.5244 123.425 54.4586 122.337 53.5547 121.066C52.6508 119.796 53.3739 118.344 52.1085 117.981C50.8431 117.618 28.2464 104.008 26.2579 102.556C24.2694 101.105 12.3384 89.4907 9.98833 85.1354Z" fill="#EEECDD"/>
<path d="M54.1212 118.481C57.0902 118.951 65.5581 119.749 75.6767 119.186" stroke="#E9B68F" stroke-linecap="round"/>
<path d="M91.8434 117.583C90.0889 117.883 86.0159 118.481 83.7601 118.481" stroke="#E9B68F" stroke-linecap="round"/>
<path fill-rule="evenodd" clip-rule="evenodd" d="M3.47863 61.3284L2.72821 62.0475C3.36569 63.2119 4.30771 64.4418 5.66815 65.5931C10.018 69.2745 17.2695 75.1565 33.7052 78.825C41.9074 80.6558 51.8528 81.7518 59.9838 82.3677C64.0517 82.6758 67.6707 82.8642 70.3976 82.9641C73.1059 83.0633 74.9718 83.077 75.5048 83.0278C75.7224 83.0077 76.1823 82.9795 76.8412 82.939L76.8413 82.939C79.0039 82.8062 83.3107 82.5418 88.2357 82.0015C94.681 81.2945 102.315 80.1049 107.939 78.0782C110.703 77.0823 113.48 76.2891 116.2 75.5167L116.373 75.4676C119.026 74.714 121.627 73.9755 124.073 73.0874C128.186 71.5943 131.907 69.6635 134.794 66.4717L134.062 65.7897C131.327 68.8185 127.774 70.6801 123.732 72.1474C121.32 73.0231 118.749 73.7531 116.083 74.5102L116.083 74.5103L115.926 74.5547C113.21 75.3262 110.401 76.1281 107.6 77.1375C102.095 79.1214 94.5606 80.3017 88.1266 81.0075C83.2433 81.5432 79.0679 81.7997 76.8733 81.9345C76.1675 81.9779 75.6666 82.0086 75.4129 82.0321C74.9587 82.074 73.1672 82.0649 70.4342 81.9648C67.72 81.8653 64.114 81.6777 60.0594 81.3705C51.9454 80.7559 42.0557 79.6643 33.9231 77.8491C17.6892 74.2256 10.5804 68.4404 6.31416 64.8298C4.95289 63.6778 4.05598 62.4533 3.47863 61.3284Z" fill="#E9B68F"/>
<path fill-rule="evenodd" clip-rule="evenodd" d="M2.33941 62.4202L1.61327 63.116C4.6674 67.0474 13.8745 75.3406 28.0427 79.213C42.4355 83.1468 65.2965 84.6098 74.9147 84.8517L74.9305 84.8521L74.9462 84.8515C81.3535 84.6091 97.1915 83.1801 109.29 79.3891C110.41 79.0384 111.512 78.6963 112.593 78.3605C118.762 76.4455 124.277 74.7335 128.668 72.7727C131.821 71.3653 134.449 69.8074 136.339 67.9119L135.607 67.2295C133.854 68.9787 131.371 70.4708 128.261 71.8596C123.928 73.7939 118.482 75.4849 112.308 77.4018C111.224 77.7384 110.118 78.0819 108.991 78.4349C97.0253 82.1842 81.3048 83.6088 74.924 83.8517C65.3066 83.6088 42.5665 82.1459 28.3064 78.2484C14.2516 74.407 5.19498 66.1476 2.33941 62.4202Z" fill="#E9B68F"/>
<path d="M2.13043 63.3704L3.63043 62.3704L8.63043 67.3704L16.1304 72.3704L28.6304 77.3704L48.1304 80.8704L66.6304 82.3704L83.6304 81.8704L101.63 79.3704L117.13 74.8704L129.13 70.3704L134.13 66.3704L135.63 67.8704L130.63 71.8704L119.63 75.8704L101.13 81.3704L84.6304 83.8704L73.6304 84.3704L49.6304 82.8704L30.1304 79.3704L18.1304 75.3704L10.1304 69.8704L2.13043 63.3704Z" fill="#E9B68F"/>
<path d="M1.13042 60.5C0.130432 64 5.13042 67 7.63042 69L9.63042 69.5L6.63042 67L2.63042 61.5C2.46375 60.3333 1.72217 58.4288 1.13042 60.5Z" fill="#E9B68F"/>
<path d="M139.63 61.5C140.158 63.0832 137.63 67.5 135.13 69L132.63 68.5L135.13 65.5L137.63 62C138.13 61.5 139.23 60.3 139.63 61.5Z" fill="#E9B68F"/>
</g>
<defs>
<clipPath id="clip0_5_1934">
<rect width="140" height="140" fill="white"/>
</clipPath>
</defs>
</svg>
