<svg width="263" height="361" viewBox="0 0 263 361" fill="none" xmlns="http://www.w3.org/2000/svg">
<path d="M60.0078 308.924C64.5133 302.328 71.1273 306.175 73.871 308.924C77.6257 310.515 82.8821 314.913 73.871 319.773C62.6071 325.849 54.3758 317.169 60.0078 308.924Z" fill="#686868"/>
<path fill-rule="evenodd" clip-rule="evenodd" d="M73.9578 309.095C71.214 306.346 64.6001 302.498 60.0946 309.095C54.4626 317.34 62.6939 326.019 73.9578 319.944C82.9689 315.083 77.7124 310.686 73.9578 309.095Z" fill="url(#paint0_linear_381_9713)"/>
<path d="M81.7098 345.746C57.1282 306.697 78.2957 249.478 91.9521 225.75C109.706 197.276 141.739 159.704 167.746 223.716C202.539 309.358 180.719 335.577 175.939 349.814C177.988 351.17 181.675 354.695 180.036 357.949C177.988 362.017 139.067 362.017 134.97 357.949C131.692 354.695 133.604 334.899 134.97 325.408C130.054 327.035 123.362 326.086 120.631 325.408V357.949C120.631 362.017 85.8068 362.017 77.6129 357.949C71.0578 354.695 77.6129 348.458 81.7098 345.746Z" fill="#686868"/>
<rect width="60.6519" height="13.019" transform="matrix(0.998772 -0.0495519 0.0493831 0.99878 103.913 227.981)" fill="url(#paint1_linear_381_9713)"/>
<path d="M127.894 35.5213C116.65 77.9674 130.198 114.43 138.378 127.355C143.408 128.203 154.988 122.879 161.068 94.8053C168.668 59.7125 173.698 32.7832 159.234 13.0892C155.318 7.75608 141.95 -17.5363 127.894 35.5213Z" fill="#686868"/>
<path d="M43.594 33.1915C32.28 82.363 70.7463 118.965 85.1891 130.326C88.6553 135.438 96.281 141.914 99.054 126.917C102.52 108.172 93.3664 77.4922 91.6333 70.6758C89.2058 61.1285 52.643 -6.13653 43.594 33.1915Z" fill="#686868"/>
<path fill-rule="evenodd" clip-rule="evenodd" d="M124.155 57.8791C120.948 91.2813 131.354 118.489 138.076 129.282C143.028 130.128 154.428 124.802 160.42 96.729C163.755 81.1004 166.588 67.0909 167.448 54.6191L124.155 57.8791ZM86.8106 60.6911C89.6553 66.1705 91.5961 70.6331 92.0917 72.6132C92.257 73.2737 92.4909 74.1584 92.7755 75.2345L92.7756 75.2351C95.4276 85.2647 102.477 111.926 99.3961 128.855C96.6666 143.851 89.1603 137.375 85.7484 132.263C74.4761 123.255 48.337 98.3782 43.5453 63.9489L86.8106 60.6911Z" fill="url(#paint2_linear_381_9713)"/>
<path d="M135.811 60.817C133.728 81.3109 138.389 109.309 140.98 120.746C156.623 67.7928 157.596 38.5221 152.718 27.2791C147.84 16.036 138.416 35.1996 135.811 60.817Z" fill="#E9B68F"/>
<path d="M54.3758 47.2415C53.0245 92.0467 78.8134 115.909 91.2001 126.658C81.0658 62.1652 70.4464 49.1408 62.9187 42.7445C56.9752 37.6942 54.9388 44.4129 54.3758 47.2415Z" fill="#E9B68F"/>
<path d="M39.2115 270.317C45.7185 250.67 79.1321 231.308 93.3663 225.168C99.4666 234.037 104.689 257.219 90.0479 270.317C74.8668 283.899 59.6852 283.398 56.111 282.832C58.4922 284.384 62.8831 293.198 55.4789 296.924C48.9718 300.198 48.7007 291.466 49.3785 286.691C48.7007 291.466 46.8506 291.57 43.8602 292.069C35.0545 293.54 38.0916 284.024 39.9117 280.603C36.81 282.314 27.3389 283.323 29.0442 276.457C30.6709 269.908 36.5002 269.635 39.2115 270.317Z" fill="#686868"/>
<path d="M230.126 213.315C211.081 205.278 174.529 217.71 160.542 224.394C163.185 234.834 177.159 254.039 196.641 251.631C216.843 249.135 226.466 237.362 228.395 234.296C227.992 237.112 231.72 246.227 239.396 243.101C246.142 240.353 239.761 234.397 235.727 231.763C240.234 233.656 246.323 236.358 247.03 227.145C247.365 222.782 242.391 220.472 239.56 219.836C242.563 218.347 247.384 212.762 241.434 209.696C235.443 206.608 231.399 210.822 230.126 213.315Z" fill="#686868"/>
<path d="M55.6756 162.271C66.3223 124.56 89.5644 111.844 107.23 108.431C167.739 98.8357 182.649 122.843 198.356 154.081C213.37 183.941 194.279 227.791 129.054 229.839C63.8288 231.886 44.4117 202.168 55.6756 162.271Z" fill="#686868"/>
<path d="M194.308 170.922C203.682 168.2 225.642 163.571 238.497 166.838" stroke="#545454" stroke-width="2" stroke-linecap="round"/>
<path d="M191.708 162.243C198.549 156.842 215.924 145.636 230.699 144.016" stroke="#545454" stroke-width="2" stroke-linecap="round"/>
<path d="M194.308 178.734C201.721 180.795 219.377 186.979 230.699 195.224" stroke="#545454" stroke-width="2" stroke-linecap="round"/>
<path d="M67.8059 196.96C61.0668 200.41 44.3539 210.62 31.4149 223.866" stroke="#545454" stroke-width="2" stroke-linecap="round"/>
<path d="M67.8059 189.149C57.5817 189.149 33.0438 190.711 16.6852 196.96" stroke="#545454" stroke-width="2" stroke-linecap="round"/>
<path d="M67.8059 178.734C59.6745 176.167 37.72 171.419 14.9523 172.959" stroke="#545454" stroke-width="2" stroke-linecap="round"/>
<path d="M42.365 266.108C61.7735 236.945 82.1025 227.483 91.6334 226.47L136.689 240.791C140.444 240.212 153.152 235.236 173.946 219.96C194.741 204.685 218.741 209.215 228.272 212.686C229.312 216.505 226.8 228.64 225.934 235.149C205.139 258.15 184.921 253.521 176.546 245.999C191.795 280.022 191.564 305.597 189.543 314.131C128.544 324.547 83.5465 318.471 68.6724 314.131C67.3413 304.131 70.9629 282.528 72.4039 280.823C66.5536 284.517 59.9833 283.602 57.4086 282.886C48.0509 277.331 44.6755 269.579 42.365 266.108Z" fill="#F3D666"/>
<path d="M72.3987 281.15C76.2111 260.667 86.4063 236.162 91.0274 226.47C82.3629 227.164 74.998 231.388 72.3987 233.413C64.0807 246.953 68.9329 270.879 72.3987 281.15Z" fill="#B3D6B0"/>
<path d="M72.5713 280.716C65.6397 249.817 69.6831 236.306 72.5713 233.413C66.6794 236.191 60.2965 241.514 57.8416 243.829C53.6826 260.84 63.0403 276.955 68.239 282.886C70.3185 282.191 71.9936 281.15 72.5713 280.716Z" fill="#B1AFC3"/>
<path d="M47.8775 253.376C51.3433 248.863 55.9644 245.131 57.8417 243.829C54.3759 259.452 63.3292 276.376 68.2391 282.886C65.1199 283.927 62.896 283.899 62.1739 283.754C50.0436 271.256 47.5887 258.294 47.8775 253.376Z" fill="#E9B68F"/>
<path d="M38.3777 269.103C41.1503 264.243 46.0002 255.546 47.8775 253.376C47.8775 266.221 57.4085 278.98 62.174 283.754C59.7479 283.754 57.9861 283.464 57.4085 283.32C47.3491 279.088 40.5438 272.575 38.3777 269.103Z" fill="#FFFEF3"/>
<path d="M136.256 239.055C131.404 239.055 116.616 232.835 111.995 229.508C103.331 228.64 95.0992 226.904 89.9005 226.036C100.298 238.187 122.826 243.395 134.523 250.338C143.88 255.893 175.679 222.998 168.748 220.828L162.249 223.866L154.884 226.47C151.419 230.81 141.108 239.055 136.256 239.055Z" fill="#EEECDD"/>
<path d="M158.35 243.829C150.379 240.357 140.588 245.275 136.689 248.169V254.678C144.487 259.018 160.17 265.874 160.516 258.584C160.863 251.293 159.217 245.709 158.35 243.829Z" fill="#9A97B6"/>
<path d="M112.861 275.942C113.901 260.32 123.403 251.496 128.024 249.036H132.594C133.782 248.831 134.895 248.862 135.822 249.036H132.594C127.864 249.853 121.959 254.412 121.959 268.565C121.959 290.697 121.959 295.037 117.194 294.603C112.428 294.169 111.562 295.471 112.861 275.942Z" fill="#B1AFC3"/>
<path d="M119.36 275.075C119.36 254.591 126.58 250.339 130.19 250.772C120.659 259.018 127.158 303.716 126.725 305.018C126.291 306.32 119.36 306.32 117.627 305.018C115.894 303.716 119.36 300.679 119.36 275.075Z" fill="#9A97B6"/>
<path d="M126.291 248.169C126.638 245.391 131.057 244.986 133.223 245.131C136.689 245.131 137.844 247.156 137.989 248.169C139.722 255.546 139.722 259.452 133.223 260.754C126.725 262.056 125.858 251.64 126.291 248.169Z" fill="#B1AFC3"/>
<path d="M168.314 221.696C169.354 222.738 174.235 238.621 176.546 246.433C177.932 248.168 181.167 249.47 182.611 249.904C185.73 240.878 186.221 221.552 186.077 213.017C181.744 213.017 167.015 220.395 168.314 221.696Z" fill="#B3D6B0"/>
<path d="M194.308 253.376C188.763 252.682 184.199 250.772 182.611 249.904C185.384 239.142 186.077 220.828 186.077 213.017C190.582 210.587 198.352 209.401 201.673 209.111C205.139 218.832 198.207 242.671 194.308 253.376Z" fill="#B1AFC3"/>
<path d="M209.038 250.772C201.76 253.55 196.185 253.666 194.308 253.376C202.626 229.421 202.684 213.885 201.673 209.112C207.218 208.07 214.381 208.388 217.269 208.678C221.428 219.093 214.67 241.225 209.038 250.772Z" fill="#E9B68F"/>
<path d="M228.272 235.153C226.193 240.361 214.092 248.024 209.038 250.772C220.128 226.817 219.146 212.728 217.269 208.677C223.854 209.025 229.255 211.963 230.266 212.686C231.999 223.536 228.272 234.719 228.272 235.153Z" fill="#FFFEF3"/>
<path d="M245.008 200.845L230.343 245.404C230.292 245.558 230.279 245.725 230.311 245.884C231.167 250.128 235.117 249.39 237.347 248.334C237.602 248.213 237.781 247.978 237.848 247.704L249.018 202.463C249.128 202.016 249.527 201.706 249.986 201.677C253.386 201.466 259.455 199.88 261.666 194.713C264.656 187.723 262.164 182.231 258.675 180.234C255.186 178.237 244.72 176.24 240.732 185.227C237.767 191.911 242.326 197.53 244.717 199.758C245.015 200.036 245.135 200.458 245.008 200.845Z" fill="#B3BAC6"/>
<path d="M239.237 222.672C240.234 221.174 243.723 220.175 245.218 223.171L245.218 226.666L243.224 229.162L243.723 233.156L241.231 233.656C235.25 232.657 237.132 225.835 239.237 222.672Z" fill="#686868"/>
<path d="M239.237 233.156C241.63 233.156 243.225 234.654 243.225 236.651C243.225 238.149 242.726 242.143 239.237 243.142C234.951 244.368 233.755 241.644 233.256 240.146C232.758 238.648 236.247 233.156 239.237 233.156Z" fill="#686868"/>
<path d="M55.7709 302.408L23.8071 268.465C23.7058 268.357 23.5376 268.343 23.4132 268.423C16.4449 272.878 8.90551 262.456 5.90082 256.484C5.85241 256.388 5.86146 256.276 5.92128 256.187L7.61318 253.656C7.69967 253.527 7.87061 253.485 8.00683 253.56L16.2213 258.092C16.5194 258.257 16.817 257.876 16.5858 257.625L10.7582 251.32C10.6386 251.191 10.6554 250.987 10.7945 250.879L12.8573 249.279C12.9593 249.2 13.1005 249.195 13.2078 249.267L20.9653 254.472C21.2343 254.652 21.5583 254.337 21.3856 254.062L17.0573 247.184C16.9714 247.047 17.0086 246.867 17.1415 246.776L18.951 245.536C19.0521 245.466 19.1836 245.464 19.2847 245.534C21.7069 247.197 26.8195 251.506 29.1861 256.382C31.4661 261.079 28.7029 264.416 26.7546 265.712C26.5841 265.825 26.5586 266.072 26.7111 266.209L60.7837 296.785C60.8528 296.847 60.8898 296.938 60.8806 297.031C60.5791 300.036 57.6804 301.866 56.0865 302.483C55.976 302.526 55.8522 302.494 55.7709 302.408Z" fill="#B3BAC6"/>
<path d="M28.9078 277.591C28.9078 273.625 31.8564 271.135 33.8498 270.612C33.8782 270.604 33.9058 270.602 33.9351 270.603C37.4357 270.781 44.0729 272.458 42.3649 277.591C39.8729 285.08 28.9078 282.112 28.9078 277.591Z" fill="#686868"/>
<path d="M41.3682 282.583C38.9758 281.785 37.547 283.249 37.3809 284.081C37.2447 284.763 36.4837 285.279 36.8825 288.075C37.3809 291.57 41.8666 293.068 44.857 293.068C47.8475 293.068 47.8475 289.573 47.3491 287.077C46.8507 284.58 44.3586 283.582 41.3682 282.583Z" fill="#686868"/>
<path d="M44.4819 297.318C42.8453 294.747 44.8229 292.574 46.0162 291.809C50.6192 290.89 52.38 292.675 52.806 296.25C53.2986 300.384 46.5277 300.532 44.4819 297.318Z" fill="#686868"/>
<path d="M244.72 215.682C245.284 212.858 244.221 210.689 240.234 209.192C237.41 212.354 233.555 219.476 236.745 220.675C240.732 222.173 244.221 218.178 244.72 215.682Z" fill="#686868"/>
<path d="M127.741 166.564C125.614 167.918 122.791 172.365 115.429 174.064C108.068 175.762 101.645 175.158 101.083 172.715C100.521 170.271 106.033 166.913 113.394 165.214C120.756 163.516 127.179 164.12 127.741 166.564Z" fill="#686868"/>
<ellipse rx="13.6783" ry="4.54053" transform="matrix(0.999937 -0.0112441 0.0112058 0.999937 149.525 163.731)" fill="#686868"/>
<path d="M154.705 142.074C142.433 139.803 136.271 151.716 136.575 159.11C136.575 174.873 160.168 169.424 164.356 165.922C169.175 161.891 170.045 144.914 154.705 142.074Z" fill="#EEECDD"/>
<path d="M99.6461 150.756C111.367 144.272 121.586 153.709 123.732 161.004C129.861 178.948 101.823 177.124 97.2654 176.241C90.7376 174.977 84.995 158.86 99.6461 150.756Z" fill="#EEECDD"/>
<path d="M104.134 173.249C106.814 174.71 108.008 174.501 111.125 174.205C113.649 173.561 116.121 173.365 117.582 171.027C120.605 166.19 117.98 159.358 112.779 157.406C108.032 155.624 100.487 159.779 100.286 165.204C100.161 168.591 100.936 171.507 104.134 173.249Z" fill="#545454"/>
<path d="M102.675 164.52C103.639 165.487 104.16 165.53 105.493 165.756C106.616 165.756 107.63 165.539 108.489 164.653C110.266 162.821 109.935 159.851 107.97 158.372C106.176 157.022 102.583 158.027 101.923 160.449C101.51 161.962 101.524 163.366 102.675 164.52Z" fill="#EEECDD"/>
<path d="M145.317 166.986C148.028 168.457 149.235 168.243 152.384 167.938C154.934 167.282 157.431 167.079 158.904 164.713C161.949 159.819 159.283 152.919 154.022 150.957C149.221 149.166 141.605 153.38 141.412 158.863C141.292 162.286 142.082 165.232 145.317 166.986Z" fill="#545454"/>
<path d="M138.288 173.322C133.366 171.645 128.034 174.021 125.983 175.418C121.881 177.514 128.034 181.706 130.085 183.802C131.725 185.479 134.87 184.501 136.237 183.802C138.972 181.007 143.211 174.999 138.288 173.322Z" fill="#E9B68F"/>
<path d="M142.547 159.527C143.511 160.494 144.033 160.537 145.366 160.763C146.489 160.763 147.503 160.546 148.362 159.66C150.139 157.828 149.808 154.858 147.843 153.379C146.049 152.03 142.456 153.034 141.796 155.457C141.383 156.969 141.397 158.373 142.547 159.527Z" fill="#EEECDD"/>
<path fill-rule="evenodd" clip-rule="evenodd" d="M143.675 185.728C144.188 185.764 144.574 186.199 144.537 186.699C144.344 189.323 141.662 194.23 133.334 195.515C124.875 196.821 118.786 191.285 116.785 188.367C116.5 187.95 116.614 187.386 117.042 187.108C117.469 186.829 118.047 186.941 118.332 187.358C120.121 189.968 125.589 194.873 133.043 193.722C140.63 192.551 142.558 188.244 142.681 186.569C142.718 186.069 143.163 185.693 143.675 185.728Z" fill="#E9B68F"/>
<path fill-rule="evenodd" clip-rule="evenodd" d="M132.309 182.765C132.84 182.627 133.389 182.916 133.537 183.409C133.93 184.715 134.395 186.841 134.531 189.025C134.665 191.165 134.498 193.557 133.439 195.25C133.162 195.693 132.552 195.843 132.076 195.586C131.601 195.328 131.439 194.761 131.716 194.318C132.462 193.125 132.671 191.207 132.541 189.132C132.415 187.101 131.978 185.107 131.618 183.907C131.47 183.414 131.779 182.903 132.309 182.765Z" fill="#E9B68F"/>
<path d="M100.855 140.499C96.7152 141.371 92.9635 143.531 90.26 145.577C89.4849 146.163 88.3346 145.408 88.8426 144.596C92.1159 139.368 97.0534 138.404 101.023 138.917C102.005 139.044 101.823 140.295 100.855 140.499Z" fill="#545454"/>
<path d="M155.798 135.703C160.062 135.981 164.142 137.661 167.16 139.38C168.025 139.873 169.052 138.912 168.418 138.143C164.329 133.194 159.256 132.942 155.38 134.08C154.422 134.362 154.801 135.638 155.798 135.703Z" fill="#545454"/>
<defs>
<linearGradient id="paint0_linear_381_9713" x1="79.1565" y1="312.132" x2="56.6288" y2="312.132" gradientUnits="userSpaceOnUse">
<stop stop-color="#545454"/>
<stop offset="1" stop-color="#686868" stop-opacity="0"/>
</linearGradient>
<linearGradient id="paint1_linear_381_9713" x1="30.326" y1="0" x2="30.326" y2="13.019" gradientUnits="userSpaceOnUse">
<stop stop-color="#545454"/>
<stop offset="1" stop-color="#686868" stop-opacity="0"/>
</linearGradient>
<linearGradient id="paint2_linear_381_9713" x1="111.897" y1="156.276" x2="104.599" y2="59.3514" gradientUnits="userSpaceOnUse">
<stop stop-color="#545454"/>
<stop offset="1" stop-color="#686868"/>
</linearGradient>
</defs>
</svg>
