<svg width="282" height="416" viewBox="0 0 282 416" fill="none" xmlns="http://www.w3.org/2000/svg">
<path d="M53.5625 355.93C58.7625 348.33 66.3959 352.763 69.5625 355.93C73.8959 357.763 79.9625 362.83 69.5625 368.43C56.5625 375.43 47.0625 365.43 53.5625 355.93Z" fill="#686868"/>
<path fill-rule="evenodd" clip-rule="evenodd" d="M69.6626 356.126C66.496 352.959 58.8626 348.526 53.6626 356.126C47.1626 365.626 56.6626 375.626 69.6626 368.626C80.0626 363.026 73.996 357.959 69.6626 356.126Z" fill="url(#paint0_linear_75_5985)"/>
<path d="M78.6094 398.355C50.239 353.364 74.6691 287.439 90.4304 260.1C110.92 227.294 147.891 184.004 177.906 257.757C218.062 356.43 192.879 386.638 187.363 403.042C189.727 404.604 193.983 408.665 192.091 412.415C189.727 417.101 144.807 417.101 140.079 412.415C136.296 408.665 138.503 385.857 140.079 374.922C134.405 376.797 126.682 375.703 123.529 374.922V412.415C123.529 417.101 83.3379 417.101 73.8811 412.415C66.3156 408.665 73.881 401.479 78.6094 398.355Z" fill="#686868"/>
<rect x="104.234" y="262.67" width="70" height="15" transform="rotate(-2.83543 104.234 262.67)" fill="url(#paint1_linear_75_5985)"/>
<path d="M131.903 40.9244C118.913 89.8282 134.541 131.832 143.979 146.721C149.785 147.696 163.152 141.56 170.177 109.215C178.958 68.7837 184.771 37.7579 168.082 15.0729C163.562 8.92975 148.14 -20.2053 131.903 40.9244Z" fill="#686868"/>
<path d="M34.6187 38.2419C21.561 94.8954 65.9561 137.067 82.6249 150.156C86.6254 156.046 95.4265 163.507 98.6269 146.229C102.627 124.632 92.0627 89.2834 90.0624 81.4298C87.2608 70.4297 45.0624 -7.07026 34.6187 38.2419Z" fill="#686868"/>
<path fill-rule="evenodd" clip-rule="evenodd" d="M127.596 66.6858C123.896 105.171 135.905 136.518 143.664 148.953C149.378 149.928 162.536 143.792 169.451 111.447C173.301 93.4406 176.571 77.2994 177.563 62.9297L127.596 66.6858ZM84.4962 69.9257C87.7795 76.2391 90.0195 81.3809 90.5914 83.6623C90.7822 84.4234 91.0522 85.4428 91.3807 86.6828L91.3808 86.6832C94.4415 98.2388 102.578 128.958 99.0217 148.462C95.8715 165.74 87.2083 158.279 83.2704 152.388C70.2607 142.01 40.0926 113.347 34.5625 73.6793L84.4962 69.9257Z" fill="url(#paint2_linear_75_5985)"/>
<path d="M141.05 70.0707C138.645 93.6829 144.025 125.941 147.016 139.119C165.069 78.108 166.193 44.3835 160.562 31.4297C154.932 18.4759 144.056 40.5555 141.05 70.0707Z" fill="#E9B68F"/>
<path d="M47.0624 54.4297C45.5029 106.053 75.2666 133.545 89.5624 145.93C77.8661 71.6242 65.61 56.6181 56.922 49.2484C50.0624 43.4297 47.7121 51.1707 47.0624 54.4297Z" fill="#E9B68F"/>
<path d="M29.5607 311.449C37.0707 288.812 75.6344 266.504 92.0625 259.43C99.103 269.648 105.13 296.357 88.2326 311.449C70.7117 327.097 53.1901 326.52 49.065 325.868C51.8132 327.655 56.8809 337.81 48.3355 342.104C40.8255 345.876 40.5125 335.815 41.2948 330.313C40.5125 335.815 37.0705 344.933 29.5607 337.387C24.3491 332.151 24.9243 327.641 26.4672 325.069C22.4685 325.935 16.1993 325.062 17.8264 318.523C19.7039 310.977 26.4316 310.663 29.5607 311.449Z" fill="#686868"/>
<path d="M249.535 245.221C227.555 235.961 185.37 250.284 169.226 257.986C172.277 270.014 188.405 292.141 210.89 289.368C234.205 286.492 245.311 272.927 247.538 269.394C247.072 272.639 251.375 283.141 260.234 279.539C268.02 276.373 260.656 269.511 256 266.476C260.656 269.511 269.783 272.927 269.052 262.306C268.545 254.935 264.772 252.398 261.821 251.864C265.106 249.426 268.579 244.134 262.587 241.051C255.673 237.494 251.005 242.349 249.535 245.221Z" fill="#686868"/>
<path d="M48.5625 186.962C60.8502 143.513 87.6746 128.861 108.062 124.93C177.899 113.874 195.107 141.535 213.234 177.526C230.562 211.93 208.529 262.452 133.251 264.811C57.9723 267.17 35.5625 232.93 48.5625 186.962Z" fill="#686868"/>
<path d="M159.522 161.234C146.019 158.796 139.24 171.58 139.574 179.513C139.574 196.427 165.533 190.581 170.14 186.822C175.442 182.497 176.4 164.28 159.522 161.234Z" fill="#EEECDD"/>
<path d="M208.562 196.93C219.381 193.793 244.726 188.46 259.562 192.224" stroke="#545454" stroke-width="2" stroke-linecap="round"/>
<path d="M205.562 186.93C213.457 180.708 233.51 167.796 250.563 165.93" stroke="#545454" stroke-width="2" stroke-linecap="round"/>
<path d="M208.562 205.93C217.118 208.305 237.496 215.43 250.562 224.93" stroke="#545454" stroke-width="2" stroke-linecap="round"/>
<path d="M62.5625 226.93C54.7847 230.904 35.4958 242.668 20.5625 257.93" stroke="#545454" stroke-width="2" stroke-linecap="round"/>
<path d="M62.5625 217.93C50.7625 217.93 22.4425 219.73 3.5625 226.93" stroke="#545454" stroke-width="2" stroke-linecap="round"/>
<path d="M62.5625 205.93C53.1779 202.973 27.8394 197.502 1.5625 199.276" stroke="#545454" stroke-width="2" stroke-linecap="round"/>
<path d="M29.0625 306.43C51.4625 272.83 79.0625 262.096 90.0625 260.93L142.062 277.43C146.396 276.763 161.062 271.03 185.062 253.43C209.062 235.83 237.062 239.43 248.062 243.43C249.262 247.83 246.062 263.43 245.062 270.93C221.062 297.43 197.729 292.096 188.062 283.43C205.663 322.63 205.396 352.096 203.062 361.93C132.662 373.93 80.7292 366.93 63.5625 361.93C62.0262 350.408 66.2059 325.518 67.8691 323.553C61.1171 327.81 53.5341 326.755 50.5625 325.93C39.7625 319.53 31.7292 310.43 29.0625 306.43Z" fill="#F3D666"/>
<path d="M99.7896 170.133C112.552 163.085 123.68 173.344 126.016 181.273C132.69 200.779 102.16 198.796 97.1973 197.837C90.0894 196.463 83.8363 178.943 99.7896 170.133Z" fill="#EEECDD"/>
<path d="M104.676 194.584C107.594 196.171 108.895 195.945 112.288 195.623C115.037 194.922 117.728 194.709 119.319 192.168C122.611 186.91 119.752 179.484 114.089 177.362C108.92 175.425 100.705 179.941 100.486 185.838C100.35 189.521 101.194 192.69 104.676 194.584Z" fill="#545454"/>
<path d="M102.69 185.537C103.778 186.627 104.366 186.676 105.87 186.93C107.138 186.93 108.282 186.686 109.251 185.688C111.257 183.623 110.883 180.277 108.666 178.611C106.642 177.09 102.587 178.222 101.841 180.951C101.375 182.656 101.391 184.237 102.69 185.537Z" fill="#EEECDD"/>
<path d="M149.52 187.776C152.472 189.375 153.786 189.143 157.215 188.811C159.991 188.098 162.711 187.877 164.314 185.305C167.63 179.985 164.726 172.485 158.999 170.352C153.771 168.405 145.477 172.986 145.268 178.946C145.137 182.668 145.997 185.869 149.52 187.776Z" fill="#545454"/>
<path d="M67.8632 323.93C72.2632 300.33 84.0298 272.096 89.3632 260.93C79.3632 261.73 70.8632 266.596 67.8632 268.93C58.2632 284.53 63.8632 312.096 67.8632 323.93Z" fill="#B3D6B0"/>
<path d="M68.0626 323.43C60.0626 287.83 64.7293 272.263 68.0626 268.93C61.2626 272.13 53.8959 278.263 51.0626 280.93C46.2626 300.53 57.0626 319.096 63.0626 325.93C65.4626 325.13 67.3959 323.93 68.0626 323.43Z" fill="#B1AFC3"/>
<path d="M39.5626 291.93C43.5626 286.73 48.8959 282.43 51.0626 280.93C47.0626 298.93 57.3959 318.43 63.0626 325.93C59.4626 327.13 56.8959 327.096 56.0626 326.93C42.0626 312.53 39.2293 297.596 39.5626 291.93Z" fill="#E9B68F"/>
<path d="M29.0625 306.43C32.2625 300.83 37.3958 294.43 39.5625 291.93C39.5625 306.73 50.5625 321.43 56.0625 326.93C53.2625 326.93 51.2292 326.596 50.5625 326.43C39.3625 320.03 31.5625 310.43 29.0625 306.43Z" fill="#FFFEF3"/>
<path d="M141.562 275.43C135.963 275.43 118.896 268.263 113.562 264.43C103.562 263.43 94.0625 261.43 88.0625 260.43C100.062 274.43 126.062 280.43 139.562 288.43C150.362 294.83 187.062 256.93 179.062 254.43L171.562 257.93L163.062 260.93C159.062 265.93 147.162 275.43 141.562 275.43Z" fill="#EEECDD"/>
<path d="M167.062 280.93C157.863 276.93 146.562 282.596 142.062 285.93V293.43C151.062 298.43 169.163 306.33 169.562 297.93C169.962 289.53 168.062 283.096 167.062 280.93Z" fill="#9A97B6"/>
<path d="M114.562 317.93C115.762 299.93 126.729 289.763 132.062 286.93H137.337C138.707 286.694 139.992 286.729 141.062 286.93H137.337C131.878 287.871 125.062 293.124 125.062 309.43C125.062 334.93 125.062 339.93 119.562 339.43C114.062 338.93 113.062 340.43 114.562 317.93Z" fill="#B1AFC3"/>
<path d="M122.062 316.93C122.062 293.33 130.396 288.43 134.562 288.93C123.562 298.43 131.062 349.93 130.562 351.43C130.062 352.93 122.062 352.93 120.062 351.43C118.062 349.93 122.062 346.43 122.062 316.93Z" fill="#9A97B6"/>
<path d="M130.063 285.93C130.463 282.73 135.563 282.263 138.063 282.43C142.063 282.43 143.396 284.763 143.563 285.93C145.563 294.43 145.563 298.93 138.063 300.43C130.563 301.93 129.563 289.93 130.063 285.93Z" fill="#B1AFC3"/>
<path d="M142.008 194.555C136.453 192.736 130.434 195.313 128.12 196.829C123.49 199.103 130.434 203.651 132.749 205.925C134.601 207.744 138.15 206.683 139.693 205.925C142.779 202.893 147.563 196.375 142.008 194.555Z" fill="#E9B68F"/>
<path d="M146.69 179.537C147.778 180.627 148.366 180.676 149.87 180.93C151.138 180.93 152.282 180.686 153.251 179.688C155.257 177.623 154.883 174.277 152.666 172.611C150.642 171.09 146.587 172.222 145.841 174.951C145.375 176.656 145.391 178.237 146.69 179.537Z" fill="#EEECDD"/>
<path d="M119.562 210.353C121.599 213.399 127.81 219.151 136.362 217.797C144.915 216.444 147.393 211.368 147.562 209" stroke="#E9B68F" stroke-width="2" stroke-linecap="round"/>
<path d="M178.563 255.43C179.763 256.63 185.396 274.93 188.063 283.93C189.663 285.93 193.396 287.43 195.063 287.93C198.663 277.53 199.229 255.263 199.063 245.43C194.063 245.43 177.063 253.93 178.563 255.43Z" fill="#B3D6B0"/>
<path d="M208.562 291.93C202.162 291.13 196.896 288.93 195.062 287.93C198.263 275.53 199.062 254.43 199.062 245.43C204.262 242.63 213.229 241.263 217.062 240.93C221.062 252.13 213.062 279.596 208.562 291.93Z" fill="#B1AFC3"/>
<path d="M225.562 288.93C217.163 292.13 210.729 292.263 208.562 291.93C218.163 264.33 218.229 246.43 217.062 240.93C223.462 239.73 231.729 240.096 235.062 240.43C239.862 252.43 232.062 277.93 225.562 288.93Z" fill="#E9B68F"/>
<path d="M246.062 271.93C243.663 277.93 231.396 285.763 225.562 288.93C238.363 261.33 237.229 245.096 235.062 240.43C242.663 240.83 246.896 242.596 248.062 243.43C250.062 255.93 246.062 271.43 246.062 271.93Z" fill="#FFFEF3"/>
<path d="M135.562 206C136.317 208.703 137.374 214.886 135.562 218" stroke="#E9B68F" stroke-width="2" stroke-linecap="round"/>
<path d="M100.717 158.952C96.1727 159.951 92.0542 162.425 89.0863 164.768C88.2355 165.44 86.9727 164.575 87.5304 163.645C91.1237 157.656 96.544 156.552 100.902 157.139C101.98 157.285 101.78 158.718 100.717 158.952Z" fill="#545454"/>
<path d="M160.932 153.768C165.575 154.071 170.019 155.898 173.305 157.768C174.247 158.304 175.366 157.259 174.675 156.423C170.221 151.043 164.696 150.768 160.477 152.004C159.433 152.31 159.846 153.697 160.932 153.768Z" fill="#545454"/>
<defs>
<linearGradient id="paint0_linear_75_5985" x1="75.6627" y1="359.626" x2="49.6627" y2="359.626" gradientUnits="userSpaceOnUse">
<stop stop-color="#545454"/>
<stop offset="1" stop-color="#686868" stop-opacity="0"/>
</linearGradient>
<linearGradient id="paint1_linear_75_5985" x1="139.234" y1="262.67" x2="139.234" y2="277.67" gradientUnits="userSpaceOnUse">
<stop stop-color="#545454"/>
<stop offset="1" stop-color="#686868" stop-opacity="0"/>
</linearGradient>
<linearGradient id="paint2_linear_75_5985" x1="113.45" y1="180.055" x2="105.055" y2="68.3802" gradientUnits="userSpaceOnUse">
<stop stop-color="#545454"/>
<stop offset="1" stop-color="#686868"/>
</linearGradient>
</defs>
</svg>
