<svg width="24" height="74" viewBox="0 0 24 74" fill="none" xmlns="http://www.w3.org/2000/svg">
<path d="M9.56931 24.1746L8.2548 71.1438C8.25027 71.3057 8.28558 71.4702 8.36181 71.6132C10.4023 75.4398 13.9878 73.5959 15.8283 71.9416C16.0382 71.753 16.142 71.4767 16.1284 71.1948L13.8878 24.5737C13.8657 24.1144 14.1587 23.7028 14.5903 23.5442C17.7972 22.3657 23.1788 19.0997 23.8218 13.505C24.6913 5.93903 20.7208 1.38547 16.7946 0.471665C12.8684 -0.442142 2.23546 0.648873 0.980653 10.4175C0.0473318 17.6833 6.04173 21.7655 8.979 23.2162C9.34455 23.3968 9.58071 23.7671 9.56931 24.1746Z" fill="#B3BAC6"/>
</svg>
